<?xml version="1.0" encoding="UTF-8" standalone="no"?>
<!DOCTYPE svg PUBLIC "-//W3C//DTD SVG 1.1//EN"
 "http://www.w3.org/Graphics/SVG/1.1/DTD/svg11.dtd">
<!-- Generated by graphviz version 2.40.1 (20161225.0304)
 -->
<!-- Title: metadata Pages: 1 -->
<svg width="250pt" height="348pt"
 viewBox="0.00 0.00 250.00 348.00" xmlns="http://www.w3.org/2000/svg" xmlns:xlink="http://www.w3.org/1999/xlink">
<g id="graph0" class="graph" transform="scale(1 1) rotate(0) translate(4 344)">
<title>metadata</title>
<polygon fill="#ffffff" stroke="transparent" points="-4,4 -4,-344 246,-344 246,4 -4,4"/>
<!-- metadata -->
<g id="node1" class="node">
<title>metadata</title>
<g id="a_node1"><a xlink:href="../../tables/metadata.html" xlink:title="metadata" target="_top">
<polygon fill="#ffffff" stroke="transparent" points="8,-4 8,-336 234,-336 234,-4 8,-4"/>
<polygon fill="#f5f5f5" stroke="transparent" points="10,-311 10,-334 232,-334 232,-311 10,-311"/>
<polygon fill="none" stroke="#000000" points="10,-311 10,-334 232,-334 232,-311 10,-311"/>
<text text-anchor="start" x="15" y="-320.1" font-family="Helvetica,sans-Serif" font-weight="bold" font-size="11.00" fill="#000000">metadata</text>
<text text-anchor="start" x="197.0437" y="-319.1" font-family="Helvetica,sans-Serif" font-size="11.00" fill="#000000">[table]</text>
<polygon fill="none" stroke="#000000" points="10,-289 10,-311 142,-311 142,-289 10,-289"/>
<image xlink:href="../../images/primaryKeys.png" width="11px" height="12px" preserveAspectRatio="xMinYMin meet" x="15" y="-306"/>
<text text-anchor="start" x="30" y="-296.1" font-family="Helvetica,sans-Serif" font-size="11.00" fill="#000000">field</text>
<polygon fill="none" stroke="#000000" points="142,-289 142,-311 232,-311 232,-289 142,-289"/>
<text text-anchor="start" x="144.5042" y="-296.7" font-family="Helvetica,sans-Serif" font-size="11.00" fill="#000000">text[2147483647]</text>
<polygon fill="none" stroke="#000000" points="10,-267 10,-289 142,-289 142,-267 10,-267"/>
<text text-anchor="start" x="30" y="-274.1" font-family="Helvetica,sans-Serif" font-size="11.00" fill="#000000">source_name</text>
<polygon fill="none" stroke="#000000" points="142,-267 142,-289 232,-289 232,-267 142,-267"/>
<text text-anchor="start" x="144.5042" y="-274.7" font-family="Helvetica,sans-Serif" font-size="11.00" fill="#000000">text[2147483647]</text>
<polygon fill="none" stroke="#000000" points="10,-245 10,-267 142,-267 142,-245 10,-245"/>
<text text-anchor="start" x="30" y="-252.1" font-family="Helvetica,sans-Serif" font-size="11.00" fill="#000000">order</text>
<polygon fill="none" stroke="#000000" points="142,-245 142,-267 232,-267 232,-245 142,-245"/>
<text text-anchor="start" x="145" y="-252.7" font-family="Helvetica,sans-Serif" font-size="11.00" fill="#000000">float8[17,17]</text>
<polygon fill="none" stroke="#000000" points="10,-223 10,-245 142,-245 142,-223 10,-223"/>
<text text-anchor="start" x="30" y="-230.1" font-family="Helvetica,sans-Serif" font-size="11.00" fill="#000000">display_name</text>
<polygon fill="none" stroke="#000000" points="142,-223 142,-245 232,-245 232,-223 142,-223"/>
<text text-anchor="start" x="144.5042" y="-230.7" font-family="Helvetica,sans-Serif" font-size="11.00" fill="#000000">text[2147483647]</text>
<polygon fill="none" stroke="#000000" points="10,-201 10,-223 142,-223 142,-201 10,-201"/>
<text text-anchor="start" x="30" y="-208.1" font-family="Helvetica,sans-Serif" font-size="11.00" fill="#000000">colgroup</text>
<polygon fill="none" stroke="#000000" points="142,-201 142,-223 232,-223 232,-201 142,-201"/>
<text text-anchor="start" x="144.5042" y="-208.7" font-family="Helvetica,sans-Serif" font-size="11.00" fill="#000000">text[2147483647]</text>
<polygon fill="none" stroke="#000000" points="10,-179 10,-201 142,-201 142,-179 10,-179"/>
<text text-anchor="start" x="30" y="-186.1" font-family="Helvetica,sans-Serif" font-size="11.00" fill="#000000">definition</text>
<polygon fill="none" stroke="#000000" points="142,-179 142,-201 232,-201 232,-179 142,-179"/>
<text text-anchor="start" x="144.5042" y="-186.7" font-family="Helvetica,sans-Serif" font-size="11.00" fill="#000000">text[2147483647]</text>
<polygon fill="none" stroke="#000000" points="10,-157 10,-179 142,-179 142,-157 10,-157"/>
<text text-anchor="start" x="30" y="-164.1" font-family="Helvetica,sans-Serif" font-size="11.00" fill="#000000">possible_values</text>
<polygon fill="none" stroke="#000000" points="142,-157 142,-179 232,-179 232,-157 142,-157"/>
<text text-anchor="start" x="144.5042" y="-164.7" font-family="Helvetica,sans-Serif" font-size="11.00" fill="#000000">text[2147483647]</text>
<polygon fill="none" stroke="#000000" points="10,-135 10,-157 142,-157 142,-135 10,-135"/>
<text text-anchor="start" x="30" y="-142.1" font-family="Helvetica,sans-Serif" font-size="11.00" fill="#000000">notes</text>
<polygon fill="none" stroke="#000000" points="142,-135 142,-157 232,-157 232,-135 142,-135"/>
<text text-anchor="start" x="144.5042" y="-142.7" font-family="Helvetica,sans-Serif" font-size="11.00" fill="#000000">text[2147483647]</text>
<polygon fill="none" stroke="#000000" points="10,-113 10,-135 142,-135 142,-113 10,-113"/>
<text text-anchor="start" x="30" y="-120.1" font-family="Helvetica,sans-Serif" font-size="11.00" fill="#000000">export</text>
<polygon fill="none" stroke="#000000" points="142,-113 142,-135 232,-135 232,-113 142,-113"/>
<text text-anchor="start" x="145" y="-120.7" font-family="Helvetica,sans-Serif" font-size="11.00" fill="#000000">bool[1]</text>
<polygon fill="none" stroke="#000000" points="10,-91 10,-113 142,-113 142,-91 10,-91"/>
<image xlink:href="../../images/primaryKeys.png" width="11px" height="12px" preserveAspectRatio="xMinYMin meet" x="15" y="-108"/>
<text text-anchor="start" x="30" y="-98.1" font-family="Helvetica,sans-Serif" font-size="11.00" fill="#000000">entity_name</text>
<polygon fill="none" stroke="#000000" points="142,-91 142,-113 232,-113 232,-91 142,-91"/>
<text text-anchor="start" x="144.5042" y="-98.7" font-family="Helvetica,sans-Serif" font-size="11.00" fill="#000000">text[2147483647]</text>
<polygon fill="none" stroke="#000000" points="10,-69 10,-91 142,-91 142,-69 10,-69"/>
<image xlink:href="../../images/primaryKeys.png" width="11px" height="12px" preserveAspectRatio="xMinYMin meet" x="15" y="-86"/>
<text text-anchor="start" x="30" y="-76.1" font-family="Helvetica,sans-Serif" font-size="11.00" fill="#000000">linked_entity_name</text>
<polygon fill="none" stroke="#000000" points="142,-69 142,-91 232,-91 232,-69 142,-69"/>
<text text-anchor="start" x="144.5042" y="-76.7" font-family="Helvetica,sans-Serif" font-size="11.00" fill="#000000">text[2147483647]</text>
<polygon fill="none" stroke="#000000" points="10,-47 10,-69 142,-69 142,-47 10,-47"/>
<text text-anchor="start" x="30" y="-54.1" font-family="Helvetica,sans-Serif" font-size="11.00" fill="#000000">type</text>
<polygon fill="none" stroke="#000000" points="142,-47 142,-69 232,-69 232,-47 142,-47"/>
<text text-anchor="start" x="144.5042" y="-54.7" font-family="Helvetica,sans-Serif" font-size="11.00" fill="#000000">text[2147483647]</text>
<polygon fill="none" stroke="#000000" points="10,-25 10,-47 142,-47 142,-25 10,-25"/>
<text text-anchor="start" x="30" y="-32.1" font-family="Helvetica,sans-Serif" font-size="11.00" fill="#000000">definition_short</text>
<polygon fill="none" stroke="#000000" points="142,-25 142,-47 232,-47 232,-25 142,-25"/>
<text text-anchor="start" x="144.5042" y="-32.7" font-family="Helvetica,sans-Serif" font-size="11.00" fill="#000000">text[2147483647]</text>
<polygon fill="#ffffff" stroke="transparent" points="10,-6 10,-25 64,-25 64,-6 10,-6"/>
<polygon fill="none" stroke="#000000" points="10,-6 10,-25 64,-25 64,-6 10,-6"/>
<text text-anchor="start" x="13" y="-12.1" font-family="Helvetica,sans-Serif" font-size="11.00" fill="#000000">&lt; 0</text>
<polygon fill="#ffffff" stroke="transparent" points="64,-6 64,-25 142,-25 142,-6 64,-6"/>
<polygon fill="none" stroke="#000000" points="64,-6 64,-25 142,-25 142,-6 64,-6"/>
<text text-anchor="start" x="100.4956" y="-12.1" font-family="Helvetica,sans-Serif" font-size="11.00" fill="#000000">33 rows</text>
<polygon fill="#ffffff" stroke="transparent" points="142,-6 142,-25 232,-25 232,-6 142,-6"/>
<polygon fill="none" stroke="#000000" points="142,-6 142,-25 232,-25 232,-6 142,-6"/>
<text text-anchor="start" x="213.4053" y="-12.1" font-family="Helvetica,sans-Serif" font-size="11.00" fill="#000000">0 &gt;</text>
<polygon fill="none" stroke="#000000" stroke-width="2" points="9,-5 9,-335 233,-335 233,-5 9,-5"/>
</a>
</g>
</g>
</g>
</svg>
