<?xml version="1.0" encoding="UTF-8" standalone="no"?>
<!DOCTYPE svg PUBLIC "-//W3C//DTD SVG 1.1//EN"
 "http://www.w3.org/Graphics/SVG/1.1/DTD/svg11.dtd">
<!-- Generated by graphviz version 2.40.1 (20161225.0304)
 -->
<!-- Title: twoDegreesRelationshipsDiagram Pages: 1 -->
<svg width="689pt" height="879pt"
 viewBox="0.00 0.00 689.00 878.70" xmlns="http://www.w3.org/2000/svg" xmlns:xlink="http://www.w3.org/1999/xlink">
<g id="graph0" class="graph" transform="scale(1 1) rotate(0) translate(4 874.7)">
<title>twoDegreesRelationshipsDiagram</title>
<polygon fill="#ffffff" stroke="transparent" points="-4,4 -4,-874.7 685,-874.7 685,4 -4,4"/>
<text text-anchor="middle" x="72.4936" y="-7.3" font-family="Helvetica,sans-Serif" font-size="11.00" fill="#000000">Generated by SchemaSpy</text>
<!-- authors_to_items -->
<g id="node1" class="node">
<title>authors_to_items</title>
<g id="a_node1"><a xlink:href="../../tables/authors_to_items.html" xlink:title="authors_to_items" target="_top">
<polygon fill="#ffffff" stroke="transparent" points="506,-776.7 506,-866.7 673,-866.7 673,-776.7 506,-776.7"/>
<polygon fill="#f5f5f5" stroke="transparent" points="508.5,-841.7 508.5,-864.7 671.5,-864.7 671.5,-841.7 508.5,-841.7"/>
<polygon fill="none" stroke="#000000" points="508.5,-841.7 508.5,-864.7 671.5,-864.7 671.5,-841.7 508.5,-841.7"/>
<text text-anchor="start" x="513.5" y="-850.8" font-family="Helvetica,sans-Serif" font-weight="bold" font-size="11.00" fill="#000000">authors_to_items</text>
<text text-anchor="start" x="636.5437" y="-849.8" font-family="Helvetica,sans-Serif" font-size="11.00" fill="#000000">[table]</text>
<polygon fill="none" stroke="#000000" points="508.5,-819.7 508.5,-841.7 629.5,-841.7 629.5,-819.7 508.5,-819.7"/>
<image xlink:href="../../images/primaryKeys.png" width="11px" height="12px" preserveAspectRatio="xMinYMin meet" x="513.5" y="-836.7"/>
<text text-anchor="start" x="528.5" y="-826.8" font-family="Helvetica,sans-Serif" font-size="11.00" fill="#000000">author</text>
<polygon fill="none" stroke="#000000" points="629.5,-819.7 629.5,-841.7 671.5,-841.7 671.5,-819.7 629.5,-819.7"/>
<text text-anchor="start" x="632.4644" y="-827.4" font-family="Helvetica,sans-Serif" font-size="11.00" fill="#000000">int4[10]</text>
<polygon fill="none" stroke="#000000" points="508.5,-797.7 508.5,-819.7 629.5,-819.7 629.5,-797.7 508.5,-797.7"/>
<image xlink:href="../../images/primaryKeys.png" width="11px" height="12px" preserveAspectRatio="xMinYMin meet" x="513.5" y="-814.7"/>
<text text-anchor="start" x="528.5" y="-804.8" font-family="Helvetica,sans-Serif" font-size="11.00" fill="#000000">item</text>
<polygon fill="none" stroke="#000000" points="629.5,-797.7 629.5,-819.7 671.5,-819.7 671.5,-797.7 629.5,-797.7"/>
<text text-anchor="start" x="632.4644" y="-805.4" font-family="Helvetica,sans-Serif" font-size="11.00" fill="#000000">int4[10]</text>
<polygon fill="#ffffff" stroke="transparent" points="508.5,-778.7 508.5,-797.7 549.5,-797.7 549.5,-778.7 508.5,-778.7"/>
<polygon fill="none" stroke="#000000" points="508.5,-778.7 508.5,-797.7 549.5,-797.7 549.5,-778.7 508.5,-778.7"/>
<text text-anchor="start" x="511.5" y="-784.8" font-family="Helvetica,sans-Serif" font-size="11.00" fill="#000000">&lt; 2</text>
<polygon fill="#ffffff" stroke="transparent" points="549.5,-778.7 549.5,-797.7 629.5,-797.7 629.5,-778.7 549.5,-778.7"/>
<polygon fill="none" stroke="#000000" points="549.5,-778.7 549.5,-797.7 629.5,-797.7 629.5,-778.7 549.5,-778.7"/>
<text text-anchor="start" x="572.7089" y="-784.8" font-family="Helvetica,sans-Serif" font-size="11.00" fill="#000000">2,850 rows</text>
<polygon fill="#ffffff" stroke="transparent" points="629.5,-778.7 629.5,-797.7 671.5,-797.7 671.5,-778.7 629.5,-778.7"/>
<polygon fill="none" stroke="#000000" points="629.5,-778.7 629.5,-797.7 671.5,-797.7 671.5,-778.7 629.5,-778.7"/>
<text text-anchor="start" x="652.9053" y="-784.8" font-family="Helvetica,sans-Serif" font-size="11.00" fill="#000000">0 &gt;</text>
<polygon fill="none" stroke="#000000" stroke-width="2" points="507,-777.7 507,-865.7 672,-865.7 672,-777.7 507,-777.7"/>
</a>
</g>
</g>
<!-- author -->
<g id="node2" class="node">
<title>author</title>
<g id="a_node2"><a xlink:href="../../tables/author.html" xlink:title="author" target="_top">
<polygon fill="#ffffff" stroke="transparent" points="182,-782.2 182,-865.2 419,-865.2 419,-782.2 182,-782.2"/>
<polygon fill="#f5f5f5" stroke="transparent" points="182.5,-841.7 182.5,-864.7 419.5,-864.7 419.5,-841.7 182.5,-841.7"/>
<polygon fill="none" stroke="#000000" points="182.5,-841.7 182.5,-864.7 419.5,-864.7 419.5,-841.7 182.5,-841.7"/>
<text text-anchor="start" x="187.5" y="-850.8" font-family="Helvetica,sans-Serif" font-weight="bold" font-size="11.00" fill="#000000">author</text>
<text text-anchor="start" x="384.5437" y="-849.8" font-family="Helvetica,sans-Serif" font-size="11.00" fill="#000000">[table]</text>
<polygon fill="none" stroke="#000000" points="182.5,-819.7 182.5,-841.7 419.5,-841.7 419.5,-819.7 182.5,-819.7"/>
<image xlink:href="../../images/primaryKeys.png" width="11px" height="12px" preserveAspectRatio="xMinYMin meet" x="187.5" y="-836.7"/>
<text text-anchor="start" x="202.5" y="-826.8" font-family="Helvetica,sans-Serif" font-size="11.00" fill="#000000">id</text>
<polygon fill="none" stroke="#000000" points="182.5,-800.7 182.5,-819.7 419.5,-819.7 419.5,-800.7 182.5,-800.7"/>
<text text-anchor="start" x="185.5" y="-806.8" font-family="Helvetica,sans-Serif" font-size="11.00" fill="#000000">...</text>
<polygon fill="#ffffff" stroke="transparent" points="182.5,-781.7 182.5,-800.7 271.5,-800.7 271.5,-781.7 182.5,-781.7"/>
<polygon fill="none" stroke="#000000" points="182.5,-781.7 182.5,-800.7 271.5,-800.7 271.5,-781.7 182.5,-781.7"/>
<text text-anchor="start" x="185.5" y="-787.8" font-family="Helvetica,sans-Serif" font-size="11.00" fill="#000000"> &#160;</text>
<polygon fill="#ffffff" stroke="transparent" points="271.5,-781.7 271.5,-800.7 359.5,-800.7 359.5,-781.7 271.5,-781.7"/>
<polygon fill="none" stroke="#000000" points="271.5,-781.7 271.5,-800.7 359.5,-800.7 359.5,-781.7 271.5,-781.7"/>
<text text-anchor="start" x="311.8807" y="-787.8" font-family="Helvetica,sans-Serif" font-size="11.00" fill="#000000">381 rows</text>
<polygon fill="#ffffff" stroke="transparent" points="359.5,-781.7 359.5,-800.7 419.5,-800.7 419.5,-781.7 359.5,-781.7"/>
<polygon fill="none" stroke="#000000" points="359.5,-781.7 359.5,-800.7 419.5,-800.7 419.5,-781.7 359.5,-781.7"/>
<text text-anchor="start" x="400.9053" y="-787.8" font-family="Helvetica,sans-Serif" font-size="11.00" fill="#000000">1 &gt;</text>
</a>
</g>
</g>
<!-- authors_to_items&#45;&gt;author -->
<g id="edge1" class="edge">
<title>authors_to_items:w&#45;&gt;author:e</title>
<path fill="none" stroke="#000000" d="M493.788,-830.7C465.6859,-830.7 453.6476,-830.7 419.5,-830.7"/>
<polygon fill="#000000" stroke="#000000" points="500.5,-830.7001 508.5,-834.3 504.5,-830.7 508.5,-830.7 508.5,-830.7 508.5,-830.7 504.5,-830.7 508.5,-827.1 500.5,-830.7001 500.5,-830.7001"/>
<ellipse fill="none" stroke="#000000" cx="497.3" cy="-830.7001" rx="3.2" ry="3.2"/>
</g>
<!-- item -->
<g id="node3" class="node">
<title>item</title>
<g id="a_node3"><a xlink:href="../../tables/item.html" xlink:title="item" target="_top">
<polygon fill="#ffffff" stroke="transparent" points="144,-301.2 144,-428.2 457,-428.2 457,-301.2 144,-301.2"/>
<polygon fill="#f5f5f5" stroke="transparent" points="144.5,-404.7 144.5,-427.7 457.5,-427.7 457.5,-404.7 144.5,-404.7"/>
<polygon fill="none" stroke="#000000" points="144.5,-404.7 144.5,-427.7 457.5,-427.7 457.5,-404.7 144.5,-404.7"/>
<text text-anchor="start" x="149.5" y="-413.8" font-family="Helvetica,sans-Serif" font-weight="bold" font-size="11.00" fill="#000000">item</text>
<text text-anchor="start" x="422.5437" y="-412.8" font-family="Helvetica,sans-Serif" font-size="11.00" fill="#000000">[table]</text>
<polygon fill="none" stroke="#000000" points="144.5,-382.7 144.5,-404.7 457.5,-404.7 457.5,-382.7 144.5,-382.7"/>
<image xlink:href="../../images/primaryKeys.png" width="11px" height="12px" preserveAspectRatio="xMinYMin meet" x="149.5" y="-399.7"/>
<text text-anchor="start" x="164.5" y="-389.8" font-family="Helvetica,sans-Serif" font-size="11.00" fill="#000000">id</text>
<polygon fill="#ffffff" stroke="transparent" points="144.5,-360.7 144.5,-382.7 457.5,-382.7 457.5,-360.7 144.5,-360.7"/>
<polygon fill="none" stroke="#000000" points="144.5,-360.7 144.5,-382.7 457.5,-382.7 457.5,-360.7 144.5,-360.7"/>
<image xlink:href="../../images/foreignKeys.png" width="11px" height="12px" preserveAspectRatio="xMinYMin meet" x="149.5" y="-377.7"/>
<text text-anchor="start" x="164.5" y="-367.8" font-family="Helvetica,sans-Serif" font-size="11.00" fill="#000000">field_relationship</text>
<polygon fill="#ffffff" stroke="transparent" points="144.5,-338.7 144.5,-360.7 457.5,-360.7 457.5,-338.7 144.5,-338.7"/>
<polygon fill="none" stroke="#000000" points="144.5,-338.7 144.5,-360.7 457.5,-360.7 457.5,-338.7 144.5,-338.7"/>
<image xlink:href="../../images/foreignKeys.png" width="11px" height="12px" preserveAspectRatio="xMinYMin meet" x="149.5" y="-355.7"/>
<text text-anchor="start" x="164.5" y="-345.8" font-family="Helvetica,sans-Serif" font-size="11.00" fill="#000000">geo_specificity</text>
<polygon fill="none" stroke="#000000" points="144.5,-319.7 144.5,-338.7 457.5,-338.7 457.5,-319.7 144.5,-319.7"/>
<text text-anchor="start" x="147.5" y="-325.8" font-family="Helvetica,sans-Serif" font-size="11.00" fill="#000000">...</text>
<polygon fill="#ffffff" stroke="transparent" points="144.5,-300.7 144.5,-319.7 268.5,-319.7 268.5,-300.7 144.5,-300.7"/>
<polygon fill="none" stroke="#000000" points="144.5,-300.7 144.5,-319.7 268.5,-319.7 268.5,-300.7 144.5,-300.7"/>
<text text-anchor="start" x="147.5" y="-306.8" font-family="Helvetica,sans-Serif" font-size="11.00" fill="#000000">&lt; 2</text>
<polygon fill="#ffffff" stroke="transparent" points="268.5,-300.7 268.5,-319.7 378.5,-319.7 378.5,-300.7 268.5,-300.7"/>
<polygon fill="none" stroke="#000000" points="268.5,-300.7 268.5,-319.7 378.5,-319.7 378.5,-300.7 268.5,-300.7"/>
<text text-anchor="start" x="321.7089" y="-306.8" font-family="Helvetica,sans-Serif" font-size="11.00" fill="#000000">2,352 rows</text>
<polygon fill="#ffffff" stroke="transparent" points="378.5,-300.7 378.5,-319.7 457.5,-319.7 457.5,-300.7 378.5,-300.7"/>
<polygon fill="none" stroke="#000000" points="378.5,-300.7 378.5,-319.7 457.5,-319.7 457.5,-300.7 378.5,-300.7"/>
<text text-anchor="start" x="432.7904" y="-306.8" font-family="Helvetica,sans-Serif" font-size="11.00" fill="#000000">11 &gt;</text>
</a>
</g>
</g>
<!-- authors_to_items&#45;&gt;item -->
<g id="edge2" class="edge">
<title>authors_to_items:w&#45;&gt;item:e</title>
<path fill="none" stroke="#000000" d="M494.4212,-804.5926C430.6027,-761.492 544.9717,-393.7 457.5,-393.7"/>
<polygon fill="#000000" stroke="#000000" points="500.8202,-806.4594 507.4917,-812.1559 504.6601,-807.5797 508.5,-808.7 508.5,-808.7 508.5,-808.7 504.6601,-807.5797 509.5083,-805.2441 500.8202,-806.4594 500.8202,-806.4594"/>
<ellipse fill="none" stroke="#000000" cx="497.7482" cy="-805.5632" rx="3.2" ry="3.2"/>
</g>
<!-- optionset -->
<g id="node5" class="node">
<title>optionset</title>
<g id="a_node5"><a xlink:href="../../tables/optionset.html" xlink:title="optionset" target="_top">
<polygon fill="#ffffff" stroke="transparent" points="8,-333.2 8,-394.2 95,-394.2 95,-333.2 8,-333.2"/>
<polygon fill="#f5f5f5" stroke="transparent" points="8.5,-370.7 8.5,-393.7 95.5,-393.7 95.5,-370.7 8.5,-370.7"/>
<polygon fill="none" stroke="#000000" points="8.5,-370.7 8.5,-393.7 95.5,-393.7 95.5,-370.7 8.5,-370.7"/>
<text text-anchor="start" x="13.1854" y="-379.8" font-family="Helvetica,sans-Serif" font-weight="bold" font-size="11.00" fill="#000000">optionset</text>
<text text-anchor="start" x="61.0219" y="-378.8" font-family="Helvetica,sans-Serif" font-size="11.00" fill="#000000">[table]</text>
<polygon fill="none" stroke="#000000" points="8.5,-351.7 8.5,-370.7 95.5,-370.7 95.5,-351.7 8.5,-351.7"/>
<text text-anchor="start" x="11.5" y="-357.8" font-family="Helvetica,sans-Serif" font-size="11.00" fill="#000000">...</text>
<polygon fill="#ffffff" stroke="transparent" points="8.5,-332.7 8.5,-351.7 25.5,-351.7 25.5,-332.7 8.5,-332.7"/>
<polygon fill="none" stroke="#000000" points="8.5,-332.7 8.5,-351.7 25.5,-351.7 25.5,-332.7 8.5,-332.7"/>
<text text-anchor="start" x="11.5" y="-338.8" font-family="Helvetica,sans-Serif" font-size="11.00" fill="#000000"> &#160;</text>
<polygon fill="#ffffff" stroke="transparent" points="25.5,-332.7 25.5,-351.7 71.5,-351.7 71.5,-332.7 25.5,-332.7"/>
<polygon fill="none" stroke="#000000" points="25.5,-332.7 25.5,-351.7 71.5,-351.7 71.5,-332.7 25.5,-332.7"/>
<text text-anchor="start" x="29.9956" y="-338.8" font-family="Helvetica,sans-Serif" font-size="11.00" fill="#000000">47 rows</text>
<polygon fill="#ffffff" stroke="transparent" points="71.5,-332.7 71.5,-351.7 95.5,-351.7 95.5,-332.7 71.5,-332.7"/>
<polygon fill="none" stroke="#000000" points="71.5,-332.7 71.5,-351.7 95.5,-351.7 95.5,-332.7 71.5,-332.7"/>
<text text-anchor="start" x="76.9053" y="-338.8" font-family="Helvetica,sans-Serif" font-size="11.00" fill="#000000">6 &gt;</text>
</a>
</g>
</g>
<!-- item&#45;&gt;optionset -->
<g id="edge10" class="edge">
<title>item:w&#45;&gt;optionset:e</title>
<path fill="none" stroke="#000000" d="M130.2027,-369.8836C118.7382,-366.7593 112.0655,-360.7 95.5,-360.7"/>
<polygon fill="#000000" stroke="#000000" points="136.5638,-370.6917 144.0463,-375.2713 140.5319,-371.1958 144.5,-371.7 144.5,-371.7 144.5,-371.7 140.5319,-371.1958 144.9537,-368.1287 136.5638,-370.6917 136.5638,-370.6917"/>
<ellipse fill="none" stroke="#000000" cx="133.3893" cy="-370.2884" rx="3.2" ry="3.2"/>
</g>
<!-- item&#45;&gt;optionset -->
<g id="edge11" class="edge">
<title>item:w&#45;&gt;optionset:e</title>
<path fill="none" stroke="#000000" d="M130.2027,-351.5164C118.7382,-354.6407 112.0655,-360.7 95.5,-360.7"/>
<polygon fill="#000000" stroke="#000000" points="136.5638,-350.7083 144.9537,-353.2713 140.5319,-350.2042 144.5,-349.7 144.5,-349.7 144.5,-349.7 140.5319,-350.2042 144.0463,-346.1287 136.5638,-350.7083 136.5638,-350.7083"/>
<ellipse fill="none" stroke="#000000" cx="133.3893" cy="-351.1116" rx="3.2" ry="3.2"/>
</g>
<!-- covid_tags_to_items -->
<g id="node4" class="node">
<title>covid_tags_to_items</title>
<g id="a_node4"><a xlink:href="../../tables/covid_tags_to_items.html" xlink:title="covid_tags_to_items" target="_top">
<polygon fill="#ffffff" stroke="transparent" points="518,-694.2 518,-755.2 661,-755.2 661,-694.2 518,-694.2"/>
<polygon fill="#f5f5f5" stroke="transparent" points="518.5,-731.7 518.5,-754.7 661.5,-754.7 661.5,-731.7 518.5,-731.7"/>
<polygon fill="none" stroke="#000000" points="518.5,-731.7 518.5,-754.7 661.5,-754.7 661.5,-731.7 518.5,-731.7"/>
<text text-anchor="start" x="523.3758" y="-740.8" font-family="Helvetica,sans-Serif" font-weight="bold" font-size="11.00" fill="#000000">covid_tags_to_items</text>
<text text-anchor="start" x="627.0219" y="-739.8" font-family="Helvetica,sans-Serif" font-size="11.00" fill="#000000">[table]</text>
<polygon fill="none" stroke="#000000" points="518.5,-712.7 518.5,-731.7 661.5,-731.7 661.5,-712.7 518.5,-712.7"/>
<text text-anchor="start" x="521.5" y="-718.8" font-family="Helvetica,sans-Serif" font-size="11.00" fill="#000000">...</text>
<polygon fill="#ffffff" stroke="transparent" points="518.5,-693.7 518.5,-712.7 564.5,-712.7 564.5,-693.7 518.5,-693.7"/>
<polygon fill="none" stroke="#000000" points="518.5,-693.7 518.5,-712.7 564.5,-712.7 564.5,-693.7 518.5,-693.7"/>
<text text-anchor="start" x="521.5" y="-699.8" font-family="Helvetica,sans-Serif" font-size="11.00" fill="#000000">&lt; 2</text>
<polygon fill="#ffffff" stroke="transparent" points="564.5,-693.7 564.5,-712.7 636.5,-712.7 636.5,-693.7 564.5,-693.7"/>
<polygon fill="none" stroke="#000000" points="564.5,-693.7 564.5,-712.7 636.5,-712.7 636.5,-693.7 564.5,-693.7"/>
<text text-anchor="start" x="579.7089" y="-699.8" font-family="Helvetica,sans-Serif" font-size="11.00" fill="#000000">4,810 rows</text>
<polygon fill="#ffffff" stroke="transparent" points="636.5,-693.7 636.5,-712.7 661.5,-712.7 661.5,-693.7 636.5,-693.7"/>
<polygon fill="none" stroke="#000000" points="636.5,-693.7 636.5,-712.7 661.5,-712.7 661.5,-693.7 636.5,-693.7"/>
<text text-anchor="start" x="652.3862" y="-699.8" font-family="Helvetica,sans-Serif" font-size="11.00" fill="#000000"> &#160;</text>
</a>
</g>
</g>
<!-- covid_tags_to_items&#45;&gt;item -->
<g id="edge4" class="edge">
<title>covid_tags_to_items:w&#45;&gt;item:e</title>
<path fill="none" stroke="#000000" d="M504.834,-716.8088C456.1327,-676.0067 526.281,-393.7 457.5,-393.7"/>
<polygon fill="#000000" stroke="#000000" points="510.9679,-719.0041 517.2869,-725.0894 514.7339,-720.3521 518.5,-721.7 518.5,-721.7 518.5,-721.7 514.7339,-720.3521 519.7131,-718.3106 510.9679,-719.0041 510.9679,-719.0041"/>
<ellipse fill="none" stroke="#000000" cx="507.9551" cy="-717.9258" rx="3.2" ry="3.2"/>
</g>
<!-- covid_tags_to_items&#45;&gt;optionset -->
<g id="edge3" class="edge">
<title>covid_tags_to_items:w&#45;&gt;optionset:e</title>
<path fill="none" stroke="#000000" d="M503.8945,-721.6322C326.874,-719.944 250.2994,-686.0538 136,-543.7 83.8463,-478.7454 178.8013,-360.7 95.5,-360.7"/>
<polygon fill="#000000" stroke="#000000" points="510.5001,-721.6628 518.4833,-725.3 514.5,-721.6814 518.5,-721.7 518.5,-721.7 518.5,-721.7 514.5,-721.6814 518.5167,-718.1 510.5001,-721.6628 510.5001,-721.6628"/>
<ellipse fill="none" stroke="#000000" cx="507.3001" cy="-721.6479" rx="3.2" ry="3.2"/>
</g>
<!-- covid_topics_to_items -->
<g id="node6" class="node">
<title>covid_topics_to_items</title>
<g id="a_node6"><a xlink:href="../../tables/covid_topics_to_items.html" xlink:title="covid_topics_to_items" target="_top">
<polygon fill="#ffffff" stroke="transparent" points="514,-612.2 514,-673.2 665,-673.2 665,-612.2 514,-612.2"/>
<polygon fill="#f5f5f5" stroke="transparent" points="514.5,-649.7 514.5,-672.7 665.5,-672.7 665.5,-649.7 514.5,-649.7"/>
<polygon fill="none" stroke="#000000" points="514.5,-649.7 514.5,-672.7 665.5,-672.7 665.5,-649.7 514.5,-649.7"/>
<text text-anchor="start" x="519.4053" y="-658.8" font-family="Helvetica,sans-Serif" font-weight="bold" font-size="11.00" fill="#000000">covid_topics_to_items</text>
<text text-anchor="start" x="631.0219" y="-657.8" font-family="Helvetica,sans-Serif" font-size="11.00" fill="#000000">[table]</text>
<polygon fill="none" stroke="#000000" points="514.5,-630.7 514.5,-649.7 665.5,-649.7 665.5,-630.7 514.5,-630.7"/>
<text text-anchor="start" x="517.5" y="-636.8" font-family="Helvetica,sans-Serif" font-size="11.00" fill="#000000">...</text>
<polygon fill="#ffffff" stroke="transparent" points="514.5,-611.7 514.5,-630.7 575.5,-630.7 575.5,-611.7 514.5,-611.7"/>
<polygon fill="none" stroke="#000000" points="514.5,-611.7 514.5,-630.7 575.5,-630.7 575.5,-611.7 514.5,-611.7"/>
<text text-anchor="start" x="517.5" y="-617.8" font-family="Helvetica,sans-Serif" font-size="11.00" fill="#000000">&lt; 2</text>
<polygon fill="#ffffff" stroke="transparent" points="575.5,-611.7 575.5,-630.7 633.5,-630.7 633.5,-611.7 575.5,-611.7"/>
<polygon fill="none" stroke="#000000" points="575.5,-611.7 575.5,-630.7 633.5,-630.7 633.5,-611.7 575.5,-611.7"/>
<text text-anchor="start" x="598.1105" y="-617.8" font-family="Helvetica,sans-Serif" font-size="11.00" fill="#000000">0 rows</text>
<polygon fill="#ffffff" stroke="transparent" points="633.5,-611.7 633.5,-630.7 665.5,-630.7 665.5,-611.7 633.5,-611.7"/>
<polygon fill="none" stroke="#000000" points="633.5,-611.7 633.5,-630.7 665.5,-630.7 665.5,-611.7 633.5,-611.7"/>
<text text-anchor="start" x="656.3862" y="-617.8" font-family="Helvetica,sans-Serif" font-size="11.00" fill="#000000"> &#160;</text>
</a>
</g>
</g>
<!-- covid_topics_to_items&#45;&gt;item -->
<g id="edge6" class="edge">
<title>covid_topics_to_items:w&#45;&gt;item:e</title>
<path fill="none" stroke="#000000" d="M501.2531,-633.3719C467.9366,-594.8672 508.2446,-393.7 457.5,-393.7"/>
<polygon fill="#000000" stroke="#000000" points="507.2814,-636.2516 512.9482,-642.9484 510.8907,-637.9758 514.5,-639.7 514.5,-639.7 514.5,-639.7 510.8907,-637.9758 516.0518,-636.4516 507.2814,-636.2516 507.2814,-636.2516"/>
<ellipse fill="none" stroke="#000000" cx="504.3939" cy="-634.8722" rx="3.2" ry="3.2"/>
</g>
<!-- covid_topics_to_items&#45;&gt;optionset -->
<g id="edge5" class="edge">
<title>covid_topics_to_items:w&#45;&gt;optionset:e</title>
<path fill="none" stroke="#000000" d="M500.0269,-638.8058C398.9118,-627.0887 199.8217,-503.1154 136,-438.7 108.5077,-410.952 134.5612,-360.7 95.5,-360.7"/>
<polygon fill="#000000" stroke="#000000" points="506.5152,-639.2066 514.278,-643.2931 510.5076,-639.4533 514.5,-639.7 514.5,-639.7 514.5,-639.7 510.5076,-639.4533 514.722,-636.1069 506.5152,-639.2066 506.5152,-639.2066"/>
<ellipse fill="none" stroke="#000000" cx="503.3213" cy="-639.0093" rx="3.2" ry="3.2"/>
</g>
<!-- events_to_items -->
<g id="node7" class="node">
<title>events_to_items</title>
<g id="a_node7"><a xlink:href="../../tables/events_to_items.html" xlink:title="events_to_items" target="_top">
<polygon fill="#ffffff" stroke="transparent" points="528,-530.2 528,-591.2 651,-591.2 651,-530.2 528,-530.2"/>
<polygon fill="#f5f5f5" stroke="transparent" points="528.5,-567.7 528.5,-590.7 651.5,-590.7 651.5,-567.7 528.5,-567.7"/>
<polygon fill="none" stroke="#000000" points="528.5,-567.7 528.5,-590.7 651.5,-590.7 651.5,-567.7 528.5,-567.7"/>
<text text-anchor="start" x="533.4611" y="-576.8" font-family="Helvetica,sans-Serif" font-weight="bold" font-size="11.00" fill="#000000">events_to_items</text>
<text text-anchor="start" x="617.0219" y="-575.8" font-family="Helvetica,sans-Serif" font-size="11.00" fill="#000000">[table]</text>
<polygon fill="none" stroke="#000000" points="528.5,-548.7 528.5,-567.7 651.5,-567.7 651.5,-548.7 528.5,-548.7"/>
<text text-anchor="start" x="531.5" y="-554.8" font-family="Helvetica,sans-Serif" font-size="11.00" fill="#000000">...</text>
<polygon fill="#ffffff" stroke="transparent" points="528.5,-529.7 528.5,-548.7 564.5,-548.7 564.5,-529.7 528.5,-529.7"/>
<polygon fill="none" stroke="#000000" points="528.5,-529.7 528.5,-548.7 564.5,-548.7 564.5,-529.7 528.5,-529.7"/>
<text text-anchor="start" x="531.5" y="-535.8" font-family="Helvetica,sans-Serif" font-size="11.00" fill="#000000">&lt; 2</text>
<polygon fill="#ffffff" stroke="transparent" points="564.5,-529.7 564.5,-548.7 631.5,-548.7 631.5,-529.7 564.5,-529.7"/>
<polygon fill="none" stroke="#000000" points="564.5,-529.7 564.5,-548.7 631.5,-548.7 631.5,-529.7 564.5,-529.7"/>
<text text-anchor="start" x="574.7089" y="-535.8" font-family="Helvetica,sans-Serif" font-size="11.00" fill="#000000">1,091 rows</text>
<polygon fill="#ffffff" stroke="transparent" points="631.5,-529.7 631.5,-548.7 651.5,-548.7 651.5,-529.7 631.5,-529.7"/>
<polygon fill="none" stroke="#000000" points="631.5,-529.7 631.5,-548.7 651.5,-548.7 651.5,-529.7 631.5,-529.7"/>
<text text-anchor="start" x="642.3862" y="-535.8" font-family="Helvetica,sans-Serif" font-size="11.00" fill="#000000"> &#160;</text>
</a>
</g>
</g>
<!-- events_to_items&#45;&gt;item -->
<g id="edge7" class="edge">
<title>events_to_items:w&#45;&gt;item:e</title>
<path fill="none" stroke="#000000" d="M514.1107,-555.3816C460.6009,-535.4483 531.3417,-393.7 457.5,-393.7"/>
<polygon fill="#000000" stroke="#000000" points="520.6019,-556.4274 527.9273,-561.2542 524.5509,-557.0637 528.5,-557.7 528.5,-557.7 528.5,-557.7 524.5509,-557.0637 529.0727,-554.1458 520.6019,-556.4274 520.6019,-556.4274"/>
<ellipse fill="none" stroke="#000000" cx="517.4426" cy="-555.9184" rx="3.2" ry="3.2"/>
</g>
<!-- files_to_items -->
<g id="node8" class="node">
<title>files_to_items</title>
<g id="a_node8"><a xlink:href="../../tables/files_to_items.html" xlink:title="files_to_items" target="_top">
<polygon fill="#ffffff" stroke="transparent" points="534.5,-448.2 534.5,-509.2 644.5,-509.2 644.5,-448.2 534.5,-448.2"/>
<polygon fill="#f5f5f5" stroke="transparent" points="534.5,-485.7 534.5,-508.7 644.5,-508.7 644.5,-485.7 534.5,-485.7"/>
<polygon fill="none" stroke="#000000" points="534.5,-485.7 534.5,-508.7 644.5,-508.7 644.5,-485.7 534.5,-485.7"/>
<text text-anchor="start" x="539.3851" y="-494.8" font-family="Helvetica,sans-Serif" font-weight="bold" font-size="11.00" fill="#000000">files_to_items</text>
<text text-anchor="start" x="610.0219" y="-493.8" font-family="Helvetica,sans-Serif" font-size="11.00" fill="#000000">[table]</text>
<polygon fill="none" stroke="#000000" points="534.5,-466.7 534.5,-485.7 644.5,-485.7 644.5,-466.7 534.5,-466.7"/>
<text text-anchor="start" x="537.5" y="-472.8" font-family="Helvetica,sans-Serif" font-size="11.00" fill="#000000">...</text>
<polygon fill="#ffffff" stroke="transparent" points="534.5,-447.7 534.5,-466.7 564.5,-466.7 564.5,-447.7 534.5,-447.7"/>
<polygon fill="none" stroke="#000000" points="534.5,-447.7 534.5,-466.7 564.5,-466.7 564.5,-447.7 534.5,-447.7"/>
<text text-anchor="start" x="537.5" y="-453.8" font-family="Helvetica,sans-Serif" font-size="11.00" fill="#000000">&lt; 2</text>
<polygon fill="#ffffff" stroke="transparent" points="564.5,-447.7 564.5,-466.7 627.5,-466.7 627.5,-447.7 564.5,-447.7"/>
<polygon fill="none" stroke="#000000" points="564.5,-447.7 564.5,-466.7 627.5,-466.7 627.5,-447.7 564.5,-447.7"/>
<text text-anchor="start" x="570.7089" y="-453.8" font-family="Helvetica,sans-Serif" font-size="11.00" fill="#000000">1,994 rows</text>
<polygon fill="#ffffff" stroke="transparent" points="627.5,-447.7 627.5,-466.7 644.5,-466.7 644.5,-447.7 627.5,-447.7"/>
<polygon fill="none" stroke="#000000" points="627.5,-447.7 627.5,-466.7 644.5,-466.7 644.5,-447.7 627.5,-447.7"/>
<text text-anchor="start" x="635.3862" y="-453.8" font-family="Helvetica,sans-Serif" font-size="11.00" fill="#000000"> &#160;</text>
</a>
</g>
</g>
<!-- files_to_items&#45;&gt;item -->
<g id="edge8" class="edge">
<title>files_to_items:w&#45;&gt;item:e</title>
<path fill="none" stroke="#000000" d="M520.1074,-472.7816C488.7779,-458.1742 501.8302,-393.7 457.5,-393.7"/>
<polygon fill="#000000" stroke="#000000" points="526.6596,-474.1101 533.7846,-479.2282 530.5798,-474.9051 534.5,-475.7 534.5,-475.7 534.5,-475.7 530.5798,-474.9051 535.2154,-472.1718 526.6596,-474.1101 526.6596,-474.1101"/>
<ellipse fill="none" stroke="#000000" cx="523.5234" cy="-473.4742" rx="3.2" ry="3.2"/>
</g>
<!-- funders_to_items -->
<g id="node9" class="node">
<title>funders_to_items</title>
<g id="a_node9"><a xlink:href="../../tables/funders_to_items.html" xlink:title="funders_to_items" target="_top">
<polygon fill="#ffffff" stroke="transparent" points="526,-366.2 526,-427.2 653,-427.2 653,-366.2 526,-366.2"/>
<polygon fill="#f5f5f5" stroke="transparent" points="526.5,-403.7 526.5,-426.7 653.5,-426.7 653.5,-403.7 526.5,-403.7"/>
<polygon fill="none" stroke="#000000" points="526.5,-403.7 526.5,-426.7 653.5,-426.7 653.5,-403.7 526.5,-403.7"/>
<text text-anchor="start" x="531.3227" y="-412.8" font-family="Helvetica,sans-Serif" font-weight="bold" font-size="11.00" fill="#000000">funders_to_items</text>
<text text-anchor="start" x="619.0219" y="-411.8" font-family="Helvetica,sans-Serif" font-size="11.00" fill="#000000">[table]</text>
<polygon fill="none" stroke="#000000" points="526.5,-384.7 526.5,-403.7 653.5,-403.7 653.5,-384.7 526.5,-384.7"/>
<text text-anchor="start" x="529.5" y="-390.8" font-family="Helvetica,sans-Serif" font-size="11.00" fill="#000000">...</text>
<polygon fill="#ffffff" stroke="transparent" points="526.5,-365.7 526.5,-384.7 564.5,-384.7 564.5,-365.7 526.5,-365.7"/>
<polygon fill="none" stroke="#000000" points="526.5,-365.7 526.5,-384.7 564.5,-384.7 564.5,-365.7 526.5,-365.7"/>
<text text-anchor="start" x="529.5" y="-371.8" font-family="Helvetica,sans-Serif" font-size="11.00" fill="#000000">&lt; 2</text>
<polygon fill="#ffffff" stroke="transparent" points="564.5,-365.7 564.5,-384.7 632.5,-384.7 632.5,-365.7 564.5,-365.7"/>
<polygon fill="none" stroke="#000000" points="564.5,-365.7 564.5,-384.7 632.5,-384.7 632.5,-365.7 564.5,-365.7"/>
<text text-anchor="start" x="575.7089" y="-371.8" font-family="Helvetica,sans-Serif" font-size="11.00" fill="#000000">3,210 rows</text>
<polygon fill="#ffffff" stroke="transparent" points="632.5,-365.7 632.5,-384.7 653.5,-384.7 653.5,-365.7 632.5,-365.7"/>
<polygon fill="none" stroke="#000000" points="632.5,-365.7 632.5,-384.7 653.5,-384.7 653.5,-365.7 632.5,-365.7"/>
<text text-anchor="start" x="644.3862" y="-371.8" font-family="Helvetica,sans-Serif" font-size="11.00" fill="#000000"> &#160;</text>
</a>
</g>
</g>
<!-- funders_to_items&#45;&gt;item -->
<g id="edge9" class="edge">
<title>funders_to_items:w&#45;&gt;item:e</title>
<path fill="none" stroke="#000000" d="M511.9297,-393.7C492.3355,-393.7 482.6563,-393.7 457.5,-393.7"/>
<polygon fill="#000000" stroke="#000000" points="518.5,-393.7001 526.5,-397.3 522.5,-393.7 526.5,-393.7 526.5,-393.7 526.5,-393.7 522.5,-393.7 526.5,-390.1 518.5,-393.7001 518.5,-393.7001"/>
<ellipse fill="none" stroke="#000000" cx="515.3" cy="-393.7001" rx="3.2" ry="3.2"/>
</g>
<!-- items_to_items -->
<g id="node10" class="node">
<title>items_to_items</title>
<g id="a_node10"><a xlink:href="../../tables/items_to_items.html" xlink:title="items_to_items" target="_top">
<polygon fill="#ffffff" stroke="transparent" points="531.5,-284.2 531.5,-345.2 647.5,-345.2 647.5,-284.2 531.5,-284.2"/>
<polygon fill="#f5f5f5" stroke="transparent" points="531.5,-321.7 531.5,-344.7 647.5,-344.7 647.5,-321.7 531.5,-321.7"/>
<polygon fill="none" stroke="#000000" points="531.5,-321.7 531.5,-344.7 647.5,-344.7 647.5,-321.7 531.5,-321.7"/>
<text text-anchor="start" x="536.0246" y="-330.8" font-family="Helvetica,sans-Serif" font-weight="bold" font-size="11.00" fill="#000000">items_to_items</text>
<text text-anchor="start" x="613.0219" y="-329.8" font-family="Helvetica,sans-Serif" font-size="11.00" fill="#000000">[table]</text>
<polygon fill="none" stroke="#000000" points="531.5,-302.7 531.5,-321.7 647.5,-321.7 647.5,-302.7 531.5,-302.7"/>
<text text-anchor="start" x="534.5" y="-308.8" font-family="Helvetica,sans-Serif" font-size="11.00" fill="#000000">...</text>
<polygon fill="#ffffff" stroke="transparent" points="531.5,-283.7 531.5,-302.7 564.5,-302.7 564.5,-283.7 531.5,-283.7"/>
<polygon fill="none" stroke="#000000" points="531.5,-283.7 531.5,-302.7 564.5,-302.7 564.5,-283.7 531.5,-283.7"/>
<text text-anchor="start" x="534.5" y="-289.8" font-family="Helvetica,sans-Serif" font-size="11.00" fill="#000000">&lt; 2</text>
<polygon fill="#ffffff" stroke="transparent" points="564.5,-283.7 564.5,-302.7 629.5,-302.7 629.5,-283.7 564.5,-283.7"/>
<polygon fill="none" stroke="#000000" points="564.5,-283.7 564.5,-302.7 629.5,-302.7 629.5,-283.7 564.5,-283.7"/>
<text text-anchor="start" x="572.7089" y="-289.8" font-family="Helvetica,sans-Serif" font-size="11.00" fill="#000000">1,288 rows</text>
<polygon fill="#ffffff" stroke="transparent" points="629.5,-283.7 629.5,-302.7 647.5,-302.7 647.5,-283.7 629.5,-283.7"/>
<polygon fill="none" stroke="#000000" points="629.5,-283.7 629.5,-302.7 647.5,-302.7 647.5,-283.7 629.5,-283.7"/>
<text text-anchor="start" x="638.3862" y="-289.8" font-family="Helvetica,sans-Serif" font-size="11.00" fill="#000000"> &#160;</text>
</a>
</g>
</g>
<!-- items_to_items&#45;&gt;item -->
<g id="edge12" class="edge">
<title>items_to_items:w&#45;&gt;item:e</title>
<path fill="none" stroke="#000000" d="M517.0245,-312.9522C487.0707,-323.875 500.8377,-388.4031 457.5,-393.7"/>
<polygon fill="#000000" stroke="#000000" points="523.5298,-312.3895 531.8103,-315.2866 527.5149,-312.0448 531.5,-311.7 531.5,-311.7 531.5,-311.7 527.5149,-312.0448 531.1897,-308.1134 523.5298,-312.3895 523.5298,-312.3895"/>
<ellipse fill="none" stroke="#000000" cx="520.3417" cy="-312.6653" rx="3.2" ry="3.2"/>
</g>
<!-- items_to_items&#45;&gt;item -->
<g id="edge13" class="edge">
<title>items_to_items:w&#45;&gt;item:e</title>
<path fill="none" stroke="#000000" d="M517.8301,-316.4739C486.8226,-335.5728 501.2212,-399.9344 457.5,-393.7"/>
<polygon fill="#000000" stroke="#000000" points="523.9473,-314.3377 532.6869,-315.0987 527.7237,-313.0188 531.5,-311.7 531.5,-311.7 531.5,-311.7 527.7237,-313.0188 530.3131,-308.3013 523.9473,-314.3377 523.9473,-314.3377"/>
<ellipse fill="none" stroke="#000000" cx="520.9262" cy="-315.3927" rx="3.2" ry="3.2"/>
</g>
<!-- key_topics_to_items -->
<g id="node11" class="node">
<title>key_topics_to_items</title>
<g id="a_node11"><a xlink:href="../../tables/key_topics_to_items.html" xlink:title="key_topics_to_items" target="_top">
<polygon fill="#ffffff" stroke="transparent" points="518.5,-120.2 518.5,-181.2 660.5,-181.2 660.5,-120.2 518.5,-120.2"/>
<polygon fill="#f5f5f5" stroke="transparent" points="518.5,-157.7 518.5,-180.7 660.5,-180.7 660.5,-157.7 518.5,-157.7"/>
<polygon fill="none" stroke="#000000" points="518.5,-157.7 518.5,-180.7 660.5,-180.7 660.5,-157.7 518.5,-157.7"/>
<text text-anchor="start" x="523.1832" y="-166.8" font-family="Helvetica,sans-Serif" font-weight="bold" font-size="11.00" fill="#000000">key_topics_to_items</text>
<text text-anchor="start" x="626.0219" y="-165.8" font-family="Helvetica,sans-Serif" font-size="11.00" fill="#000000">[table]</text>
<polygon fill="none" stroke="#000000" points="518.5,-138.7 518.5,-157.7 660.5,-157.7 660.5,-138.7 518.5,-138.7"/>
<text text-anchor="start" x="521.5" y="-144.8" font-family="Helvetica,sans-Serif" font-size="11.00" fill="#000000">...</text>
<polygon fill="#ffffff" stroke="transparent" points="518.5,-119.7 518.5,-138.7 564.5,-138.7 564.5,-119.7 518.5,-119.7"/>
<polygon fill="none" stroke="#000000" points="518.5,-119.7 518.5,-138.7 564.5,-138.7 564.5,-119.7 518.5,-119.7"/>
<text text-anchor="start" x="521.5" y="-125.8" font-family="Helvetica,sans-Serif" font-size="11.00" fill="#000000">&lt; 2</text>
<polygon fill="#ffffff" stroke="transparent" points="564.5,-119.7 564.5,-138.7 635.5,-138.7 635.5,-119.7 564.5,-119.7"/>
<polygon fill="none" stroke="#000000" points="564.5,-119.7 564.5,-138.7 635.5,-138.7 635.5,-119.7 564.5,-119.7"/>
<text text-anchor="start" x="578.7089" y="-125.8" font-family="Helvetica,sans-Serif" font-size="11.00" fill="#000000">2,352 rows</text>
<polygon fill="#ffffff" stroke="transparent" points="635.5,-119.7 635.5,-138.7 660.5,-138.7 660.5,-119.7 635.5,-119.7"/>
<polygon fill="none" stroke="#000000" points="635.5,-119.7 635.5,-138.7 660.5,-138.7 660.5,-119.7 635.5,-119.7"/>
<text text-anchor="start" x="651.3862" y="-125.8" font-family="Helvetica,sans-Serif" font-size="11.00" fill="#000000"> &#160;</text>
</a>
</g>
</g>
<!-- key_topics_to_items&#45;&gt;item -->
<g id="edge14" class="edge">
<title>key_topics_to_items:w&#45;&gt;item:e</title>
<path fill="none" stroke="#000000" d="M505.3282,-153.7809C470.9122,-191.6629 508.5421,-393.7 457.5,-393.7"/>
<polygon fill="#000000" stroke="#000000" points="511.2367,-151.0532 520.009,-150.9685 514.8683,-149.3766 518.5,-147.7 518.5,-147.7 518.5,-147.7 514.8683,-149.3766 516.991,-144.4315 511.2367,-151.0532 511.2367,-151.0532"/>
<ellipse fill="none" stroke="#000000" cx="508.3313" cy="-152.3945" rx="3.2" ry="3.2"/>
</g>
<!-- key_topics_to_items&#45;&gt;optionset -->
<g id="edge15" class="edge">
<title>key_topics_to_items:w&#45;&gt;optionset:e</title>
<path fill="none" stroke="#000000" d="M503.8751,-147.7592C333.5369,-149.1792 270.7865,-176.7036 136,-290.7 108.5562,-313.9108 131.443,-360.7 95.5,-360.7"/>
<polygon fill="#000000" stroke="#000000" points="510.5001,-147.7324 518.5146,-151.3 514.5,-147.7162 518.5,-147.7 518.5,-147.7 518.5,-147.7 514.5,-147.7162 518.4854,-144.1 510.5001,-147.7324 510.5001,-147.7324"/>
<ellipse fill="none" stroke="#000000" cx="507.3001" cy="-147.7454" rx="3.2" ry="3.2"/>
</g>
<!-- related_files_to_items -->
<g id="node12" class="node">
<title>related_files_to_items</title>
<g id="a_node12"><a xlink:href="../../tables/related_files_to_items.html" xlink:title="related_files_to_items" target="_top">
<polygon fill="#ffffff" stroke="transparent" points="515,-202.2 515,-263.2 664,-263.2 664,-202.2 515,-202.2"/>
<polygon fill="#f5f5f5" stroke="transparent" points="515.5,-239.7 515.5,-262.7 664.5,-262.7 664.5,-239.7 515.5,-239.7"/>
<polygon fill="none" stroke="#000000" points="515.5,-239.7 515.5,-262.7 664.5,-262.7 664.5,-239.7 515.5,-239.7"/>
<text text-anchor="start" x="520.018" y="-248.8" font-family="Helvetica,sans-Serif" font-weight="bold" font-size="11.00" fill="#000000">related_files_to_items</text>
<text text-anchor="start" x="630.0219" y="-247.8" font-family="Helvetica,sans-Serif" font-size="11.00" fill="#000000">[table]</text>
<polygon fill="none" stroke="#000000" points="515.5,-220.7 515.5,-239.7 664.5,-239.7 664.5,-220.7 515.5,-220.7"/>
<text text-anchor="start" x="518.5" y="-226.8" font-family="Helvetica,sans-Serif" font-size="11.00" fill="#000000">...</text>
<polygon fill="#ffffff" stroke="transparent" points="515.5,-201.7 515.5,-220.7 569.5,-220.7 569.5,-201.7 515.5,-201.7"/>
<polygon fill="none" stroke="#000000" points="515.5,-201.7 515.5,-220.7 569.5,-220.7 569.5,-201.7 515.5,-201.7"/>
<text text-anchor="start" x="518.5" y="-207.8" font-family="Helvetica,sans-Serif" font-size="11.00" fill="#000000">&lt; 2</text>
<polygon fill="#ffffff" stroke="transparent" points="569.5,-201.7 569.5,-220.7 635.5,-220.7 635.5,-201.7 569.5,-201.7"/>
<polygon fill="none" stroke="#000000" points="569.5,-201.7 569.5,-220.7 635.5,-220.7 635.5,-201.7 569.5,-201.7"/>
<text text-anchor="start" x="587.8807" y="-207.8" font-family="Helvetica,sans-Serif" font-size="11.00" fill="#000000">115 rows</text>
<polygon fill="#ffffff" stroke="transparent" points="635.5,-201.7 635.5,-220.7 664.5,-220.7 664.5,-201.7 635.5,-201.7"/>
<polygon fill="none" stroke="#000000" points="635.5,-201.7 635.5,-220.7 664.5,-220.7 664.5,-201.7 635.5,-201.7"/>
<text text-anchor="start" x="655.3862" y="-207.8" font-family="Helvetica,sans-Serif" font-size="11.00" fill="#000000"> &#160;</text>
</a>
</g>
</g>
<!-- related_files_to_items&#45;&gt;item -->
<g id="edge16" class="edge">
<title>related_files_to_items:w&#45;&gt;item:e</title>
<path fill="none" stroke="#000000" d="M501.018,-232.276C451.5719,-253.1404 529.0748,-393.7 457.5,-393.7"/>
<polygon fill="#000000" stroke="#000000" points="507.6236,-231.1011 516.1305,-233.2444 511.5618,-230.4005 515.5,-229.7 515.5,-229.7 515.5,-229.7 511.5618,-230.4005 514.8695,-226.1556 507.6236,-231.1011 507.6236,-231.1011"/>
<ellipse fill="none" stroke="#000000" cx="504.4731" cy="-231.6615" rx="3.2" ry="3.2"/>
</g>
<!-- tags_to_items -->
<g id="node13" class="node">
<title>tags_to_items</title>
<g id="a_node13"><a xlink:href="../../tables/tags_to_items.html" xlink:title="tags_to_items" target="_top">
<polygon fill="#ffffff" stroke="transparent" points="534,-38.2 534,-99.2 645,-99.2 645,-38.2 534,-38.2"/>
<polygon fill="#f5f5f5" stroke="transparent" points="534.5,-75.7 534.5,-98.7 645.5,-98.7 645.5,-75.7 534.5,-75.7"/>
<polygon fill="none" stroke="#000000" points="534.5,-75.7 534.5,-98.7 645.5,-98.7 645.5,-75.7 534.5,-75.7"/>
<text text-anchor="start" x="539.2686" y="-84.8" font-family="Helvetica,sans-Serif" font-weight="bold" font-size="11.00" fill="#000000">tags_to_items</text>
<text text-anchor="start" x="611.0219" y="-83.8" font-family="Helvetica,sans-Serif" font-size="11.00" fill="#000000">[table]</text>
<polygon fill="none" stroke="#000000" points="534.5,-56.7 534.5,-75.7 645.5,-75.7 645.5,-56.7 534.5,-56.7"/>
<text text-anchor="start" x="537.5" y="-62.8" font-family="Helvetica,sans-Serif" font-size="11.00" fill="#000000">...</text>
<polygon fill="#ffffff" stroke="transparent" points="534.5,-37.7 534.5,-56.7 575.5,-56.7 575.5,-37.7 534.5,-37.7"/>
<polygon fill="none" stroke="#000000" points="534.5,-37.7 534.5,-56.7 575.5,-56.7 575.5,-37.7 534.5,-37.7"/>
<text text-anchor="start" x="537.5" y="-43.8" font-family="Helvetica,sans-Serif" font-size="11.00" fill="#000000">&lt; 2</text>
<polygon fill="#ffffff" stroke="transparent" points="575.5,-37.7 575.5,-56.7 623.5,-56.7 623.5,-37.7 575.5,-37.7"/>
<polygon fill="none" stroke="#000000" points="575.5,-37.7 575.5,-56.7 623.5,-56.7 623.5,-37.7 575.5,-37.7"/>
<text text-anchor="start" x="588.1105" y="-43.8" font-family="Helvetica,sans-Serif" font-size="11.00" fill="#000000">0 rows</text>
<polygon fill="#ffffff" stroke="transparent" points="623.5,-37.7 623.5,-56.7 645.5,-56.7 645.5,-37.7 623.5,-37.7"/>
<polygon fill="none" stroke="#000000" points="623.5,-37.7 623.5,-56.7 645.5,-56.7 645.5,-37.7 623.5,-37.7"/>
<text text-anchor="start" x="636.3862" y="-43.8" font-family="Helvetica,sans-Serif" font-size="11.00" fill="#000000"> &#160;</text>
</a>
</g>
</g>
<!-- tags_to_items&#45;&gt;item -->
<g id="edge17" class="edge">
<title>tags_to_items:w&#45;&gt;item:e</title>
<path fill="none" stroke="#000000" d="M520.2512,-68.887C508.1956,-75.571 505.8803,-91.9144 498,-109.7 472.1758,-167.9849 521.2496,-393.7 457.5,-393.7"/>
<polygon fill="#000000" stroke="#000000" points="526.6929,-67.4463 535.2858,-69.2132 530.5965,-66.5731 534.5,-65.7 534.5,-65.7 534.5,-65.7 530.5965,-66.5731 533.7142,-62.1868 526.6929,-67.4463 526.6929,-67.4463"/>
<ellipse fill="none" stroke="#000000" cx="523.5701" cy="-68.1448" rx="3.2" ry="3.2"/>
</g>
<!-- tags_to_items&#45;&gt;optionset -->
<g id="edge18" class="edge">
<title>tags_to_items:w&#45;&gt;optionset:e</title>
<path fill="none" stroke="#000000" d="M519.8733,-65.5977C348.7727,-63.2256 259.4617,-21.5615 136,-146.7 68.0157,-215.6076 192.2994,-360.7 95.5,-360.7"/>
<polygon fill="#000000" stroke="#000000" points="526.5002,-65.644 534.4748,-69.2999 530.5001,-65.672 534.5,-65.7 534.5,-65.7 534.5,-65.7 530.5001,-65.672 534.5252,-62.1001 526.5002,-65.644 526.5002,-65.644"/>
<ellipse fill="none" stroke="#000000" cx="523.3003" cy="-65.6216" rx="3.2" ry="3.2"/>
</g>
</g>
</svg>
