<?xml version="1.0" encoding="UTF-8" standalone="no"?>
<!DOCTYPE svg PUBLIC "-//W3C//DTD SVG 1.1//EN"
 "http://www.w3.org/Graphics/SVG/1.1/DTD/svg11.dtd">
<!-- Generated by graphviz version 2.40.1 (20161225.0304)
 -->
<!-- Title: oneDegreeRelationshipsDiagram Pages: 1 -->
<svg width="531pt" height="250pt"
 viewBox="0.00 0.00 531.00 250.20" xmlns="http://www.w3.org/2000/svg" xmlns:xlink="http://www.w3.org/1999/xlink">
<g id="graph0" class="graph" transform="scale(1 1) rotate(0) translate(4 246.2)">
<title>oneDegreeRelationshipsDiagram</title>
<polygon fill="#ffffff" stroke="transparent" points="-4,4 -4,-246.2 527,-246.2 527,4 -4,4"/>
<text text-anchor="middle" x="72.4936" y="-7.3" font-family="Helvetica,sans-Serif" font-size="11.00" fill="#000000">Generated by SchemaSpy</text>
<!-- authors_to_items -->
<g id="node1" class="node">
<title>authors_to_items</title>
<g id="a_node1"><a xlink:href="../../tables/authors_to_items.html" xlink:title="authors_to_items" target="_top">
<polygon fill="#ffffff" stroke="transparent" points="388,-150.2 388,-236.2 515,-236.2 515,-150.2 388,-150.2"/>
<polygon fill="#f5f5f5" stroke="transparent" points="388.5,-213.2 388.5,-236.2 515.5,-236.2 515.5,-213.2 388.5,-213.2"/>
<polygon fill="none" stroke="#000000" points="388.5,-213.2 388.5,-236.2 515.5,-236.2 515.5,-213.2 388.5,-213.2"/>
<text text-anchor="start" x="393.3227" y="-222.3" font-family="Helvetica,sans-Serif" font-weight="bold" font-size="11.00" fill="#000000">authors_to_items</text>
<text text-anchor="start" x="481.0219" y="-221.3" font-family="Helvetica,sans-Serif" font-size="11.00" fill="#000000">[table]</text>
<polygon fill="none" stroke="#000000" points="388.5,-191.2 388.5,-213.2 515.5,-213.2 515.5,-191.2 388.5,-191.2"/>
<image xlink:href="../../images/primaryKeys.png" width="11px" height="12px" preserveAspectRatio="xMinYMin meet" x="393.5" y="-208.2"/>
<text text-anchor="start" x="411.5" y="-198.3" font-family="Helvetica,sans-Serif" font-size="11.00" fill="#000000">author</text>
<polygon fill="none" stroke="#000000" points="388.5,-169.2 388.5,-191.2 515.5,-191.2 515.5,-169.2 388.5,-169.2"/>
<image xlink:href="../../images/primaryKeys.png" width="11px" height="12px" preserveAspectRatio="xMinYMin meet" x="393.5" y="-186.2"/>
<text text-anchor="start" x="411.5" y="-176.3" font-family="Helvetica,sans-Serif" font-size="11.00" fill="#000000">item</text>
<polygon fill="#ffffff" stroke="transparent" points="388.5,-150.2 388.5,-169.2 426.5,-169.2 426.5,-150.2 388.5,-150.2"/>
<polygon fill="none" stroke="#000000" points="388.5,-150.2 388.5,-169.2 426.5,-169.2 426.5,-150.2 388.5,-150.2"/>
<text text-anchor="start" x="391.5" y="-156.3" font-family="Helvetica,sans-Serif" font-size="11.00" fill="#000000">&lt; 2</text>
<polygon fill="#ffffff" stroke="transparent" points="426.5,-150.2 426.5,-169.2 494.5,-169.2 494.5,-150.2 426.5,-150.2"/>
<polygon fill="none" stroke="#000000" points="426.5,-150.2 426.5,-169.2 494.5,-169.2 494.5,-150.2 426.5,-150.2"/>
<text text-anchor="start" x="437.7089" y="-156.3" font-family="Helvetica,sans-Serif" font-size="11.00" fill="#000000">2,850 rows</text>
<polygon fill="#ffffff" stroke="transparent" points="494.5,-150.2 494.5,-169.2 515.5,-169.2 515.5,-150.2 494.5,-150.2"/>
<polygon fill="none" stroke="#000000" points="494.5,-150.2 494.5,-169.2 515.5,-169.2 515.5,-150.2 494.5,-150.2"/>
<text text-anchor="start" x="506.3862" y="-156.3" font-family="Helvetica,sans-Serif" font-size="11.00" fill="#000000"> &#160;</text>
</a>
</g>
</g>
<!-- author -->
<g id="node2" class="node">
<title>author</title>
<g id="a_node2"><a xlink:href="../../tables/author.html" xlink:title="author" target="_top">
<polygon fill="#ffffff" stroke="transparent" points="8,-38.2 8,-238.2 339,-238.2 339,-38.2 8,-38.2"/>
<polygon fill="#f5f5f5" stroke="transparent" points="10.5,-213.2 10.5,-236.2 337.5,-236.2 337.5,-213.2 10.5,-213.2"/>
<polygon fill="none" stroke="#000000" points="10.5,-213.2 10.5,-236.2 337.5,-236.2 337.5,-213.2 10.5,-213.2"/>
<text text-anchor="start" x="15.5" y="-222.3" font-family="Helvetica,sans-Serif" font-weight="bold" font-size="11.00" fill="#000000">author</text>
<text text-anchor="start" x="302.5437" y="-221.3" font-family="Helvetica,sans-Serif" font-size="11.00" fill="#000000">[table]</text>
<polygon fill="none" stroke="#000000" points="10.5,-191.2 10.5,-213.2 247.5,-213.2 247.5,-191.2 10.5,-191.2"/>
<image xlink:href="../../images/primaryKeys.png" width="11px" height="12px" preserveAspectRatio="xMinYMin meet" x="15.5" y="-208.2"/>
<text text-anchor="start" x="30.5" y="-198.3" font-family="Helvetica,sans-Serif" font-size="11.00" fill="#000000">id</text>
<polygon fill="none" stroke="#000000" points="247.5,-191.2 247.5,-213.2 337.5,-213.2 337.5,-191.2 247.5,-191.2"/>
<text text-anchor="start" x="250.5" y="-198.9" font-family="Helvetica,sans-Serif" font-size="11.00" fill="#000000">serial[10]</text>
<polygon fill="none" stroke="#000000" points="10.5,-169.2 10.5,-191.2 247.5,-191.2 247.5,-169.2 10.5,-169.2"/>
<text text-anchor="start" x="30.5" y="-176.3" font-family="Helvetica,sans-Serif" font-size="11.00" fill="#000000">type_of_authoring_organization</text>
<polygon fill="none" stroke="#000000" points="247.5,-169.2 247.5,-191.2 337.5,-191.2 337.5,-169.2 247.5,-169.2"/>
<text text-anchor="start" x="250.0043" y="-176.9" font-family="Helvetica,sans-Serif" font-size="11.00" fill="#000000">text[2147483647]</text>
<polygon fill="none" stroke="#000000" points="10.5,-147.2 10.5,-169.2 247.5,-169.2 247.5,-147.2 10.5,-147.2"/>
<text text-anchor="start" x="30.5" y="-154.3" font-family="Helvetica,sans-Serif" font-size="11.00" fill="#000000">authoring_organization</text>
<polygon fill="none" stroke="#000000" points="247.5,-147.2 247.5,-169.2 337.5,-169.2 337.5,-147.2 247.5,-147.2"/>
<text text-anchor="start" x="250.0043" y="-154.9" font-family="Helvetica,sans-Serif" font-size="11.00" fill="#000000">text[2147483647]</text>
<polygon fill="none" stroke="#000000" points="10.5,-125.2 10.5,-147.2 247.5,-147.2 247.5,-125.2 10.5,-125.2"/>
<text text-anchor="start" x="30.5" y="-132.3" font-family="Helvetica,sans-Serif" font-size="11.00" fill="#000000">international_national</text>
<polygon fill="none" stroke="#000000" points="247.5,-125.2 247.5,-147.2 337.5,-147.2 337.5,-125.2 247.5,-125.2"/>
<text text-anchor="start" x="250.0043" y="-132.9" font-family="Helvetica,sans-Serif" font-size="11.00" fill="#000000">text[2147483647]</text>
<polygon fill="none" stroke="#000000" points="10.5,-103.2 10.5,-125.2 247.5,-125.2 247.5,-103.2 10.5,-103.2"/>
<text text-anchor="start" x="30.5" y="-110.3" font-family="Helvetica,sans-Serif" font-size="11.00" fill="#000000">if_national_country_of_authoring_org</text>
<polygon fill="none" stroke="#000000" points="247.5,-103.2 247.5,-125.2 337.5,-125.2 337.5,-103.2 247.5,-103.2"/>
<text text-anchor="start" x="250.0043" y="-110.9" font-family="Helvetica,sans-Serif" font-size="11.00" fill="#000000">text[2147483647]</text>
<polygon fill="none" stroke="#000000" points="10.5,-81.2 10.5,-103.2 247.5,-103.2 247.5,-81.2 10.5,-81.2"/>
<text text-anchor="start" x="30.5" y="-88.3" font-family="Helvetica,sans-Serif" font-size="11.00" fill="#000000">if_national_iso2_of_authoring_org</text>
<polygon fill="none" stroke="#000000" points="247.5,-81.2 247.5,-103.2 337.5,-103.2 337.5,-81.2 247.5,-81.2"/>
<text text-anchor="start" x="250.0043" y="-88.9" font-family="Helvetica,sans-Serif" font-size="11.00" fill="#000000">text[2147483647]</text>
<polygon fill="none" stroke="#000000" points="10.5,-59.2 10.5,-81.2 247.5,-81.2 247.5,-59.2 10.5,-59.2"/>
<text text-anchor="start" x="30.5" y="-66.3" font-family="Helvetica,sans-Serif" font-size="11.00" fill="#000000">acronym</text>
<polygon fill="none" stroke="#000000" points="247.5,-59.2 247.5,-81.2 337.5,-81.2 337.5,-59.2 247.5,-59.2"/>
<text text-anchor="start" x="250.0043" y="-66.9" font-family="Helvetica,sans-Serif" font-size="11.00" fill="#000000">text[2147483647]</text>
<polygon fill="#ffffff" stroke="transparent" points="10.5,-40.2 10.5,-59.2 114.5,-59.2 114.5,-40.2 10.5,-40.2"/>
<polygon fill="none" stroke="#000000" points="10.5,-40.2 10.5,-59.2 114.5,-59.2 114.5,-40.2 10.5,-40.2"/>
<text text-anchor="start" x="13.5" y="-46.3" font-family="Helvetica,sans-Serif" font-size="11.00" fill="#000000">&lt; 0</text>
<polygon fill="#ffffff" stroke="transparent" points="114.5,-40.2 114.5,-59.2 247.5,-59.2 247.5,-40.2 114.5,-40.2"/>
<polygon fill="none" stroke="#000000" points="114.5,-40.2 114.5,-59.2 247.5,-59.2 247.5,-40.2 114.5,-40.2"/>
<text text-anchor="start" x="199.8807" y="-46.3" font-family="Helvetica,sans-Serif" font-size="11.00" fill="#000000">381 rows</text>
<polygon fill="#ffffff" stroke="transparent" points="247.5,-40.2 247.5,-59.2 337.5,-59.2 337.5,-40.2 247.5,-40.2"/>
<polygon fill="none" stroke="#000000" points="247.5,-40.2 247.5,-59.2 337.5,-59.2 337.5,-40.2 247.5,-40.2"/>
<text text-anchor="start" x="318.9053" y="-46.3" font-family="Helvetica,sans-Serif" font-size="11.00" fill="#000000">1 &gt;</text>
<polygon fill="none" stroke="#000000" stroke-width="2" points="9,-39.2 9,-237.2 338,-237.2 338,-39.2 9,-39.2"/>
</a>
</g>
</g>
<!-- authors_to_items&#45;&gt;author -->
<g id="edge1" class="edge">
<title>authors_to_items:w&#45;&gt;author:e</title>
<path fill="none" stroke="#000000" d="M373.776,-202.2C361.7815,-202.2 354.3229,-202.2 337.5,-202.2"/>
<polygon fill="#000000" stroke="#000000" points="380.5,-202.2001 388.5,-205.8 384.5,-202.2 388.5,-202.2 388.5,-202.2 388.5,-202.2 384.5,-202.2 388.5,-198.6 380.5,-202.2001 380.5,-202.2001"/>
<ellipse fill="none" stroke="#000000" cx="377.3" cy="-202.2001" rx="3.2" ry="3.2"/>
</g>
</g>
</svg>
