<?xml version="1.0" encoding="UTF-8" standalone="no"?>
<!DOCTYPE svg PUBLIC "-//W3C//DTD SVG 1.1//EN"
 "http://www.w3.org/Graphics/SVG/1.1/DTD/svg11.dtd">
<!-- Generated by graphviz version 2.40.1 (20161225.0304)
 -->
<!-- Title: twoDegreesRelationshipsDiagram Pages: 1 -->
<svg width="531pt" height="333pt"
 viewBox="0.00 0.00 531.00 332.70" xmlns="http://www.w3.org/2000/svg" xmlns:xlink="http://www.w3.org/1999/xlink">
<g id="graph0" class="graph" transform="scale(1 1) rotate(0) translate(4 328.7)">
<title>twoDegreesRelationshipsDiagram</title>
<polygon fill="#ffffff" stroke="transparent" points="-4,4 -4,-328.7 527,-328.7 527,4 -4,4"/>
<text text-anchor="middle" x="72.4936" y="-7.3" font-family="Helvetica,sans-Serif" font-size="11.00" fill="#000000">Generated by SchemaSpy</text>
<!-- authors_to_items -->
<g id="node1" class="node">
<title>authors_to_items</title>
<g id="a_node1"><a xlink:href="../../tables/authors_to_items.html" xlink:title="authors_to_items" target="_top">
<polygon fill="#ffffff" stroke="transparent" points="388,-133.7 388,-219.7 515,-219.7 515,-133.7 388,-133.7"/>
<polygon fill="#f5f5f5" stroke="transparent" points="388.5,-196.7 388.5,-219.7 515.5,-219.7 515.5,-196.7 388.5,-196.7"/>
<polygon fill="none" stroke="#000000" points="388.5,-196.7 388.5,-219.7 515.5,-219.7 515.5,-196.7 388.5,-196.7"/>
<text text-anchor="start" x="393.3227" y="-205.8" font-family="Helvetica,sans-Serif" font-weight="bold" font-size="11.00" fill="#000000">authors_to_items</text>
<text text-anchor="start" x="481.0219" y="-204.8" font-family="Helvetica,sans-Serif" font-size="11.00" fill="#000000">[table]</text>
<polygon fill="none" stroke="#000000" points="388.5,-174.7 388.5,-196.7 515.5,-196.7 515.5,-174.7 388.5,-174.7"/>
<image xlink:href="../../images/primaryKeys.png" width="11px" height="12px" preserveAspectRatio="xMinYMin meet" x="393.5" y="-191.7"/>
<text text-anchor="start" x="411.5" y="-181.8" font-family="Helvetica,sans-Serif" font-size="11.00" fill="#000000">author</text>
<polygon fill="none" stroke="#000000" points="388.5,-152.7 388.5,-174.7 515.5,-174.7 515.5,-152.7 388.5,-152.7"/>
<image xlink:href="../../images/primaryKeys.png" width="11px" height="12px" preserveAspectRatio="xMinYMin meet" x="393.5" y="-169.7"/>
<text text-anchor="start" x="411.5" y="-159.8" font-family="Helvetica,sans-Serif" font-size="11.00" fill="#000000">item</text>
<polygon fill="#ffffff" stroke="transparent" points="388.5,-133.7 388.5,-152.7 426.5,-152.7 426.5,-133.7 388.5,-133.7"/>
<polygon fill="none" stroke="#000000" points="388.5,-133.7 388.5,-152.7 426.5,-152.7 426.5,-133.7 388.5,-133.7"/>
<text text-anchor="start" x="391.5" y="-139.8" font-family="Helvetica,sans-Serif" font-size="11.00" fill="#000000">&lt; 2</text>
<polygon fill="#ffffff" stroke="transparent" points="426.5,-133.7 426.5,-152.7 494.5,-152.7 494.5,-133.7 426.5,-133.7"/>
<polygon fill="none" stroke="#000000" points="426.5,-133.7 426.5,-152.7 494.5,-152.7 494.5,-133.7 426.5,-133.7"/>
<text text-anchor="start" x="437.7089" y="-139.8" font-family="Helvetica,sans-Serif" font-size="11.00" fill="#000000">2,850 rows</text>
<polygon fill="#ffffff" stroke="transparent" points="494.5,-133.7 494.5,-152.7 515.5,-152.7 515.5,-133.7 494.5,-133.7"/>
<polygon fill="none" stroke="#000000" points="494.5,-133.7 494.5,-152.7 515.5,-152.7 515.5,-133.7 494.5,-133.7"/>
<text text-anchor="start" x="506.3862" y="-139.8" font-family="Helvetica,sans-Serif" font-size="11.00" fill="#000000"> &#160;</text>
</a>
</g>
</g>
<!-- author -->
<g id="node2" class="node">
<title>author</title>
<g id="a_node2"><a xlink:href="../../tables/author.html" xlink:title="author" target="_top">
<polygon fill="#ffffff" stroke="transparent" points="8,-120.7 8,-320.7 339,-320.7 339,-120.7 8,-120.7"/>
<polygon fill="#f5f5f5" stroke="transparent" points="10.5,-295.7 10.5,-318.7 337.5,-318.7 337.5,-295.7 10.5,-295.7"/>
<polygon fill="none" stroke="#000000" points="10.5,-295.7 10.5,-318.7 337.5,-318.7 337.5,-295.7 10.5,-295.7"/>
<text text-anchor="start" x="15.5" y="-304.8" font-family="Helvetica,sans-Serif" font-weight="bold" font-size="11.00" fill="#000000">author</text>
<text text-anchor="start" x="302.5437" y="-303.8" font-family="Helvetica,sans-Serif" font-size="11.00" fill="#000000">[table]</text>
<polygon fill="none" stroke="#000000" points="10.5,-273.7 10.5,-295.7 247.5,-295.7 247.5,-273.7 10.5,-273.7"/>
<image xlink:href="../../images/primaryKeys.png" width="11px" height="12px" preserveAspectRatio="xMinYMin meet" x="15.5" y="-290.7"/>
<text text-anchor="start" x="30.5" y="-280.8" font-family="Helvetica,sans-Serif" font-size="11.00" fill="#000000">id</text>
<polygon fill="none" stroke="#000000" points="247.5,-273.7 247.5,-295.7 337.5,-295.7 337.5,-273.7 247.5,-273.7"/>
<text text-anchor="start" x="250.5" y="-281.4" font-family="Helvetica,sans-Serif" font-size="11.00" fill="#000000">serial[10]</text>
<polygon fill="none" stroke="#000000" points="10.5,-251.7 10.5,-273.7 247.5,-273.7 247.5,-251.7 10.5,-251.7"/>
<text text-anchor="start" x="30.5" y="-258.8" font-family="Helvetica,sans-Serif" font-size="11.00" fill="#000000">type_of_authoring_organization</text>
<polygon fill="none" stroke="#000000" points="247.5,-251.7 247.5,-273.7 337.5,-273.7 337.5,-251.7 247.5,-251.7"/>
<text text-anchor="start" x="250.0043" y="-259.4" font-family="Helvetica,sans-Serif" font-size="11.00" fill="#000000">text[2147483647]</text>
<polygon fill="none" stroke="#000000" points="10.5,-229.7 10.5,-251.7 247.5,-251.7 247.5,-229.7 10.5,-229.7"/>
<text text-anchor="start" x="30.5" y="-236.8" font-family="Helvetica,sans-Serif" font-size="11.00" fill="#000000">authoring_organization</text>
<polygon fill="none" stroke="#000000" points="247.5,-229.7 247.5,-251.7 337.5,-251.7 337.5,-229.7 247.5,-229.7"/>
<text text-anchor="start" x="250.0043" y="-237.4" font-family="Helvetica,sans-Serif" font-size="11.00" fill="#000000">text[2147483647]</text>
<polygon fill="none" stroke="#000000" points="10.5,-207.7 10.5,-229.7 247.5,-229.7 247.5,-207.7 10.5,-207.7"/>
<text text-anchor="start" x="30.5" y="-214.8" font-family="Helvetica,sans-Serif" font-size="11.00" fill="#000000">international_national</text>
<polygon fill="none" stroke="#000000" points="247.5,-207.7 247.5,-229.7 337.5,-229.7 337.5,-207.7 247.5,-207.7"/>
<text text-anchor="start" x="250.0043" y="-215.4" font-family="Helvetica,sans-Serif" font-size="11.00" fill="#000000">text[2147483647]</text>
<polygon fill="none" stroke="#000000" points="10.5,-185.7 10.5,-207.7 247.5,-207.7 247.5,-185.7 10.5,-185.7"/>
<text text-anchor="start" x="30.5" y="-192.8" font-family="Helvetica,sans-Serif" font-size="11.00" fill="#000000">if_national_country_of_authoring_org</text>
<polygon fill="none" stroke="#000000" points="247.5,-185.7 247.5,-207.7 337.5,-207.7 337.5,-185.7 247.5,-185.7"/>
<text text-anchor="start" x="250.0043" y="-193.4" font-family="Helvetica,sans-Serif" font-size="11.00" fill="#000000">text[2147483647]</text>
<polygon fill="none" stroke="#000000" points="10.5,-163.7 10.5,-185.7 247.5,-185.7 247.5,-163.7 10.5,-163.7"/>
<text text-anchor="start" x="30.5" y="-170.8" font-family="Helvetica,sans-Serif" font-size="11.00" fill="#000000">if_national_iso2_of_authoring_org</text>
<polygon fill="none" stroke="#000000" points="247.5,-163.7 247.5,-185.7 337.5,-185.7 337.5,-163.7 247.5,-163.7"/>
<text text-anchor="start" x="250.0043" y="-171.4" font-family="Helvetica,sans-Serif" font-size="11.00" fill="#000000">text[2147483647]</text>
<polygon fill="none" stroke="#000000" points="10.5,-141.7 10.5,-163.7 247.5,-163.7 247.5,-141.7 10.5,-141.7"/>
<text text-anchor="start" x="30.5" y="-148.8" font-family="Helvetica,sans-Serif" font-size="11.00" fill="#000000">acronym</text>
<polygon fill="none" stroke="#000000" points="247.5,-141.7 247.5,-163.7 337.5,-163.7 337.5,-141.7 247.5,-141.7"/>
<text text-anchor="start" x="250.0043" y="-149.4" font-family="Helvetica,sans-Serif" font-size="11.00" fill="#000000">text[2147483647]</text>
<polygon fill="#ffffff" stroke="transparent" points="10.5,-122.7 10.5,-141.7 114.5,-141.7 114.5,-122.7 10.5,-122.7"/>
<polygon fill="none" stroke="#000000" points="10.5,-122.7 10.5,-141.7 114.5,-141.7 114.5,-122.7 10.5,-122.7"/>
<text text-anchor="start" x="13.5" y="-128.8" font-family="Helvetica,sans-Serif" font-size="11.00" fill="#000000">&lt; 0</text>
<polygon fill="#ffffff" stroke="transparent" points="114.5,-122.7 114.5,-141.7 247.5,-141.7 247.5,-122.7 114.5,-122.7"/>
<polygon fill="none" stroke="#000000" points="114.5,-122.7 114.5,-141.7 247.5,-141.7 247.5,-122.7 114.5,-122.7"/>
<text text-anchor="start" x="199.8807" y="-128.8" font-family="Helvetica,sans-Serif" font-size="11.00" fill="#000000">381 rows</text>
<polygon fill="#ffffff" stroke="transparent" points="247.5,-122.7 247.5,-141.7 337.5,-141.7 337.5,-122.7 247.5,-122.7"/>
<polygon fill="none" stroke="#000000" points="247.5,-122.7 247.5,-141.7 337.5,-141.7 337.5,-122.7 247.5,-122.7"/>
<text text-anchor="start" x="318.9053" y="-128.8" font-family="Helvetica,sans-Serif" font-size="11.00" fill="#000000">1 &gt;</text>
<polygon fill="none" stroke="#000000" stroke-width="2" points="9,-121.7 9,-319.7 338,-319.7 338,-121.7 9,-121.7"/>
</a>
</g>
</g>
<!-- authors_to_items&#45;&gt;author -->
<g id="edge1" class="edge">
<title>authors_to_items:w&#45;&gt;author:e</title>
<path fill="none" stroke="#000000" d="M374.4616,-189.7035C349.198,-208.2249 381.0017,-284.7 337.5,-284.7"/>
<polygon fill="#000000" stroke="#000000" points="380.8067,-187.894 389.4873,-189.162 384.6534,-186.797 388.5,-185.7 388.5,-185.7 388.5,-185.7 384.6534,-186.797 387.5127,-182.238 380.8067,-187.894 380.8067,-187.894"/>
<ellipse fill="none" stroke="#000000" cx="377.7294" cy="-188.7717" rx="3.2" ry="3.2"/>
</g>
<!-- item -->
<g id="node3" class="node">
<title>item</title>
<g id="a_node3"><a xlink:href="../../tables/item.html" xlink:title="item" target="_top">
<polygon fill="#ffffff" stroke="transparent" points="120,-38.2 120,-99.2 227,-99.2 227,-38.2 120,-38.2"/>
<polygon fill="#f5f5f5" stroke="transparent" points="120.5,-75.7 120.5,-98.7 227.5,-98.7 227.5,-75.7 120.5,-75.7"/>
<polygon fill="none" stroke="#000000" points="120.5,-75.7 120.5,-98.7 227.5,-98.7 227.5,-75.7 120.5,-75.7"/>
<text text-anchor="start" x="125.5" y="-84.8" font-family="Helvetica,sans-Serif" font-weight="bold" font-size="11.00" fill="#000000">item</text>
<text text-anchor="start" x="192.5437" y="-83.8" font-family="Helvetica,sans-Serif" font-size="11.00" fill="#000000">[table]</text>
<polygon fill="none" stroke="#000000" points="120.5,-56.7 120.5,-75.7 227.5,-75.7 227.5,-56.7 120.5,-56.7"/>
<text text-anchor="start" x="123.5" y="-62.8" font-family="Helvetica,sans-Serif" font-size="11.00" fill="#000000">...</text>
<polygon fill="#ffffff" stroke="transparent" points="120.5,-37.7 120.5,-56.7 141.5,-56.7 141.5,-37.7 120.5,-37.7"/>
<polygon fill="none" stroke="#000000" points="120.5,-37.7 120.5,-56.7 141.5,-56.7 141.5,-37.7 120.5,-37.7"/>
<text text-anchor="start" x="123.2027" y="-43.8" font-family="Helvetica,sans-Serif" font-size="11.00" fill="#000000">&lt; 2</text>
<polygon fill="#ffffff" stroke="transparent" points="141.5,-37.7 141.5,-56.7 200.5,-56.7 200.5,-37.7 141.5,-37.7"/>
<polygon fill="none" stroke="#000000" points="141.5,-37.7 141.5,-56.7 200.5,-56.7 200.5,-37.7 141.5,-37.7"/>
<text text-anchor="start" x="144.1045" y="-43.8" font-family="Helvetica,sans-Serif" font-size="11.00" fill="#000000">2,352 rows</text>
<polygon fill="#ffffff" stroke="transparent" points="200.5,-37.7 200.5,-56.7 227.5,-56.7 227.5,-37.7 200.5,-37.7"/>
<polygon fill="none" stroke="#000000" points="200.5,-37.7 200.5,-56.7 227.5,-56.7 227.5,-37.7 200.5,-37.7"/>
<text text-anchor="start" x="203.1452" y="-43.8" font-family="Helvetica,sans-Serif" font-size="11.00" fill="#000000">11 &gt;</text>
</a>
</g>
</g>
<!-- authors_to_items&#45;&gt;item -->
<g id="edge2" class="edge">
<title>authors_to_items:w&#45;&gt;item:e</title>
<path fill="none" stroke="#000000" d="M374.4919,-159.4851C362.2392,-149.5929 366.0287,-124.6711 347,-110.7 301.2541,-77.1128 284.252,-65.7 227.5,-65.7"/>
<polygon fill="#000000" stroke="#000000" points="380.8393,-161.3949 387.4627,-167.1473 384.6696,-162.5475 388.5,-163.7 388.5,-163.7 388.5,-163.7 384.6696,-162.5475 389.5373,-160.2527 380.8393,-161.3949 380.8393,-161.3949"/>
<ellipse fill="none" stroke="#000000" cx="377.775" cy="-160.4729" rx="3.2" ry="3.2"/>
</g>
</g>
</svg>
