<?xml version="1.0" encoding="UTF-8" standalone="no"?>
<!DOCTYPE svg PUBLIC "-//W3C//DTD SVG 1.1//EN"
 "http://www.w3.org/Graphics/SVG/1.1/DTD/svg11.dtd">
<!-- Generated by graphviz version 2.40.1 (20161225.0304)
 -->
<!-- Title: twoDegreesRelationshipsDiagram Pages: 1 -->
<svg width="707pt" height="879pt"
 viewBox="0.00 0.00 707.00 878.70" xmlns="http://www.w3.org/2000/svg" xmlns:xlink="http://www.w3.org/1999/xlink">
<g id="graph0" class="graph" transform="scale(1 1) rotate(0) translate(4 874.7)">
<title>twoDegreesRelationshipsDiagram</title>
<polygon fill="#ffffff" stroke="transparent" points="-4,4 -4,-874.7 703,-874.7 703,4 -4,4"/>
<text text-anchor="middle" x="72.4936" y="-7.3" font-family="Helvetica,sans-Serif" font-size="11.00" fill="#000000">Generated by SchemaSpy</text>
<!-- authors_to_items -->
<g id="node1" class="node">
<title>authors_to_items</title>
<g id="a_node1"><a xlink:href="../../tables/authors_to_items.html" xlink:title="authors_to_items" target="_top">
<polygon fill="#ffffff" stroke="transparent" points="535,-612.2 535,-673.2 662,-673.2 662,-612.2 535,-612.2"/>
<polygon fill="#f5f5f5" stroke="transparent" points="535.5,-649.7 535.5,-672.7 662.5,-672.7 662.5,-649.7 535.5,-649.7"/>
<polygon fill="none" stroke="#000000" points="535.5,-649.7 535.5,-672.7 662.5,-672.7 662.5,-649.7 535.5,-649.7"/>
<text text-anchor="start" x="540.3227" y="-658.8" font-family="Helvetica,sans-Serif" font-weight="bold" font-size="11.00" fill="#000000">authors_to_items</text>
<text text-anchor="start" x="628.0219" y="-657.8" font-family="Helvetica,sans-Serif" font-size="11.00" fill="#000000">[table]</text>
<polygon fill="none" stroke="#000000" points="535.5,-630.7 535.5,-649.7 662.5,-649.7 662.5,-630.7 535.5,-630.7"/>
<text text-anchor="start" x="538.5" y="-636.8" font-family="Helvetica,sans-Serif" font-size="11.00" fill="#000000">...</text>
<polygon fill="#ffffff" stroke="transparent" points="535.5,-611.7 535.5,-630.7 573.5,-630.7 573.5,-611.7 535.5,-611.7"/>
<polygon fill="none" stroke="#000000" points="535.5,-611.7 535.5,-630.7 573.5,-630.7 573.5,-611.7 535.5,-611.7"/>
<text text-anchor="start" x="538.5" y="-617.8" font-family="Helvetica,sans-Serif" font-size="11.00" fill="#000000">&lt; 2</text>
<polygon fill="#ffffff" stroke="transparent" points="573.5,-611.7 573.5,-630.7 641.5,-630.7 641.5,-611.7 573.5,-611.7"/>
<polygon fill="none" stroke="#000000" points="573.5,-611.7 573.5,-630.7 641.5,-630.7 641.5,-611.7 573.5,-611.7"/>
<text text-anchor="start" x="584.7089" y="-617.8" font-family="Helvetica,sans-Serif" font-size="11.00" fill="#000000">2,850 rows</text>
<polygon fill="#ffffff" stroke="transparent" points="641.5,-611.7 641.5,-630.7 662.5,-630.7 662.5,-611.7 641.5,-611.7"/>
<polygon fill="none" stroke="#000000" points="641.5,-611.7 641.5,-630.7 662.5,-630.7 662.5,-611.7 641.5,-611.7"/>
<text text-anchor="start" x="653.3862" y="-617.8" font-family="Helvetica,sans-Serif" font-size="11.00" fill="#000000"> &#160;</text>
</a>
</g>
</g>
<!-- item -->
<g id="node2" class="node">
<title>item</title>
<g id="a_node2"><a xlink:href="../../tables/item.html" xlink:title="item" target="_top">
<polygon fill="#ffffff" stroke="transparent" points="144,-301.2 144,-428.2 457,-428.2 457,-301.2 144,-301.2"/>
<polygon fill="#f5f5f5" stroke="transparent" points="144.5,-404.7 144.5,-427.7 457.5,-427.7 457.5,-404.7 144.5,-404.7"/>
<polygon fill="none" stroke="#000000" points="144.5,-404.7 144.5,-427.7 457.5,-427.7 457.5,-404.7 144.5,-404.7"/>
<text text-anchor="start" x="149.5" y="-413.8" font-family="Helvetica,sans-Serif" font-weight="bold" font-size="11.00" fill="#000000">item</text>
<text text-anchor="start" x="422.5437" y="-412.8" font-family="Helvetica,sans-Serif" font-size="11.00" fill="#000000">[table]</text>
<polygon fill="none" stroke="#000000" points="144.5,-382.7 144.5,-404.7 457.5,-404.7 457.5,-382.7 144.5,-382.7"/>
<image xlink:href="../../images/primaryKeys.png" width="11px" height="12px" preserveAspectRatio="xMinYMin meet" x="149.5" y="-399.7"/>
<text text-anchor="start" x="164.5" y="-389.8" font-family="Helvetica,sans-Serif" font-size="11.00" fill="#000000">id</text>
<polygon fill="#ffffff" stroke="transparent" points="144.5,-360.7 144.5,-382.7 457.5,-382.7 457.5,-360.7 144.5,-360.7"/>
<polygon fill="none" stroke="#000000" points="144.5,-360.7 144.5,-382.7 457.5,-382.7 457.5,-360.7 144.5,-360.7"/>
<image xlink:href="../../images/foreignKeys.png" width="11px" height="12px" preserveAspectRatio="xMinYMin meet" x="149.5" y="-377.7"/>
<text text-anchor="start" x="164.5" y="-367.8" font-family="Helvetica,sans-Serif" font-size="11.00" fill="#000000">field_relationship</text>
<polygon fill="#ffffff" stroke="transparent" points="144.5,-338.7 144.5,-360.7 457.5,-360.7 457.5,-338.7 144.5,-338.7"/>
<polygon fill="none" stroke="#000000" points="144.5,-338.7 144.5,-360.7 457.5,-360.7 457.5,-338.7 144.5,-338.7"/>
<image xlink:href="../../images/foreignKeys.png" width="11px" height="12px" preserveAspectRatio="xMinYMin meet" x="149.5" y="-355.7"/>
<text text-anchor="start" x="164.5" y="-345.8" font-family="Helvetica,sans-Serif" font-size="11.00" fill="#000000">geo_specificity</text>
<polygon fill="none" stroke="#000000" points="144.5,-319.7 144.5,-338.7 457.5,-338.7 457.5,-319.7 144.5,-319.7"/>
<text text-anchor="start" x="147.5" y="-325.8" font-family="Helvetica,sans-Serif" font-size="11.00" fill="#000000">...</text>
<polygon fill="#ffffff" stroke="transparent" points="144.5,-300.7 144.5,-319.7 268.5,-319.7 268.5,-300.7 144.5,-300.7"/>
<polygon fill="none" stroke="#000000" points="144.5,-300.7 144.5,-319.7 268.5,-319.7 268.5,-300.7 144.5,-300.7"/>
<text text-anchor="start" x="147.5" y="-306.8" font-family="Helvetica,sans-Serif" font-size="11.00" fill="#000000">&lt; 2</text>
<polygon fill="#ffffff" stroke="transparent" points="268.5,-300.7 268.5,-319.7 378.5,-319.7 378.5,-300.7 268.5,-300.7"/>
<polygon fill="none" stroke="#000000" points="268.5,-300.7 268.5,-319.7 378.5,-319.7 378.5,-300.7 268.5,-300.7"/>
<text text-anchor="start" x="321.7089" y="-306.8" font-family="Helvetica,sans-Serif" font-size="11.00" fill="#000000">2,352 rows</text>
<polygon fill="#ffffff" stroke="transparent" points="378.5,-300.7 378.5,-319.7 457.5,-319.7 457.5,-300.7 378.5,-300.7"/>
<polygon fill="none" stroke="#000000" points="378.5,-300.7 378.5,-319.7 457.5,-319.7 457.5,-300.7 378.5,-300.7"/>
<text text-anchor="start" x="432.7904" y="-306.8" font-family="Helvetica,sans-Serif" font-size="11.00" fill="#000000">11 &gt;</text>
</a>
</g>
</g>
<!-- authors_to_items&#45;&gt;item -->
<g id="edge1" class="edge">
<title>authors_to_items:w&#45;&gt;item:e</title>
<path fill="none" stroke="#000000" d="M521.1876,-636.7136C509.8994,-630.9446 506.3051,-617.4391 498,-601.7 476.0236,-560.0523 504.5903,-393.7 457.5,-393.7"/>
<polygon fill="#000000" stroke="#000000" points="527.6687,-638.0659 534.7646,-643.2241 531.5843,-638.8829 535.5,-639.7 535.5,-639.7 535.5,-639.7 531.5843,-638.8829 536.2354,-636.1759 527.6687,-638.0659 527.6687,-638.0659"/>
<ellipse fill="none" stroke="#000000" cx="524.5361" cy="-637.4122" rx="3.2" ry="3.2"/>
</g>
<!-- optionset -->
<g id="node4" class="node">
<title>optionset</title>
<g id="a_node4"><a xlink:href="../../tables/optionset.html" xlink:title="optionset" target="_top">
<polygon fill="#ffffff" stroke="transparent" points="8,-312.2 8,-395.2 95,-395.2 95,-312.2 8,-312.2"/>
<polygon fill="#f5f5f5" stroke="transparent" points="8.5,-371.7 8.5,-394.7 95.5,-394.7 95.5,-371.7 8.5,-371.7"/>
<polygon fill="none" stroke="#000000" points="8.5,-371.7 8.5,-394.7 95.5,-394.7 95.5,-371.7 8.5,-371.7"/>
<text text-anchor="start" x="13.1854" y="-380.8" font-family="Helvetica,sans-Serif" font-weight="bold" font-size="11.00" fill="#000000">optionset</text>
<text text-anchor="start" x="61.0219" y="-379.8" font-family="Helvetica,sans-Serif" font-size="11.00" fill="#000000">[table]</text>
<polygon fill="none" stroke="#000000" points="8.5,-349.7 8.5,-371.7 95.5,-371.7 95.5,-349.7 8.5,-349.7"/>
<image xlink:href="../../images/primaryKeys.png" width="11px" height="12px" preserveAspectRatio="xMinYMin meet" x="13.5" y="-366.7"/>
<text text-anchor="start" x="34.5" y="-356.8" font-family="Helvetica,sans-Serif" font-size="11.00" fill="#000000">id</text>
<polygon fill="none" stroke="#000000" points="8.5,-330.7 8.5,-349.7 95.5,-349.7 95.5,-330.7 8.5,-330.7"/>
<text text-anchor="start" x="11.5" y="-336.8" font-family="Helvetica,sans-Serif" font-size="11.00" fill="#000000">...</text>
<polygon fill="#ffffff" stroke="transparent" points="8.5,-311.7 8.5,-330.7 25.5,-330.7 25.5,-311.7 8.5,-311.7"/>
<polygon fill="none" stroke="#000000" points="8.5,-311.7 8.5,-330.7 25.5,-330.7 25.5,-311.7 8.5,-311.7"/>
<text text-anchor="start" x="11.5" y="-317.8" font-family="Helvetica,sans-Serif" font-size="11.00" fill="#000000"> &#160;</text>
<polygon fill="#ffffff" stroke="transparent" points="25.5,-311.7 25.5,-330.7 71.5,-330.7 71.5,-311.7 25.5,-311.7"/>
<polygon fill="none" stroke="#000000" points="25.5,-311.7 25.5,-330.7 71.5,-330.7 71.5,-311.7 25.5,-311.7"/>
<text text-anchor="start" x="29.9956" y="-317.8" font-family="Helvetica,sans-Serif" font-size="11.00" fill="#000000">47 rows</text>
<polygon fill="#ffffff" stroke="transparent" points="71.5,-311.7 71.5,-330.7 95.5,-330.7 95.5,-311.7 71.5,-311.7"/>
<polygon fill="none" stroke="#000000" points="71.5,-311.7 71.5,-330.7 95.5,-330.7 95.5,-311.7 71.5,-311.7"/>
<text text-anchor="start" x="76.9053" y="-317.8" font-family="Helvetica,sans-Serif" font-size="11.00" fill="#000000">6 &gt;</text>
</a>
</g>
</g>
<!-- item&#45;&gt;optionset -->
<g id="edge9" class="edge">
<title>item:w&#45;&gt;optionset:e</title>
<path fill="none" stroke="#000000" d="M130.2027,-369.8836C118.7382,-366.7593 112.0655,-360.7 95.5,-360.7"/>
<polygon fill="#000000" stroke="#000000" points="136.5638,-370.6917 144.0463,-375.2713 140.5319,-371.1958 144.5,-371.7 144.5,-371.7 144.5,-371.7 140.5319,-371.1958 144.9537,-368.1287 136.5638,-370.6917 136.5638,-370.6917"/>
<ellipse fill="none" stroke="#000000" cx="133.3893" cy="-370.2884" rx="3.2" ry="3.2"/>
</g>
<!-- item&#45;&gt;optionset -->
<g id="edge10" class="edge">
<title>item:w&#45;&gt;optionset:e</title>
<path fill="none" stroke="#000000" d="M130.2027,-351.5164C118.7382,-354.6407 112.0655,-360.7 95.5,-360.7"/>
<polygon fill="#000000" stroke="#000000" points="136.5638,-350.7083 144.9537,-353.2713 140.5319,-350.2042 144.5,-349.7 144.5,-349.7 144.5,-349.7 140.5319,-350.2042 144.0463,-346.1287 136.5638,-350.7083 136.5638,-350.7083"/>
<ellipse fill="none" stroke="#000000" cx="133.3893" cy="-351.1116" rx="3.2" ry="3.2"/>
</g>
<!-- covid_tags_to_items -->
<g id="node3" class="node">
<title>covid_tags_to_items</title>
<g id="a_node3"><a xlink:href="../../tables/covid_tags_to_items.html" xlink:title="covid_tags_to_items" target="_top">
<polygon fill="#ffffff" stroke="transparent" points="506,-776.7 506,-866.7 691,-866.7 691,-776.7 506,-776.7"/>
<polygon fill="#f5f5f5" stroke="transparent" points="508.5,-841.7 508.5,-864.7 689.5,-864.7 689.5,-841.7 508.5,-841.7"/>
<polygon fill="none" stroke="#000000" points="508.5,-841.7 508.5,-864.7 689.5,-864.7 689.5,-841.7 508.5,-841.7"/>
<text text-anchor="start" x="513.5" y="-850.8" font-family="Helvetica,sans-Serif" font-weight="bold" font-size="11.00" fill="#000000">covid_tags_to_items</text>
<text text-anchor="start" x="654.5437" y="-849.8" font-family="Helvetica,sans-Serif" font-size="11.00" fill="#000000">[table]</text>
<polygon fill="none" stroke="#000000" points="508.5,-819.7 508.5,-841.7 647.5,-841.7 647.5,-819.7 508.5,-819.7"/>
<image xlink:href="../../images/primaryKeys.png" width="11px" height="12px" preserveAspectRatio="xMinYMin meet" x="513.5" y="-836.7"/>
<text text-anchor="start" x="528.5" y="-826.8" font-family="Helvetica,sans-Serif" font-size="11.00" fill="#000000">covidtag</text>
<polygon fill="none" stroke="#000000" points="647.5,-819.7 647.5,-841.7 689.5,-841.7 689.5,-819.7 647.5,-819.7"/>
<text text-anchor="start" x="650.4644" y="-827.4" font-family="Helvetica,sans-Serif" font-size="11.00" fill="#000000">int4[10]</text>
<polygon fill="none" stroke="#000000" points="508.5,-797.7 508.5,-819.7 647.5,-819.7 647.5,-797.7 508.5,-797.7"/>
<image xlink:href="../../images/primaryKeys.png" width="11px" height="12px" preserveAspectRatio="xMinYMin meet" x="513.5" y="-814.7"/>
<text text-anchor="start" x="528.5" y="-804.8" font-family="Helvetica,sans-Serif" font-size="11.00" fill="#000000">item</text>
<polygon fill="none" stroke="#000000" points="647.5,-797.7 647.5,-819.7 689.5,-819.7 689.5,-797.7 647.5,-797.7"/>
<text text-anchor="start" x="650.4644" y="-805.4" font-family="Helvetica,sans-Serif" font-size="11.00" fill="#000000">int4[10]</text>
<polygon fill="#ffffff" stroke="transparent" points="508.5,-778.7 508.5,-797.7 558.5,-797.7 558.5,-778.7 508.5,-778.7"/>
<polygon fill="none" stroke="#000000" points="508.5,-778.7 508.5,-797.7 558.5,-797.7 558.5,-778.7 508.5,-778.7"/>
<text text-anchor="start" x="511.5" y="-784.8" font-family="Helvetica,sans-Serif" font-size="11.00" fill="#000000">&lt; 2</text>
<polygon fill="#ffffff" stroke="transparent" points="558.5,-778.7 558.5,-797.7 647.5,-797.7 647.5,-778.7 558.5,-778.7"/>
<polygon fill="none" stroke="#000000" points="558.5,-778.7 558.5,-797.7 647.5,-797.7 647.5,-778.7 558.5,-778.7"/>
<text text-anchor="start" x="590.7089" y="-784.8" font-family="Helvetica,sans-Serif" font-size="11.00" fill="#000000">4,810 rows</text>
<polygon fill="#ffffff" stroke="transparent" points="647.5,-778.7 647.5,-797.7 689.5,-797.7 689.5,-778.7 647.5,-778.7"/>
<polygon fill="none" stroke="#000000" points="647.5,-778.7 647.5,-797.7 689.5,-797.7 689.5,-778.7 647.5,-778.7"/>
<text text-anchor="start" x="670.9053" y="-784.8" font-family="Helvetica,sans-Serif" font-size="11.00" fill="#000000">0 &gt;</text>
<polygon fill="none" stroke="#000000" stroke-width="2" points="507,-777.7 507,-865.7 690,-865.7 690,-777.7 507,-777.7"/>
</a>
</g>
</g>
<!-- covid_tags_to_items&#45;&gt;item -->
<g id="edge3" class="edge">
<title>covid_tags_to_items:w&#45;&gt;item:e</title>
<path fill="none" stroke="#000000" d="M494.4212,-804.5926C430.6027,-761.492 544.9717,-393.7 457.5,-393.7"/>
<polygon fill="#000000" stroke="#000000" points="500.8202,-806.4594 507.4917,-812.1559 504.6601,-807.5797 508.5,-808.7 508.5,-808.7 508.5,-808.7 504.6601,-807.5797 509.5083,-805.2441 500.8202,-806.4594 500.8202,-806.4594"/>
<ellipse fill="none" stroke="#000000" cx="497.7482" cy="-805.5632" rx="3.2" ry="3.2"/>
</g>
<!-- covid_tags_to_items&#45;&gt;optionset -->
<g id="edge2" class="edge">
<title>covid_tags_to_items:w&#45;&gt;optionset:e</title>
<path fill="none" stroke="#000000" d="M493.8542,-830.545C305.9142,-826.4987 242.6893,-743.2313 136,-580.7 108.721,-539.143 145.2104,-360.7 95.5,-360.7"/>
<polygon fill="#000000" stroke="#000000" points="500.5004,-830.6153 508.4619,-834.2998 504.5002,-830.6576 508.5,-830.7 508.5,-830.7 508.5,-830.7 504.5002,-830.6576 508.5381,-827.1002 500.5004,-830.6153 500.5004,-830.6153"/>
<ellipse fill="none" stroke="#000000" cx="497.3006" cy="-830.5814" rx="3.2" ry="3.2"/>
</g>
<!-- covid_topics_to_items -->
<g id="node5" class="node">
<title>covid_topics_to_items</title>
<g id="a_node5"><a xlink:href="../../tables/covid_topics_to_items.html" xlink:title="covid_topics_to_items" target="_top">
<polygon fill="#ffffff" stroke="transparent" points="523,-694.2 523,-755.2 674,-755.2 674,-694.2 523,-694.2"/>
<polygon fill="#f5f5f5" stroke="transparent" points="523.5,-731.7 523.5,-754.7 674.5,-754.7 674.5,-731.7 523.5,-731.7"/>
<polygon fill="none" stroke="#000000" points="523.5,-731.7 523.5,-754.7 674.5,-754.7 674.5,-731.7 523.5,-731.7"/>
<text text-anchor="start" x="528.4053" y="-740.8" font-family="Helvetica,sans-Serif" font-weight="bold" font-size="11.00" fill="#000000">covid_topics_to_items</text>
<text text-anchor="start" x="640.0219" y="-739.8" font-family="Helvetica,sans-Serif" font-size="11.00" fill="#000000">[table]</text>
<polygon fill="none" stroke="#000000" points="523.5,-712.7 523.5,-731.7 674.5,-731.7 674.5,-712.7 523.5,-712.7"/>
<text text-anchor="start" x="526.5" y="-718.8" font-family="Helvetica,sans-Serif" font-size="11.00" fill="#000000">...</text>
<polygon fill="#ffffff" stroke="transparent" points="523.5,-693.7 523.5,-712.7 584.5,-712.7 584.5,-693.7 523.5,-693.7"/>
<polygon fill="none" stroke="#000000" points="523.5,-693.7 523.5,-712.7 584.5,-712.7 584.5,-693.7 523.5,-693.7"/>
<text text-anchor="start" x="526.5" y="-699.8" font-family="Helvetica,sans-Serif" font-size="11.00" fill="#000000">&lt; 2</text>
<polygon fill="#ffffff" stroke="transparent" points="584.5,-693.7 584.5,-712.7 642.5,-712.7 642.5,-693.7 584.5,-693.7"/>
<polygon fill="none" stroke="#000000" points="584.5,-693.7 584.5,-712.7 642.5,-712.7 642.5,-693.7 584.5,-693.7"/>
<text text-anchor="start" x="607.1105" y="-699.8" font-family="Helvetica,sans-Serif" font-size="11.00" fill="#000000">0 rows</text>
<polygon fill="#ffffff" stroke="transparent" points="642.5,-693.7 642.5,-712.7 674.5,-712.7 674.5,-693.7 642.5,-693.7"/>
<polygon fill="none" stroke="#000000" points="642.5,-693.7 642.5,-712.7 674.5,-712.7 674.5,-693.7 642.5,-693.7"/>
<text text-anchor="start" x="665.3862" y="-699.8" font-family="Helvetica,sans-Serif" font-size="11.00" fill="#000000"> &#160;</text>
</a>
</g>
</g>
<!-- covid_topics_to_items&#45;&gt;item -->
<g id="edge5" class="edge">
<title>covid_topics_to_items:w&#45;&gt;item:e</title>
<path fill="none" stroke="#000000" d="M509.7231,-716.8088C460.2827,-676.0067 526.4769,-393.7 457.5,-393.7"/>
<polygon fill="#000000" stroke="#000000" points="515.961,-719.0234 522.2955,-725.0925 519.7305,-720.3617 523.5,-721.7 523.5,-721.7 523.5,-721.7 519.7305,-720.3617 524.7045,-718.3075 515.961,-719.0234 515.961,-719.0234"/>
<ellipse fill="none" stroke="#000000" cx="512.9454" cy="-717.9528" rx="3.2" ry="3.2"/>
</g>
<!-- covid_topics_to_items&#45;&gt;optionset -->
<g id="edge4" class="edge">
<title>covid_topics_to_items:w&#45;&gt;optionset:e</title>
<path fill="none" stroke="#000000" d="M508.8561,-720.5566C398.5626,-704.1716 202.4094,-516.0469 136,-438.7 110.5546,-409.0637 134.5612,-360.7 95.5,-360.7"/>
<polygon fill="#000000" stroke="#000000" points="515.5243,-721.0772 523.2197,-725.2891 519.5121,-721.3886 523.5,-721.7 523.5,-721.7 523.5,-721.7 519.5121,-721.3886 523.7803,-718.1109 515.5243,-721.0772 515.5243,-721.0772"/>
<ellipse fill="none" stroke="#000000" cx="512.334" cy="-720.8281" rx="3.2" ry="3.2"/>
</g>
<!-- events_to_items -->
<g id="node6" class="node">
<title>events_to_items</title>
<g id="a_node6"><a xlink:href="../../tables/events_to_items.html" xlink:title="events_to_items" target="_top">
<polygon fill="#ffffff" stroke="transparent" points="537,-530.2 537,-591.2 660,-591.2 660,-530.2 537,-530.2"/>
<polygon fill="#f5f5f5" stroke="transparent" points="537.5,-567.7 537.5,-590.7 660.5,-590.7 660.5,-567.7 537.5,-567.7"/>
<polygon fill="none" stroke="#000000" points="537.5,-567.7 537.5,-590.7 660.5,-590.7 660.5,-567.7 537.5,-567.7"/>
<text text-anchor="start" x="542.4611" y="-576.8" font-family="Helvetica,sans-Serif" font-weight="bold" font-size="11.00" fill="#000000">events_to_items</text>
<text text-anchor="start" x="626.0219" y="-575.8" font-family="Helvetica,sans-Serif" font-size="11.00" fill="#000000">[table]</text>
<polygon fill="none" stroke="#000000" points="537.5,-548.7 537.5,-567.7 660.5,-567.7 660.5,-548.7 537.5,-548.7"/>
<text text-anchor="start" x="540.5" y="-554.8" font-family="Helvetica,sans-Serif" font-size="11.00" fill="#000000">...</text>
<polygon fill="#ffffff" stroke="transparent" points="537.5,-529.7 537.5,-548.7 573.5,-548.7 573.5,-529.7 537.5,-529.7"/>
<polygon fill="none" stroke="#000000" points="537.5,-529.7 537.5,-548.7 573.5,-548.7 573.5,-529.7 537.5,-529.7"/>
<text text-anchor="start" x="540.5" y="-535.8" font-family="Helvetica,sans-Serif" font-size="11.00" fill="#000000">&lt; 2</text>
<polygon fill="#ffffff" stroke="transparent" points="573.5,-529.7 573.5,-548.7 640.5,-548.7 640.5,-529.7 573.5,-529.7"/>
<polygon fill="none" stroke="#000000" points="573.5,-529.7 573.5,-548.7 640.5,-548.7 640.5,-529.7 573.5,-529.7"/>
<text text-anchor="start" x="583.7089" y="-535.8" font-family="Helvetica,sans-Serif" font-size="11.00" fill="#000000">1,091 rows</text>
<polygon fill="#ffffff" stroke="transparent" points="640.5,-529.7 640.5,-548.7 660.5,-548.7 660.5,-529.7 640.5,-529.7"/>
<polygon fill="none" stroke="#000000" points="640.5,-529.7 640.5,-548.7 660.5,-548.7 660.5,-529.7 640.5,-529.7"/>
<text text-anchor="start" x="651.3862" y="-535.8" font-family="Helvetica,sans-Serif" font-size="11.00" fill="#000000"> &#160;</text>
</a>
</g>
</g>
<!-- events_to_items&#45;&gt;item -->
<g id="edge6" class="edge">
<title>events_to_items:w&#45;&gt;item:e</title>
<path fill="none" stroke="#000000" d="M523.2269,-554.8489C511.428,-549.1088 507.7728,-535.3617 498,-519.7 466.8607,-469.7967 516.3218,-393.7 457.5,-393.7"/>
<polygon fill="#000000" stroke="#000000" points="529.655,-556.1329 536.7948,-561.2303 533.5775,-556.9164 537.5,-557.7 537.5,-557.7 537.5,-557.7 533.5775,-556.9164 538.2052,-554.1697 529.655,-556.1329 529.655,-556.1329"/>
<ellipse fill="none" stroke="#000000" cx="526.517" cy="-555.506" rx="3.2" ry="3.2"/>
</g>
<!-- files_to_items -->
<g id="node7" class="node">
<title>files_to_items</title>
<g id="a_node7"><a xlink:href="../../tables/files_to_items.html" xlink:title="files_to_items" target="_top">
<polygon fill="#ffffff" stroke="transparent" points="543.5,-448.2 543.5,-509.2 653.5,-509.2 653.5,-448.2 543.5,-448.2"/>
<polygon fill="#f5f5f5" stroke="transparent" points="543.5,-485.7 543.5,-508.7 653.5,-508.7 653.5,-485.7 543.5,-485.7"/>
<polygon fill="none" stroke="#000000" points="543.5,-485.7 543.5,-508.7 653.5,-508.7 653.5,-485.7 543.5,-485.7"/>
<text text-anchor="start" x="548.3851" y="-494.8" font-family="Helvetica,sans-Serif" font-weight="bold" font-size="11.00" fill="#000000">files_to_items</text>
<text text-anchor="start" x="619.0219" y="-493.8" font-family="Helvetica,sans-Serif" font-size="11.00" fill="#000000">[table]</text>
<polygon fill="none" stroke="#000000" points="543.5,-466.7 543.5,-485.7 653.5,-485.7 653.5,-466.7 543.5,-466.7"/>
<text text-anchor="start" x="546.5" y="-472.8" font-family="Helvetica,sans-Serif" font-size="11.00" fill="#000000">...</text>
<polygon fill="#ffffff" stroke="transparent" points="543.5,-447.7 543.5,-466.7 573.5,-466.7 573.5,-447.7 543.5,-447.7"/>
<polygon fill="none" stroke="#000000" points="543.5,-447.7 543.5,-466.7 573.5,-466.7 573.5,-447.7 543.5,-447.7"/>
<text text-anchor="start" x="546.5" y="-453.8" font-family="Helvetica,sans-Serif" font-size="11.00" fill="#000000">&lt; 2</text>
<polygon fill="#ffffff" stroke="transparent" points="573.5,-447.7 573.5,-466.7 636.5,-466.7 636.5,-447.7 573.5,-447.7"/>
<polygon fill="none" stroke="#000000" points="573.5,-447.7 573.5,-466.7 636.5,-466.7 636.5,-447.7 573.5,-447.7"/>
<text text-anchor="start" x="579.7089" y="-453.8" font-family="Helvetica,sans-Serif" font-size="11.00" fill="#000000">1,994 rows</text>
<polygon fill="#ffffff" stroke="transparent" points="636.5,-447.7 636.5,-466.7 653.5,-466.7 653.5,-447.7 636.5,-447.7"/>
<polygon fill="none" stroke="#000000" points="636.5,-447.7 636.5,-466.7 653.5,-466.7 653.5,-447.7 636.5,-447.7"/>
<text text-anchor="start" x="644.3862" y="-453.8" font-family="Helvetica,sans-Serif" font-size="11.00" fill="#000000"> &#160;</text>
</a>
</g>
</g>
<!-- files_to_items&#45;&gt;item -->
<g id="edge7" class="edge">
<title>files_to_items:w&#45;&gt;item:e</title>
<path fill="none" stroke="#000000" d="M529.1108,-472.897C516.142,-466.8019 512.7523,-451.758 498,-437.7 478.7588,-419.3643 484.0786,-393.7 457.5,-393.7"/>
<polygon fill="#000000" stroke="#000000" points="535.6476,-474.1703 542.8116,-479.2336 539.5738,-474.9352 543.5,-475.7 543.5,-475.7 543.5,-475.7 539.5738,-474.9352 544.1884,-472.1664 535.6476,-474.1703 535.6476,-474.1703"/>
<ellipse fill="none" stroke="#000000" cx="532.5066" cy="-473.5584" rx="3.2" ry="3.2"/>
</g>
<!-- funders_to_items -->
<g id="node8" class="node">
<title>funders_to_items</title>
<g id="a_node8"><a xlink:href="../../tables/funders_to_items.html" xlink:title="funders_to_items" target="_top">
<polygon fill="#ffffff" stroke="transparent" points="535,-366.2 535,-427.2 662,-427.2 662,-366.2 535,-366.2"/>
<polygon fill="#f5f5f5" stroke="transparent" points="535.5,-403.7 535.5,-426.7 662.5,-426.7 662.5,-403.7 535.5,-403.7"/>
<polygon fill="none" stroke="#000000" points="535.5,-403.7 535.5,-426.7 662.5,-426.7 662.5,-403.7 535.5,-403.7"/>
<text text-anchor="start" x="540.3227" y="-412.8" font-family="Helvetica,sans-Serif" font-weight="bold" font-size="11.00" fill="#000000">funders_to_items</text>
<text text-anchor="start" x="628.0219" y="-411.8" font-family="Helvetica,sans-Serif" font-size="11.00" fill="#000000">[table]</text>
<polygon fill="none" stroke="#000000" points="535.5,-384.7 535.5,-403.7 662.5,-403.7 662.5,-384.7 535.5,-384.7"/>
<text text-anchor="start" x="538.5" y="-390.8" font-family="Helvetica,sans-Serif" font-size="11.00" fill="#000000">...</text>
<polygon fill="#ffffff" stroke="transparent" points="535.5,-365.7 535.5,-384.7 573.5,-384.7 573.5,-365.7 535.5,-365.7"/>
<polygon fill="none" stroke="#000000" points="535.5,-365.7 535.5,-384.7 573.5,-384.7 573.5,-365.7 535.5,-365.7"/>
<text text-anchor="start" x="538.5" y="-371.8" font-family="Helvetica,sans-Serif" font-size="11.00" fill="#000000">&lt; 2</text>
<polygon fill="#ffffff" stroke="transparent" points="573.5,-365.7 573.5,-384.7 641.5,-384.7 641.5,-365.7 573.5,-365.7"/>
<polygon fill="none" stroke="#000000" points="573.5,-365.7 573.5,-384.7 641.5,-384.7 641.5,-365.7 573.5,-365.7"/>
<text text-anchor="start" x="584.7089" y="-371.8" font-family="Helvetica,sans-Serif" font-size="11.00" fill="#000000">3,210 rows</text>
<polygon fill="#ffffff" stroke="transparent" points="641.5,-365.7 641.5,-384.7 662.5,-384.7 662.5,-365.7 641.5,-365.7"/>
<polygon fill="none" stroke="#000000" points="641.5,-365.7 641.5,-384.7 662.5,-384.7 662.5,-365.7 641.5,-365.7"/>
<text text-anchor="start" x="653.3862" y="-371.8" font-family="Helvetica,sans-Serif" font-size="11.00" fill="#000000"> &#160;</text>
</a>
</g>
</g>
<!-- funders_to_items&#45;&gt;item -->
<g id="edge8" class="edge">
<title>funders_to_items:w&#45;&gt;item:e</title>
<path fill="none" stroke="#000000" d="M520.9559,-393.7C497.4902,-393.7 486.75,-393.7 457.5,-393.7"/>
<polygon fill="#000000" stroke="#000000" points="527.5,-393.7001 535.5,-397.3 531.5,-393.7 535.5,-393.7 535.5,-393.7 535.5,-393.7 531.5,-393.7 535.5,-390.1 527.5,-393.7001 527.5,-393.7001"/>
<ellipse fill="none" stroke="#000000" cx="524.3" cy="-393.7001" rx="3.2" ry="3.2"/>
</g>
<!-- items_to_items -->
<g id="node9" class="node">
<title>items_to_items</title>
<g id="a_node9"><a xlink:href="../../tables/items_to_items.html" xlink:title="items_to_items" target="_top">
<polygon fill="#ffffff" stroke="transparent" points="540.5,-284.2 540.5,-345.2 656.5,-345.2 656.5,-284.2 540.5,-284.2"/>
<polygon fill="#f5f5f5" stroke="transparent" points="540.5,-321.7 540.5,-344.7 656.5,-344.7 656.5,-321.7 540.5,-321.7"/>
<polygon fill="none" stroke="#000000" points="540.5,-321.7 540.5,-344.7 656.5,-344.7 656.5,-321.7 540.5,-321.7"/>
<text text-anchor="start" x="545.0246" y="-330.8" font-family="Helvetica,sans-Serif" font-weight="bold" font-size="11.00" fill="#000000">items_to_items</text>
<text text-anchor="start" x="622.0219" y="-329.8" font-family="Helvetica,sans-Serif" font-size="11.00" fill="#000000">[table]</text>
<polygon fill="none" stroke="#000000" points="540.5,-302.7 540.5,-321.7 656.5,-321.7 656.5,-302.7 540.5,-302.7"/>
<text text-anchor="start" x="543.5" y="-308.8" font-family="Helvetica,sans-Serif" font-size="11.00" fill="#000000">...</text>
<polygon fill="#ffffff" stroke="transparent" points="540.5,-283.7 540.5,-302.7 573.5,-302.7 573.5,-283.7 540.5,-283.7"/>
<polygon fill="none" stroke="#000000" points="540.5,-283.7 540.5,-302.7 573.5,-302.7 573.5,-283.7 540.5,-283.7"/>
<text text-anchor="start" x="543.5" y="-289.8" font-family="Helvetica,sans-Serif" font-size="11.00" fill="#000000">&lt; 2</text>
<polygon fill="#ffffff" stroke="transparent" points="573.5,-283.7 573.5,-302.7 638.5,-302.7 638.5,-283.7 573.5,-283.7"/>
<polygon fill="none" stroke="#000000" points="573.5,-283.7 573.5,-302.7 638.5,-302.7 638.5,-283.7 573.5,-283.7"/>
<text text-anchor="start" x="581.7089" y="-289.8" font-family="Helvetica,sans-Serif" font-size="11.00" fill="#000000">1,288 rows</text>
<polygon fill="#ffffff" stroke="transparent" points="638.5,-283.7 638.5,-302.7 656.5,-302.7 656.5,-283.7 638.5,-283.7"/>
<polygon fill="none" stroke="#000000" points="638.5,-283.7 638.5,-302.7 656.5,-302.7 656.5,-283.7 638.5,-283.7"/>
<text text-anchor="start" x="647.3862" y="-289.8" font-family="Helvetica,sans-Serif" font-size="11.00" fill="#000000"> &#160;</text>
</a>
</g>
</g>
<!-- items_to_items&#45;&gt;item -->
<g id="edge11" class="edge">
<title>items_to_items:w&#45;&gt;item:e</title>
<path fill="none" stroke="#000000" d="M525.8993,-312.6749C492.307,-322.7283 503.6838,-388.3563 457.5,-393.7"/>
<polygon fill="#000000" stroke="#000000" points="532.5178,-312.233 540.7399,-315.292 536.5089,-311.9665 540.5,-311.7 540.5,-311.7 540.5,-311.7 536.5089,-311.9665 540.2601,-308.108 532.5178,-312.233 532.5178,-312.233"/>
<ellipse fill="none" stroke="#000000" cx="529.3249" cy="-312.4462" rx="3.2" ry="3.2"/>
</g>
<!-- items_to_items&#45;&gt;item -->
<g id="edge12" class="edge">
<title>items_to_items:w&#45;&gt;item:e</title>
<path fill="none" stroke="#000000" d="M526.344,-316.2253C492.2061,-335.0069 503.8863,-399.9617 457.5,-393.7"/>
<polygon fill="#000000" stroke="#000000" points="532.8799,-314.136 541.5962,-315.1291 536.6899,-312.918 540.5,-311.7 540.5,-311.7 540.5,-311.7 536.6899,-312.918 539.4038,-308.2709 532.8799,-314.136 532.8799,-314.136"/>
<ellipse fill="none" stroke="#000000" cx="529.8318" cy="-315.1103" rx="3.2" ry="3.2"/>
</g>
<!-- key_topics_to_items -->
<g id="node10" class="node">
<title>key_topics_to_items</title>
<g id="a_node10"><a xlink:href="../../tables/key_topics_to_items.html" xlink:title="key_topics_to_items" target="_top">
<polygon fill="#ffffff" stroke="transparent" points="527.5,-120.2 527.5,-181.2 669.5,-181.2 669.5,-120.2 527.5,-120.2"/>
<polygon fill="#f5f5f5" stroke="transparent" points="527.5,-157.7 527.5,-180.7 669.5,-180.7 669.5,-157.7 527.5,-157.7"/>
<polygon fill="none" stroke="#000000" points="527.5,-157.7 527.5,-180.7 669.5,-180.7 669.5,-157.7 527.5,-157.7"/>
<text text-anchor="start" x="532.1832" y="-166.8" font-family="Helvetica,sans-Serif" font-weight="bold" font-size="11.00" fill="#000000">key_topics_to_items</text>
<text text-anchor="start" x="635.0219" y="-165.8" font-family="Helvetica,sans-Serif" font-size="11.00" fill="#000000">[table]</text>
<polygon fill="none" stroke="#000000" points="527.5,-138.7 527.5,-157.7 669.5,-157.7 669.5,-138.7 527.5,-138.7"/>
<text text-anchor="start" x="530.5" y="-144.8" font-family="Helvetica,sans-Serif" font-size="11.00" fill="#000000">...</text>
<polygon fill="#ffffff" stroke="transparent" points="527.5,-119.7 527.5,-138.7 573.5,-138.7 573.5,-119.7 527.5,-119.7"/>
<polygon fill="none" stroke="#000000" points="527.5,-119.7 527.5,-138.7 573.5,-138.7 573.5,-119.7 527.5,-119.7"/>
<text text-anchor="start" x="530.5" y="-125.8" font-family="Helvetica,sans-Serif" font-size="11.00" fill="#000000">&lt; 2</text>
<polygon fill="#ffffff" stroke="transparent" points="573.5,-119.7 573.5,-138.7 644.5,-138.7 644.5,-119.7 573.5,-119.7"/>
<polygon fill="none" stroke="#000000" points="573.5,-119.7 573.5,-138.7 644.5,-138.7 644.5,-119.7 573.5,-119.7"/>
<text text-anchor="start" x="587.7089" y="-125.8" font-family="Helvetica,sans-Serif" font-size="11.00" fill="#000000">2,352 rows</text>
<polygon fill="#ffffff" stroke="transparent" points="644.5,-119.7 644.5,-138.7 669.5,-138.7 669.5,-119.7 644.5,-119.7"/>
<polygon fill="none" stroke="#000000" points="644.5,-119.7 644.5,-138.7 669.5,-138.7 669.5,-119.7 644.5,-119.7"/>
<text text-anchor="start" x="660.3862" y="-125.8" font-family="Helvetica,sans-Serif" font-size="11.00" fill="#000000"> &#160;</text>
</a>
</g>
</g>
<!-- key_topics_to_items&#45;&gt;item -->
<g id="edge13" class="edge">
<title>key_topics_to_items:w&#45;&gt;item:e</title>
<path fill="none" stroke="#000000" d="M513.649,-151.9852C504.7403,-159.4898 504.6414,-175.7362 498,-191.7 480.4145,-233.9701 503.2822,-393.7 457.5,-393.7"/>
<polygon fill="#000000" stroke="#000000" points="519.8574,-150.0645 528.564,-151.1392 523.6787,-148.8822 527.5,-147.7 527.5,-147.7 527.5,-147.7 523.6787,-148.8822 526.436,-144.2608 519.8574,-150.0645 519.8574,-150.0645"/>
<ellipse fill="none" stroke="#000000" cx="516.8003" cy="-151.0103" rx="3.2" ry="3.2"/>
</g>
<!-- key_topics_to_items&#45;&gt;optionset -->
<g id="edge14" class="edge">
<title>key_topics_to_items:w&#45;&gt;optionset:e</title>
<path fill="none" stroke="#000000" d="M513.0954,-147.7512C338.808,-149.0271 274.1504,-174.7516 136,-290.7 108.4686,-313.8068 131.443,-360.7 95.5,-360.7"/>
<polygon fill="#000000" stroke="#000000" points="519.5001,-147.7285 527.5128,-151.3 523.5,-147.7142 527.5,-147.7 527.5,-147.7 527.5,-147.7 523.5,-147.7142 527.4872,-144.1 519.5001,-147.7285 519.5001,-147.7285"/>
<ellipse fill="none" stroke="#000000" cx="516.3001" cy="-147.7399" rx="3.2" ry="3.2"/>
</g>
<!-- related_files_to_items -->
<g id="node11" class="node">
<title>related_files_to_items</title>
<g id="a_node11"><a xlink:href="../../tables/related_files_to_items.html" xlink:title="related_files_to_items" target="_top">
<polygon fill="#ffffff" stroke="transparent" points="524,-202.2 524,-263.2 673,-263.2 673,-202.2 524,-202.2"/>
<polygon fill="#f5f5f5" stroke="transparent" points="524.5,-239.7 524.5,-262.7 673.5,-262.7 673.5,-239.7 524.5,-239.7"/>
<polygon fill="none" stroke="#000000" points="524.5,-239.7 524.5,-262.7 673.5,-262.7 673.5,-239.7 524.5,-239.7"/>
<text text-anchor="start" x="529.018" y="-248.8" font-family="Helvetica,sans-Serif" font-weight="bold" font-size="11.00" fill="#000000">related_files_to_items</text>
<text text-anchor="start" x="639.0219" y="-247.8" font-family="Helvetica,sans-Serif" font-size="11.00" fill="#000000">[table]</text>
<polygon fill="none" stroke="#000000" points="524.5,-220.7 524.5,-239.7 673.5,-239.7 673.5,-220.7 524.5,-220.7"/>
<text text-anchor="start" x="527.5" y="-226.8" font-family="Helvetica,sans-Serif" font-size="11.00" fill="#000000">...</text>
<polygon fill="#ffffff" stroke="transparent" points="524.5,-201.7 524.5,-220.7 578.5,-220.7 578.5,-201.7 524.5,-201.7"/>
<polygon fill="none" stroke="#000000" points="524.5,-201.7 524.5,-220.7 578.5,-220.7 578.5,-201.7 524.5,-201.7"/>
<text text-anchor="start" x="527.5" y="-207.8" font-family="Helvetica,sans-Serif" font-size="11.00" fill="#000000">&lt; 2</text>
<polygon fill="#ffffff" stroke="transparent" points="578.5,-201.7 578.5,-220.7 644.5,-220.7 644.5,-201.7 578.5,-201.7"/>
<polygon fill="none" stroke="#000000" points="578.5,-201.7 578.5,-220.7 644.5,-220.7 644.5,-201.7 578.5,-201.7"/>
<text text-anchor="start" x="596.8807" y="-207.8" font-family="Helvetica,sans-Serif" font-size="11.00" fill="#000000">115 rows</text>
<polygon fill="#ffffff" stroke="transparent" points="644.5,-201.7 644.5,-220.7 673.5,-220.7 673.5,-201.7 644.5,-201.7"/>
<polygon fill="none" stroke="#000000" points="644.5,-201.7 644.5,-220.7 673.5,-220.7 673.5,-201.7 644.5,-201.7"/>
<text text-anchor="start" x="664.3862" y="-207.8" font-family="Helvetica,sans-Serif" font-size="11.00" fill="#000000"> &#160;</text>
</a>
</g>
</g>
<!-- related_files_to_items&#45;&gt;item -->
<g id="edge15" class="edge">
<title>related_files_to_items:w&#45;&gt;item:e</title>
<path fill="none" stroke="#000000" d="M510.2834,-232.0184C457.6494,-251.9517 530.7008,-393.7 457.5,-393.7"/>
<polygon fill="#000000" stroke="#000000" points="516.6043,-230.9876 525.0794,-233.2531 520.5521,-230.3438 524.5,-229.7 524.5,-229.7 524.5,-229.7 520.5521,-230.3438 523.9206,-226.1469 516.6043,-230.9876 516.6043,-230.9876"/>
<ellipse fill="none" stroke="#000000" cx="513.446" cy="-231.5027" rx="3.2" ry="3.2"/>
</g>
<!-- tags_to_items -->
<g id="node12" class="node">
<title>tags_to_items</title>
<g id="a_node12"><a xlink:href="../../tables/tags_to_items.html" xlink:title="tags_to_items" target="_top">
<polygon fill="#ffffff" stroke="transparent" points="543,-38.2 543,-99.2 654,-99.2 654,-38.2 543,-38.2"/>
<polygon fill="#f5f5f5" stroke="transparent" points="543.5,-75.7 543.5,-98.7 654.5,-98.7 654.5,-75.7 543.5,-75.7"/>
<polygon fill="none" stroke="#000000" points="543.5,-75.7 543.5,-98.7 654.5,-98.7 654.5,-75.7 543.5,-75.7"/>
<text text-anchor="start" x="548.2686" y="-84.8" font-family="Helvetica,sans-Serif" font-weight="bold" font-size="11.00" fill="#000000">tags_to_items</text>
<text text-anchor="start" x="620.0219" y="-83.8" font-family="Helvetica,sans-Serif" font-size="11.00" fill="#000000">[table]</text>
<polygon fill="none" stroke="#000000" points="543.5,-56.7 543.5,-75.7 654.5,-75.7 654.5,-56.7 543.5,-56.7"/>
<text text-anchor="start" x="546.5" y="-62.8" font-family="Helvetica,sans-Serif" font-size="11.00" fill="#000000">...</text>
<polygon fill="#ffffff" stroke="transparent" points="543.5,-37.7 543.5,-56.7 584.5,-56.7 584.5,-37.7 543.5,-37.7"/>
<polygon fill="none" stroke="#000000" points="543.5,-37.7 543.5,-56.7 584.5,-56.7 584.5,-37.7 543.5,-37.7"/>
<text text-anchor="start" x="546.5" y="-43.8" font-family="Helvetica,sans-Serif" font-size="11.00" fill="#000000">&lt; 2</text>
<polygon fill="#ffffff" stroke="transparent" points="584.5,-37.7 584.5,-56.7 632.5,-56.7 632.5,-37.7 584.5,-37.7"/>
<polygon fill="none" stroke="#000000" points="584.5,-37.7 584.5,-56.7 632.5,-56.7 632.5,-37.7 584.5,-37.7"/>
<text text-anchor="start" x="597.1105" y="-43.8" font-family="Helvetica,sans-Serif" font-size="11.00" fill="#000000">0 rows</text>
<polygon fill="#ffffff" stroke="transparent" points="632.5,-37.7 632.5,-56.7 654.5,-56.7 654.5,-37.7 632.5,-37.7"/>
<polygon fill="none" stroke="#000000" points="632.5,-37.7 632.5,-56.7 654.5,-56.7 654.5,-37.7 632.5,-37.7"/>
<text text-anchor="start" x="645.3862" y="-43.8" font-family="Helvetica,sans-Serif" font-size="11.00" fill="#000000"> &#160;</text>
</a>
</g>
</g>
<!-- tags_to_items&#45;&gt;item -->
<g id="edge16" class="edge">
<title>tags_to_items:w&#45;&gt;item:e</title>
<path fill="none" stroke="#000000" d="M529.0065,-67.9373C513.1693,-73.648 508.1904,-89.7331 498,-109.7 469.0205,-166.4821 521.2496,-393.7 457.5,-393.7"/>
<polygon fill="#000000" stroke="#000000" points="535.5936,-66.9205 544.0492,-69.2579 539.5468,-66.3103 543.5,-65.7 543.5,-65.7 543.5,-65.7 539.5468,-66.3103 542.9508,-62.1421 535.5936,-66.9205 535.5936,-66.9205"/>
<ellipse fill="none" stroke="#000000" cx="532.4311" cy="-67.4087" rx="3.2" ry="3.2"/>
</g>
<!-- tags_to_items&#45;&gt;optionset -->
<g id="edge17" class="edge">
<title>tags_to_items:w&#45;&gt;optionset:e</title>
<path fill="none" stroke="#000000" d="M529.0826,-65.5996C353.9221,-63.1805 262.543,-18.9905 136,-146.7 67.8672,-215.4608 192.2994,-360.7 95.5,-360.7"/>
<polygon fill="#000000" stroke="#000000" points="535.5002,-65.6442 543.4749,-69.2999 539.5001,-65.6721 543.5,-65.7 543.5,-65.7 543.5,-65.7 539.5001,-65.6721 543.5251,-62.1001 535.5002,-65.6442 535.5002,-65.6442"/>
<ellipse fill="none" stroke="#000000" cx="532.3003" cy="-65.6219" rx="3.2" ry="3.2"/>
</g>
</g>
</svg>
