<?xml version="1.0" encoding="UTF-8" standalone="no"?>
<!DOCTYPE svg PUBLIC "-//W3C//DTD SVG 1.1//EN"
 "http://www.w3.org/Graphics/SVG/1.1/DTD/svg11.dtd">
<!-- Generated by graphviz version 2.40.1 (20161225.0304)
 -->
<!-- Title: oneDegreeRelationshipsDiagram Pages: 1 -->
<svg width="718pt" height="219pt"
 viewBox="0.00 0.00 718.00 218.70" xmlns="http://www.w3.org/2000/svg" xmlns:xlink="http://www.w3.org/1999/xlink">
<g id="graph0" class="graph" transform="scale(1 1) rotate(0) translate(4 214.7)">
<title>oneDegreeRelationshipsDiagram</title>
<polygon fill="#ffffff" stroke="transparent" points="-4,4 -4,-214.7 714,-214.7 714,4 -4,4"/>
<text text-anchor="middle" x="72.4936" y="-7.3" font-family="Helvetica,sans-Serif" font-size="11.00" fill="#000000">Generated by SchemaSpy</text>
<!-- covid_topics_to_items -->
<g id="node1" class="node">
<title>covid_topics_to_items</title>
<g id="a_node1"><a xlink:href="../../tables/covid_topics_to_items.html" xlink:title="covid_topics_to_items" target="_top">
<polygon fill="#ffffff" stroke="transparent" points="506,-116.7 506,-206.7 702,-206.7 702,-116.7 506,-116.7"/>
<polygon fill="#f5f5f5" stroke="transparent" points="508,-181.7 508,-204.7 700,-204.7 700,-181.7 508,-181.7"/>
<polygon fill="none" stroke="#000000" points="508,-181.7 508,-204.7 700,-204.7 700,-181.7 508,-181.7"/>
<text text-anchor="start" x="513" y="-190.8" font-family="Helvetica,sans-Serif" font-weight="bold" font-size="11.00" fill="#000000">covid_topics_to_items</text>
<text text-anchor="start" x="665.0437" y="-189.8" font-family="Helvetica,sans-Serif" font-size="11.00" fill="#000000">[table]</text>
<polygon fill="none" stroke="#000000" points="508,-159.7 508,-181.7 658,-181.7 658,-159.7 508,-159.7"/>
<image xlink:href="../../images/primaryKeys.png" width="11px" height="12px" preserveAspectRatio="xMinYMin meet" x="513" y="-176.7"/>
<text text-anchor="start" x="528" y="-166.8" font-family="Helvetica,sans-Serif" font-size="11.00" fill="#000000">covidtopic</text>
<polygon fill="none" stroke="#000000" points="658,-159.7 658,-181.7 700,-181.7 700,-159.7 658,-159.7"/>
<text text-anchor="start" x="660.9644" y="-167.4" font-family="Helvetica,sans-Serif" font-size="11.00" fill="#000000">int4[10]</text>
<polygon fill="none" stroke="#000000" points="508,-137.7 508,-159.7 658,-159.7 658,-137.7 508,-137.7"/>
<image xlink:href="../../images/primaryKeys.png" width="11px" height="12px" preserveAspectRatio="xMinYMin meet" x="513" y="-154.7"/>
<text text-anchor="start" x="528" y="-144.8" font-family="Helvetica,sans-Serif" font-size="11.00" fill="#000000">item</text>
<polygon fill="none" stroke="#000000" points="658,-137.7 658,-159.7 700,-159.7 700,-137.7 658,-137.7"/>
<text text-anchor="start" x="660.9644" y="-145.4" font-family="Helvetica,sans-Serif" font-size="11.00" fill="#000000">int4[10]</text>
<polygon fill="#ffffff" stroke="transparent" points="508,-118.7 508,-137.7 574,-137.7 574,-118.7 508,-118.7"/>
<polygon fill="none" stroke="#000000" points="508,-118.7 508,-137.7 574,-137.7 574,-118.7 508,-118.7"/>
<text text-anchor="start" x="511" y="-124.8" font-family="Helvetica,sans-Serif" font-size="11.00" fill="#000000">&lt; 2</text>
<polygon fill="#ffffff" stroke="transparent" points="574,-118.7 574,-137.7 658,-137.7 658,-118.7 574,-118.7"/>
<polygon fill="none" stroke="#000000" points="574,-118.7 574,-137.7 658,-137.7 658,-118.7 574,-118.7"/>
<text text-anchor="start" x="622.6105" y="-124.8" font-family="Helvetica,sans-Serif" font-size="11.00" fill="#000000">0 rows</text>
<polygon fill="#ffffff" stroke="transparent" points="658,-118.7 658,-137.7 700,-137.7 700,-118.7 658,-118.7"/>
<polygon fill="none" stroke="#000000" points="658,-118.7 658,-137.7 700,-137.7 700,-118.7 658,-118.7"/>
<text text-anchor="start" x="681.4053" y="-124.8" font-family="Helvetica,sans-Serif" font-size="11.00" fill="#000000">0 &gt;</text>
<polygon fill="none" stroke="#000000" stroke-width="2" points="507,-117.7 507,-205.7 701,-205.7 701,-117.7 507,-117.7"/>
</a>
</g>
</g>
<!-- optionset -->
<g id="node2" class="node">
<title>optionset</title>
<g id="a_node2"><a xlink:href="../../tables/optionset.html" xlink:title="optionset" target="_top">
<polygon fill="#ffffff" stroke="transparent" points="8,-60.2 8,-143.2 95,-143.2 95,-60.2 8,-60.2"/>
<polygon fill="#f5f5f5" stroke="transparent" points="8.5,-119.7 8.5,-142.7 95.5,-142.7 95.5,-119.7 8.5,-119.7"/>
<polygon fill="none" stroke="#000000" points="8.5,-119.7 8.5,-142.7 95.5,-142.7 95.5,-119.7 8.5,-119.7"/>
<text text-anchor="start" x="13.1854" y="-128.8" font-family="Helvetica,sans-Serif" font-weight="bold" font-size="11.00" fill="#000000">optionset</text>
<text text-anchor="start" x="61.0219" y="-127.8" font-family="Helvetica,sans-Serif" font-size="11.00" fill="#000000">[table]</text>
<polygon fill="none" stroke="#000000" points="8.5,-97.7 8.5,-119.7 95.5,-119.7 95.5,-97.7 8.5,-97.7"/>
<image xlink:href="../../images/primaryKeys.png" width="11px" height="12px" preserveAspectRatio="xMinYMin meet" x="13.5" y="-114.7"/>
<text text-anchor="start" x="34.5" y="-104.8" font-family="Helvetica,sans-Serif" font-size="11.00" fill="#000000">id</text>
<polygon fill="none" stroke="#000000" points="8.5,-78.7 8.5,-97.7 95.5,-97.7 95.5,-78.7 8.5,-78.7"/>
<text text-anchor="start" x="11.5" y="-84.8" font-family="Helvetica,sans-Serif" font-size="11.00" fill="#000000">...</text>
<polygon fill="#ffffff" stroke="transparent" points="8.5,-59.7 8.5,-78.7 25.5,-78.7 25.5,-59.7 8.5,-59.7"/>
<polygon fill="none" stroke="#000000" points="8.5,-59.7 8.5,-78.7 25.5,-78.7 25.5,-59.7 8.5,-59.7"/>
<text text-anchor="start" x="11.5" y="-65.8" font-family="Helvetica,sans-Serif" font-size="11.00" fill="#000000"> &#160;</text>
<polygon fill="#ffffff" stroke="transparent" points="25.5,-59.7 25.5,-78.7 71.5,-78.7 71.5,-59.7 25.5,-59.7"/>
<polygon fill="none" stroke="#000000" points="25.5,-59.7 25.5,-78.7 71.5,-78.7 71.5,-59.7 25.5,-59.7"/>
<text text-anchor="start" x="29.9956" y="-65.8" font-family="Helvetica,sans-Serif" font-size="11.00" fill="#000000">47 rows</text>
<polygon fill="#ffffff" stroke="transparent" points="71.5,-59.7 71.5,-78.7 95.5,-78.7 95.5,-59.7 71.5,-59.7"/>
<polygon fill="none" stroke="#000000" points="71.5,-59.7 71.5,-78.7 95.5,-78.7 95.5,-59.7 71.5,-59.7"/>
<text text-anchor="start" x="76.9053" y="-65.8" font-family="Helvetica,sans-Serif" font-size="11.00" fill="#000000">6 &gt;</text>
</a>
</g>
</g>
<!-- covid_topics_to_items&#45;&gt;optionset -->
<g id="edge1" class="edge">
<title>covid_topics_to_items:w&#45;&gt;optionset:e</title>
<path fill="none" stroke="#000000" d="M493.3701,-171.6355C484.4837,-172.8585 478.2053,-174.9348 465,-175.7 319.0226,-184.1586 263.3608,-247.5344 136,-175.7 105.693,-158.6061 130.2953,-108.7 95.5,-108.7"/>
<polygon fill="#000000" stroke="#000000" points="500.0163,-171.2106 508.2298,-174.2927 504.0082,-170.9553 508,-170.7 508,-170.7 508,-170.7 504.0082,-170.9553 507.7702,-167.1073 500.0163,-171.2106 500.0163,-171.2106"/>
<ellipse fill="none" stroke="#000000" cx="496.8228" cy="-171.4148" rx="3.2" ry="3.2"/>
</g>
<!-- item -->
<g id="node3" class="node">
<title>item</title>
<g id="a_node3"><a xlink:href="../../tables/item.html" xlink:title="item" target="_top">
<polygon fill="#ffffff" stroke="transparent" points="144,-38.2 144,-165.2 457,-165.2 457,-38.2 144,-38.2"/>
<polygon fill="#f5f5f5" stroke="transparent" points="144.5,-141.7 144.5,-164.7 457.5,-164.7 457.5,-141.7 144.5,-141.7"/>
<polygon fill="none" stroke="#000000" points="144.5,-141.7 144.5,-164.7 457.5,-164.7 457.5,-141.7 144.5,-141.7"/>
<text text-anchor="start" x="149.5" y="-150.8" font-family="Helvetica,sans-Serif" font-weight="bold" font-size="11.00" fill="#000000">item</text>
<text text-anchor="start" x="422.5437" y="-149.8" font-family="Helvetica,sans-Serif" font-size="11.00" fill="#000000">[table]</text>
<polygon fill="none" stroke="#000000" points="144.5,-119.7 144.5,-141.7 457.5,-141.7 457.5,-119.7 144.5,-119.7"/>
<image xlink:href="../../images/primaryKeys.png" width="11px" height="12px" preserveAspectRatio="xMinYMin meet" x="149.5" y="-136.7"/>
<text text-anchor="start" x="164.5" y="-126.8" font-family="Helvetica,sans-Serif" font-size="11.00" fill="#000000">id</text>
<polygon fill="#ffffff" stroke="transparent" points="144.5,-97.7 144.5,-119.7 457.5,-119.7 457.5,-97.7 144.5,-97.7"/>
<polygon fill="none" stroke="#000000" points="144.5,-97.7 144.5,-119.7 457.5,-119.7 457.5,-97.7 144.5,-97.7"/>
<image xlink:href="../../images/foreignKeys.png" width="11px" height="12px" preserveAspectRatio="xMinYMin meet" x="149.5" y="-114.7"/>
<text text-anchor="start" x="164.5" y="-104.8" font-family="Helvetica,sans-Serif" font-size="11.00" fill="#000000">field_relationship</text>
<polygon fill="#ffffff" stroke="transparent" points="144.5,-75.7 144.5,-97.7 457.5,-97.7 457.5,-75.7 144.5,-75.7"/>
<polygon fill="none" stroke="#000000" points="144.5,-75.7 144.5,-97.7 457.5,-97.7 457.5,-75.7 144.5,-75.7"/>
<image xlink:href="../../images/foreignKeys.png" width="11px" height="12px" preserveAspectRatio="xMinYMin meet" x="149.5" y="-92.7"/>
<text text-anchor="start" x="164.5" y="-82.8" font-family="Helvetica,sans-Serif" font-size="11.00" fill="#000000">geo_specificity</text>
<polygon fill="none" stroke="#000000" points="144.5,-56.7 144.5,-75.7 457.5,-75.7 457.5,-56.7 144.5,-56.7"/>
<text text-anchor="start" x="147.5" y="-62.8" font-family="Helvetica,sans-Serif" font-size="11.00" fill="#000000">...</text>
<polygon fill="#ffffff" stroke="transparent" points="144.5,-37.7 144.5,-56.7 268.5,-56.7 268.5,-37.7 144.5,-37.7"/>
<polygon fill="none" stroke="#000000" points="144.5,-37.7 144.5,-56.7 268.5,-56.7 268.5,-37.7 144.5,-37.7"/>
<text text-anchor="start" x="147.5" y="-43.8" font-family="Helvetica,sans-Serif" font-size="11.00" fill="#000000">&lt; 2</text>
<polygon fill="#ffffff" stroke="transparent" points="268.5,-37.7 268.5,-56.7 378.5,-56.7 378.5,-37.7 268.5,-37.7"/>
<polygon fill="none" stroke="#000000" points="268.5,-37.7 268.5,-56.7 378.5,-56.7 378.5,-37.7 268.5,-37.7"/>
<text text-anchor="start" x="321.7089" y="-43.8" font-family="Helvetica,sans-Serif" font-size="11.00" fill="#000000">2,352 rows</text>
<polygon fill="#ffffff" stroke="transparent" points="378.5,-37.7 378.5,-56.7 457.5,-56.7 457.5,-37.7 378.5,-37.7"/>
<polygon fill="none" stroke="#000000" points="378.5,-37.7 378.5,-56.7 457.5,-56.7 457.5,-37.7 378.5,-37.7"/>
<text text-anchor="start" x="432.7904" y="-43.8" font-family="Helvetica,sans-Serif" font-size="11.00" fill="#000000">11 &gt;</text>
</a>
</g>
</g>
<!-- covid_topics_to_items&#45;&gt;item -->
<g id="edge2" class="edge">
<title>covid_topics_to_items:w&#45;&gt;item:e</title>
<path fill="none" stroke="#000000" d="M493.7839,-146.044C481.5637,-141.037 475.5568,-130.7 457.5,-130.7"/>
<polygon fill="#000000" stroke="#000000" points="500.1361,-147.2308 507.3388,-152.2388 504.068,-147.9654 508,-148.7 508,-148.7 508,-148.7 504.068,-147.9654 508.6612,-145.1612 500.1361,-147.2308 500.1361,-147.2308"/>
<ellipse fill="none" stroke="#000000" cx="496.9905" cy="-146.6431" rx="3.2" ry="3.2"/>
</g>
<!-- item&#45;&gt;optionset -->
<g id="edge3" class="edge">
<title>item:w&#45;&gt;optionset:e</title>
<path fill="none" stroke="#000000" d="M129.9909,-108.7C118.6774,-108.7 111.4931,-108.7 95.5,-108.7"/>
<polygon fill="#000000" stroke="#000000" points="136.5,-108.7001 144.5,-112.3 140.5,-108.7 144.5,-108.7 144.5,-108.7 144.5,-108.7 140.5,-108.7 144.5,-105.1 136.5,-108.7001 136.5,-108.7001"/>
<ellipse fill="none" stroke="#000000" cx="133.3" cy="-108.7001" rx="3.2" ry="3.2"/>
</g>
<!-- item&#45;&gt;optionset -->
<g id="edge4" class="edge">
<title>item:w&#45;&gt;optionset:e</title>
<path fill="none" stroke="#000000" d="M130.1297,-90.1375C118.5865,-96.325 113.4041,-108.7 95.5,-108.7"/>
<polygon fill="#000000" stroke="#000000" points="136.7195,-88.5612 145.3375,-90.2012 140.6098,-87.6306 144.5,-86.7 144.5,-86.7 144.5,-86.7 140.6098,-87.6306 143.6625,-83.1988 136.7195,-88.5612 136.7195,-88.5612"/>
<ellipse fill="none" stroke="#000000" cx="133.6073" cy="-89.3057" rx="3.2" ry="3.2"/>
</g>
</g>
</svg>
