<?xml version="1.0" encoding="UTF-8" standalone="no"?>
<!DOCTYPE svg PUBLIC "-//W3C//DTD SVG 1.1//EN"
 "http://www.w3.org/Graphics/SVG/1.1/DTD/svg11.dtd">
<!-- Generated by graphviz version 2.40.1 (20161225.0304)
 -->
<!-- Title: twoDegreesRelationshipsDiagram Pages: 1 -->
<svg width="718pt" height="879pt"
 viewBox="0.00 0.00 718.00 879.20" xmlns="http://www.w3.org/2000/svg" xmlns:xlink="http://www.w3.org/1999/xlink">
<g id="graph0" class="graph" transform="scale(1 1) rotate(0) translate(4 875.2)">
<title>twoDegreesRelationshipsDiagram</title>
<polygon fill="#ffffff" stroke="transparent" points="-4,4 -4,-875.2 714,-875.2 714,4 -4,4"/>
<text text-anchor="middle" x="72.4936" y="-7.3" font-family="Helvetica,sans-Serif" font-size="11.00" fill="#000000">Generated by SchemaSpy</text>
<!-- authors_to_items -->
<g id="node1" class="node">
<title>authors_to_items</title>
<g id="a_node1"><a xlink:href="../../tables/authors_to_items.html" xlink:title="authors_to_items" target="_top">
<polygon fill="#ffffff" stroke="transparent" points="540.5,-612.2 540.5,-673.2 667.5,-673.2 667.5,-612.2 540.5,-612.2"/>
<polygon fill="#f5f5f5" stroke="transparent" points="541,-649.7 541,-672.7 668,-672.7 668,-649.7 541,-649.7"/>
<polygon fill="none" stroke="#000000" points="541,-649.7 541,-672.7 668,-672.7 668,-649.7 541,-649.7"/>
<text text-anchor="start" x="545.8227" y="-658.8" font-family="Helvetica,sans-Serif" font-weight="bold" font-size="11.00" fill="#000000">authors_to_items</text>
<text text-anchor="start" x="633.5219" y="-657.8" font-family="Helvetica,sans-Serif" font-size="11.00" fill="#000000">[table]</text>
<polygon fill="none" stroke="#000000" points="541,-630.7 541,-649.7 668,-649.7 668,-630.7 541,-630.7"/>
<text text-anchor="start" x="544" y="-636.8" font-family="Helvetica,sans-Serif" font-size="11.00" fill="#000000">...</text>
<polygon fill="#ffffff" stroke="transparent" points="541,-611.7 541,-630.7 579,-630.7 579,-611.7 541,-611.7"/>
<polygon fill="none" stroke="#000000" points="541,-611.7 541,-630.7 579,-630.7 579,-611.7 541,-611.7"/>
<text text-anchor="start" x="544" y="-617.8" font-family="Helvetica,sans-Serif" font-size="11.00" fill="#000000">&lt; 2</text>
<polygon fill="#ffffff" stroke="transparent" points="579,-611.7 579,-630.7 647,-630.7 647,-611.7 579,-611.7"/>
<polygon fill="none" stroke="#000000" points="579,-611.7 579,-630.7 647,-630.7 647,-611.7 579,-611.7"/>
<text text-anchor="start" x="590.2089" y="-617.8" font-family="Helvetica,sans-Serif" font-size="11.00" fill="#000000">2,850 rows</text>
<polygon fill="#ffffff" stroke="transparent" points="647,-611.7 647,-630.7 668,-630.7 668,-611.7 647,-611.7"/>
<polygon fill="none" stroke="#000000" points="647,-611.7 647,-630.7 668,-630.7 668,-611.7 647,-611.7"/>
<text text-anchor="start" x="658.8862" y="-617.8" font-family="Helvetica,sans-Serif" font-size="11.00" fill="#000000"> &#160;</text>
</a>
</g>
</g>
<!-- item -->
<g id="node2" class="node">
<title>item</title>
<g id="a_node2"><a xlink:href="../../tables/item.html" xlink:title="item" target="_top">
<polygon fill="#ffffff" stroke="transparent" points="144,-301.2 144,-428.2 457,-428.2 457,-301.2 144,-301.2"/>
<polygon fill="#f5f5f5" stroke="transparent" points="144.5,-404.7 144.5,-427.7 457.5,-427.7 457.5,-404.7 144.5,-404.7"/>
<polygon fill="none" stroke="#000000" points="144.5,-404.7 144.5,-427.7 457.5,-427.7 457.5,-404.7 144.5,-404.7"/>
<text text-anchor="start" x="149.5" y="-413.8" font-family="Helvetica,sans-Serif" font-weight="bold" font-size="11.00" fill="#000000">item</text>
<text text-anchor="start" x="422.5437" y="-412.8" font-family="Helvetica,sans-Serif" font-size="11.00" fill="#000000">[table]</text>
<polygon fill="none" stroke="#000000" points="144.5,-382.7 144.5,-404.7 457.5,-404.7 457.5,-382.7 144.5,-382.7"/>
<image xlink:href="../../images/primaryKeys.png" width="11px" height="12px" preserveAspectRatio="xMinYMin meet" x="149.5" y="-399.7"/>
<text text-anchor="start" x="164.5" y="-389.8" font-family="Helvetica,sans-Serif" font-size="11.00" fill="#000000">id</text>
<polygon fill="#ffffff" stroke="transparent" points="144.5,-360.7 144.5,-382.7 457.5,-382.7 457.5,-360.7 144.5,-360.7"/>
<polygon fill="none" stroke="#000000" points="144.5,-360.7 144.5,-382.7 457.5,-382.7 457.5,-360.7 144.5,-360.7"/>
<image xlink:href="../../images/foreignKeys.png" width="11px" height="12px" preserveAspectRatio="xMinYMin meet" x="149.5" y="-377.7"/>
<text text-anchor="start" x="164.5" y="-367.8" font-family="Helvetica,sans-Serif" font-size="11.00" fill="#000000">field_relationship</text>
<polygon fill="#ffffff" stroke="transparent" points="144.5,-338.7 144.5,-360.7 457.5,-360.7 457.5,-338.7 144.5,-338.7"/>
<polygon fill="none" stroke="#000000" points="144.5,-338.7 144.5,-360.7 457.5,-360.7 457.5,-338.7 144.5,-338.7"/>
<image xlink:href="../../images/foreignKeys.png" width="11px" height="12px" preserveAspectRatio="xMinYMin meet" x="149.5" y="-355.7"/>
<text text-anchor="start" x="164.5" y="-345.8" font-family="Helvetica,sans-Serif" font-size="11.00" fill="#000000">geo_specificity</text>
<polygon fill="none" stroke="#000000" points="144.5,-319.7 144.5,-338.7 457.5,-338.7 457.5,-319.7 144.5,-319.7"/>
<text text-anchor="start" x="147.5" y="-325.8" font-family="Helvetica,sans-Serif" font-size="11.00" fill="#000000">...</text>
<polygon fill="#ffffff" stroke="transparent" points="144.5,-300.7 144.5,-319.7 268.5,-319.7 268.5,-300.7 144.5,-300.7"/>
<polygon fill="none" stroke="#000000" points="144.5,-300.7 144.5,-319.7 268.5,-319.7 268.5,-300.7 144.5,-300.7"/>
<text text-anchor="start" x="147.5" y="-306.8" font-family="Helvetica,sans-Serif" font-size="11.00" fill="#000000">&lt; 2</text>
<polygon fill="#ffffff" stroke="transparent" points="268.5,-300.7 268.5,-319.7 378.5,-319.7 378.5,-300.7 268.5,-300.7"/>
<polygon fill="none" stroke="#000000" points="268.5,-300.7 268.5,-319.7 378.5,-319.7 378.5,-300.7 268.5,-300.7"/>
<text text-anchor="start" x="321.7089" y="-306.8" font-family="Helvetica,sans-Serif" font-size="11.00" fill="#000000">2,352 rows</text>
<polygon fill="#ffffff" stroke="transparent" points="378.5,-300.7 378.5,-319.7 457.5,-319.7 457.5,-300.7 378.5,-300.7"/>
<polygon fill="none" stroke="#000000" points="378.5,-300.7 378.5,-319.7 457.5,-319.7 457.5,-300.7 378.5,-300.7"/>
<text text-anchor="start" x="432.7904" y="-306.8" font-family="Helvetica,sans-Serif" font-size="11.00" fill="#000000">11 &gt;</text>
</a>
</g>
</g>
<!-- authors_to_items&#45;&gt;item -->
<g id="edge1" class="edge">
<title>authors_to_items:w&#45;&gt;item:e</title>
<path fill="none" stroke="#000000" d="M526.5171,-637.3688C512.9048,-632.1901 507.7959,-618.8217 498,-601.7 474.615,-560.8266 504.5903,-393.7 457.5,-393.7"/>
<polygon fill="#000000" stroke="#000000" points="533.1017,-638.4286 540.4279,-643.2543 537.0508,-639.0643 541,-639.7 541,-639.7 541,-639.7 537.0508,-639.0643 541.5721,-636.1457 533.1017,-638.4286 533.1017,-638.4286"/>
<ellipse fill="none" stroke="#000000" cx="529.9423" cy="-637.92" rx="3.2" ry="3.2"/>
</g>
<!-- optionset -->
<g id="node4" class="node">
<title>optionset</title>
<g id="a_node4"><a xlink:href="../../tables/optionset.html" xlink:title="optionset" target="_top">
<polygon fill="#ffffff" stroke="transparent" points="8,-312.2 8,-395.2 95,-395.2 95,-312.2 8,-312.2"/>
<polygon fill="#f5f5f5" stroke="transparent" points="8.5,-371.7 8.5,-394.7 95.5,-394.7 95.5,-371.7 8.5,-371.7"/>
<polygon fill="none" stroke="#000000" points="8.5,-371.7 8.5,-394.7 95.5,-394.7 95.5,-371.7 8.5,-371.7"/>
<text text-anchor="start" x="13.1854" y="-380.8" font-family="Helvetica,sans-Serif" font-weight="bold" font-size="11.00" fill="#000000">optionset</text>
<text text-anchor="start" x="61.0219" y="-379.8" font-family="Helvetica,sans-Serif" font-size="11.00" fill="#000000">[table]</text>
<polygon fill="none" stroke="#000000" points="8.5,-349.7 8.5,-371.7 95.5,-371.7 95.5,-349.7 8.5,-349.7"/>
<image xlink:href="../../images/primaryKeys.png" width="11px" height="12px" preserveAspectRatio="xMinYMin meet" x="13.5" y="-366.7"/>
<text text-anchor="start" x="34.5" y="-356.8" font-family="Helvetica,sans-Serif" font-size="11.00" fill="#000000">id</text>
<polygon fill="none" stroke="#000000" points="8.5,-330.7 8.5,-349.7 95.5,-349.7 95.5,-330.7 8.5,-330.7"/>
<text text-anchor="start" x="11.5" y="-336.8" font-family="Helvetica,sans-Serif" font-size="11.00" fill="#000000">...</text>
<polygon fill="#ffffff" stroke="transparent" points="8.5,-311.7 8.5,-330.7 25.5,-330.7 25.5,-311.7 8.5,-311.7"/>
<polygon fill="none" stroke="#000000" points="8.5,-311.7 8.5,-330.7 25.5,-330.7 25.5,-311.7 8.5,-311.7"/>
<text text-anchor="start" x="11.5" y="-317.8" font-family="Helvetica,sans-Serif" font-size="11.00" fill="#000000"> &#160;</text>
<polygon fill="#ffffff" stroke="transparent" points="25.5,-311.7 25.5,-330.7 71.5,-330.7 71.5,-311.7 25.5,-311.7"/>
<polygon fill="none" stroke="#000000" points="25.5,-311.7 25.5,-330.7 71.5,-330.7 71.5,-311.7 25.5,-311.7"/>
<text text-anchor="start" x="29.9956" y="-317.8" font-family="Helvetica,sans-Serif" font-size="11.00" fill="#000000">47 rows</text>
<polygon fill="#ffffff" stroke="transparent" points="71.5,-311.7 71.5,-330.7 95.5,-330.7 95.5,-311.7 71.5,-311.7"/>
<polygon fill="none" stroke="#000000" points="71.5,-311.7 71.5,-330.7 95.5,-330.7 95.5,-311.7 71.5,-311.7"/>
<text text-anchor="start" x="76.9053" y="-317.8" font-family="Helvetica,sans-Serif" font-size="11.00" fill="#000000">6 &gt;</text>
</a>
</g>
</g>
<!-- item&#45;&gt;optionset -->
<g id="edge9" class="edge">
<title>item:w&#45;&gt;optionset:e</title>
<path fill="none" stroke="#000000" d="M130.2027,-369.8836C118.7382,-366.7593 112.0655,-360.7 95.5,-360.7"/>
<polygon fill="#000000" stroke="#000000" points="136.5638,-370.6917 144.0463,-375.2713 140.5319,-371.1958 144.5,-371.7 144.5,-371.7 144.5,-371.7 140.5319,-371.1958 144.9537,-368.1287 136.5638,-370.6917 136.5638,-370.6917"/>
<ellipse fill="none" stroke="#000000" cx="133.3893" cy="-370.2884" rx="3.2" ry="3.2"/>
</g>
<!-- item&#45;&gt;optionset -->
<g id="edge10" class="edge">
<title>item:w&#45;&gt;optionset:e</title>
<path fill="none" stroke="#000000" d="M130.2027,-351.5164C118.7382,-354.6407 112.0655,-360.7 95.5,-360.7"/>
<polygon fill="#000000" stroke="#000000" points="136.5638,-350.7083 144.9537,-353.2713 140.5319,-350.2042 144.5,-349.7 144.5,-349.7 144.5,-349.7 140.5319,-350.2042 144.0463,-346.1287 136.5638,-350.7083 136.5638,-350.7083"/>
<ellipse fill="none" stroke="#000000" cx="133.3893" cy="-351.1116" rx="3.2" ry="3.2"/>
</g>
<!-- covid_tags_to_items -->
<g id="node3" class="node">
<title>covid_tags_to_items</title>
<g id="a_node3"><a xlink:href="../../tables/covid_tags_to_items.html" xlink:title="covid_tags_to_items" target="_top">
<polygon fill="#ffffff" stroke="transparent" points="532.5,-806.2 532.5,-867.2 675.5,-867.2 675.5,-806.2 532.5,-806.2"/>
<polygon fill="#f5f5f5" stroke="transparent" points="533,-843.7 533,-866.7 676,-866.7 676,-843.7 533,-843.7"/>
<polygon fill="none" stroke="#000000" points="533,-843.7 533,-866.7 676,-866.7 676,-843.7 533,-843.7"/>
<text text-anchor="start" x="537.8758" y="-852.8" font-family="Helvetica,sans-Serif" font-weight="bold" font-size="11.00" fill="#000000">covid_tags_to_items</text>
<text text-anchor="start" x="641.5219" y="-851.8" font-family="Helvetica,sans-Serif" font-size="11.00" fill="#000000">[table]</text>
<polygon fill="none" stroke="#000000" points="533,-824.7 533,-843.7 676,-843.7 676,-824.7 533,-824.7"/>
<text text-anchor="start" x="536" y="-830.8" font-family="Helvetica,sans-Serif" font-size="11.00" fill="#000000">...</text>
<polygon fill="#ffffff" stroke="transparent" points="533,-805.7 533,-824.7 579,-824.7 579,-805.7 533,-805.7"/>
<polygon fill="none" stroke="#000000" points="533,-805.7 533,-824.7 579,-824.7 579,-805.7 533,-805.7"/>
<text text-anchor="start" x="536" y="-811.8" font-family="Helvetica,sans-Serif" font-size="11.00" fill="#000000">&lt; 2</text>
<polygon fill="#ffffff" stroke="transparent" points="579,-805.7 579,-824.7 651,-824.7 651,-805.7 579,-805.7"/>
<polygon fill="none" stroke="#000000" points="579,-805.7 579,-824.7 651,-824.7 651,-805.7 579,-805.7"/>
<text text-anchor="start" x="594.2089" y="-811.8" font-family="Helvetica,sans-Serif" font-size="11.00" fill="#000000">4,810 rows</text>
<polygon fill="#ffffff" stroke="transparent" points="651,-805.7 651,-824.7 676,-824.7 676,-805.7 651,-805.7"/>
<polygon fill="none" stroke="#000000" points="651,-805.7 651,-824.7 676,-824.7 676,-805.7 651,-805.7"/>
<text text-anchor="start" x="666.8862" y="-811.8" font-family="Helvetica,sans-Serif" font-size="11.00" fill="#000000"> &#160;</text>
</a>
</g>
</g>
<!-- covid_tags_to_items&#45;&gt;item -->
<g id="edge3" class="edge">
<title>covid_tags_to_items:w&#45;&gt;item:e</title>
<path fill="none" stroke="#000000" d="M518.831,-830.5245C508.2335,-824.6468 504.9856,-811.2438 498,-795.7 479.5976,-754.7523 502.3928,-393.7 457.5,-393.7"/>
<polygon fill="#000000" stroke="#000000" points="525.1936,-831.9504 532.2127,-837.2129 529.0968,-832.8252 533,-833.7 533,-833.7 533,-833.7 529.0968,-832.8252 533.7873,-830.1871 525.1936,-831.9504 525.1936,-831.9504"/>
<ellipse fill="none" stroke="#000000" cx="522.0711" cy="-831.2506" rx="3.2" ry="3.2"/>
</g>
<!-- covid_tags_to_items&#45;&gt;optionset -->
<g id="edge2" class="edge">
<title>covid_tags_to_items:w&#45;&gt;optionset:e</title>
<path fill="none" stroke="#000000" d="M518.3299,-833.5722C321.916,-830.0912 249.7816,-755.3397 136,-587.7 107.2236,-545.3024 146.741,-360.7 95.5,-360.7"/>
<polygon fill="#000000" stroke="#000000" points="525.0003,-833.6302 532.9686,-837.2999 529.0002,-833.6651 533,-833.7 533,-833.7 533,-833.7 529.0002,-833.6651 533.0314,-830.1001 525.0003,-833.6302 525.0003,-833.6302"/>
<ellipse fill="none" stroke="#000000" cx="521.8004" cy="-833.6023" rx="3.2" ry="3.2"/>
</g>
<!-- covid_topics_to_items -->
<g id="node5" class="node">
<title>covid_topics_to_items</title>
<g id="a_node5"><a xlink:href="../../tables/covid_topics_to_items.html" xlink:title="covid_topics_to_items" target="_top">
<polygon fill="#ffffff" stroke="transparent" points="506,-694.7 506,-784.7 702,-784.7 702,-694.7 506,-694.7"/>
<polygon fill="#f5f5f5" stroke="transparent" points="508,-759.7 508,-782.7 700,-782.7 700,-759.7 508,-759.7"/>
<polygon fill="none" stroke="#000000" points="508,-759.7 508,-782.7 700,-782.7 700,-759.7 508,-759.7"/>
<text text-anchor="start" x="513" y="-768.8" font-family="Helvetica,sans-Serif" font-weight="bold" font-size="11.00" fill="#000000">covid_topics_to_items</text>
<text text-anchor="start" x="665.0437" y="-767.8" font-family="Helvetica,sans-Serif" font-size="11.00" fill="#000000">[table]</text>
<polygon fill="none" stroke="#000000" points="508,-737.7 508,-759.7 658,-759.7 658,-737.7 508,-737.7"/>
<image xlink:href="../../images/primaryKeys.png" width="11px" height="12px" preserveAspectRatio="xMinYMin meet" x="513" y="-754.7"/>
<text text-anchor="start" x="528" y="-744.8" font-family="Helvetica,sans-Serif" font-size="11.00" fill="#000000">covidtopic</text>
<polygon fill="none" stroke="#000000" points="658,-737.7 658,-759.7 700,-759.7 700,-737.7 658,-737.7"/>
<text text-anchor="start" x="660.9644" y="-745.4" font-family="Helvetica,sans-Serif" font-size="11.00" fill="#000000">int4[10]</text>
<polygon fill="none" stroke="#000000" points="508,-715.7 508,-737.7 658,-737.7 658,-715.7 508,-715.7"/>
<image xlink:href="../../images/primaryKeys.png" width="11px" height="12px" preserveAspectRatio="xMinYMin meet" x="513" y="-732.7"/>
<text text-anchor="start" x="528" y="-722.8" font-family="Helvetica,sans-Serif" font-size="11.00" fill="#000000">item</text>
<polygon fill="none" stroke="#000000" points="658,-715.7 658,-737.7 700,-737.7 700,-715.7 658,-715.7"/>
<text text-anchor="start" x="660.9644" y="-723.4" font-family="Helvetica,sans-Serif" font-size="11.00" fill="#000000">int4[10]</text>
<polygon fill="#ffffff" stroke="transparent" points="508,-696.7 508,-715.7 574,-715.7 574,-696.7 508,-696.7"/>
<polygon fill="none" stroke="#000000" points="508,-696.7 508,-715.7 574,-715.7 574,-696.7 508,-696.7"/>
<text text-anchor="start" x="511" y="-702.8" font-family="Helvetica,sans-Serif" font-size="11.00" fill="#000000">&lt; 2</text>
<polygon fill="#ffffff" stroke="transparent" points="574,-696.7 574,-715.7 658,-715.7 658,-696.7 574,-696.7"/>
<polygon fill="none" stroke="#000000" points="574,-696.7 574,-715.7 658,-715.7 658,-696.7 574,-696.7"/>
<text text-anchor="start" x="622.6105" y="-702.8" font-family="Helvetica,sans-Serif" font-size="11.00" fill="#000000">0 rows</text>
<polygon fill="#ffffff" stroke="transparent" points="658,-696.7 658,-715.7 700,-715.7 700,-696.7 658,-696.7"/>
<polygon fill="none" stroke="#000000" points="658,-696.7 658,-715.7 700,-715.7 700,-696.7 658,-696.7"/>
<text text-anchor="start" x="681.4053" y="-702.8" font-family="Helvetica,sans-Serif" font-size="11.00" fill="#000000">0 &gt;</text>
<polygon fill="none" stroke="#000000" stroke-width="2" points="507,-695.7 507,-783.7 701,-783.7 701,-695.7 507,-695.7"/>
</a>
</g>
</g>
<!-- covid_topics_to_items&#45;&gt;item -->
<g id="edge5" class="edge">
<title>covid_topics_to_items:w&#45;&gt;item:e</title>
<path fill="none" stroke="#000000" d="M494.3689,-721.7342C446.5814,-680.3101 526.9373,-393.7 457.5,-393.7"/>
<polygon fill="#000000" stroke="#000000" points="500.4832,-723.9616 506.7677,-730.0825 504.2416,-725.3308 508,-726.7 508,-726.7 508,-726.7 504.2416,-725.3308 509.2323,-723.3175 500.4832,-723.9616 500.4832,-723.9616"/>
<ellipse fill="none" stroke="#000000" cx="497.4765" cy="-722.8663" rx="3.2" ry="3.2"/>
</g>
<!-- covid_topics_to_items&#45;&gt;optionset -->
<g id="edge4" class="edge">
<title>covid_topics_to_items:w&#45;&gt;optionset:e</title>
<path fill="none" stroke="#000000" d="M495.482,-740.9859C430.6639,-694.0174 143.6246,-448.1773 136,-438.7 111.515,-408.2654 134.5612,-360.7 95.5,-360.7"/>
<polygon fill="#000000" stroke="#000000" points="501.1893,-744.503 506.1113,-751.7648 504.5947,-746.6015 508,-748.7 508,-748.7 508,-748.7 504.5947,-746.6015 509.8887,-745.6352 501.1893,-744.503 501.1893,-744.503"/>
<ellipse fill="none" stroke="#000000" cx="498.4651" cy="-742.8242" rx="3.2" ry="3.2"/>
</g>
<!-- events_to_items -->
<g id="node6" class="node">
<title>events_to_items</title>
<g id="a_node6"><a xlink:href="../../tables/events_to_items.html" xlink:title="events_to_items" target="_top">
<polygon fill="#ffffff" stroke="transparent" points="542.5,-530.2 542.5,-591.2 665.5,-591.2 665.5,-530.2 542.5,-530.2"/>
<polygon fill="#f5f5f5" stroke="transparent" points="543,-567.7 543,-590.7 666,-590.7 666,-567.7 543,-567.7"/>
<polygon fill="none" stroke="#000000" points="543,-567.7 543,-590.7 666,-590.7 666,-567.7 543,-567.7"/>
<text text-anchor="start" x="547.9611" y="-576.8" font-family="Helvetica,sans-Serif" font-weight="bold" font-size="11.00" fill="#000000">events_to_items</text>
<text text-anchor="start" x="631.5219" y="-575.8" font-family="Helvetica,sans-Serif" font-size="11.00" fill="#000000">[table]</text>
<polygon fill="none" stroke="#000000" points="543,-548.7 543,-567.7 666,-567.7 666,-548.7 543,-548.7"/>
<text text-anchor="start" x="546" y="-554.8" font-family="Helvetica,sans-Serif" font-size="11.00" fill="#000000">...</text>
<polygon fill="#ffffff" stroke="transparent" points="543,-529.7 543,-548.7 579,-548.7 579,-529.7 543,-529.7"/>
<polygon fill="none" stroke="#000000" points="543,-529.7 543,-548.7 579,-548.7 579,-529.7 543,-529.7"/>
<text text-anchor="start" x="546" y="-535.8" font-family="Helvetica,sans-Serif" font-size="11.00" fill="#000000">&lt; 2</text>
<polygon fill="#ffffff" stroke="transparent" points="579,-529.7 579,-548.7 646,-548.7 646,-529.7 579,-529.7"/>
<polygon fill="none" stroke="#000000" points="579,-529.7 579,-548.7 646,-548.7 646,-529.7 579,-529.7"/>
<text text-anchor="start" x="589.2089" y="-535.8" font-family="Helvetica,sans-Serif" font-size="11.00" fill="#000000">1,091 rows</text>
<polygon fill="#ffffff" stroke="transparent" points="646,-529.7 646,-548.7 666,-548.7 666,-529.7 646,-529.7"/>
<polygon fill="none" stroke="#000000" points="646,-529.7 646,-548.7 666,-548.7 666,-529.7 646,-529.7"/>
<text text-anchor="start" x="656.8862" y="-535.8" font-family="Helvetica,sans-Serif" font-size="11.00" fill="#000000"> &#160;</text>
</a>
</g>
</g>
<!-- events_to_items&#45;&gt;item -->
<g id="edge6" class="edge">
<title>events_to_items:w&#45;&gt;item:e</title>
<path fill="none" stroke="#000000" d="M528.6311,-555.4795C514.4685,-550.3266 509.3826,-536.6903 498,-519.7 465.2608,-470.8314 516.3218,-393.7 457.5,-393.7"/>
<polygon fill="#000000" stroke="#000000" points="535.0938,-556.4782 542.4502,-561.2578 539.0469,-557.0891 543,-557.7 543,-557.7 543,-557.7 539.0469,-557.0891 543.5498,-554.1422 535.0938,-556.4782 535.0938,-556.4782"/>
<ellipse fill="none" stroke="#000000" cx="531.9314" cy="-555.9894" rx="3.2" ry="3.2"/>
</g>
<!-- files_to_items -->
<g id="node7" class="node">
<title>files_to_items</title>
<g id="a_node7"><a xlink:href="../../tables/files_to_items.html" xlink:title="files_to_items" target="_top">
<polygon fill="#ffffff" stroke="transparent" points="549,-448.2 549,-509.2 659,-509.2 659,-448.2 549,-448.2"/>
<polygon fill="#f5f5f5" stroke="transparent" points="549,-485.7 549,-508.7 659,-508.7 659,-485.7 549,-485.7"/>
<polygon fill="none" stroke="#000000" points="549,-485.7 549,-508.7 659,-508.7 659,-485.7 549,-485.7"/>
<text text-anchor="start" x="553.8851" y="-494.8" font-family="Helvetica,sans-Serif" font-weight="bold" font-size="11.00" fill="#000000">files_to_items</text>
<text text-anchor="start" x="624.5219" y="-493.8" font-family="Helvetica,sans-Serif" font-size="11.00" fill="#000000">[table]</text>
<polygon fill="none" stroke="#000000" points="549,-466.7 549,-485.7 659,-485.7 659,-466.7 549,-466.7"/>
<text text-anchor="start" x="552" y="-472.8" font-family="Helvetica,sans-Serif" font-size="11.00" fill="#000000">...</text>
<polygon fill="#ffffff" stroke="transparent" points="549,-447.7 549,-466.7 579,-466.7 579,-447.7 549,-447.7"/>
<polygon fill="none" stroke="#000000" points="549,-447.7 549,-466.7 579,-466.7 579,-447.7 549,-447.7"/>
<text text-anchor="start" x="552" y="-453.8" font-family="Helvetica,sans-Serif" font-size="11.00" fill="#000000">&lt; 2</text>
<polygon fill="#ffffff" stroke="transparent" points="579,-447.7 579,-466.7 642,-466.7 642,-447.7 579,-447.7"/>
<polygon fill="none" stroke="#000000" points="579,-447.7 579,-466.7 642,-466.7 642,-447.7 579,-447.7"/>
<text text-anchor="start" x="585.2089" y="-453.8" font-family="Helvetica,sans-Serif" font-size="11.00" fill="#000000">1,994 rows</text>
<polygon fill="#ffffff" stroke="transparent" points="642,-447.7 642,-466.7 659,-466.7 659,-447.7 642,-447.7"/>
<polygon fill="none" stroke="#000000" points="642,-447.7 642,-466.7 659,-466.7 659,-447.7 642,-447.7"/>
<text text-anchor="start" x="649.8862" y="-453.8" font-family="Helvetica,sans-Serif" font-size="11.00" fill="#000000"> &#160;</text>
</a>
</g>
</g>
<!-- files_to_items&#45;&gt;item -->
<g id="edge7" class="edge">
<title>files_to_items:w&#45;&gt;item:e</title>
<path fill="none" stroke="#000000" d="M534.675,-473.5001C519.2329,-467.9571 514.7313,-452.7812 498,-437.7 478.2578,-419.9049 484.0786,-393.7 457.5,-393.7"/>
<polygon fill="#000000" stroke="#000000" points="541.0927,-474.4856 548.4535,-479.2583 545.0464,-475.0928 549,-475.7 549,-475.7 549,-475.7 545.0464,-475.0928 549.5465,-472.1417 541.0927,-474.4856 541.0927,-474.4856"/>
<ellipse fill="none" stroke="#000000" cx="537.9298" cy="-473.9999" rx="3.2" ry="3.2"/>
</g>
<!-- funders_to_items -->
<g id="node8" class="node">
<title>funders_to_items</title>
<g id="a_node8"><a xlink:href="../../tables/funders_to_items.html" xlink:title="funders_to_items" target="_top">
<polygon fill="#ffffff" stroke="transparent" points="540.5,-366.2 540.5,-427.2 667.5,-427.2 667.5,-366.2 540.5,-366.2"/>
<polygon fill="#f5f5f5" stroke="transparent" points="541,-403.7 541,-426.7 668,-426.7 668,-403.7 541,-403.7"/>
<polygon fill="none" stroke="#000000" points="541,-403.7 541,-426.7 668,-426.7 668,-403.7 541,-403.7"/>
<text text-anchor="start" x="545.8227" y="-412.8" font-family="Helvetica,sans-Serif" font-weight="bold" font-size="11.00" fill="#000000">funders_to_items</text>
<text text-anchor="start" x="633.5219" y="-411.8" font-family="Helvetica,sans-Serif" font-size="11.00" fill="#000000">[table]</text>
<polygon fill="none" stroke="#000000" points="541,-384.7 541,-403.7 668,-403.7 668,-384.7 541,-384.7"/>
<text text-anchor="start" x="544" y="-390.8" font-family="Helvetica,sans-Serif" font-size="11.00" fill="#000000">...</text>
<polygon fill="#ffffff" stroke="transparent" points="541,-365.7 541,-384.7 579,-384.7 579,-365.7 541,-365.7"/>
<polygon fill="none" stroke="#000000" points="541,-365.7 541,-384.7 579,-384.7 579,-365.7 541,-365.7"/>
<text text-anchor="start" x="544" y="-371.8" font-family="Helvetica,sans-Serif" font-size="11.00" fill="#000000">&lt; 2</text>
<polygon fill="#ffffff" stroke="transparent" points="579,-365.7 579,-384.7 647,-384.7 647,-365.7 579,-365.7"/>
<polygon fill="none" stroke="#000000" points="579,-365.7 579,-384.7 647,-384.7 647,-365.7 579,-365.7"/>
<text text-anchor="start" x="590.2089" y="-371.8" font-family="Helvetica,sans-Serif" font-size="11.00" fill="#000000">3,210 rows</text>
<polygon fill="#ffffff" stroke="transparent" points="647,-365.7 647,-384.7 668,-384.7 668,-365.7 647,-365.7"/>
<polygon fill="none" stroke="#000000" points="647,-365.7 647,-384.7 668,-384.7 668,-365.7 647,-365.7"/>
<text text-anchor="start" x="658.8862" y="-371.8" font-family="Helvetica,sans-Serif" font-size="11.00" fill="#000000"> &#160;</text>
</a>
</g>
</g>
<!-- funders_to_items&#45;&gt;item -->
<g id="edge8" class="edge">
<title>funders_to_items:w&#45;&gt;item:e</title>
<path fill="none" stroke="#000000" d="M526.485,-393.7C500.6256,-393.7 489.2474,-393.7 457.5,-393.7"/>
<polygon fill="#000000" stroke="#000000" points="533,-393.7001 541,-397.3 537,-393.7 541,-393.7 541,-393.7 541,-393.7 537,-393.7 541,-390.1 533,-393.7001 533,-393.7001"/>
<ellipse fill="none" stroke="#000000" cx="529.8" cy="-393.7001" rx="3.2" ry="3.2"/>
</g>
<!-- items_to_items -->
<g id="node9" class="node">
<title>items_to_items</title>
<g id="a_node9"><a xlink:href="../../tables/items_to_items.html" xlink:title="items_to_items" target="_top">
<polygon fill="#ffffff" stroke="transparent" points="546,-284.2 546,-345.2 662,-345.2 662,-284.2 546,-284.2"/>
<polygon fill="#f5f5f5" stroke="transparent" points="546,-321.7 546,-344.7 662,-344.7 662,-321.7 546,-321.7"/>
<polygon fill="none" stroke="#000000" points="546,-321.7 546,-344.7 662,-344.7 662,-321.7 546,-321.7"/>
<text text-anchor="start" x="550.5246" y="-330.8" font-family="Helvetica,sans-Serif" font-weight="bold" font-size="11.00" fill="#000000">items_to_items</text>
<text text-anchor="start" x="627.5219" y="-329.8" font-family="Helvetica,sans-Serif" font-size="11.00" fill="#000000">[table]</text>
<polygon fill="none" stroke="#000000" points="546,-302.7 546,-321.7 662,-321.7 662,-302.7 546,-302.7"/>
<text text-anchor="start" x="549" y="-308.8" font-family="Helvetica,sans-Serif" font-size="11.00" fill="#000000">...</text>
<polygon fill="#ffffff" stroke="transparent" points="546,-283.7 546,-302.7 579,-302.7 579,-283.7 546,-283.7"/>
<polygon fill="none" stroke="#000000" points="546,-283.7 546,-302.7 579,-302.7 579,-283.7 546,-283.7"/>
<text text-anchor="start" x="549" y="-289.8" font-family="Helvetica,sans-Serif" font-size="11.00" fill="#000000">&lt; 2</text>
<polygon fill="#ffffff" stroke="transparent" points="579,-283.7 579,-302.7 644,-302.7 644,-283.7 579,-283.7"/>
<polygon fill="none" stroke="#000000" points="579,-283.7 579,-302.7 644,-302.7 644,-283.7 579,-283.7"/>
<text text-anchor="start" x="587.2089" y="-289.8" font-family="Helvetica,sans-Serif" font-size="11.00" fill="#000000">1,288 rows</text>
<polygon fill="#ffffff" stroke="transparent" points="644,-283.7 644,-302.7 662,-302.7 662,-283.7 644,-283.7"/>
<polygon fill="none" stroke="#000000" points="644,-283.7 644,-302.7 662,-302.7 662,-283.7 644,-283.7"/>
<text text-anchor="start" x="652.8862" y="-289.8" font-family="Helvetica,sans-Serif" font-size="11.00" fill="#000000"> &#160;</text>
</a>
</g>
</g>
<!-- items_to_items&#45;&gt;item -->
<g id="edge11" class="edge">
<title>items_to_items:w&#45;&gt;item:e</title>
<path fill="none" stroke="#000000" d="M531.3263,-311.6223C516.9307,-315.7538 514.7434,-334.1719 498,-349.7 479.9022,-366.4841 482.1827,-387.7 457.5,-393.7"/>
<polygon fill="#000000" stroke="#000000" points="538.0001,-311.6576 545.9809,-315.2999 542.0001,-311.6788 546,-311.7 546,-311.7 546,-311.7 542.0001,-311.6788 546.0191,-308.1001 538.0001,-311.6576 538.0001,-311.6576"/>
<ellipse fill="none" stroke="#000000" cx="534.8002" cy="-311.6406" rx="3.2" ry="3.2"/>
</g>
<!-- items_to_items&#45;&gt;item -->
<g id="edge12" class="edge">
<title>items_to_items:w&#45;&gt;item:e</title>
<path fill="none" stroke="#000000" d="M532.6421,-317.3195C517.0478,-327.6571 515.2408,-346.7107 498,-362.7 479.9022,-379.4841 482.1827,-400.7 457.5,-393.7"/>
<polygon fill="#000000" stroke="#000000" points="538.626,-314.8022 547.396,-315.0183 542.313,-313.2511 546,-311.7 546,-311.7 546,-311.7 542.313,-313.2511 544.604,-308.3817 538.626,-314.8022 538.626,-314.8022"/>
<ellipse fill="none" stroke="#000000" cx="535.6763" cy="-316.0431" rx="3.2" ry="3.2"/>
</g>
<!-- key_topics_to_items -->
<g id="node10" class="node">
<title>key_topics_to_items</title>
<g id="a_node10"><a xlink:href="../../tables/key_topics_to_items.html" xlink:title="key_topics_to_items" target="_top">
<polygon fill="#ffffff" stroke="transparent" points="533,-120.2 533,-181.2 675,-181.2 675,-120.2 533,-120.2"/>
<polygon fill="#f5f5f5" stroke="transparent" points="533,-157.7 533,-180.7 675,-180.7 675,-157.7 533,-157.7"/>
<polygon fill="none" stroke="#000000" points="533,-157.7 533,-180.7 675,-180.7 675,-157.7 533,-157.7"/>
<text text-anchor="start" x="537.6832" y="-166.8" font-family="Helvetica,sans-Serif" font-weight="bold" font-size="11.00" fill="#000000">key_topics_to_items</text>
<text text-anchor="start" x="640.5219" y="-165.8" font-family="Helvetica,sans-Serif" font-size="11.00" fill="#000000">[table]</text>
<polygon fill="none" stroke="#000000" points="533,-138.7 533,-157.7 675,-157.7 675,-138.7 533,-138.7"/>
<text text-anchor="start" x="536" y="-144.8" font-family="Helvetica,sans-Serif" font-size="11.00" fill="#000000">...</text>
<polygon fill="#ffffff" stroke="transparent" points="533,-119.7 533,-138.7 579,-138.7 579,-119.7 533,-119.7"/>
<polygon fill="none" stroke="#000000" points="533,-119.7 533,-138.7 579,-138.7 579,-119.7 533,-119.7"/>
<text text-anchor="start" x="536" y="-125.8" font-family="Helvetica,sans-Serif" font-size="11.00" fill="#000000">&lt; 2</text>
<polygon fill="#ffffff" stroke="transparent" points="579,-119.7 579,-138.7 650,-138.7 650,-119.7 579,-119.7"/>
<polygon fill="none" stroke="#000000" points="579,-119.7 579,-138.7 650,-138.7 650,-119.7 579,-119.7"/>
<text text-anchor="start" x="593.2089" y="-125.8" font-family="Helvetica,sans-Serif" font-size="11.00" fill="#000000">2,352 rows</text>
<polygon fill="#ffffff" stroke="transparent" points="650,-119.7 650,-138.7 675,-138.7 675,-119.7 650,-119.7"/>
<polygon fill="none" stroke="#000000" points="650,-119.7 650,-138.7 675,-138.7 675,-119.7 650,-119.7"/>
<text text-anchor="start" x="665.8862" y="-125.8" font-family="Helvetica,sans-Serif" font-size="11.00" fill="#000000"> &#160;</text>
</a>
</g>
</g>
<!-- key_topics_to_items&#45;&gt;item -->
<g id="edge13" class="edge">
<title>key_topics_to_items:w&#45;&gt;item:e</title>
<path fill="none" stroke="#000000" d="M518.8134,-151.1705C507.6143,-158.1134 505.9785,-174.5267 498,-191.7 478.7103,-233.2201 503.2822,-393.7 457.5,-393.7"/>
<polygon fill="#000000" stroke="#000000" points="525.2291,-149.601 533.8555,-151.1969 529.1146,-148.6505 533,-147.7 533,-147.7 533,-147.7 529.1146,-148.6505 532.1445,-144.2031 525.2291,-149.601 525.2291,-149.601"/>
<ellipse fill="none" stroke="#000000" cx="522.1208" cy="-150.3614" rx="3.2" ry="3.2"/>
</g>
<!-- key_topics_to_items&#45;&gt;optionset -->
<g id="edge14" class="edge">
<title>key_topics_to_items:w&#45;&gt;optionset:e</title>
<path fill="none" stroke="#000000" d="M518.4159,-147.7488C341.9476,-148.9678 276.1263,-173.6263 136,-290.7 108.417,-313.7452 131.443,-360.7 95.5,-360.7"/>
<polygon fill="#000000" stroke="#000000" points="525,-147.7268 533.0121,-151.3 529,-147.7134 533,-147.7 533,-147.7 533,-147.7 529,-147.7134 532.9879,-144.1 525,-147.7268 525,-147.7268"/>
<ellipse fill="none" stroke="#000000" cx="521.8001" cy="-147.7376" rx="3.2" ry="3.2"/>
</g>
<!-- related_files_to_items -->
<g id="node11" class="node">
<title>related_files_to_items</title>
<g id="a_node11"><a xlink:href="../../tables/related_files_to_items.html" xlink:title="related_files_to_items" target="_top">
<polygon fill="#ffffff" stroke="transparent" points="529.5,-202.2 529.5,-263.2 678.5,-263.2 678.5,-202.2 529.5,-202.2"/>
<polygon fill="#f5f5f5" stroke="transparent" points="530,-239.7 530,-262.7 679,-262.7 679,-239.7 530,-239.7"/>
<polygon fill="none" stroke="#000000" points="530,-239.7 530,-262.7 679,-262.7 679,-239.7 530,-239.7"/>
<text text-anchor="start" x="534.518" y="-248.8" font-family="Helvetica,sans-Serif" font-weight="bold" font-size="11.00" fill="#000000">related_files_to_items</text>
<text text-anchor="start" x="644.5219" y="-247.8" font-family="Helvetica,sans-Serif" font-size="11.00" fill="#000000">[table]</text>
<polygon fill="none" stroke="#000000" points="530,-220.7 530,-239.7 679,-239.7 679,-220.7 530,-220.7"/>
<text text-anchor="start" x="533" y="-226.8" font-family="Helvetica,sans-Serif" font-size="11.00" fill="#000000">...</text>
<polygon fill="#ffffff" stroke="transparent" points="530,-201.7 530,-220.7 584,-220.7 584,-201.7 530,-201.7"/>
<polygon fill="none" stroke="#000000" points="530,-201.7 530,-220.7 584,-220.7 584,-201.7 530,-201.7"/>
<text text-anchor="start" x="533" y="-207.8" font-family="Helvetica,sans-Serif" font-size="11.00" fill="#000000">&lt; 2</text>
<polygon fill="#ffffff" stroke="transparent" points="584,-201.7 584,-220.7 650,-220.7 650,-201.7 584,-201.7"/>
<polygon fill="none" stroke="#000000" points="584,-201.7 584,-220.7 650,-220.7 650,-201.7 584,-201.7"/>
<text text-anchor="start" x="602.3807" y="-207.8" font-family="Helvetica,sans-Serif" font-size="11.00" fill="#000000">115 rows</text>
<polygon fill="#ffffff" stroke="transparent" points="650,-201.7 650,-220.7 679,-220.7 679,-201.7 650,-201.7"/>
<polygon fill="none" stroke="#000000" points="650,-201.7 650,-220.7 679,-220.7 679,-201.7 650,-201.7"/>
<text text-anchor="start" x="669.8862" y="-207.8" font-family="Helvetica,sans-Serif" font-size="11.00" fill="#000000"> &#160;</text>
</a>
</g>
</g>
<!-- related_files_to_items&#45;&gt;item -->
<g id="edge15" class="edge">
<title>related_files_to_items:w&#45;&gt;item:e</title>
<path fill="none" stroke="#000000" d="M515.5445,-232.0184C461.7014,-251.9517 531.5901,-393.7 457.5,-393.7"/>
<polygon fill="#000000" stroke="#000000" points="522.1009,-230.9669 530.5701,-233.2546 526.0505,-230.3334 530,-229.7 530,-229.7 530,-229.7 526.0505,-230.3334 529.4299,-226.1454 522.1009,-230.9669 522.1009,-230.9669"/>
<ellipse fill="none" stroke="#000000" cx="518.9413" cy="-231.4736" rx="3.2" ry="3.2"/>
</g>
<!-- tags_to_items -->
<g id="node12" class="node">
<title>tags_to_items</title>
<g id="a_node12"><a xlink:href="../../tables/tags_to_items.html" xlink:title="tags_to_items" target="_top">
<polygon fill="#ffffff" stroke="transparent" points="548.5,-38.2 548.5,-99.2 659.5,-99.2 659.5,-38.2 548.5,-38.2"/>
<polygon fill="#f5f5f5" stroke="transparent" points="549,-75.7 549,-98.7 660,-98.7 660,-75.7 549,-75.7"/>
<polygon fill="none" stroke="#000000" points="549,-75.7 549,-98.7 660,-98.7 660,-75.7 549,-75.7"/>
<text text-anchor="start" x="553.7686" y="-84.8" font-family="Helvetica,sans-Serif" font-weight="bold" font-size="11.00" fill="#000000">tags_to_items</text>
<text text-anchor="start" x="625.5219" y="-83.8" font-family="Helvetica,sans-Serif" font-size="11.00" fill="#000000">[table]</text>
<polygon fill="none" stroke="#000000" points="549,-56.7 549,-75.7 660,-75.7 660,-56.7 549,-56.7"/>
<text text-anchor="start" x="552" y="-62.8" font-family="Helvetica,sans-Serif" font-size="11.00" fill="#000000">...</text>
<polygon fill="#ffffff" stroke="transparent" points="549,-37.7 549,-56.7 590,-56.7 590,-37.7 549,-37.7"/>
<polygon fill="none" stroke="#000000" points="549,-37.7 549,-56.7 590,-56.7 590,-37.7 549,-37.7"/>
<text text-anchor="start" x="552" y="-43.8" font-family="Helvetica,sans-Serif" font-size="11.00" fill="#000000">&lt; 2</text>
<polygon fill="#ffffff" stroke="transparent" points="590,-37.7 590,-56.7 638,-56.7 638,-37.7 590,-37.7"/>
<polygon fill="none" stroke="#000000" points="590,-37.7 590,-56.7 638,-56.7 638,-37.7 590,-37.7"/>
<text text-anchor="start" x="602.6105" y="-43.8" font-family="Helvetica,sans-Serif" font-size="11.00" fill="#000000">0 rows</text>
<polygon fill="#ffffff" stroke="transparent" points="638,-37.7 638,-56.7 660,-56.7 660,-37.7 638,-37.7"/>
<polygon fill="none" stroke="#000000" points="638,-37.7 638,-56.7 660,-56.7 660,-37.7 638,-37.7"/>
<text text-anchor="start" x="650.8862" y="-43.8" font-family="Helvetica,sans-Serif" font-size="11.00" fill="#000000"> &#160;</text>
</a>
</g>
</g>
<!-- tags_to_items&#45;&gt;item -->
<g id="edge16" class="edge">
<title>tags_to_items:w&#45;&gt;item:e</title>
<path fill="none" stroke="#000000" d="M534.6697,-67.4362C516.344,-72.4988 509.7238,-88.2551 498,-109.7 467.42,-165.6364 521.2496,-393.7 457.5,-393.7"/>
<polygon fill="#000000" stroke="#000000" points="541.0581,-66.6623 549.433,-69.2739 545.029,-66.1811 549,-65.7 549,-65.7 549,-65.7 545.029,-66.1811 548.567,-62.1261 541.0581,-66.6623 541.0581,-66.6623"/>
<ellipse fill="none" stroke="#000000" cx="537.8813" cy="-67.0472" rx="3.2" ry="3.2"/>
</g>
<!-- tags_to_items&#45;&gt;optionset -->
<g id="edge17" class="edge">
<title>tags_to_items:w&#45;&gt;optionset:e</title>
<path fill="none" stroke="#000000" d="M534.3953,-65.5965C356.9579,-63.1016 264.3512,-17.4954 136,-146.7 67.7797,-215.374 192.2994,-360.7 95.5,-360.7"/>
<polygon fill="#000000" stroke="#000000" points="541.0002,-65.6432 548.9745,-69.2999 545.0001,-65.6716 549,-65.7 549,-65.7 549,-65.7 545.0001,-65.6716 549.0255,-62.1001 541.0002,-65.6432 541.0002,-65.6432"/>
<ellipse fill="none" stroke="#000000" cx="537.8003" cy="-65.6205" rx="3.2" ry="3.2"/>
</g>
</g>
</svg>
