<?xml version="1.0" encoding="UTF-8" standalone="no"?>
<!DOCTYPE svg PUBLIC "-//W3C//DTD SVG 1.1//EN"
 "http://www.w3.org/Graphics/SVG/1.1/DTD/svg11.dtd">
<!-- Generated by graphviz version 2.40.1 (20161225.0304)
 -->
<!-- Title: twoDegreesRelationshipsDiagram Pages: 1 -->
<svg width="683pt" height="879pt"
 viewBox="0.00 0.00 683.00 879.20" xmlns="http://www.w3.org/2000/svg" xmlns:xlink="http://www.w3.org/1999/xlink">
<g id="graph0" class="graph" transform="scale(1 1) rotate(0) translate(4 875.2)">
<title>twoDegreesRelationshipsDiagram</title>
<polygon fill="#ffffff" stroke="transparent" points="-4,4 -4,-875.2 679,-875.2 679,4 -4,4"/>
<text text-anchor="middle" x="72.4936" y="-7.3" font-family="Helvetica,sans-Serif" font-size="11.00" fill="#000000">Generated by SchemaSpy</text>
<!-- authors_to_items -->
<g id="node1" class="node">
<title>authors_to_items</title>
<g id="a_node1"><a xlink:href="../../tables/authors_to_items.html" xlink:title="authors_to_items" target="_top">
<polygon fill="#ffffff" stroke="transparent" points="523,-642.2 523,-703.2 650,-703.2 650,-642.2 523,-642.2"/>
<polygon fill="#f5f5f5" stroke="transparent" points="523.5,-679.7 523.5,-702.7 650.5,-702.7 650.5,-679.7 523.5,-679.7"/>
<polygon fill="none" stroke="#000000" points="523.5,-679.7 523.5,-702.7 650.5,-702.7 650.5,-679.7 523.5,-679.7"/>
<text text-anchor="start" x="528.3227" y="-688.8" font-family="Helvetica,sans-Serif" font-weight="bold" font-size="11.00" fill="#000000">authors_to_items</text>
<text text-anchor="start" x="616.0219" y="-687.8" font-family="Helvetica,sans-Serif" font-size="11.00" fill="#000000">[table]</text>
<polygon fill="none" stroke="#000000" points="523.5,-660.7 523.5,-679.7 650.5,-679.7 650.5,-660.7 523.5,-660.7"/>
<text text-anchor="start" x="526.5" y="-666.8" font-family="Helvetica,sans-Serif" font-size="11.00" fill="#000000">...</text>
<polygon fill="#ffffff" stroke="transparent" points="523.5,-641.7 523.5,-660.7 561.5,-660.7 561.5,-641.7 523.5,-641.7"/>
<polygon fill="none" stroke="#000000" points="523.5,-641.7 523.5,-660.7 561.5,-660.7 561.5,-641.7 523.5,-641.7"/>
<text text-anchor="start" x="526.5" y="-647.8" font-family="Helvetica,sans-Serif" font-size="11.00" fill="#000000">&lt; 2</text>
<polygon fill="#ffffff" stroke="transparent" points="561.5,-641.7 561.5,-660.7 629.5,-660.7 629.5,-641.7 561.5,-641.7"/>
<polygon fill="none" stroke="#000000" points="561.5,-641.7 561.5,-660.7 629.5,-660.7 629.5,-641.7 561.5,-641.7"/>
<text text-anchor="start" x="572.7089" y="-647.8" font-family="Helvetica,sans-Serif" font-size="11.00" fill="#000000">2,850 rows</text>
<polygon fill="#ffffff" stroke="transparent" points="629.5,-641.7 629.5,-660.7 650.5,-660.7 650.5,-641.7 629.5,-641.7"/>
<polygon fill="none" stroke="#000000" points="629.5,-641.7 629.5,-660.7 650.5,-660.7 650.5,-641.7 629.5,-641.7"/>
<text text-anchor="start" x="641.3862" y="-647.8" font-family="Helvetica,sans-Serif" font-size="11.00" fill="#000000"> &#160;</text>
</a>
</g>
</g>
<!-- item -->
<g id="node2" class="node">
<title>item</title>
<g id="a_node2"><a xlink:href="../../tables/item.html" xlink:title="item" target="_top">
<polygon fill="#ffffff" stroke="transparent" points="144,-331.2 144,-458.2 457,-458.2 457,-331.2 144,-331.2"/>
<polygon fill="#f5f5f5" stroke="transparent" points="144.5,-434.7 144.5,-457.7 457.5,-457.7 457.5,-434.7 144.5,-434.7"/>
<polygon fill="none" stroke="#000000" points="144.5,-434.7 144.5,-457.7 457.5,-457.7 457.5,-434.7 144.5,-434.7"/>
<text text-anchor="start" x="149.5" y="-443.8" font-family="Helvetica,sans-Serif" font-weight="bold" font-size="11.00" fill="#000000">item</text>
<text text-anchor="start" x="422.5437" y="-442.8" font-family="Helvetica,sans-Serif" font-size="11.00" fill="#000000">[table]</text>
<polygon fill="none" stroke="#000000" points="144.5,-412.7 144.5,-434.7 457.5,-434.7 457.5,-412.7 144.5,-412.7"/>
<image xlink:href="../../images/primaryKeys.png" width="11px" height="12px" preserveAspectRatio="xMinYMin meet" x="149.5" y="-429.7"/>
<text text-anchor="start" x="164.5" y="-419.8" font-family="Helvetica,sans-Serif" font-size="11.00" fill="#000000">id</text>
<polygon fill="#ffffff" stroke="transparent" points="144.5,-390.7 144.5,-412.7 457.5,-412.7 457.5,-390.7 144.5,-390.7"/>
<polygon fill="none" stroke="#000000" points="144.5,-390.7 144.5,-412.7 457.5,-412.7 457.5,-390.7 144.5,-390.7"/>
<image xlink:href="../../images/foreignKeys.png" width="11px" height="12px" preserveAspectRatio="xMinYMin meet" x="149.5" y="-407.7"/>
<text text-anchor="start" x="164.5" y="-397.8" font-family="Helvetica,sans-Serif" font-size="11.00" fill="#000000">field_relationship</text>
<polygon fill="#ffffff" stroke="transparent" points="144.5,-368.7 144.5,-390.7 457.5,-390.7 457.5,-368.7 144.5,-368.7"/>
<polygon fill="none" stroke="#000000" points="144.5,-368.7 144.5,-390.7 457.5,-390.7 457.5,-368.7 144.5,-368.7"/>
<image xlink:href="../../images/foreignKeys.png" width="11px" height="12px" preserveAspectRatio="xMinYMin meet" x="149.5" y="-385.7"/>
<text text-anchor="start" x="164.5" y="-375.8" font-family="Helvetica,sans-Serif" font-size="11.00" fill="#000000">geo_specificity</text>
<polygon fill="none" stroke="#000000" points="144.5,-349.7 144.5,-368.7 457.5,-368.7 457.5,-349.7 144.5,-349.7"/>
<text text-anchor="start" x="147.5" y="-355.8" font-family="Helvetica,sans-Serif" font-size="11.00" fill="#000000">...</text>
<polygon fill="#ffffff" stroke="transparent" points="144.5,-330.7 144.5,-349.7 268.5,-349.7 268.5,-330.7 144.5,-330.7"/>
<polygon fill="none" stroke="#000000" points="144.5,-330.7 144.5,-349.7 268.5,-349.7 268.5,-330.7 144.5,-330.7"/>
<text text-anchor="start" x="147.5" y="-336.8" font-family="Helvetica,sans-Serif" font-size="11.00" fill="#000000">&lt; 2</text>
<polygon fill="#ffffff" stroke="transparent" points="268.5,-330.7 268.5,-349.7 378.5,-349.7 378.5,-330.7 268.5,-330.7"/>
<polygon fill="none" stroke="#000000" points="268.5,-330.7 268.5,-349.7 378.5,-349.7 378.5,-330.7 268.5,-330.7"/>
<text text-anchor="start" x="321.7089" y="-336.8" font-family="Helvetica,sans-Serif" font-size="11.00" fill="#000000">2,352 rows</text>
<polygon fill="#ffffff" stroke="transparent" points="378.5,-330.7 378.5,-349.7 457.5,-349.7 457.5,-330.7 378.5,-330.7"/>
<polygon fill="none" stroke="#000000" points="378.5,-330.7 378.5,-349.7 457.5,-349.7 457.5,-330.7 378.5,-330.7"/>
<text text-anchor="start" x="432.7904" y="-336.8" font-family="Helvetica,sans-Serif" font-size="11.00" fill="#000000">11 &gt;</text>
</a>
</g>
</g>
<!-- authors_to_items&#45;&gt;item -->
<g id="edge1" class="edge">
<title>authors_to_items:w&#45;&gt;item:e</title>
<path fill="none" stroke="#000000" d="M510.1471,-663.6191C474.8377,-625.7371 508.7937,-423.7 457.5,-423.7"/>
<polygon fill="#000000" stroke="#000000" points="516.2194,-666.3844 522.008,-672.9763 519.8597,-668.0422 523.5,-669.7 523.5,-669.7 523.5,-669.7 519.8597,-668.0422 524.992,-666.4237 516.2194,-666.3844 516.2194,-666.3844"/>
<ellipse fill="none" stroke="#000000" cx="513.3072" cy="-665.0581" rx="3.2" ry="3.2"/>
</g>
<!-- optionset -->
<g id="node4" class="node">
<title>optionset</title>
<g id="a_node4"><a xlink:href="../../tables/optionset.html" xlink:title="optionset" target="_top">
<polygon fill="#ffffff" stroke="transparent" points="8,-363.2 8,-424.2 95,-424.2 95,-363.2 8,-363.2"/>
<polygon fill="#f5f5f5" stroke="transparent" points="8.5,-400.7 8.5,-423.7 95.5,-423.7 95.5,-400.7 8.5,-400.7"/>
<polygon fill="none" stroke="#000000" points="8.5,-400.7 8.5,-423.7 95.5,-423.7 95.5,-400.7 8.5,-400.7"/>
<text text-anchor="start" x="13.1854" y="-409.8" font-family="Helvetica,sans-Serif" font-weight="bold" font-size="11.00" fill="#000000">optionset</text>
<text text-anchor="start" x="61.0219" y="-408.8" font-family="Helvetica,sans-Serif" font-size="11.00" fill="#000000">[table]</text>
<polygon fill="none" stroke="#000000" points="8.5,-381.7 8.5,-400.7 95.5,-400.7 95.5,-381.7 8.5,-381.7"/>
<text text-anchor="start" x="11.5" y="-387.8" font-family="Helvetica,sans-Serif" font-size="11.00" fill="#000000">...</text>
<polygon fill="#ffffff" stroke="transparent" points="8.5,-362.7 8.5,-381.7 25.5,-381.7 25.5,-362.7 8.5,-362.7"/>
<polygon fill="none" stroke="#000000" points="8.5,-362.7 8.5,-381.7 25.5,-381.7 25.5,-362.7 8.5,-362.7"/>
<text text-anchor="start" x="11.5" y="-368.8" font-family="Helvetica,sans-Serif" font-size="11.00" fill="#000000"> &#160;</text>
<polygon fill="#ffffff" stroke="transparent" points="25.5,-362.7 25.5,-381.7 71.5,-381.7 71.5,-362.7 25.5,-362.7"/>
<polygon fill="none" stroke="#000000" points="25.5,-362.7 25.5,-381.7 71.5,-381.7 71.5,-362.7 25.5,-362.7"/>
<text text-anchor="start" x="29.9956" y="-368.8" font-family="Helvetica,sans-Serif" font-size="11.00" fill="#000000">47 rows</text>
<polygon fill="#ffffff" stroke="transparent" points="71.5,-362.7 71.5,-381.7 95.5,-381.7 95.5,-362.7 71.5,-362.7"/>
<polygon fill="none" stroke="#000000" points="71.5,-362.7 71.5,-381.7 95.5,-381.7 95.5,-362.7 71.5,-362.7"/>
<text text-anchor="start" x="76.9053" y="-368.8" font-family="Helvetica,sans-Serif" font-size="11.00" fill="#000000">6 &gt;</text>
</a>
</g>
</g>
<!-- item&#45;&gt;optionset -->
<g id="edge10" class="edge">
<title>item:w&#45;&gt;optionset:e</title>
<path fill="none" stroke="#000000" d="M130.2027,-399.8836C118.7382,-396.7593 112.0655,-390.7 95.5,-390.7"/>
<polygon fill="#000000" stroke="#000000" points="136.5638,-400.6917 144.0463,-405.2713 140.5319,-401.1958 144.5,-401.7 144.5,-401.7 144.5,-401.7 140.5319,-401.1958 144.9537,-398.1287 136.5638,-400.6917 136.5638,-400.6917"/>
<ellipse fill="none" stroke="#000000" cx="133.3893" cy="-400.2884" rx="3.2" ry="3.2"/>
</g>
<!-- item&#45;&gt;optionset -->
<g id="edge11" class="edge">
<title>item:w&#45;&gt;optionset:e</title>
<path fill="none" stroke="#000000" d="M130.2027,-381.5164C118.7382,-384.6407 112.0655,-390.7 95.5,-390.7"/>
<polygon fill="#000000" stroke="#000000" points="136.5638,-380.7083 144.9537,-383.2713 140.5319,-380.2042 144.5,-379.7 144.5,-379.7 144.5,-379.7 140.5319,-380.2042 144.0463,-376.1287 136.5638,-380.7083 136.5638,-380.7083"/>
<ellipse fill="none" stroke="#000000" cx="133.3893" cy="-381.1116" rx="3.2" ry="3.2"/>
</g>
<!-- covid_tags_to_items -->
<g id="node3" class="node">
<title>covid_tags_to_items</title>
<g id="a_node3"><a xlink:href="../../tables/covid_tags_to_items.html" xlink:title="covid_tags_to_items" target="_top">
<polygon fill="#ffffff" stroke="transparent" points="515,-806.2 515,-867.2 658,-867.2 658,-806.2 515,-806.2"/>
<polygon fill="#f5f5f5" stroke="transparent" points="515.5,-843.7 515.5,-866.7 658.5,-866.7 658.5,-843.7 515.5,-843.7"/>
<polygon fill="none" stroke="#000000" points="515.5,-843.7 515.5,-866.7 658.5,-866.7 658.5,-843.7 515.5,-843.7"/>
<text text-anchor="start" x="520.3758" y="-852.8" font-family="Helvetica,sans-Serif" font-weight="bold" font-size="11.00" fill="#000000">covid_tags_to_items</text>
<text text-anchor="start" x="624.0219" y="-851.8" font-family="Helvetica,sans-Serif" font-size="11.00" fill="#000000">[table]</text>
<polygon fill="none" stroke="#000000" points="515.5,-824.7 515.5,-843.7 658.5,-843.7 658.5,-824.7 515.5,-824.7"/>
<text text-anchor="start" x="518.5" y="-830.8" font-family="Helvetica,sans-Serif" font-size="11.00" fill="#000000">...</text>
<polygon fill="#ffffff" stroke="transparent" points="515.5,-805.7 515.5,-824.7 561.5,-824.7 561.5,-805.7 515.5,-805.7"/>
<polygon fill="none" stroke="#000000" points="515.5,-805.7 515.5,-824.7 561.5,-824.7 561.5,-805.7 515.5,-805.7"/>
<text text-anchor="start" x="518.5" y="-811.8" font-family="Helvetica,sans-Serif" font-size="11.00" fill="#000000">&lt; 2</text>
<polygon fill="#ffffff" stroke="transparent" points="561.5,-805.7 561.5,-824.7 633.5,-824.7 633.5,-805.7 561.5,-805.7"/>
<polygon fill="none" stroke="#000000" points="561.5,-805.7 561.5,-824.7 633.5,-824.7 633.5,-805.7 561.5,-805.7"/>
<text text-anchor="start" x="576.7089" y="-811.8" font-family="Helvetica,sans-Serif" font-size="11.00" fill="#000000">4,810 rows</text>
<polygon fill="#ffffff" stroke="transparent" points="633.5,-805.7 633.5,-824.7 658.5,-824.7 658.5,-805.7 633.5,-805.7"/>
<polygon fill="none" stroke="#000000" points="633.5,-805.7 633.5,-824.7 658.5,-824.7 658.5,-805.7 633.5,-805.7"/>
<text text-anchor="start" x="649.3862" y="-811.8" font-family="Helvetica,sans-Serif" font-size="11.00" fill="#000000"> &#160;</text>
</a>
</g>
</g>
<!-- covid_tags_to_items&#45;&gt;item -->
<g id="edge3" class="edge">
<title>covid_tags_to_items:w&#45;&gt;item:e</title>
<path fill="none" stroke="#000000" d="M501.4831,-829.6421C437.503,-787.0607 544.1266,-423.7 457.5,-423.7"/>
<polygon fill="#000000" stroke="#000000" points="507.8155,-831.4753 514.4989,-837.158 511.6578,-832.5877 515.5,-833.7 515.5,-833.7 515.5,-833.7 511.6578,-832.5877 516.5011,-830.242 507.8155,-831.4753 507.8155,-831.4753"/>
<ellipse fill="none" stroke="#000000" cx="504.7418" cy="-830.5854" rx="3.2" ry="3.2"/>
</g>
<!-- covid_tags_to_items&#45;&gt;optionset -->
<g id="edge2" class="edge">
<title>covid_tags_to_items:w&#45;&gt;optionset:e</title>
<path fill="none" stroke="#000000" d="M501.0328,-833.5759C315.2047,-830.3293 245.598,-763.183 136,-605.7 108.2283,-565.7945 144.1181,-390.7 95.5,-390.7"/>
<polygon fill="#000000" stroke="#000000" points="507.5003,-833.6313 515.4691,-837.2999 511.5001,-833.6656 515.5,-833.7 515.5,-833.7 515.5,-833.7 511.5001,-833.6656 515.5309,-830.1001 507.5003,-833.6313 507.5003,-833.6313"/>
<ellipse fill="none" stroke="#000000" cx="504.3004" cy="-833.6038" rx="3.2" ry="3.2"/>
</g>
<!-- covid_topics_to_items -->
<g id="node5" class="node">
<title>covid_topics_to_items</title>
<g id="a_node5"><a xlink:href="../../tables/covid_topics_to_items.html" xlink:title="covid_topics_to_items" target="_top">
<polygon fill="#ffffff" stroke="transparent" points="511,-724.2 511,-785.2 662,-785.2 662,-724.2 511,-724.2"/>
<polygon fill="#f5f5f5" stroke="transparent" points="511.5,-761.7 511.5,-784.7 662.5,-784.7 662.5,-761.7 511.5,-761.7"/>
<polygon fill="none" stroke="#000000" points="511.5,-761.7 511.5,-784.7 662.5,-784.7 662.5,-761.7 511.5,-761.7"/>
<text text-anchor="start" x="516.4053" y="-770.8" font-family="Helvetica,sans-Serif" font-weight="bold" font-size="11.00" fill="#000000">covid_topics_to_items</text>
<text text-anchor="start" x="628.0219" y="-769.8" font-family="Helvetica,sans-Serif" font-size="11.00" fill="#000000">[table]</text>
<polygon fill="none" stroke="#000000" points="511.5,-742.7 511.5,-761.7 662.5,-761.7 662.5,-742.7 511.5,-742.7"/>
<text text-anchor="start" x="514.5" y="-748.8" font-family="Helvetica,sans-Serif" font-size="11.00" fill="#000000">...</text>
<polygon fill="#ffffff" stroke="transparent" points="511.5,-723.7 511.5,-742.7 572.5,-742.7 572.5,-723.7 511.5,-723.7"/>
<polygon fill="none" stroke="#000000" points="511.5,-723.7 511.5,-742.7 572.5,-742.7 572.5,-723.7 511.5,-723.7"/>
<text text-anchor="start" x="514.5" y="-729.8" font-family="Helvetica,sans-Serif" font-size="11.00" fill="#000000">&lt; 2</text>
<polygon fill="#ffffff" stroke="transparent" points="572.5,-723.7 572.5,-742.7 630.5,-742.7 630.5,-723.7 572.5,-723.7"/>
<polygon fill="none" stroke="#000000" points="572.5,-723.7 572.5,-742.7 630.5,-742.7 630.5,-723.7 572.5,-723.7"/>
<text text-anchor="start" x="595.1105" y="-729.8" font-family="Helvetica,sans-Serif" font-size="11.00" fill="#000000">0 rows</text>
<polygon fill="#ffffff" stroke="transparent" points="630.5,-723.7 630.5,-742.7 662.5,-742.7 662.5,-723.7 630.5,-723.7"/>
<polygon fill="none" stroke="#000000" points="630.5,-723.7 630.5,-742.7 662.5,-742.7 662.5,-723.7 630.5,-723.7"/>
<text text-anchor="start" x="653.3862" y="-729.8" font-family="Helvetica,sans-Serif" font-size="11.00" fill="#000000"> &#160;</text>
</a>
</g>
</g>
<!-- covid_topics_to_items&#45;&gt;item -->
<g id="edge5" class="edge">
<title>covid_topics_to_items:w&#45;&gt;item:e</title>
<path fill="none" stroke="#000000" d="M497.6851,-746.5479C450.6212,-704.8193 525.8875,-423.7 457.5,-423.7"/>
<polygon fill="#000000" stroke="#000000" points="504.0043,-748.9045 510.242,-755.0731 507.7521,-750.3023 511.5,-751.7 511.5,-751.7 511.5,-751.7 507.7521,-750.3023 512.758,-748.3269 504.0043,-748.9045 504.0043,-748.9045"/>
<ellipse fill="none" stroke="#000000" cx="501.006" cy="-747.7863" rx="3.2" ry="3.2"/>
</g>
<!-- covid_topics_to_items&#45;&gt;optionset -->
<g id="edge4" class="edge">
<title>covid_topics_to_items:w&#45;&gt;optionset:e</title>
<path fill="none" stroke="#000000" d="M497.9343,-745.9476C429.3668,-707.3381 151.3846,-486.8937 136,-468.7 110.7783,-438.8731 134.5612,-390.7 95.5,-390.7"/>
<polygon fill="#000000" stroke="#000000" points="504.1348,-748.5768 510.0946,-755.0143 507.8174,-750.1384 511.5,-751.7 511.5,-751.7 511.5,-751.7 507.8174,-750.1384 512.9054,-748.3857 504.1348,-748.5768 504.1348,-748.5768"/>
<ellipse fill="none" stroke="#000000" cx="501.1887" cy="-747.3276" rx="3.2" ry="3.2"/>
</g>
<!-- events_to_items -->
<g id="node6" class="node">
<title>events_to_items</title>
<g id="a_node6"><a xlink:href="../../tables/events_to_items.html" xlink:title="events_to_items" target="_top">
<polygon fill="#ffffff" stroke="transparent" points="506,-202.7 506,-292.7 667,-292.7 667,-202.7 506,-202.7"/>
<polygon fill="#f5f5f5" stroke="transparent" points="508.5,-267.7 508.5,-290.7 665.5,-290.7 665.5,-267.7 508.5,-267.7"/>
<polygon fill="none" stroke="#000000" points="508.5,-267.7 508.5,-290.7 665.5,-290.7 665.5,-267.7 508.5,-267.7"/>
<text text-anchor="start" x="513.5" y="-276.8" font-family="Helvetica,sans-Serif" font-weight="bold" font-size="11.00" fill="#000000">events_to_items</text>
<text text-anchor="start" x="630.5437" y="-275.8" font-family="Helvetica,sans-Serif" font-size="11.00" fill="#000000">[table]</text>
<polygon fill="none" stroke="#000000" points="508.5,-245.7 508.5,-267.7 623.5,-267.7 623.5,-245.7 508.5,-245.7"/>
<image xlink:href="../../images/primaryKeys.png" width="11px" height="12px" preserveAspectRatio="xMinYMin meet" x="513.5" y="-262.7"/>
<text text-anchor="start" x="528.5" y="-252.8" font-family="Helvetica,sans-Serif" font-size="11.00" fill="#000000">event</text>
<polygon fill="none" stroke="#000000" points="623.5,-245.7 623.5,-267.7 665.5,-267.7 665.5,-245.7 623.5,-245.7"/>
<text text-anchor="start" x="626.4644" y="-253.4" font-family="Helvetica,sans-Serif" font-size="11.00" fill="#000000">int4[10]</text>
<polygon fill="none" stroke="#000000" points="508.5,-223.7 508.5,-245.7 623.5,-245.7 623.5,-223.7 508.5,-223.7"/>
<image xlink:href="../../images/primaryKeys.png" width="11px" height="12px" preserveAspectRatio="xMinYMin meet" x="513.5" y="-240.7"/>
<text text-anchor="start" x="528.5" y="-230.8" font-family="Helvetica,sans-Serif" font-size="11.00" fill="#000000">item</text>
<polygon fill="none" stroke="#000000" points="623.5,-223.7 623.5,-245.7 665.5,-245.7 665.5,-223.7 623.5,-223.7"/>
<text text-anchor="start" x="626.4644" y="-231.4" font-family="Helvetica,sans-Serif" font-size="11.00" fill="#000000">int4[10]</text>
<polygon fill="#ffffff" stroke="transparent" points="508.5,-204.7 508.5,-223.7 546.5,-223.7 546.5,-204.7 508.5,-204.7"/>
<polygon fill="none" stroke="#000000" points="508.5,-204.7 508.5,-223.7 546.5,-223.7 546.5,-204.7 508.5,-204.7"/>
<text text-anchor="start" x="511.5" y="-210.8" font-family="Helvetica,sans-Serif" font-size="11.00" fill="#000000">&lt; 2</text>
<polygon fill="#ffffff" stroke="transparent" points="546.5,-204.7 546.5,-223.7 623.5,-223.7 623.5,-204.7 546.5,-204.7"/>
<polygon fill="none" stroke="#000000" points="546.5,-204.7 546.5,-223.7 623.5,-223.7 623.5,-204.7 546.5,-204.7"/>
<text text-anchor="start" x="566.7089" y="-210.8" font-family="Helvetica,sans-Serif" font-size="11.00" fill="#000000">1,091 rows</text>
<polygon fill="#ffffff" stroke="transparent" points="623.5,-204.7 623.5,-223.7 665.5,-223.7 665.5,-204.7 623.5,-204.7"/>
<polygon fill="none" stroke="#000000" points="623.5,-204.7 623.5,-223.7 665.5,-223.7 665.5,-204.7 623.5,-204.7"/>
<text text-anchor="start" x="646.9053" y="-210.8" font-family="Helvetica,sans-Serif" font-size="11.00" fill="#000000">0 &gt;</text>
<polygon fill="none" stroke="#000000" stroke-width="2" points="507,-203.7 507,-291.7 666,-291.7 666,-203.7 507,-203.7"/>
</a>
</g>
</g>
<!-- events_to_items&#45;&gt;item -->
<g id="edge7" class="edge">
<title>events_to_items:w&#45;&gt;item:e</title>
<path fill="none" stroke="#000000" d="M494.1817,-236.9542C436.4797,-258.2781 538.8968,-423.7 457.5,-423.7"/>
<polygon fill="#000000" stroke="#000000" points="500.5973,-235.9442 509.0599,-238.2562 504.5487,-235.3221 508.5,-234.7 508.5,-234.7 508.5,-234.7 504.5487,-235.3221 507.9401,-231.1438 500.5973,-235.9442 500.5973,-235.9442"/>
<ellipse fill="none" stroke="#000000" cx="497.4363" cy="-236.4419" rx="3.2" ry="3.2"/>
</g>
<!-- event -->
<g id="node7" class="node">
<title>event</title>
<g id="a_node7"><a xlink:href="../../tables/event.html" xlink:title="event" target="_top">
<polygon fill="#ffffff" stroke="transparent" points="262,-208.2 262,-291.2 339,-291.2 339,-208.2 262,-208.2"/>
<polygon fill="#f5f5f5" stroke="transparent" points="262.5,-267.7 262.5,-290.7 339.5,-290.7 339.5,-267.7 262.5,-267.7"/>
<polygon fill="none" stroke="#000000" points="262.5,-267.7 262.5,-290.7 339.5,-290.7 339.5,-267.7 262.5,-267.7"/>
<text text-anchor="start" x="267.5" y="-276.8" font-family="Helvetica,sans-Serif" font-weight="bold" font-size="11.00" fill="#000000">event</text>
<text text-anchor="start" x="304.5437" y="-275.8" font-family="Helvetica,sans-Serif" font-size="11.00" fill="#000000">[table]</text>
<polygon fill="none" stroke="#000000" points="262.5,-245.7 262.5,-267.7 339.5,-267.7 339.5,-245.7 262.5,-245.7"/>
<image xlink:href="../../images/primaryKeys.png" width="11px" height="12px" preserveAspectRatio="xMinYMin meet" x="267.5" y="-262.7"/>
<text text-anchor="start" x="282.5" y="-252.8" font-family="Helvetica,sans-Serif" font-size="11.00" fill="#000000">id</text>
<polygon fill="none" stroke="#000000" points="262.5,-226.7 262.5,-245.7 339.5,-245.7 339.5,-226.7 262.5,-226.7"/>
<text text-anchor="start" x="265.5" y="-232.8" font-family="Helvetica,sans-Serif" font-size="11.00" fill="#000000">...</text>
<polygon fill="#ffffff" stroke="transparent" points="262.5,-207.7 262.5,-226.7 274.5,-226.7 274.5,-207.7 262.5,-207.7"/>
<polygon fill="none" stroke="#000000" points="262.5,-207.7 262.5,-226.7 274.5,-226.7 274.5,-207.7 262.5,-207.7"/>
<text text-anchor="start" x="265.4431" y="-213.8" font-family="Helvetica,sans-Serif" font-size="11.00" fill="#000000"> &#160;</text>
<polygon fill="#ffffff" stroke="transparent" points="274.5,-207.7 274.5,-226.7 318.5,-226.7 318.5,-207.7 274.5,-207.7"/>
<polygon fill="none" stroke="#000000" points="274.5,-207.7 274.5,-226.7 318.5,-226.7 318.5,-207.7 274.5,-207.7"/>
<text text-anchor="start" x="277.2478" y="-213.8" font-family="Helvetica,sans-Serif" font-size="11.00" fill="#000000">10 rows</text>
<polygon fill="#ffffff" stroke="transparent" points="318.5,-207.7 318.5,-226.7 339.5,-226.7 339.5,-207.7 318.5,-207.7"/>
<polygon fill="none" stroke="#000000" points="318.5,-207.7 318.5,-226.7 339.5,-226.7 339.5,-207.7 318.5,-207.7"/>
<text text-anchor="start" x="321.2027" y="-213.8" font-family="Helvetica,sans-Serif" font-size="11.00" fill="#000000">1 &gt;</text>
</a>
</g>
</g>
<!-- events_to_items&#45;&gt;event -->
<g id="edge6" class="edge">
<title>events_to_items:w&#45;&gt;event:e</title>
<path fill="none" stroke="#000000" d="M493.8501,-256.7C430.5584,-256.7 409.4766,-256.7 339.5,-256.7"/>
<polygon fill="#000000" stroke="#000000" points="500.5,-256.7001 508.5,-260.3 504.5,-256.7 508.5,-256.7 508.5,-256.7 508.5,-256.7 504.5,-256.7 508.5,-253.1 500.5,-256.7001 500.5,-256.7001"/>
<ellipse fill="none" stroke="#000000" cx="497.3" cy="-256.7001" rx="3.2" ry="3.2"/>
</g>
<!-- files_to_items -->
<g id="node8" class="node">
<title>files_to_items</title>
<g id="a_node8"><a xlink:href="../../tables/files_to_items.html" xlink:title="files_to_items" target="_top">
<polygon fill="#ffffff" stroke="transparent" points="531.5,-560.2 531.5,-621.2 641.5,-621.2 641.5,-560.2 531.5,-560.2"/>
<polygon fill="#f5f5f5" stroke="transparent" points="531.5,-597.7 531.5,-620.7 641.5,-620.7 641.5,-597.7 531.5,-597.7"/>
<polygon fill="none" stroke="#000000" points="531.5,-597.7 531.5,-620.7 641.5,-620.7 641.5,-597.7 531.5,-597.7"/>
<text text-anchor="start" x="536.3851" y="-606.8" font-family="Helvetica,sans-Serif" font-weight="bold" font-size="11.00" fill="#000000">files_to_items</text>
<text text-anchor="start" x="607.0219" y="-605.8" font-family="Helvetica,sans-Serif" font-size="11.00" fill="#000000">[table]</text>
<polygon fill="none" stroke="#000000" points="531.5,-578.7 531.5,-597.7 641.5,-597.7 641.5,-578.7 531.5,-578.7"/>
<text text-anchor="start" x="534.5" y="-584.8" font-family="Helvetica,sans-Serif" font-size="11.00" fill="#000000">...</text>
<polygon fill="#ffffff" stroke="transparent" points="531.5,-559.7 531.5,-578.7 561.5,-578.7 561.5,-559.7 531.5,-559.7"/>
<polygon fill="none" stroke="#000000" points="531.5,-559.7 531.5,-578.7 561.5,-578.7 561.5,-559.7 531.5,-559.7"/>
<text text-anchor="start" x="534.5" y="-565.8" font-family="Helvetica,sans-Serif" font-size="11.00" fill="#000000">&lt; 2</text>
<polygon fill="#ffffff" stroke="transparent" points="561.5,-559.7 561.5,-578.7 624.5,-578.7 624.5,-559.7 561.5,-559.7"/>
<polygon fill="none" stroke="#000000" points="561.5,-559.7 561.5,-578.7 624.5,-578.7 624.5,-559.7 561.5,-559.7"/>
<text text-anchor="start" x="567.7089" y="-565.8" font-family="Helvetica,sans-Serif" font-size="11.00" fill="#000000">1,994 rows</text>
<polygon fill="#ffffff" stroke="transparent" points="624.5,-559.7 624.5,-578.7 641.5,-578.7 641.5,-559.7 624.5,-559.7"/>
<polygon fill="none" stroke="#000000" points="624.5,-559.7 624.5,-578.7 641.5,-578.7 641.5,-559.7 624.5,-559.7"/>
<text text-anchor="start" x="632.3862" y="-565.8" font-family="Helvetica,sans-Serif" font-size="11.00" fill="#000000"> &#160;</text>
</a>
</g>
</g>
<!-- files_to_items&#45;&gt;item -->
<g id="edge8" class="edge">
<title>files_to_items:w&#45;&gt;item:e</title>
<path fill="none" stroke="#000000" d="M516.9775,-585.3816C462.7984,-565.4483 531.8429,-423.7 457.5,-423.7"/>
<polygon fill="#000000" stroke="#000000" points="523.6,-586.4388 530.9325,-591.255 527.55,-587.0694 531.5,-587.7 531.5,-587.7 531.5,-587.7 527.55,-587.0694 532.0675,-584.145 523.6,-586.4388 523.6,-586.4388"/>
<ellipse fill="none" stroke="#000000" cx="520.44" cy="-585.9343" rx="3.2" ry="3.2"/>
</g>
<!-- funders_to_items -->
<g id="node9" class="node">
<title>funders_to_items</title>
<g id="a_node9"><a xlink:href="../../tables/funders_to_items.html" xlink:title="funders_to_items" target="_top">
<polygon fill="#ffffff" stroke="transparent" points="523,-478.2 523,-539.2 650,-539.2 650,-478.2 523,-478.2"/>
<polygon fill="#f5f5f5" stroke="transparent" points="523.5,-515.7 523.5,-538.7 650.5,-538.7 650.5,-515.7 523.5,-515.7"/>
<polygon fill="none" stroke="#000000" points="523.5,-515.7 523.5,-538.7 650.5,-538.7 650.5,-515.7 523.5,-515.7"/>
<text text-anchor="start" x="528.3227" y="-524.8" font-family="Helvetica,sans-Serif" font-weight="bold" font-size="11.00" fill="#000000">funders_to_items</text>
<text text-anchor="start" x="616.0219" y="-523.8" font-family="Helvetica,sans-Serif" font-size="11.00" fill="#000000">[table]</text>
<polygon fill="none" stroke="#000000" points="523.5,-496.7 523.5,-515.7 650.5,-515.7 650.5,-496.7 523.5,-496.7"/>
<text text-anchor="start" x="526.5" y="-502.8" font-family="Helvetica,sans-Serif" font-size="11.00" fill="#000000">...</text>
<polygon fill="#ffffff" stroke="transparent" points="523.5,-477.7 523.5,-496.7 561.5,-496.7 561.5,-477.7 523.5,-477.7"/>
<polygon fill="none" stroke="#000000" points="523.5,-477.7 523.5,-496.7 561.5,-496.7 561.5,-477.7 523.5,-477.7"/>
<text text-anchor="start" x="526.5" y="-483.8" font-family="Helvetica,sans-Serif" font-size="11.00" fill="#000000">&lt; 2</text>
<polygon fill="#ffffff" stroke="transparent" points="561.5,-477.7 561.5,-496.7 629.5,-496.7 629.5,-477.7 561.5,-477.7"/>
<polygon fill="none" stroke="#000000" points="561.5,-477.7 561.5,-496.7 629.5,-496.7 629.5,-477.7 561.5,-477.7"/>
<text text-anchor="start" x="572.7089" y="-483.8" font-family="Helvetica,sans-Serif" font-size="11.00" fill="#000000">3,210 rows</text>
<polygon fill="#ffffff" stroke="transparent" points="629.5,-477.7 629.5,-496.7 650.5,-496.7 650.5,-477.7 629.5,-477.7"/>
<polygon fill="none" stroke="#000000" points="629.5,-477.7 629.5,-496.7 650.5,-496.7 650.5,-477.7 629.5,-477.7"/>
<text text-anchor="start" x="641.3862" y="-483.8" font-family="Helvetica,sans-Serif" font-size="11.00" fill="#000000"> &#160;</text>
</a>
</g>
</g>
<!-- funders_to_items&#45;&gt;item -->
<g id="edge9" class="edge">
<title>funders_to_items:w&#45;&gt;item:e</title>
<path fill="none" stroke="#000000" d="M509.1511,-502.1766C482.4468,-486.4813 498.4351,-423.7 457.5,-423.7"/>
<polygon fill="#000000" stroke="#000000" points="515.7308,-503.7922 522.6415,-509.1961 519.6154,-504.7461 523.5,-505.7 523.5,-505.7 523.5,-505.7 519.6154,-504.7461 524.3585,-502.2039 515.7308,-503.7922 515.7308,-503.7922"/>
<ellipse fill="none" stroke="#000000" cx="512.6231" cy="-503.0291" rx="3.2" ry="3.2"/>
</g>
<!-- items_to_items -->
<g id="node10" class="node">
<title>items_to_items</title>
<g id="a_node10"><a xlink:href="../../tables/items_to_items.html" xlink:title="items_to_items" target="_top">
<polygon fill="#ffffff" stroke="transparent" points="528.5,-396.2 528.5,-457.2 644.5,-457.2 644.5,-396.2 528.5,-396.2"/>
<polygon fill="#f5f5f5" stroke="transparent" points="528.5,-433.7 528.5,-456.7 644.5,-456.7 644.5,-433.7 528.5,-433.7"/>
<polygon fill="none" stroke="#000000" points="528.5,-433.7 528.5,-456.7 644.5,-456.7 644.5,-433.7 528.5,-433.7"/>
<text text-anchor="start" x="533.0246" y="-442.8" font-family="Helvetica,sans-Serif" font-weight="bold" font-size="11.00" fill="#000000">items_to_items</text>
<text text-anchor="start" x="610.0219" y="-441.8" font-family="Helvetica,sans-Serif" font-size="11.00" fill="#000000">[table]</text>
<polygon fill="none" stroke="#000000" points="528.5,-414.7 528.5,-433.7 644.5,-433.7 644.5,-414.7 528.5,-414.7"/>
<text text-anchor="start" x="531.5" y="-420.8" font-family="Helvetica,sans-Serif" font-size="11.00" fill="#000000">...</text>
<polygon fill="#ffffff" stroke="transparent" points="528.5,-395.7 528.5,-414.7 561.5,-414.7 561.5,-395.7 528.5,-395.7"/>
<polygon fill="none" stroke="#000000" points="528.5,-395.7 528.5,-414.7 561.5,-414.7 561.5,-395.7 528.5,-395.7"/>
<text text-anchor="start" x="531.5" y="-401.8" font-family="Helvetica,sans-Serif" font-size="11.00" fill="#000000">&lt; 2</text>
<polygon fill="#ffffff" stroke="transparent" points="561.5,-395.7 561.5,-414.7 626.5,-414.7 626.5,-395.7 561.5,-395.7"/>
<polygon fill="none" stroke="#000000" points="561.5,-395.7 561.5,-414.7 626.5,-414.7 626.5,-395.7 561.5,-395.7"/>
<text text-anchor="start" x="569.7089" y="-401.8" font-family="Helvetica,sans-Serif" font-size="11.00" fill="#000000">1,288 rows</text>
<polygon fill="#ffffff" stroke="transparent" points="626.5,-395.7 626.5,-414.7 644.5,-414.7 644.5,-395.7 626.5,-395.7"/>
<polygon fill="none" stroke="#000000" points="626.5,-395.7 626.5,-414.7 644.5,-414.7 644.5,-395.7 626.5,-395.7"/>
<text text-anchor="start" x="635.3862" y="-401.8" font-family="Helvetica,sans-Serif" font-size="11.00" fill="#000000"> &#160;</text>
</a>
</g>
</g>
<!-- items_to_items&#45;&gt;item -->
<g id="edge12" class="edge">
<title>items_to_items:w&#45;&gt;item:e</title>
<path fill="none" stroke="#000000" d="M514.0863,-421.138C493.5335,-417.8772 483.6319,-418.7313 457.5,-423.7"/>
<polygon fill="#000000" stroke="#000000" points="520.6235,-422.2999 527.87,-427.2444 524.5617,-423 528.5,-423.7 528.5,-423.7 528.5,-423.7 524.5617,-423 529.13,-420.1556 520.6235,-422.2999 520.6235,-422.2999"/>
<ellipse fill="none" stroke="#000000" cx="517.4728" cy="-421.7399" rx="3.2" ry="3.2"/>
</g>
<!-- items_to_items&#45;&gt;item -->
<g id="edge13" class="edge">
<title>items_to_items:w&#45;&gt;item:e</title>
<path fill="none" stroke="#000000" d="M514.3778,-426.6349C493.6266,-430.5025 483.7552,-429.5242 457.5,-423.7"/>
<polygon fill="#000000" stroke="#000000" points="520.6674,-425.3278 529.2325,-427.2247 524.5837,-424.5139 528.5,-423.7 528.5,-423.7 528.5,-423.7 524.5837,-424.5139 527.7675,-420.1753 520.6674,-425.3278 520.6674,-425.3278"/>
<ellipse fill="none" stroke="#000000" cx="517.5343" cy="-425.9789" rx="3.2" ry="3.2"/>
</g>
<!-- key_topics_to_items -->
<g id="node11" class="node">
<title>key_topics_to_items</title>
<g id="a_node11"><a xlink:href="../../tables/key_topics_to_items.html" xlink:title="key_topics_to_items" target="_top">
<polygon fill="#ffffff" stroke="transparent" points="515.5,-120.2 515.5,-181.2 657.5,-181.2 657.5,-120.2 515.5,-120.2"/>
<polygon fill="#f5f5f5" stroke="transparent" points="515.5,-157.7 515.5,-180.7 657.5,-180.7 657.5,-157.7 515.5,-157.7"/>
<polygon fill="none" stroke="#000000" points="515.5,-157.7 515.5,-180.7 657.5,-180.7 657.5,-157.7 515.5,-157.7"/>
<text text-anchor="start" x="520.1832" y="-166.8" font-family="Helvetica,sans-Serif" font-weight="bold" font-size="11.00" fill="#000000">key_topics_to_items</text>
<text text-anchor="start" x="623.0219" y="-165.8" font-family="Helvetica,sans-Serif" font-size="11.00" fill="#000000">[table]</text>
<polygon fill="none" stroke="#000000" points="515.5,-138.7 515.5,-157.7 657.5,-157.7 657.5,-138.7 515.5,-138.7"/>
<text text-anchor="start" x="518.5" y="-144.8" font-family="Helvetica,sans-Serif" font-size="11.00" fill="#000000">...</text>
<polygon fill="#ffffff" stroke="transparent" points="515.5,-119.7 515.5,-138.7 561.5,-138.7 561.5,-119.7 515.5,-119.7"/>
<polygon fill="none" stroke="#000000" points="515.5,-119.7 515.5,-138.7 561.5,-138.7 561.5,-119.7 515.5,-119.7"/>
<text text-anchor="start" x="518.5" y="-125.8" font-family="Helvetica,sans-Serif" font-size="11.00" fill="#000000">&lt; 2</text>
<polygon fill="#ffffff" stroke="transparent" points="561.5,-119.7 561.5,-138.7 632.5,-138.7 632.5,-119.7 561.5,-119.7"/>
<polygon fill="none" stroke="#000000" points="561.5,-119.7 561.5,-138.7 632.5,-138.7 632.5,-119.7 561.5,-119.7"/>
<text text-anchor="start" x="575.7089" y="-125.8" font-family="Helvetica,sans-Serif" font-size="11.00" fill="#000000">2,352 rows</text>
<polygon fill="#ffffff" stroke="transparent" points="632.5,-119.7 632.5,-138.7 657.5,-138.7 657.5,-119.7 632.5,-119.7"/>
<polygon fill="none" stroke="#000000" points="632.5,-119.7 632.5,-138.7 657.5,-138.7 657.5,-119.7 632.5,-119.7"/>
<text text-anchor="start" x="648.3862" y="-125.8" font-family="Helvetica,sans-Serif" font-size="11.00" fill="#000000"> &#160;</text>
</a>
</g>
</g>
<!-- key_topics_to_items&#45;&gt;item -->
<g id="edge14" class="edge">
<title>key_topics_to_items:w&#45;&gt;item:e</title>
<path fill="none" stroke="#000000" d="M502.0578,-153.4647C463.4419,-193.0992 514.787,-423.7 457.5,-423.7"/>
<polygon fill="#000000" stroke="#000000" points="508.1476,-150.8531 516.9189,-151.0086 511.8238,-149.2765 515.5,-147.7 515.5,-147.7 515.5,-147.7 511.8238,-149.2765 514.0811,-144.3914 508.1476,-150.8531 508.1476,-150.8531"/>
<ellipse fill="none" stroke="#000000" cx="505.2066" cy="-152.1143" rx="3.2" ry="3.2"/>
</g>
<!-- key_topics_to_items&#45;&gt;optionset -->
<g id="edge15" class="edge">
<title>key_topics_to_items:w&#45;&gt;optionset:e</title>
<path fill="none" stroke="#000000" d="M500.7647,-147.5372C340.3839,-144.009 257.115,-85.4395 136,-197.7 71.7198,-257.2808 183.146,-390.7 95.5,-390.7"/>
<polygon fill="#000000" stroke="#000000" points="507.5005,-147.6115 515.4602,-151.2998 511.5002,-147.6558 515.5,-147.7 515.5,-147.7 515.5,-147.7 511.5002,-147.6558 515.5398,-144.1002 507.5005,-147.6115 507.5005,-147.6115"/>
<ellipse fill="none" stroke="#000000" cx="504.3007" cy="-147.5762" rx="3.2" ry="3.2"/>
</g>
<!-- related_files_to_items -->
<g id="node12" class="node">
<title>related_files_to_items</title>
<g id="a_node12"><a xlink:href="../../tables/related_files_to_items.html" xlink:title="related_files_to_items" target="_top">
<polygon fill="#ffffff" stroke="transparent" points="512,-314.2 512,-375.2 661,-375.2 661,-314.2 512,-314.2"/>
<polygon fill="#f5f5f5" stroke="transparent" points="512.5,-351.7 512.5,-374.7 661.5,-374.7 661.5,-351.7 512.5,-351.7"/>
<polygon fill="none" stroke="#000000" points="512.5,-351.7 512.5,-374.7 661.5,-374.7 661.5,-351.7 512.5,-351.7"/>
<text text-anchor="start" x="517.018" y="-360.8" font-family="Helvetica,sans-Serif" font-weight="bold" font-size="11.00" fill="#000000">related_files_to_items</text>
<text text-anchor="start" x="627.0219" y="-359.8" font-family="Helvetica,sans-Serif" font-size="11.00" fill="#000000">[table]</text>
<polygon fill="none" stroke="#000000" points="512.5,-332.7 512.5,-351.7 661.5,-351.7 661.5,-332.7 512.5,-332.7"/>
<text text-anchor="start" x="515.5" y="-338.8" font-family="Helvetica,sans-Serif" font-size="11.00" fill="#000000">...</text>
<polygon fill="#ffffff" stroke="transparent" points="512.5,-313.7 512.5,-332.7 566.5,-332.7 566.5,-313.7 512.5,-313.7"/>
<polygon fill="none" stroke="#000000" points="512.5,-313.7 512.5,-332.7 566.5,-332.7 566.5,-313.7 512.5,-313.7"/>
<text text-anchor="start" x="515.5" y="-319.8" font-family="Helvetica,sans-Serif" font-size="11.00" fill="#000000">&lt; 2</text>
<polygon fill="#ffffff" stroke="transparent" points="566.5,-313.7 566.5,-332.7 632.5,-332.7 632.5,-313.7 566.5,-313.7"/>
<polygon fill="none" stroke="#000000" points="566.5,-313.7 566.5,-332.7 632.5,-332.7 632.5,-313.7 566.5,-313.7"/>
<text text-anchor="start" x="584.8807" y="-319.8" font-family="Helvetica,sans-Serif" font-size="11.00" fill="#000000">115 rows</text>
<polygon fill="#ffffff" stroke="transparent" points="632.5,-313.7 632.5,-332.7 661.5,-332.7 661.5,-313.7 632.5,-313.7"/>
<polygon fill="none" stroke="#000000" points="632.5,-313.7 632.5,-332.7 661.5,-332.7 661.5,-313.7 632.5,-313.7"/>
<text text-anchor="start" x="652.3862" y="-319.8" font-family="Helvetica,sans-Serif" font-size="11.00" fill="#000000"> &#160;</text>
</a>
</g>
</g>
<!-- related_files_to_items&#45;&gt;item -->
<g id="edge16" class="edge">
<title>related_files_to_items:w&#45;&gt;item:e</title>
<path fill="none" stroke="#000000" d="M498.4075,-345.8791C476.1437,-362.5891 495.3835,-423.7 457.5,-423.7"/>
<polygon fill="#000000" stroke="#000000" points="504.8301,-343.9745 513.5235,-345.1514 508.6651,-342.8373 512.5,-341.7 512.5,-341.7 512.5,-341.7 508.6651,-342.8373 511.4765,-338.2486 504.8301,-343.9745 504.8301,-343.9745"/>
<ellipse fill="none" stroke="#000000" cx="501.7622" cy="-344.8843" rx="3.2" ry="3.2"/>
</g>
<!-- tags_to_items -->
<g id="node13" class="node">
<title>tags_to_items</title>
<g id="a_node13"><a xlink:href="../../tables/tags_to_items.html" xlink:title="tags_to_items" target="_top">
<polygon fill="#ffffff" stroke="transparent" points="531,-38.2 531,-99.2 642,-99.2 642,-38.2 531,-38.2"/>
<polygon fill="#f5f5f5" stroke="transparent" points="531.5,-75.7 531.5,-98.7 642.5,-98.7 642.5,-75.7 531.5,-75.7"/>
<polygon fill="none" stroke="#000000" points="531.5,-75.7 531.5,-98.7 642.5,-98.7 642.5,-75.7 531.5,-75.7"/>
<text text-anchor="start" x="536.2686" y="-84.8" font-family="Helvetica,sans-Serif" font-weight="bold" font-size="11.00" fill="#000000">tags_to_items</text>
<text text-anchor="start" x="608.0219" y="-83.8" font-family="Helvetica,sans-Serif" font-size="11.00" fill="#000000">[table]</text>
<polygon fill="none" stroke="#000000" points="531.5,-56.7 531.5,-75.7 642.5,-75.7 642.5,-56.7 531.5,-56.7"/>
<text text-anchor="start" x="534.5" y="-62.8" font-family="Helvetica,sans-Serif" font-size="11.00" fill="#000000">...</text>
<polygon fill="#ffffff" stroke="transparent" points="531.5,-37.7 531.5,-56.7 572.5,-56.7 572.5,-37.7 531.5,-37.7"/>
<polygon fill="none" stroke="#000000" points="531.5,-37.7 531.5,-56.7 572.5,-56.7 572.5,-37.7 531.5,-37.7"/>
<text text-anchor="start" x="534.5" y="-43.8" font-family="Helvetica,sans-Serif" font-size="11.00" fill="#000000">&lt; 2</text>
<polygon fill="#ffffff" stroke="transparent" points="572.5,-37.7 572.5,-56.7 620.5,-56.7 620.5,-37.7 572.5,-37.7"/>
<polygon fill="none" stroke="#000000" points="572.5,-37.7 572.5,-56.7 620.5,-56.7 620.5,-37.7 572.5,-37.7"/>
<text text-anchor="start" x="585.1105" y="-43.8" font-family="Helvetica,sans-Serif" font-size="11.00" fill="#000000">0 rows</text>
<polygon fill="#ffffff" stroke="transparent" points="620.5,-37.7 620.5,-56.7 642.5,-56.7 642.5,-37.7 620.5,-37.7"/>
<polygon fill="none" stroke="#000000" points="620.5,-37.7 620.5,-56.7 642.5,-56.7 642.5,-37.7 620.5,-37.7"/>
<text text-anchor="start" x="633.3862" y="-43.8" font-family="Helvetica,sans-Serif" font-size="11.00" fill="#000000"> &#160;</text>
</a>
</g>
</g>
<!-- tags_to_items&#45;&gt;item -->
<g id="edge17" class="edge">
<title>tags_to_items:w&#45;&gt;item:e</title>
<path fill="none" stroke="#000000" d="M517.2091,-69.3775C506.5183,-76.4235 504.9999,-92.6469 498,-109.7 471.2839,-174.786 527.8558,-423.7 457.5,-423.7"/>
<polygon fill="#000000" stroke="#000000" points="523.7524,-67.6938 532.3972,-69.1864 527.6262,-66.6969 531.5,-65.7 531.5,-65.7 531.5,-65.7 527.6262,-66.6969 530.6028,-62.2136 523.7524,-67.6938 523.7524,-67.6938"/>
<ellipse fill="none" stroke="#000000" cx="520.6534" cy="-68.4913" rx="3.2" ry="3.2"/>
</g>
<!-- tags_to_items&#45;&gt;optionset -->
<g id="edge18" class="edge">
<title>tags_to_items:w&#45;&gt;optionset:e</title>
<path fill="none" stroke="#000000" d="M517.1005,-65.5598C348.591,-62.298 258.2751,-4.3261 136,-126.7 94.048,-168.6858 154.853,-390.7 95.5,-390.7"/>
<polygon fill="#000000" stroke="#000000" points="523.5004,-65.6221 531.4649,-69.2998 527.5002,-65.661 531.5,-65.7 531.5,-65.7 531.5,-65.7 527.5002,-65.661 531.5351,-62.1002 523.5004,-65.6221 523.5004,-65.6221"/>
<ellipse fill="none" stroke="#000000" cx="520.3005" cy="-65.5909" rx="3.2" ry="3.2"/>
</g>
</g>
</svg>
