<?xml version="1.0" encoding="UTF-8" standalone="no"?>
<!DOCTYPE svg PUBLIC "-//W3C//DTD SVG 1.1//EN"
 "http://www.w3.org/Graphics/SVG/1.1/DTD/svg11.dtd">
<!-- Generated by graphviz version 2.40.1 (20161225.0304)
 -->
<!-- Title: oneDegreeRelationshipsDiagram Pages: 1 -->
<svg width="367pt" height="162pt"
 viewBox="0.00 0.00 367.00 162.20" xmlns="http://www.w3.org/2000/svg" xmlns:xlink="http://www.w3.org/1999/xlink">
<g id="graph0" class="graph" transform="scale(1 1) rotate(0) translate(4 158.2)">
<title>oneDegreeRelationshipsDiagram</title>
<polygon fill="#ffffff" stroke="transparent" points="-4,4 -4,-158.2 363,-158.2 363,4 -4,4"/>
<text text-anchor="middle" x="72.4936" y="-7.3" font-family="Helvetica,sans-Serif" font-size="11.00" fill="#000000">Generated by SchemaSpy</text>
<!-- events_to_items -->
<g id="node1" class="node">
<title>events_to_items</title>
<g id="a_node1"><a xlink:href="../../tables/events_to_items.html" xlink:title="events_to_items" target="_top">
<polygon fill="#ffffff" stroke="transparent" points="228,-62.2 228,-148.2 351,-148.2 351,-62.2 228,-62.2"/>
<polygon fill="#f5f5f5" stroke="transparent" points="228.5,-125.2 228.5,-148.2 351.5,-148.2 351.5,-125.2 228.5,-125.2"/>
<polygon fill="none" stroke="#000000" points="228.5,-125.2 228.5,-148.2 351.5,-148.2 351.5,-125.2 228.5,-125.2"/>
<text text-anchor="start" x="233.4611" y="-134.3" font-family="Helvetica,sans-Serif" font-weight="bold" font-size="11.00" fill="#000000">events_to_items</text>
<text text-anchor="start" x="317.0219" y="-133.3" font-family="Helvetica,sans-Serif" font-size="11.00" fill="#000000">[table]</text>
<polygon fill="none" stroke="#000000" points="228.5,-103.2 228.5,-125.2 351.5,-125.2 351.5,-103.2 228.5,-103.2"/>
<image xlink:href="../../images/primaryKeys.png" width="11px" height="12px" preserveAspectRatio="xMinYMin meet" x="233.5" y="-120.2"/>
<text text-anchor="start" x="252.5" y="-110.3" font-family="Helvetica,sans-Serif" font-size="11.00" fill="#000000">event</text>
<polygon fill="none" stroke="#000000" points="228.5,-81.2 228.5,-103.2 351.5,-103.2 351.5,-81.2 228.5,-81.2"/>
<image xlink:href="../../images/primaryKeys.png" width="11px" height="12px" preserveAspectRatio="xMinYMin meet" x="233.5" y="-98.2"/>
<text text-anchor="start" x="252.5" y="-88.3" font-family="Helvetica,sans-Serif" font-size="11.00" fill="#000000">item</text>
<polygon fill="#ffffff" stroke="transparent" points="228.5,-62.2 228.5,-81.2 264.5,-81.2 264.5,-62.2 228.5,-62.2"/>
<polygon fill="none" stroke="#000000" points="228.5,-62.2 228.5,-81.2 264.5,-81.2 264.5,-62.2 228.5,-62.2"/>
<text text-anchor="start" x="231.5" y="-68.3" font-family="Helvetica,sans-Serif" font-size="11.00" fill="#000000">&lt; 2</text>
<polygon fill="#ffffff" stroke="transparent" points="264.5,-62.2 264.5,-81.2 331.5,-81.2 331.5,-62.2 264.5,-62.2"/>
<polygon fill="none" stroke="#000000" points="264.5,-62.2 264.5,-81.2 331.5,-81.2 331.5,-62.2 264.5,-62.2"/>
<text text-anchor="start" x="274.7089" y="-68.3" font-family="Helvetica,sans-Serif" font-size="11.00" fill="#000000">1,091 rows</text>
<polygon fill="#ffffff" stroke="transparent" points="331.5,-62.2 331.5,-81.2 351.5,-81.2 351.5,-62.2 331.5,-62.2"/>
<polygon fill="none" stroke="#000000" points="331.5,-62.2 331.5,-81.2 351.5,-81.2 351.5,-62.2 331.5,-62.2"/>
<text text-anchor="start" x="342.3862" y="-68.3" font-family="Helvetica,sans-Serif" font-size="11.00" fill="#000000"> &#160;</text>
</a>
</g>
</g>
<!-- event -->
<g id="node2" class="node">
<title>event</title>
<g id="a_node2"><a xlink:href="../../tables/event.html" xlink:title="event" target="_top">
<polygon fill="#ffffff" stroke="transparent" points="8,-38.2 8,-150.2 179,-150.2 179,-38.2 8,-38.2"/>
<polygon fill="#f5f5f5" stroke="transparent" points="10.5,-125.2 10.5,-148.2 177.5,-148.2 177.5,-125.2 10.5,-125.2"/>
<polygon fill="none" stroke="#000000" points="10.5,-125.2 10.5,-148.2 177.5,-148.2 177.5,-125.2 10.5,-125.2"/>
<text text-anchor="start" x="15.5" y="-134.3" font-family="Helvetica,sans-Serif" font-weight="bold" font-size="11.00" fill="#000000">event</text>
<text text-anchor="start" x="142.5437" y="-133.3" font-family="Helvetica,sans-Serif" font-size="11.00" fill="#000000">[table]</text>
<polygon fill="none" stroke="#000000" points="10.5,-103.2 10.5,-125.2 87.5,-125.2 87.5,-103.2 10.5,-103.2"/>
<image xlink:href="../../images/primaryKeys.png" width="11px" height="12px" preserveAspectRatio="xMinYMin meet" x="15.5" y="-120.2"/>
<text text-anchor="start" x="30.5" y="-110.3" font-family="Helvetica,sans-Serif" font-size="11.00" fill="#000000">id</text>
<polygon fill="none" stroke="#000000" points="87.5,-103.2 87.5,-125.2 177.5,-125.2 177.5,-103.2 87.5,-103.2"/>
<text text-anchor="start" x="90.5" y="-110.9" font-family="Helvetica,sans-Serif" font-size="11.00" fill="#000000">serial[10]</text>
<polygon fill="none" stroke="#000000" points="10.5,-81.2 10.5,-103.2 87.5,-103.2 87.5,-81.2 10.5,-81.2"/>
<text text-anchor="start" x="30.5" y="-88.3" font-family="Helvetica,sans-Serif" font-size="11.00" fill="#000000">master_id</text>
<polygon fill="none" stroke="#000000" points="87.5,-81.2 87.5,-103.2 177.5,-103.2 177.5,-81.2 87.5,-81.2"/>
<text text-anchor="start" x="90.0042" y="-88.9" font-family="Helvetica,sans-Serif" font-size="11.00" fill="#000000">text[2147483647]</text>
<polygon fill="none" stroke="#000000" points="10.5,-59.2 10.5,-81.2 87.5,-81.2 87.5,-59.2 10.5,-59.2"/>
<text text-anchor="start" x="30.5" y="-66.3" font-family="Helvetica,sans-Serif" font-size="11.00" fill="#000000">name</text>
<polygon fill="none" stroke="#000000" points="87.5,-59.2 87.5,-81.2 177.5,-81.2 177.5,-59.2 87.5,-59.2"/>
<text text-anchor="start" x="90.0042" y="-66.9" font-family="Helvetica,sans-Serif" font-size="11.00" fill="#000000">text[2147483647]</text>
<polygon fill="#ffffff" stroke="transparent" points="10.5,-40.2 10.5,-59.2 37.5,-59.2 37.5,-40.2 10.5,-40.2"/>
<polygon fill="none" stroke="#000000" points="10.5,-40.2 10.5,-59.2 37.5,-59.2 37.5,-40.2 10.5,-40.2"/>
<text text-anchor="start" x="13.5" y="-46.3" font-family="Helvetica,sans-Serif" font-size="11.00" fill="#000000">&lt; 0</text>
<polygon fill="#ffffff" stroke="transparent" points="37.5,-40.2 37.5,-59.2 87.5,-59.2 87.5,-40.2 37.5,-40.2"/>
<polygon fill="none" stroke="#000000" points="37.5,-40.2 37.5,-59.2 87.5,-59.2 87.5,-40.2 37.5,-40.2"/>
<text text-anchor="start" x="45.9956" y="-46.3" font-family="Helvetica,sans-Serif" font-size="11.00" fill="#000000">10 rows</text>
<polygon fill="#ffffff" stroke="transparent" points="87.5,-40.2 87.5,-59.2 177.5,-59.2 177.5,-40.2 87.5,-40.2"/>
<polygon fill="none" stroke="#000000" points="87.5,-40.2 87.5,-59.2 177.5,-59.2 177.5,-40.2 87.5,-40.2"/>
<text text-anchor="start" x="158.9053" y="-46.3" font-family="Helvetica,sans-Serif" font-size="11.00" fill="#000000">1 &gt;</text>
<polygon fill="none" stroke="#000000" stroke-width="2" points="9,-39.2 9,-149.2 178,-149.2 178,-39.2 9,-39.2"/>
</a>
</g>
</g>
<!-- events_to_items&#45;&gt;event -->
<g id="edge1" class="edge">
<title>events_to_items:w&#45;&gt;event:e</title>
<path fill="none" stroke="#000000" d="M213.776,-114.2C201.7815,-114.2 194.3229,-114.2 177.5,-114.2"/>
<polygon fill="#000000" stroke="#000000" points="220.5,-114.2001 228.5,-117.8 224.5,-114.2 228.5,-114.2 228.5,-114.2 228.5,-114.2 224.5,-114.2 228.5,-110.6 220.5,-114.2001 220.5,-114.2001"/>
<ellipse fill="none" stroke="#000000" cx="217.3" cy="-114.2001" rx="3.2" ry="3.2"/>
</g>
</g>
</svg>
