<?xml version="1.0" encoding="UTF-8" standalone="no"?>
<!DOCTYPE svg PUBLIC "-//W3C//DTD SVG 1.1//EN"
 "http://www.w3.org/Graphics/SVG/1.1/DTD/svg11.dtd">
<!-- Generated by graphviz version 2.40.1 (20161225.0304)
 -->
<!-- Title: twoDegreesRelationshipsDiagram Pages: 1 -->
<svg width="367pt" height="245pt"
 viewBox="0.00 0.00 367.00 244.70" xmlns="http://www.w3.org/2000/svg" xmlns:xlink="http://www.w3.org/1999/xlink">
<g id="graph0" class="graph" transform="scale(1 1) rotate(0) translate(4 240.7)">
<title>twoDegreesRelationshipsDiagram</title>
<polygon fill="#ffffff" stroke="transparent" points="-4,4 -4,-240.7 363,-240.7 363,4 -4,4"/>
<text text-anchor="middle" x="72.4936" y="-7.3" font-family="Helvetica,sans-Serif" font-size="11.00" fill="#000000">Generated by SchemaSpy</text>
<!-- events_to_items -->
<g id="node1" class="node">
<title>events_to_items</title>
<g id="a_node1"><a xlink:href="../../tables/events_to_items.html" xlink:title="events_to_items" target="_top">
<polygon fill="#ffffff" stroke="transparent" points="228,-89.7 228,-175.7 351,-175.7 351,-89.7 228,-89.7"/>
<polygon fill="#f5f5f5" stroke="transparent" points="228.5,-152.7 228.5,-175.7 351.5,-175.7 351.5,-152.7 228.5,-152.7"/>
<polygon fill="none" stroke="#000000" points="228.5,-152.7 228.5,-175.7 351.5,-175.7 351.5,-152.7 228.5,-152.7"/>
<text text-anchor="start" x="233.4611" y="-161.8" font-family="Helvetica,sans-Serif" font-weight="bold" font-size="11.00" fill="#000000">events_to_items</text>
<text text-anchor="start" x="317.0219" y="-160.8" font-family="Helvetica,sans-Serif" font-size="11.00" fill="#000000">[table]</text>
<polygon fill="none" stroke="#000000" points="228.5,-130.7 228.5,-152.7 351.5,-152.7 351.5,-130.7 228.5,-130.7"/>
<image xlink:href="../../images/primaryKeys.png" width="11px" height="12px" preserveAspectRatio="xMinYMin meet" x="233.5" y="-147.7"/>
<text text-anchor="start" x="252.5" y="-137.8" font-family="Helvetica,sans-Serif" font-size="11.00" fill="#000000">event</text>
<polygon fill="none" stroke="#000000" points="228.5,-108.7 228.5,-130.7 351.5,-130.7 351.5,-108.7 228.5,-108.7"/>
<image xlink:href="../../images/primaryKeys.png" width="11px" height="12px" preserveAspectRatio="xMinYMin meet" x="233.5" y="-125.7"/>
<text text-anchor="start" x="252.5" y="-115.8" font-family="Helvetica,sans-Serif" font-size="11.00" fill="#000000">item</text>
<polygon fill="#ffffff" stroke="transparent" points="228.5,-89.7 228.5,-108.7 264.5,-108.7 264.5,-89.7 228.5,-89.7"/>
<polygon fill="none" stroke="#000000" points="228.5,-89.7 228.5,-108.7 264.5,-108.7 264.5,-89.7 228.5,-89.7"/>
<text text-anchor="start" x="231.5" y="-95.8" font-family="Helvetica,sans-Serif" font-size="11.00" fill="#000000">&lt; 2</text>
<polygon fill="#ffffff" stroke="transparent" points="264.5,-89.7 264.5,-108.7 331.5,-108.7 331.5,-89.7 264.5,-89.7"/>
<polygon fill="none" stroke="#000000" points="264.5,-89.7 264.5,-108.7 331.5,-108.7 331.5,-89.7 264.5,-89.7"/>
<text text-anchor="start" x="274.7089" y="-95.8" font-family="Helvetica,sans-Serif" font-size="11.00" fill="#000000">1,091 rows</text>
<polygon fill="#ffffff" stroke="transparent" points="331.5,-89.7 331.5,-108.7 351.5,-108.7 351.5,-89.7 331.5,-89.7"/>
<polygon fill="none" stroke="#000000" points="331.5,-89.7 331.5,-108.7 351.5,-108.7 351.5,-89.7 331.5,-89.7"/>
<text text-anchor="start" x="342.3862" y="-95.8" font-family="Helvetica,sans-Serif" font-size="11.00" fill="#000000"> &#160;</text>
</a>
</g>
</g>
<!-- event -->
<g id="node2" class="node">
<title>event</title>
<g id="a_node2"><a xlink:href="../../tables/event.html" xlink:title="event" target="_top">
<polygon fill="#ffffff" stroke="transparent" points="8,-120.7 8,-232.7 179,-232.7 179,-120.7 8,-120.7"/>
<polygon fill="#f5f5f5" stroke="transparent" points="10.5,-207.7 10.5,-230.7 177.5,-230.7 177.5,-207.7 10.5,-207.7"/>
<polygon fill="none" stroke="#000000" points="10.5,-207.7 10.5,-230.7 177.5,-230.7 177.5,-207.7 10.5,-207.7"/>
<text text-anchor="start" x="15.5" y="-216.8" font-family="Helvetica,sans-Serif" font-weight="bold" font-size="11.00" fill="#000000">event</text>
<text text-anchor="start" x="142.5437" y="-215.8" font-family="Helvetica,sans-Serif" font-size="11.00" fill="#000000">[table]</text>
<polygon fill="none" stroke="#000000" points="10.5,-185.7 10.5,-207.7 87.5,-207.7 87.5,-185.7 10.5,-185.7"/>
<image xlink:href="../../images/primaryKeys.png" width="11px" height="12px" preserveAspectRatio="xMinYMin meet" x="15.5" y="-202.7"/>
<text text-anchor="start" x="30.5" y="-192.8" font-family="Helvetica,sans-Serif" font-size="11.00" fill="#000000">id</text>
<polygon fill="none" stroke="#000000" points="87.5,-185.7 87.5,-207.7 177.5,-207.7 177.5,-185.7 87.5,-185.7"/>
<text text-anchor="start" x="90.5" y="-193.4" font-family="Helvetica,sans-Serif" font-size="11.00" fill="#000000">serial[10]</text>
<polygon fill="none" stroke="#000000" points="10.5,-163.7 10.5,-185.7 87.5,-185.7 87.5,-163.7 10.5,-163.7"/>
<text text-anchor="start" x="30.5" y="-170.8" font-family="Helvetica,sans-Serif" font-size="11.00" fill="#000000">master_id</text>
<polygon fill="none" stroke="#000000" points="87.5,-163.7 87.5,-185.7 177.5,-185.7 177.5,-163.7 87.5,-163.7"/>
<text text-anchor="start" x="90.0042" y="-171.4" font-family="Helvetica,sans-Serif" font-size="11.00" fill="#000000">text[2147483647]</text>
<polygon fill="none" stroke="#000000" points="10.5,-141.7 10.5,-163.7 87.5,-163.7 87.5,-141.7 10.5,-141.7"/>
<text text-anchor="start" x="30.5" y="-148.8" font-family="Helvetica,sans-Serif" font-size="11.00" fill="#000000">name</text>
<polygon fill="none" stroke="#000000" points="87.5,-141.7 87.5,-163.7 177.5,-163.7 177.5,-141.7 87.5,-141.7"/>
<text text-anchor="start" x="90.0042" y="-149.4" font-family="Helvetica,sans-Serif" font-size="11.00" fill="#000000">text[2147483647]</text>
<polygon fill="#ffffff" stroke="transparent" points="10.5,-122.7 10.5,-141.7 37.5,-141.7 37.5,-122.7 10.5,-122.7"/>
<polygon fill="none" stroke="#000000" points="10.5,-122.7 10.5,-141.7 37.5,-141.7 37.5,-122.7 10.5,-122.7"/>
<text text-anchor="start" x="13.5" y="-128.8" font-family="Helvetica,sans-Serif" font-size="11.00" fill="#000000">&lt; 0</text>
<polygon fill="#ffffff" stroke="transparent" points="37.5,-122.7 37.5,-141.7 87.5,-141.7 87.5,-122.7 37.5,-122.7"/>
<polygon fill="none" stroke="#000000" points="37.5,-122.7 37.5,-141.7 87.5,-141.7 87.5,-122.7 37.5,-122.7"/>
<text text-anchor="start" x="45.9956" y="-128.8" font-family="Helvetica,sans-Serif" font-size="11.00" fill="#000000">10 rows</text>
<polygon fill="#ffffff" stroke="transparent" points="87.5,-122.7 87.5,-141.7 177.5,-141.7 177.5,-122.7 87.5,-122.7"/>
<polygon fill="none" stroke="#000000" points="87.5,-122.7 87.5,-141.7 177.5,-141.7 177.5,-122.7 87.5,-122.7"/>
<text text-anchor="start" x="158.9053" y="-128.8" font-family="Helvetica,sans-Serif" font-size="11.00" fill="#000000">1 &gt;</text>
<polygon fill="none" stroke="#000000" stroke-width="2" points="9,-121.7 9,-231.7 178,-231.7 178,-121.7 9,-121.7"/>
</a>
</g>
</g>
<!-- events_to_items&#45;&gt;event -->
<g id="edge1" class="edge">
<title>events_to_items:w&#45;&gt;event:e</title>
<path fill="none" stroke="#000000" d="M214.7081,-146.3893C199.2137,-159.6898 204.8462,-196.7 177.5,-196.7"/>
<polygon fill="#000000" stroke="#000000" points="220.9258,-144.2753 229.6589,-145.1084 224.7129,-142.9876 228.5,-141.7 228.5,-141.7 228.5,-141.7 224.7129,-142.9876 227.3411,-138.2916 220.9258,-144.2753 220.9258,-144.2753"/>
<ellipse fill="none" stroke="#000000" cx="217.8961" cy="-145.3054" rx="3.2" ry="3.2"/>
</g>
<!-- item -->
<g id="node3" class="node">
<title>item</title>
<g id="a_node3"><a xlink:href="../../tables/item.html" xlink:title="item" target="_top">
<polygon fill="#ffffff" stroke="transparent" points="40,-38.2 40,-99.2 147,-99.2 147,-38.2 40,-38.2"/>
<polygon fill="#f5f5f5" stroke="transparent" points="40.5,-75.7 40.5,-98.7 147.5,-98.7 147.5,-75.7 40.5,-75.7"/>
<polygon fill="none" stroke="#000000" points="40.5,-75.7 40.5,-98.7 147.5,-98.7 147.5,-75.7 40.5,-75.7"/>
<text text-anchor="start" x="45.5" y="-84.8" font-family="Helvetica,sans-Serif" font-weight="bold" font-size="11.00" fill="#000000">item</text>
<text text-anchor="start" x="112.5437" y="-83.8" font-family="Helvetica,sans-Serif" font-size="11.00" fill="#000000">[table]</text>
<polygon fill="none" stroke="#000000" points="40.5,-56.7 40.5,-75.7 147.5,-75.7 147.5,-56.7 40.5,-56.7"/>
<text text-anchor="start" x="43.5" y="-62.8" font-family="Helvetica,sans-Serif" font-size="11.00" fill="#000000">...</text>
<polygon fill="#ffffff" stroke="transparent" points="40.5,-37.7 40.5,-56.7 61.5,-56.7 61.5,-37.7 40.5,-37.7"/>
<polygon fill="none" stroke="#000000" points="40.5,-37.7 40.5,-56.7 61.5,-56.7 61.5,-37.7 40.5,-37.7"/>
<text text-anchor="start" x="43.2027" y="-43.8" font-family="Helvetica,sans-Serif" font-size="11.00" fill="#000000">&lt; 2</text>
<polygon fill="#ffffff" stroke="transparent" points="61.5,-37.7 61.5,-56.7 120.5,-56.7 120.5,-37.7 61.5,-37.7"/>
<polygon fill="none" stroke="#000000" points="61.5,-37.7 61.5,-56.7 120.5,-56.7 120.5,-37.7 61.5,-37.7"/>
<text text-anchor="start" x="64.1045" y="-43.8" font-family="Helvetica,sans-Serif" font-size="11.00" fill="#000000">2,352 rows</text>
<polygon fill="#ffffff" stroke="transparent" points="120.5,-37.7 120.5,-56.7 147.5,-56.7 147.5,-37.7 120.5,-37.7"/>
<polygon fill="none" stroke="#000000" points="120.5,-37.7 120.5,-56.7 147.5,-56.7 147.5,-37.7 120.5,-37.7"/>
<text text-anchor="start" x="123.1452" y="-43.8" font-family="Helvetica,sans-Serif" font-size="11.00" fill="#000000">11 &gt;</text>
</a>
</g>
</g>
<!-- events_to_items&#45;&gt;item -->
<g id="edge2" class="edge">
<title>events_to_items:w&#45;&gt;item:e</title>
<path fill="none" stroke="#000000" d="M213.9916,-117.2394C185.849,-106.6754 185.1893,-65.7 147.5,-65.7"/>
<polygon fill="#000000" stroke="#000000" points="220.6126,-118.3623 227.898,-123.2493 224.5563,-119.0311 228.5,-119.7 228.5,-119.7 228.5,-119.7 224.5563,-119.0311 229.102,-116.1507 220.6126,-118.3623 220.6126,-118.3623"/>
<ellipse fill="none" stroke="#000000" cx="217.4577" cy="-117.8272" rx="3.2" ry="3.2"/>
</g>
</g>
</svg>
