<?xml version="1.0" encoding="UTF-8" standalone="no"?>
<!DOCTYPE svg PUBLIC "-//W3C//DTD SVG 1.1//EN"
 "http://www.w3.org/Graphics/SVG/1.1/DTD/svg11.dtd">
<!-- Generated by graphviz version 2.40.1 (20161225.0304)
 -->
<!-- Title: twoDegreesRelationshipsDiagram Pages: 1 -->
<svg width="673pt" height="879pt"
 viewBox="0.00 0.00 673.00 879.20" xmlns="http://www.w3.org/2000/svg" xmlns:xlink="http://www.w3.org/1999/xlink">
<g id="graph0" class="graph" transform="scale(1 1) rotate(0) translate(4 875.2)">
<title>twoDegreesRelationshipsDiagram</title>
<polygon fill="#ffffff" stroke="transparent" points="-4,4 -4,-875.2 669,-875.2 669,4 -4,4"/>
<text text-anchor="middle" x="72.4936" y="-7.3" font-family="Helvetica,sans-Serif" font-size="11.00" fill="#000000">Generated by SchemaSpy</text>
<!-- authors_to_items -->
<g id="node1" class="node">
<title>authors_to_items</title>
<g id="a_node1"><a xlink:href="../../tables/authors_to_items.html" xlink:title="authors_to_items" target="_top">
<polygon fill="#ffffff" stroke="transparent" points="518,-478.2 518,-539.2 645,-539.2 645,-478.2 518,-478.2"/>
<polygon fill="#f5f5f5" stroke="transparent" points="518.5,-515.7 518.5,-538.7 645.5,-538.7 645.5,-515.7 518.5,-515.7"/>
<polygon fill="none" stroke="#000000" points="518.5,-515.7 518.5,-538.7 645.5,-538.7 645.5,-515.7 518.5,-515.7"/>
<text text-anchor="start" x="523.3227" y="-524.8" font-family="Helvetica,sans-Serif" font-weight="bold" font-size="11.00" fill="#000000">authors_to_items</text>
<text text-anchor="start" x="611.0219" y="-523.8" font-family="Helvetica,sans-Serif" font-size="11.00" fill="#000000">[table]</text>
<polygon fill="none" stroke="#000000" points="518.5,-496.7 518.5,-515.7 645.5,-515.7 645.5,-496.7 518.5,-496.7"/>
<text text-anchor="start" x="521.5" y="-502.8" font-family="Helvetica,sans-Serif" font-size="11.00" fill="#000000">...</text>
<polygon fill="#ffffff" stroke="transparent" points="518.5,-477.7 518.5,-496.7 556.5,-496.7 556.5,-477.7 518.5,-477.7"/>
<polygon fill="none" stroke="#000000" points="518.5,-477.7 518.5,-496.7 556.5,-496.7 556.5,-477.7 518.5,-477.7"/>
<text text-anchor="start" x="521.5" y="-483.8" font-family="Helvetica,sans-Serif" font-size="11.00" fill="#000000">&lt; 2</text>
<polygon fill="#ffffff" stroke="transparent" points="556.5,-477.7 556.5,-496.7 624.5,-496.7 624.5,-477.7 556.5,-477.7"/>
<polygon fill="none" stroke="#000000" points="556.5,-477.7 556.5,-496.7 624.5,-496.7 624.5,-477.7 556.5,-477.7"/>
<text text-anchor="start" x="567.7089" y="-483.8" font-family="Helvetica,sans-Serif" font-size="11.00" fill="#000000">2,850 rows</text>
<polygon fill="#ffffff" stroke="transparent" points="624.5,-477.7 624.5,-496.7 645.5,-496.7 645.5,-477.7 624.5,-477.7"/>
<polygon fill="none" stroke="#000000" points="624.5,-477.7 624.5,-496.7 645.5,-496.7 645.5,-477.7 624.5,-477.7"/>
<text text-anchor="start" x="636.3862" y="-483.8" font-family="Helvetica,sans-Serif" font-size="11.00" fill="#000000"> &#160;</text>
</a>
</g>
</g>
<!-- item -->
<g id="node2" class="node">
<title>item</title>
<g id="a_node2"><a xlink:href="../../tables/item.html" xlink:title="item" target="_top">
<polygon fill="#ffffff" stroke="transparent" points="144,-495.2 144,-622.2 457,-622.2 457,-495.2 144,-495.2"/>
<polygon fill="#f5f5f5" stroke="transparent" points="144.5,-598.7 144.5,-621.7 457.5,-621.7 457.5,-598.7 144.5,-598.7"/>
<polygon fill="none" stroke="#000000" points="144.5,-598.7 144.5,-621.7 457.5,-621.7 457.5,-598.7 144.5,-598.7"/>
<text text-anchor="start" x="149.5" y="-607.8" font-family="Helvetica,sans-Serif" font-weight="bold" font-size="11.00" fill="#000000">item</text>
<text text-anchor="start" x="422.5437" y="-606.8" font-family="Helvetica,sans-Serif" font-size="11.00" fill="#000000">[table]</text>
<polygon fill="none" stroke="#000000" points="144.5,-576.7 144.5,-598.7 457.5,-598.7 457.5,-576.7 144.5,-576.7"/>
<image xlink:href="../../images/primaryKeys.png" width="11px" height="12px" preserveAspectRatio="xMinYMin meet" x="149.5" y="-593.7"/>
<text text-anchor="start" x="164.5" y="-583.8" font-family="Helvetica,sans-Serif" font-size="11.00" fill="#000000">id</text>
<polygon fill="#ffffff" stroke="transparent" points="144.5,-554.7 144.5,-576.7 457.5,-576.7 457.5,-554.7 144.5,-554.7"/>
<polygon fill="none" stroke="#000000" points="144.5,-554.7 144.5,-576.7 457.5,-576.7 457.5,-554.7 144.5,-554.7"/>
<image xlink:href="../../images/foreignKeys.png" width="11px" height="12px" preserveAspectRatio="xMinYMin meet" x="149.5" y="-571.7"/>
<text text-anchor="start" x="164.5" y="-561.8" font-family="Helvetica,sans-Serif" font-size="11.00" fill="#000000">field_relationship</text>
<polygon fill="#ffffff" stroke="transparent" points="144.5,-532.7 144.5,-554.7 457.5,-554.7 457.5,-532.7 144.5,-532.7"/>
<polygon fill="none" stroke="#000000" points="144.5,-532.7 144.5,-554.7 457.5,-554.7 457.5,-532.7 144.5,-532.7"/>
<image xlink:href="../../images/foreignKeys.png" width="11px" height="12px" preserveAspectRatio="xMinYMin meet" x="149.5" y="-549.7"/>
<text text-anchor="start" x="164.5" y="-539.8" font-family="Helvetica,sans-Serif" font-size="11.00" fill="#000000">geo_specificity</text>
<polygon fill="none" stroke="#000000" points="144.5,-513.7 144.5,-532.7 457.5,-532.7 457.5,-513.7 144.5,-513.7"/>
<text text-anchor="start" x="147.5" y="-519.8" font-family="Helvetica,sans-Serif" font-size="11.00" fill="#000000">...</text>
<polygon fill="#ffffff" stroke="transparent" points="144.5,-494.7 144.5,-513.7 268.5,-513.7 268.5,-494.7 144.5,-494.7"/>
<polygon fill="none" stroke="#000000" points="144.5,-494.7 144.5,-513.7 268.5,-513.7 268.5,-494.7 144.5,-494.7"/>
<text text-anchor="start" x="147.5" y="-500.8" font-family="Helvetica,sans-Serif" font-size="11.00" fill="#000000">&lt; 2</text>
<polygon fill="#ffffff" stroke="transparent" points="268.5,-494.7 268.5,-513.7 378.5,-513.7 378.5,-494.7 268.5,-494.7"/>
<polygon fill="none" stroke="#000000" points="268.5,-494.7 268.5,-513.7 378.5,-513.7 378.5,-494.7 268.5,-494.7"/>
<text text-anchor="start" x="321.7089" y="-500.8" font-family="Helvetica,sans-Serif" font-size="11.00" fill="#000000">2,352 rows</text>
<polygon fill="#ffffff" stroke="transparent" points="378.5,-494.7 378.5,-513.7 457.5,-513.7 457.5,-494.7 378.5,-494.7"/>
<polygon fill="none" stroke="#000000" points="378.5,-494.7 378.5,-513.7 457.5,-513.7 457.5,-494.7 378.5,-494.7"/>
<text text-anchor="start" x="432.7904" y="-500.8" font-family="Helvetica,sans-Serif" font-size="11.00" fill="#000000">11 &gt;</text>
</a>
</g>
</g>
<!-- authors_to_items&#45;&gt;item -->
<g id="edge1" class="edge">
<title>authors_to_items:w&#45;&gt;item:e</title>
<path fill="none" stroke="#000000" d="M504.3639,-509.4364C479.5212,-525.478 497.0673,-587.7 457.5,-587.7"/>
<polygon fill="#000000" stroke="#000000" points="510.7656,-507.7444 519.42,-509.1805 514.6328,-506.7222 518.5,-505.7 518.5,-505.7 518.5,-505.7 514.6328,-506.7222 517.58,-502.2195 510.7656,-507.7444 510.7656,-507.7444"/>
<ellipse fill="none" stroke="#000000" cx="507.6719" cy="-508.5621" rx="3.2" ry="3.2"/>
</g>
<!-- optionset -->
<g id="node4" class="node">
<title>optionset</title>
<g id="a_node4"><a xlink:href="../../tables/optionset.html" xlink:title="optionset" target="_top">
<polygon fill="#ffffff" stroke="transparent" points="8,-584.2 8,-645.2 95,-645.2 95,-584.2 8,-584.2"/>
<polygon fill="#f5f5f5" stroke="transparent" points="8.5,-621.7 8.5,-644.7 95.5,-644.7 95.5,-621.7 8.5,-621.7"/>
<polygon fill="none" stroke="#000000" points="8.5,-621.7 8.5,-644.7 95.5,-644.7 95.5,-621.7 8.5,-621.7"/>
<text text-anchor="start" x="13.1854" y="-630.8" font-family="Helvetica,sans-Serif" font-weight="bold" font-size="11.00" fill="#000000">optionset</text>
<text text-anchor="start" x="61.0219" y="-629.8" font-family="Helvetica,sans-Serif" font-size="11.00" fill="#000000">[table]</text>
<polygon fill="none" stroke="#000000" points="8.5,-602.7 8.5,-621.7 95.5,-621.7 95.5,-602.7 8.5,-602.7"/>
<text text-anchor="start" x="11.5" y="-608.8" font-family="Helvetica,sans-Serif" font-size="11.00" fill="#000000">...</text>
<polygon fill="#ffffff" stroke="transparent" points="8.5,-583.7 8.5,-602.7 25.5,-602.7 25.5,-583.7 8.5,-583.7"/>
<polygon fill="none" stroke="#000000" points="8.5,-583.7 8.5,-602.7 25.5,-602.7 25.5,-583.7 8.5,-583.7"/>
<text text-anchor="start" x="11.5" y="-589.8" font-family="Helvetica,sans-Serif" font-size="11.00" fill="#000000"> &#160;</text>
<polygon fill="#ffffff" stroke="transparent" points="25.5,-583.7 25.5,-602.7 71.5,-602.7 71.5,-583.7 25.5,-583.7"/>
<polygon fill="none" stroke="#000000" points="25.5,-583.7 25.5,-602.7 71.5,-602.7 71.5,-583.7 25.5,-583.7"/>
<text text-anchor="start" x="29.9956" y="-589.8" font-family="Helvetica,sans-Serif" font-size="11.00" fill="#000000">47 rows</text>
<polygon fill="#ffffff" stroke="transparent" points="71.5,-583.7 71.5,-602.7 95.5,-602.7 95.5,-583.7 71.5,-583.7"/>
<polygon fill="none" stroke="#000000" points="71.5,-583.7 71.5,-602.7 95.5,-602.7 95.5,-583.7 71.5,-583.7"/>
<text text-anchor="start" x="76.9053" y="-589.8" font-family="Helvetica,sans-Serif" font-size="11.00" fill="#000000">6 &gt;</text>
</a>
</g>
</g>
<!-- item&#45;&gt;optionset -->
<g id="edge10" class="edge">
<title>item:w&#45;&gt;optionset:e</title>
<path fill="none" stroke="#000000" d="M130.6438,-570.6228C117.3174,-582.4896 119.3031,-611.7 95.5,-611.7"/>
<polygon fill="#000000" stroke="#000000" points="136.9616,-568.3783 145.7052,-569.0923 140.7308,-567.0391 144.5,-565.7 144.5,-565.7 144.5,-565.7 140.7308,-567.0391 143.2948,-562.3077 136.9616,-568.3783 136.9616,-568.3783"/>
<ellipse fill="none" stroke="#000000" cx="133.9463" cy="-569.4496" rx="3.2" ry="3.2"/>
</g>
<!-- item&#45;&gt;optionset -->
<g id="edge11" class="edge">
<title>item:w&#45;&gt;optionset:e</title>
<path fill="none" stroke="#000000" d="M130.6785,-548.5904C113.9277,-564.1822 126.6397,-611.7 95.5,-611.7"/>
<polygon fill="#000000" stroke="#000000" points="136.9582,-546.3685 145.7008,-547.0938 140.7291,-545.0343 144.5,-543.7 144.5,-543.7 144.5,-543.7 140.7291,-545.0343 143.2992,-540.3062 136.9582,-546.3685 136.9582,-546.3685"/>
<ellipse fill="none" stroke="#000000" cx="133.9414" cy="-547.4359" rx="3.2" ry="3.2"/>
</g>
<!-- covid_tags_to_items -->
<g id="node3" class="node">
<title>covid_tags_to_items</title>
<g id="a_node3"><a xlink:href="../../tables/covid_tags_to_items.html" xlink:title="covid_tags_to_items" target="_top">
<polygon fill="#ffffff" stroke="transparent" points="510,-724.2 510,-785.2 653,-785.2 653,-724.2 510,-724.2"/>
<polygon fill="#f5f5f5" stroke="transparent" points="510.5,-761.7 510.5,-784.7 653.5,-784.7 653.5,-761.7 510.5,-761.7"/>
<polygon fill="none" stroke="#000000" points="510.5,-761.7 510.5,-784.7 653.5,-784.7 653.5,-761.7 510.5,-761.7"/>
<text text-anchor="start" x="515.3758" y="-770.8" font-family="Helvetica,sans-Serif" font-weight="bold" font-size="11.00" fill="#000000">covid_tags_to_items</text>
<text text-anchor="start" x="619.0219" y="-769.8" font-family="Helvetica,sans-Serif" font-size="11.00" fill="#000000">[table]</text>
<polygon fill="none" stroke="#000000" points="510.5,-742.7 510.5,-761.7 653.5,-761.7 653.5,-742.7 510.5,-742.7"/>
<text text-anchor="start" x="513.5" y="-748.8" font-family="Helvetica,sans-Serif" font-size="11.00" fill="#000000">...</text>
<polygon fill="#ffffff" stroke="transparent" points="510.5,-723.7 510.5,-742.7 556.5,-742.7 556.5,-723.7 510.5,-723.7"/>
<polygon fill="none" stroke="#000000" points="510.5,-723.7 510.5,-742.7 556.5,-742.7 556.5,-723.7 510.5,-723.7"/>
<text text-anchor="start" x="513.5" y="-729.8" font-family="Helvetica,sans-Serif" font-size="11.00" fill="#000000">&lt; 2</text>
<polygon fill="#ffffff" stroke="transparent" points="556.5,-723.7 556.5,-742.7 628.5,-742.7 628.5,-723.7 556.5,-723.7"/>
<polygon fill="none" stroke="#000000" points="556.5,-723.7 556.5,-742.7 628.5,-742.7 628.5,-723.7 556.5,-723.7"/>
<text text-anchor="start" x="571.7089" y="-729.8" font-family="Helvetica,sans-Serif" font-size="11.00" fill="#000000">4,810 rows</text>
<polygon fill="#ffffff" stroke="transparent" points="628.5,-723.7 628.5,-742.7 653.5,-742.7 653.5,-723.7 628.5,-723.7"/>
<polygon fill="none" stroke="#000000" points="628.5,-723.7 628.5,-742.7 653.5,-742.7 653.5,-723.7 628.5,-723.7"/>
<text text-anchor="start" x="644.3862" y="-729.8" font-family="Helvetica,sans-Serif" font-size="11.00" fill="#000000"> &#160;</text>
</a>
</g>
</g>
<!-- covid_tags_to_items&#45;&gt;item -->
<g id="edge3" class="edge">
<title>covid_tags_to_items:w&#45;&gt;item:e</title>
<path fill="none" stroke="#000000" d="M496.2215,-749.124C447.7991,-728.2596 528.4154,-587.7 457.5,-587.7"/>
<polygon fill="#000000" stroke="#000000" points="502.6271,-750.2796 509.8608,-755.2428 506.5636,-750.9898 510.5,-751.7 510.5,-751.7 510.5,-751.7 506.5636,-750.9898 511.1392,-748.1572 502.6271,-750.2796 502.6271,-750.2796"/>
<ellipse fill="none" stroke="#000000" cx="499.4779" cy="-749.7114" rx="3.2" ry="3.2"/>
</g>
<!-- covid_tags_to_items&#45;&gt;optionset -->
<g id="edge2" class="edge">
<title>covid_tags_to_items:w&#45;&gt;optionset:e</title>
<path fill="none" stroke="#000000" d="M495.732,-751.6974C335.7379,-751.6147 276.9409,-748.9114 136,-660.7 112.0503,-645.7105 123.7537,-611.7 95.5,-611.7"/>
<polygon fill="#000000" stroke="#000000" points="502.5,-751.6985 510.4993,-755.3 506.5,-751.6993 510.5,-751.7 510.5,-751.7 510.5,-751.7 506.5,-751.6993 510.5007,-748.1 502.5,-751.6985 502.5,-751.6985"/>
<ellipse fill="none" stroke="#000000" cx="499.3" cy="-751.6979" rx="3.2" ry="3.2"/>
</g>
<!-- covid_topics_to_items -->
<g id="node5" class="node">
<title>covid_topics_to_items</title>
<g id="a_node5"><a xlink:href="../../tables/covid_topics_to_items.html" xlink:title="covid_topics_to_items" target="_top">
<polygon fill="#ffffff" stroke="transparent" points="506,-642.2 506,-703.2 657,-703.2 657,-642.2 506,-642.2"/>
<polygon fill="#f5f5f5" stroke="transparent" points="506.5,-679.7 506.5,-702.7 657.5,-702.7 657.5,-679.7 506.5,-679.7"/>
<polygon fill="none" stroke="#000000" points="506.5,-679.7 506.5,-702.7 657.5,-702.7 657.5,-679.7 506.5,-679.7"/>
<text text-anchor="start" x="511.4053" y="-688.8" font-family="Helvetica,sans-Serif" font-weight="bold" font-size="11.00" fill="#000000">covid_topics_to_items</text>
<text text-anchor="start" x="623.0219" y="-687.8" font-family="Helvetica,sans-Serif" font-size="11.00" fill="#000000">[table]</text>
<polygon fill="none" stroke="#000000" points="506.5,-660.7 506.5,-679.7 657.5,-679.7 657.5,-660.7 506.5,-660.7"/>
<text text-anchor="start" x="509.5" y="-666.8" font-family="Helvetica,sans-Serif" font-size="11.00" fill="#000000">...</text>
<polygon fill="#ffffff" stroke="transparent" points="506.5,-641.7 506.5,-660.7 567.5,-660.7 567.5,-641.7 506.5,-641.7"/>
<polygon fill="none" stroke="#000000" points="506.5,-641.7 506.5,-660.7 567.5,-660.7 567.5,-641.7 506.5,-641.7"/>
<text text-anchor="start" x="509.5" y="-647.8" font-family="Helvetica,sans-Serif" font-size="11.00" fill="#000000">&lt; 2</text>
<polygon fill="#ffffff" stroke="transparent" points="567.5,-641.7 567.5,-660.7 625.5,-660.7 625.5,-641.7 567.5,-641.7"/>
<polygon fill="none" stroke="#000000" points="567.5,-641.7 567.5,-660.7 625.5,-660.7 625.5,-641.7 567.5,-641.7"/>
<text text-anchor="start" x="590.1105" y="-647.8" font-family="Helvetica,sans-Serif" font-size="11.00" fill="#000000">0 rows</text>
<polygon fill="#ffffff" stroke="transparent" points="625.5,-641.7 625.5,-660.7 657.5,-660.7 657.5,-641.7 625.5,-641.7"/>
<polygon fill="none" stroke="#000000" points="625.5,-641.7 625.5,-660.7 657.5,-660.7 657.5,-641.7 625.5,-641.7"/>
<text text-anchor="start" x="648.3862" y="-647.8" font-family="Helvetica,sans-Serif" font-size="11.00" fill="#000000"> &#160;</text>
</a>
</g>
</g>
<!-- covid_topics_to_items&#45;&gt;item -->
<g id="edge5" class="edge">
<title>covid_topics_to_items:w&#45;&gt;item:e</title>
<path fill="none" stroke="#000000" d="M492.5294,-665.0564C472.788,-647.7098 493.8194,-587.7 457.5,-587.7"/>
<polygon fill="#000000" stroke="#000000" points="498.9084,-667.1766 505.3645,-673.1162 502.7042,-668.4383 506.5,-669.7 506.5,-669.7 506.5,-669.7 502.7042,-668.4383 507.6355,-666.2838 498.9084,-667.1766 498.9084,-667.1766"/>
<ellipse fill="none" stroke="#000000" cx="495.8717" cy="-666.1673" rx="3.2" ry="3.2"/>
</g>
<!-- covid_topics_to_items&#45;&gt;optionset -->
<g id="edge4" class="edge">
<title>covid_topics_to_items:w&#45;&gt;optionset:e</title>
<path fill="none" stroke="#000000" d="M491.7916,-669.726C338.1027,-670.2622 289.8235,-678.426 136,-632.7 116.5647,-626.9226 115.7759,-611.7 95.5,-611.7"/>
<polygon fill="#000000" stroke="#000000" points="498.5,-669.7142 506.5064,-673.3 502.5,-669.7071 506.5,-669.7 506.5,-669.7 506.5,-669.7 502.5,-669.7071 506.4936,-666.1 498.5,-669.7142 498.5,-669.7142"/>
<ellipse fill="none" stroke="#000000" cx="495.3" cy="-669.7199" rx="3.2" ry="3.2"/>
</g>
<!-- events_to_items -->
<g id="node6" class="node">
<title>events_to_items</title>
<g id="a_node6"><a xlink:href="../../tables/events_to_items.html" xlink:title="events_to_items" target="_top">
<polygon fill="#ffffff" stroke="transparent" points="520,-396.2 520,-457.2 643,-457.2 643,-396.2 520,-396.2"/>
<polygon fill="#f5f5f5" stroke="transparent" points="520.5,-433.7 520.5,-456.7 643.5,-456.7 643.5,-433.7 520.5,-433.7"/>
<polygon fill="none" stroke="#000000" points="520.5,-433.7 520.5,-456.7 643.5,-456.7 643.5,-433.7 520.5,-433.7"/>
<text text-anchor="start" x="525.4611" y="-442.8" font-family="Helvetica,sans-Serif" font-weight="bold" font-size="11.00" fill="#000000">events_to_items</text>
<text text-anchor="start" x="609.0219" y="-441.8" font-family="Helvetica,sans-Serif" font-size="11.00" fill="#000000">[table]</text>
<polygon fill="none" stroke="#000000" points="520.5,-414.7 520.5,-433.7 643.5,-433.7 643.5,-414.7 520.5,-414.7"/>
<text text-anchor="start" x="523.5" y="-420.8" font-family="Helvetica,sans-Serif" font-size="11.00" fill="#000000">...</text>
<polygon fill="#ffffff" stroke="transparent" points="520.5,-395.7 520.5,-414.7 556.5,-414.7 556.5,-395.7 520.5,-395.7"/>
<polygon fill="none" stroke="#000000" points="520.5,-395.7 520.5,-414.7 556.5,-414.7 556.5,-395.7 520.5,-395.7"/>
<text text-anchor="start" x="523.5" y="-401.8" font-family="Helvetica,sans-Serif" font-size="11.00" fill="#000000">&lt; 2</text>
<polygon fill="#ffffff" stroke="transparent" points="556.5,-395.7 556.5,-414.7 623.5,-414.7 623.5,-395.7 556.5,-395.7"/>
<polygon fill="none" stroke="#000000" points="556.5,-395.7 556.5,-414.7 623.5,-414.7 623.5,-395.7 556.5,-395.7"/>
<text text-anchor="start" x="566.7089" y="-401.8" font-family="Helvetica,sans-Serif" font-size="11.00" fill="#000000">1,091 rows</text>
<polygon fill="#ffffff" stroke="transparent" points="623.5,-395.7 623.5,-414.7 643.5,-414.7 643.5,-395.7 623.5,-395.7"/>
<polygon fill="none" stroke="#000000" points="623.5,-395.7 623.5,-414.7 643.5,-414.7 643.5,-395.7 623.5,-395.7"/>
<text text-anchor="start" x="634.3862" y="-401.8" font-family="Helvetica,sans-Serif" font-size="11.00" fill="#000000"> &#160;</text>
</a>
</g>
</g>
<!-- events_to_items&#45;&gt;item -->
<g id="edge6" class="edge">
<title>events_to_items:w&#45;&gt;item:e</title>
<path fill="none" stroke="#000000" d="M506.1257,-426.1456C454.9888,-446.5467 529.9393,-587.7 457.5,-587.7"/>
<polygon fill="#000000" stroke="#000000" points="512.6133,-425.0419 521.1038,-427.249 516.5567,-424.3709 520.5,-423.7 520.5,-423.7 520.5,-423.7 516.5567,-424.3709 519.8962,-420.151 512.6133,-425.0419 512.6133,-425.0419"/>
<ellipse fill="none" stroke="#000000" cx="509.4587" cy="-425.5786" rx="3.2" ry="3.2"/>
</g>
<!-- files_to_items -->
<g id="node7" class="node">
<title>files_to_items</title>
<g id="a_node7"><a xlink:href="../../tables/files_to_items.html" xlink:title="files_to_items" target="_top">
<polygon fill="#ffffff" stroke="transparent" points="508,-120.7 508,-210.7 655,-210.7 655,-120.7 508,-120.7"/>
<polygon fill="#f5f5f5" stroke="transparent" points="510.5,-185.7 510.5,-208.7 653.5,-208.7 653.5,-185.7 510.5,-185.7"/>
<polygon fill="none" stroke="#000000" points="510.5,-185.7 510.5,-208.7 653.5,-208.7 653.5,-185.7 510.5,-185.7"/>
<text text-anchor="start" x="515.5" y="-194.8" font-family="Helvetica,sans-Serif" font-weight="bold" font-size="11.00" fill="#000000">files_to_items</text>
<text text-anchor="start" x="618.5437" y="-193.8" font-family="Helvetica,sans-Serif" font-size="11.00" fill="#000000">[table]</text>
<polygon fill="none" stroke="#000000" points="510.5,-163.7 510.5,-185.7 611.5,-185.7 611.5,-163.7 510.5,-163.7"/>
<image xlink:href="../../images/primaryKeys.png" width="11px" height="12px" preserveAspectRatio="xMinYMin meet" x="515.5" y="-180.7"/>
<text text-anchor="start" x="530.5" y="-170.8" font-family="Helvetica,sans-Serif" font-size="11.00" fill="#000000">file</text>
<polygon fill="none" stroke="#000000" points="611.5,-163.7 611.5,-185.7 653.5,-185.7 653.5,-163.7 611.5,-163.7"/>
<text text-anchor="start" x="614.4644" y="-171.4" font-family="Helvetica,sans-Serif" font-size="11.00" fill="#000000">int4[10]</text>
<polygon fill="none" stroke="#000000" points="510.5,-141.7 510.5,-163.7 611.5,-163.7 611.5,-141.7 510.5,-141.7"/>
<image xlink:href="../../images/primaryKeys.png" width="11px" height="12px" preserveAspectRatio="xMinYMin meet" x="515.5" y="-158.7"/>
<text text-anchor="start" x="530.5" y="-148.8" font-family="Helvetica,sans-Serif" font-size="11.00" fill="#000000">item</text>
<polygon fill="none" stroke="#000000" points="611.5,-141.7 611.5,-163.7 653.5,-163.7 653.5,-141.7 611.5,-141.7"/>
<text text-anchor="start" x="614.4644" y="-149.4" font-family="Helvetica,sans-Serif" font-size="11.00" fill="#000000">int4[10]</text>
<polygon fill="#ffffff" stroke="transparent" points="510.5,-122.7 510.5,-141.7 541.5,-141.7 541.5,-122.7 510.5,-122.7"/>
<polygon fill="none" stroke="#000000" points="510.5,-122.7 510.5,-141.7 541.5,-141.7 541.5,-122.7 510.5,-122.7"/>
<text text-anchor="start" x="513.5" y="-128.8" font-family="Helvetica,sans-Serif" font-size="11.00" fill="#000000">&lt; 2</text>
<polygon fill="#ffffff" stroke="transparent" points="541.5,-122.7 541.5,-141.7 611.5,-141.7 611.5,-122.7 541.5,-122.7"/>
<polygon fill="none" stroke="#000000" points="541.5,-122.7 541.5,-141.7 611.5,-141.7 611.5,-122.7 541.5,-122.7"/>
<text text-anchor="start" x="554.7089" y="-128.8" font-family="Helvetica,sans-Serif" font-size="11.00" fill="#000000">1,994 rows</text>
<polygon fill="#ffffff" stroke="transparent" points="611.5,-122.7 611.5,-141.7 653.5,-141.7 653.5,-122.7 611.5,-122.7"/>
<polygon fill="none" stroke="#000000" points="611.5,-122.7 611.5,-141.7 653.5,-141.7 653.5,-122.7 611.5,-122.7"/>
<text text-anchor="start" x="634.9053" y="-128.8" font-family="Helvetica,sans-Serif" font-size="11.00" fill="#000000">0 &gt;</text>
<polygon fill="none" stroke="#000000" stroke-width="2" points="509,-121.7 509,-209.7 654,-209.7 654,-121.7 509,-121.7"/>
</a>
</g>
</g>
<!-- files_to_items&#45;&gt;item -->
<g id="edge8" class="edge">
<title>files_to_items:w&#45;&gt;item:e</title>
<path fill="none" stroke="#000000" d="M496.5908,-156.4606C427.9086,-198.9772 549.556,-587.7 457.5,-587.7"/>
<polygon fill="#000000" stroke="#000000" points="502.7773,-154.788 511.4396,-156.1752 506.6386,-153.744 510.5,-152.7 510.5,-152.7 510.5,-152.7 506.6386,-153.744 509.5604,-149.2248 502.7773,-154.788 502.7773,-154.788"/>
<ellipse fill="none" stroke="#000000" cx="499.6882" cy="-155.6232" rx="3.2" ry="3.2"/>
</g>
<!-- file -->
<g id="node8" class="node">
<title>file</title>
<g id="a_node8"><a xlink:href="../../tables/file.html" xlink:title="file" target="_top">
<polygon fill="#ffffff" stroke="transparent" points="207,-71.2 207,-154.2 394,-154.2 394,-71.2 207,-71.2"/>
<polygon fill="#f5f5f5" stroke="transparent" points="207.5,-130.7 207.5,-153.7 394.5,-153.7 394.5,-130.7 207.5,-130.7"/>
<polygon fill="none" stroke="#000000" points="207.5,-130.7 207.5,-153.7 394.5,-153.7 394.5,-130.7 207.5,-130.7"/>
<text text-anchor="start" x="212.5" y="-139.8" font-family="Helvetica,sans-Serif" font-weight="bold" font-size="11.00" fill="#000000">file</text>
<text text-anchor="start" x="359.5437" y="-138.8" font-family="Helvetica,sans-Serif" font-size="11.00" fill="#000000">[table]</text>
<polygon fill="none" stroke="#000000" points="207.5,-108.7 207.5,-130.7 394.5,-130.7 394.5,-108.7 207.5,-108.7"/>
<image xlink:href="../../images/primaryKeys.png" width="11px" height="12px" preserveAspectRatio="xMinYMin meet" x="212.5" y="-125.7"/>
<text text-anchor="start" x="227.5" y="-115.8" font-family="Helvetica,sans-Serif" font-size="11.00" fill="#000000">id</text>
<polygon fill="none" stroke="#000000" points="207.5,-89.7 207.5,-108.7 394.5,-108.7 394.5,-89.7 207.5,-89.7"/>
<text text-anchor="start" x="210.5" y="-95.8" font-family="Helvetica,sans-Serif" font-size="11.00" fill="#000000">...</text>
<polygon fill="#ffffff" stroke="transparent" points="207.5,-70.7 207.5,-89.7 266.5,-89.7 266.5,-70.7 207.5,-70.7"/>
<polygon fill="none" stroke="#000000" points="207.5,-70.7 207.5,-89.7 266.5,-89.7 266.5,-70.7 207.5,-70.7"/>
<text text-anchor="start" x="210.5" y="-76.8" font-family="Helvetica,sans-Serif" font-size="11.00" fill="#000000"> &#160;</text>
<polygon fill="#ffffff" stroke="transparent" points="266.5,-70.7 266.5,-89.7 349.5,-89.7 349.5,-70.7 266.5,-70.7"/>
<polygon fill="none" stroke="#000000" points="266.5,-70.7 266.5,-89.7 349.5,-89.7 349.5,-70.7 266.5,-70.7"/>
<text text-anchor="start" x="292.7089" y="-76.8" font-family="Helvetica,sans-Serif" font-size="11.00" fill="#000000">2,735 rows</text>
<polygon fill="#ffffff" stroke="transparent" points="349.5,-70.7 349.5,-89.7 394.5,-89.7 394.5,-70.7 349.5,-70.7"/>
<polygon fill="none" stroke="#000000" points="349.5,-70.7 349.5,-89.7 394.5,-89.7 394.5,-70.7 349.5,-70.7"/>
<text text-anchor="start" x="375.9053" y="-76.8" font-family="Helvetica,sans-Serif" font-size="11.00" fill="#000000">2 &gt;</text>
</a>
</g>
</g>
<!-- files_to_items&#45;&gt;file -->
<g id="edge7" class="edge">
<title>files_to_items:w&#45;&gt;file:e</title>
<path fill="none" stroke="#000000" d="M496.0964,-173.3947C452.6318,-165.0658 446.3194,-119.7 394.5,-119.7"/>
<polygon fill="#000000" stroke="#000000" points="502.5326,-173.9779 510.1751,-178.2853 506.5163,-174.339 510.5,-174.7 510.5,-174.7 510.5,-174.7 506.5163,-174.339 510.8249,-171.1147 502.5326,-173.9779 502.5326,-173.9779"/>
<ellipse fill="none" stroke="#000000" cx="499.3457" cy="-173.6891" rx="3.2" ry="3.2"/>
</g>
<!-- funders_to_items -->
<g id="node9" class="node">
<title>funders_to_items</title>
<g id="a_node9"><a xlink:href="../../tables/funders_to_items.html" xlink:title="funders_to_items" target="_top">
<polygon fill="#ffffff" stroke="transparent" points="518,-314.2 518,-375.2 645,-375.2 645,-314.2 518,-314.2"/>
<polygon fill="#f5f5f5" stroke="transparent" points="518.5,-351.7 518.5,-374.7 645.5,-374.7 645.5,-351.7 518.5,-351.7"/>
<polygon fill="none" stroke="#000000" points="518.5,-351.7 518.5,-374.7 645.5,-374.7 645.5,-351.7 518.5,-351.7"/>
<text text-anchor="start" x="523.3227" y="-360.8" font-family="Helvetica,sans-Serif" font-weight="bold" font-size="11.00" fill="#000000">funders_to_items</text>
<text text-anchor="start" x="611.0219" y="-359.8" font-family="Helvetica,sans-Serif" font-size="11.00" fill="#000000">[table]</text>
<polygon fill="none" stroke="#000000" points="518.5,-332.7 518.5,-351.7 645.5,-351.7 645.5,-332.7 518.5,-332.7"/>
<text text-anchor="start" x="521.5" y="-338.8" font-family="Helvetica,sans-Serif" font-size="11.00" fill="#000000">...</text>
<polygon fill="#ffffff" stroke="transparent" points="518.5,-313.7 518.5,-332.7 556.5,-332.7 556.5,-313.7 518.5,-313.7"/>
<polygon fill="none" stroke="#000000" points="518.5,-313.7 518.5,-332.7 556.5,-332.7 556.5,-313.7 518.5,-313.7"/>
<text text-anchor="start" x="521.5" y="-319.8" font-family="Helvetica,sans-Serif" font-size="11.00" fill="#000000">&lt; 2</text>
<polygon fill="#ffffff" stroke="transparent" points="556.5,-313.7 556.5,-332.7 624.5,-332.7 624.5,-313.7 556.5,-313.7"/>
<polygon fill="none" stroke="#000000" points="556.5,-313.7 556.5,-332.7 624.5,-332.7 624.5,-313.7 556.5,-313.7"/>
<text text-anchor="start" x="567.7089" y="-319.8" font-family="Helvetica,sans-Serif" font-size="11.00" fill="#000000">3,210 rows</text>
<polygon fill="#ffffff" stroke="transparent" points="624.5,-313.7 624.5,-332.7 645.5,-332.7 645.5,-313.7 624.5,-313.7"/>
<polygon fill="none" stroke="#000000" points="624.5,-313.7 624.5,-332.7 645.5,-332.7 645.5,-313.7 624.5,-313.7"/>
<text text-anchor="start" x="636.3862" y="-319.8" font-family="Helvetica,sans-Serif" font-size="11.00" fill="#000000"> &#160;</text>
</a>
</g>
</g>
<!-- funders_to_items&#45;&gt;item -->
<g id="edge9" class="edge">
<title>funders_to_items:w&#45;&gt;item:e</title>
<path fill="none" stroke="#000000" d="M505.3282,-347.7809C470.9122,-385.6629 508.5421,-587.7 457.5,-587.7"/>
<polygon fill="#000000" stroke="#000000" points="511.2367,-345.0532 520.009,-344.9685 514.8683,-343.3766 518.5,-341.7 518.5,-341.7 518.5,-341.7 514.8683,-343.3766 516.991,-338.4315 511.2367,-345.0532 511.2367,-345.0532"/>
<ellipse fill="none" stroke="#000000" cx="508.3313" cy="-346.3945" rx="3.2" ry="3.2"/>
</g>
<!-- items_to_items -->
<g id="node10" class="node">
<title>items_to_items</title>
<g id="a_node10"><a xlink:href="../../tables/items_to_items.html" xlink:title="items_to_items" target="_top">
<polygon fill="#ffffff" stroke="transparent" points="523.5,-560.2 523.5,-621.2 639.5,-621.2 639.5,-560.2 523.5,-560.2"/>
<polygon fill="#f5f5f5" stroke="transparent" points="523.5,-597.7 523.5,-620.7 639.5,-620.7 639.5,-597.7 523.5,-597.7"/>
<polygon fill="none" stroke="#000000" points="523.5,-597.7 523.5,-620.7 639.5,-620.7 639.5,-597.7 523.5,-597.7"/>
<text text-anchor="start" x="528.0246" y="-606.8" font-family="Helvetica,sans-Serif" font-weight="bold" font-size="11.00" fill="#000000">items_to_items</text>
<text text-anchor="start" x="605.0219" y="-605.8" font-family="Helvetica,sans-Serif" font-size="11.00" fill="#000000">[table]</text>
<polygon fill="none" stroke="#000000" points="523.5,-578.7 523.5,-597.7 639.5,-597.7 639.5,-578.7 523.5,-578.7"/>
<text text-anchor="start" x="526.5" y="-584.8" font-family="Helvetica,sans-Serif" font-size="11.00" fill="#000000">...</text>
<polygon fill="#ffffff" stroke="transparent" points="523.5,-559.7 523.5,-578.7 556.5,-578.7 556.5,-559.7 523.5,-559.7"/>
<polygon fill="none" stroke="#000000" points="523.5,-559.7 523.5,-578.7 556.5,-578.7 556.5,-559.7 523.5,-559.7"/>
<text text-anchor="start" x="526.5" y="-565.8" font-family="Helvetica,sans-Serif" font-size="11.00" fill="#000000">&lt; 2</text>
<polygon fill="#ffffff" stroke="transparent" points="556.5,-559.7 556.5,-578.7 621.5,-578.7 621.5,-559.7 556.5,-559.7"/>
<polygon fill="none" stroke="#000000" points="556.5,-559.7 556.5,-578.7 621.5,-578.7 621.5,-559.7 556.5,-559.7"/>
<text text-anchor="start" x="564.7089" y="-565.8" font-family="Helvetica,sans-Serif" font-size="11.00" fill="#000000">1,288 rows</text>
<polygon fill="#ffffff" stroke="transparent" points="621.5,-559.7 621.5,-578.7 639.5,-578.7 639.5,-559.7 621.5,-559.7"/>
<polygon fill="none" stroke="#000000" points="621.5,-559.7 621.5,-578.7 639.5,-578.7 639.5,-559.7 621.5,-559.7"/>
<text text-anchor="start" x="630.3862" y="-565.8" font-family="Helvetica,sans-Serif" font-size="11.00" fill="#000000"> &#160;</text>
</a>
</g>
</g>
<!-- items_to_items&#45;&gt;item -->
<g id="edge12" class="edge">
<title>items_to_items:w&#45;&gt;item:e</title>
<path fill="none" stroke="#000000" d="M509.2961,-585.002C490.7324,-581.9022 481.4479,-582.8016 457.5,-587.7"/>
<polygon fill="#000000" stroke="#000000" points="515.6405,-586.2071 522.8282,-591.2368 519.5703,-586.9535 523.5,-587.7 523.5,-587.7 523.5,-587.7 519.5703,-586.9535 524.1718,-584.1632 515.6405,-586.2071 515.6405,-586.2071"/>
<ellipse fill="none" stroke="#000000" cx="512.4967" cy="-585.6099" rx="3.2" ry="3.2"/>
</g>
<!-- items_to_items&#45;&gt;item -->
<g id="edge13" class="edge">
<title>items_to_items:w&#45;&gt;item:e</title>
<path fill="none" stroke="#000000" d="M509.2961,-590.8476C490.7324,-594.4641 481.4479,-593.4148 457.5,-587.7"/>
<polygon fill="#000000" stroke="#000000" points="515.6895,-589.4309 524.2789,-591.2147 519.5947,-588.5654 523.5,-587.7 523.5,-587.7 523.5,-587.7 519.5947,-588.5654 522.7211,-584.1853 515.6895,-589.4309 515.6895,-589.4309"/>
<ellipse fill="none" stroke="#000000" cx="512.5653" cy="-590.1232" rx="3.2" ry="3.2"/>
</g>
<!-- key_topics_to_items -->
<g id="node11" class="node">
<title>key_topics_to_items</title>
<g id="a_node11"><a xlink:href="../../tables/key_topics_to_items.html" xlink:title="key_topics_to_items" target="_top">
<polygon fill="#ffffff" stroke="transparent" points="510.5,-232.2 510.5,-293.2 652.5,-293.2 652.5,-232.2 510.5,-232.2"/>
<polygon fill="#f5f5f5" stroke="transparent" points="510.5,-269.7 510.5,-292.7 652.5,-292.7 652.5,-269.7 510.5,-269.7"/>
<polygon fill="none" stroke="#000000" points="510.5,-269.7 510.5,-292.7 652.5,-292.7 652.5,-269.7 510.5,-269.7"/>
<text text-anchor="start" x="515.1832" y="-278.8" font-family="Helvetica,sans-Serif" font-weight="bold" font-size="11.00" fill="#000000">key_topics_to_items</text>
<text text-anchor="start" x="618.0219" y="-277.8" font-family="Helvetica,sans-Serif" font-size="11.00" fill="#000000">[table]</text>
<polygon fill="none" stroke="#000000" points="510.5,-250.7 510.5,-269.7 652.5,-269.7 652.5,-250.7 510.5,-250.7"/>
<text text-anchor="start" x="513.5" y="-256.8" font-family="Helvetica,sans-Serif" font-size="11.00" fill="#000000">...</text>
<polygon fill="#ffffff" stroke="transparent" points="510.5,-231.7 510.5,-250.7 556.5,-250.7 556.5,-231.7 510.5,-231.7"/>
<polygon fill="none" stroke="#000000" points="510.5,-231.7 510.5,-250.7 556.5,-250.7 556.5,-231.7 510.5,-231.7"/>
<text text-anchor="start" x="513.5" y="-237.8" font-family="Helvetica,sans-Serif" font-size="11.00" fill="#000000">&lt; 2</text>
<polygon fill="#ffffff" stroke="transparent" points="556.5,-231.7 556.5,-250.7 627.5,-250.7 627.5,-231.7 556.5,-231.7"/>
<polygon fill="none" stroke="#000000" points="556.5,-231.7 556.5,-250.7 627.5,-250.7 627.5,-231.7 556.5,-231.7"/>
<text text-anchor="start" x="570.7089" y="-237.8" font-family="Helvetica,sans-Serif" font-size="11.00" fill="#000000">2,352 rows</text>
<polygon fill="#ffffff" stroke="transparent" points="627.5,-231.7 627.5,-250.7 652.5,-250.7 652.5,-231.7 627.5,-231.7"/>
<polygon fill="none" stroke="#000000" points="627.5,-231.7 627.5,-250.7 652.5,-250.7 652.5,-231.7 627.5,-231.7"/>
<text text-anchor="start" x="643.3862" y="-237.8" font-family="Helvetica,sans-Serif" font-size="11.00" fill="#000000"> &#160;</text>
</a>
</g>
</g>
<!-- key_topics_to_items&#45;&gt;item -->
<g id="edge14" class="edge">
<title>key_topics_to_items:w&#45;&gt;item:e</title>
<path fill="none" stroke="#000000" d="M496.7071,-264.8521C449.7899,-306.5807 525.8544,-587.7 457.5,-587.7"/>
<polygon fill="#000000" stroke="#000000" points="503.0058,-262.4994 511.7597,-263.0724 506.7529,-261.0997 510.5,-259.7 510.5,-259.7 510.5,-259.7 506.7529,-261.0997 509.2403,-256.3276 503.0058,-262.4994 503.0058,-262.4994"/>
<ellipse fill="none" stroke="#000000" cx="500.0081" cy="-263.6191" rx="3.2" ry="3.2"/>
</g>
<!-- key_topics_to_items&#45;&gt;optionset -->
<g id="edge15" class="edge">
<title>key_topics_to_items:w&#45;&gt;optionset:e</title>
<path fill="none" stroke="#000000" d="M495.9659,-259.8407C313.2466,-263.4436 253.4061,-336.2775 136,-484.7 99.2447,-531.1653 154.745,-611.7 95.5,-611.7"/>
<polygon fill="#000000" stroke="#000000" points="502.5004,-259.7775 510.5349,-263.2998 506.5002,-259.7388 510.5,-259.7 510.5,-259.7 510.5,-259.7 506.5002,-259.7388 510.4651,-256.1002 502.5004,-259.7775 502.5004,-259.7775"/>
<ellipse fill="none" stroke="#000000" cx="499.3005" cy="-259.8085" rx="3.2" ry="3.2"/>
</g>
<!-- related_files_to_items -->
<g id="node12" class="node">
<title>related_files_to_items</title>
<g id="a_node12"><a xlink:href="../../tables/related_files_to_items.html" xlink:title="related_files_to_items" target="_top">
<polygon fill="#ffffff" stroke="transparent" points="507,-38.2 507,-99.2 656,-99.2 656,-38.2 507,-38.2"/>
<polygon fill="#f5f5f5" stroke="transparent" points="507.5,-75.7 507.5,-98.7 656.5,-98.7 656.5,-75.7 507.5,-75.7"/>
<polygon fill="none" stroke="#000000" points="507.5,-75.7 507.5,-98.7 656.5,-98.7 656.5,-75.7 507.5,-75.7"/>
<text text-anchor="start" x="512.018" y="-84.8" font-family="Helvetica,sans-Serif" font-weight="bold" font-size="11.00" fill="#000000">related_files_to_items</text>
<text text-anchor="start" x="622.0219" y="-83.8" font-family="Helvetica,sans-Serif" font-size="11.00" fill="#000000">[table]</text>
<polygon fill="none" stroke="#000000" points="507.5,-56.7 507.5,-75.7 656.5,-75.7 656.5,-56.7 507.5,-56.7"/>
<text text-anchor="start" x="510.5" y="-62.8" font-family="Helvetica,sans-Serif" font-size="11.00" fill="#000000">...</text>
<polygon fill="#ffffff" stroke="transparent" points="507.5,-37.7 507.5,-56.7 561.5,-56.7 561.5,-37.7 507.5,-37.7"/>
<polygon fill="none" stroke="#000000" points="507.5,-37.7 507.5,-56.7 561.5,-56.7 561.5,-37.7 507.5,-37.7"/>
<text text-anchor="start" x="510.5" y="-43.8" font-family="Helvetica,sans-Serif" font-size="11.00" fill="#000000">&lt; 2</text>
<polygon fill="#ffffff" stroke="transparent" points="561.5,-37.7 561.5,-56.7 627.5,-56.7 627.5,-37.7 561.5,-37.7"/>
<polygon fill="none" stroke="#000000" points="561.5,-37.7 561.5,-56.7 627.5,-56.7 627.5,-37.7 561.5,-37.7"/>
<text text-anchor="start" x="579.8807" y="-43.8" font-family="Helvetica,sans-Serif" font-size="11.00" fill="#000000">115 rows</text>
<polygon fill="#ffffff" stroke="transparent" points="627.5,-37.7 627.5,-56.7 656.5,-56.7 656.5,-37.7 627.5,-37.7"/>
<polygon fill="none" stroke="#000000" points="627.5,-37.7 627.5,-56.7 656.5,-56.7 656.5,-37.7 627.5,-37.7"/>
<text text-anchor="start" x="647.3862" y="-43.8" font-family="Helvetica,sans-Serif" font-size="11.00" fill="#000000"> &#160;</text>
</a>
</g>
</g>
<!-- related_files_to_items&#45;&gt;item -->
<g id="edge17" class="edge">
<title>related_files_to_items:w&#45;&gt;item:e</title>
<path fill="none" stroke="#000000" d="M496.0101,-74.7603C458.8683,-144.0765 511.2135,-587.7 457.5,-587.7"/>
<polygon fill="#000000" stroke="#000000" points="501.2181,-70.6536 509.7291,-68.5269 504.359,-68.1768 507.5,-65.7 507.5,-65.7 507.5,-65.7 504.359,-68.1768 505.2709,-62.8731 501.2181,-70.6536 501.2181,-70.6536"/>
<ellipse fill="none" stroke="#000000" cx="498.7053" cy="-72.635" rx="3.2" ry="3.2"/>
</g>
<!-- related_files_to_items&#45;&gt;file -->
<g id="edge16" class="edge">
<title>related_files_to_items:w&#45;&gt;file:e</title>
<path fill="none" stroke="#000000" d="M492.9076,-67.0891C451.0227,-75.5413 444.8351,-119.7 394.5,-119.7"/>
<polygon fill="#000000" stroke="#000000" points="499.536,-66.4582 507.8412,-69.2838 503.518,-66.0791 507.5,-65.7 507.5,-65.7 507.5,-65.7 503.518,-66.0791 507.1588,-62.1162 499.536,-66.4582 499.536,-66.4582"/>
<ellipse fill="none" stroke="#000000" cx="496.3504" cy="-66.7614" rx="3.2" ry="3.2"/>
</g>
<!-- tags_to_items -->
<g id="node13" class="node">
<title>tags_to_items</title>
<g id="a_node13"><a xlink:href="../../tables/tags_to_items.html" xlink:title="tags_to_items" target="_top">
<polygon fill="#ffffff" stroke="transparent" points="526,-806.2 526,-867.2 637,-867.2 637,-806.2 526,-806.2"/>
<polygon fill="#f5f5f5" stroke="transparent" points="526.5,-843.7 526.5,-866.7 637.5,-866.7 637.5,-843.7 526.5,-843.7"/>
<polygon fill="none" stroke="#000000" points="526.5,-843.7 526.5,-866.7 637.5,-866.7 637.5,-843.7 526.5,-843.7"/>
<text text-anchor="start" x="531.2686" y="-852.8" font-family="Helvetica,sans-Serif" font-weight="bold" font-size="11.00" fill="#000000">tags_to_items</text>
<text text-anchor="start" x="603.0219" y="-851.8" font-family="Helvetica,sans-Serif" font-size="11.00" fill="#000000">[table]</text>
<polygon fill="none" stroke="#000000" points="526.5,-824.7 526.5,-843.7 637.5,-843.7 637.5,-824.7 526.5,-824.7"/>
<text text-anchor="start" x="529.5" y="-830.8" font-family="Helvetica,sans-Serif" font-size="11.00" fill="#000000">...</text>
<polygon fill="#ffffff" stroke="transparent" points="526.5,-805.7 526.5,-824.7 567.5,-824.7 567.5,-805.7 526.5,-805.7"/>
<polygon fill="none" stroke="#000000" points="526.5,-805.7 526.5,-824.7 567.5,-824.7 567.5,-805.7 526.5,-805.7"/>
<text text-anchor="start" x="529.5" y="-811.8" font-family="Helvetica,sans-Serif" font-size="11.00" fill="#000000">&lt; 2</text>
<polygon fill="#ffffff" stroke="transparent" points="567.5,-805.7 567.5,-824.7 615.5,-824.7 615.5,-805.7 567.5,-805.7"/>
<polygon fill="none" stroke="#000000" points="567.5,-805.7 567.5,-824.7 615.5,-824.7 615.5,-805.7 567.5,-805.7"/>
<text text-anchor="start" x="580.1105" y="-811.8" font-family="Helvetica,sans-Serif" font-size="11.00" fill="#000000">0 rows</text>
<polygon fill="#ffffff" stroke="transparent" points="615.5,-805.7 615.5,-824.7 637.5,-824.7 637.5,-805.7 615.5,-805.7"/>
<polygon fill="none" stroke="#000000" points="615.5,-805.7 615.5,-824.7 637.5,-824.7 637.5,-805.7 615.5,-805.7"/>
<text text-anchor="start" x="628.3862" y="-811.8" font-family="Helvetica,sans-Serif" font-size="11.00" fill="#000000"> &#160;</text>
</a>
</g>
</g>
<!-- tags_to_items&#45;&gt;item -->
<g id="edge18" class="edge">
<title>tags_to_items:w&#45;&gt;item:e</title>
<path fill="none" stroke="#000000" d="M512.7533,-829.2282C505.2299,-822.5416 504.0243,-809.2663 498,-795.7 478.8886,-752.6622 504.5903,-587.7 457.5,-587.7"/>
<polygon fill="#000000" stroke="#000000" points="518.8924,-831.2252 525.3863,-837.1234 522.6962,-832.4626 526.5,-833.7 526.5,-833.7 526.5,-833.7 522.6962,-832.4626 527.6137,-830.2766 518.8924,-831.2252 518.8924,-831.2252"/>
<ellipse fill="none" stroke="#000000" cx="515.8494" cy="-830.2353" rx="3.2" ry="3.2"/>
</g>
<!-- tags_to_items&#45;&gt;optionset -->
<g id="edge19" class="edge">
<title>tags_to_items:w&#45;&gt;optionset:e</title>
<path fill="none" stroke="#000000" d="M511.8599,-833.7087C340.9897,-833.8838 265.4586,-835.4468 136,-715.7 99.5859,-682.0176 145.1034,-611.7 95.5,-611.7"/>
<polygon fill="#000000" stroke="#000000" points="518.5,-833.7048 526.5022,-837.3 522.5,-833.7024 526.5,-833.7 526.5,-833.7 526.5,-833.7 522.5,-833.7024 526.4978,-830.1 518.5,-833.7048 518.5,-833.7048"/>
<ellipse fill="none" stroke="#000000" cx="515.3" cy="-833.7068" rx="3.2" ry="3.2"/>
</g>
</g>
</svg>
