<?xml version="1.0" encoding="UTF-8" standalone="no"?>
<!DOCTYPE svg PUBLIC "-//W3C//DTD SVG 1.1//EN"
 "http://www.w3.org/Graphics/SVG/1.1/DTD/svg11.dtd">
<!-- Generated by graphviz version 2.40.1 (20161225.0304)
 -->
<!-- Title: twoDegreesRelationshipsDiagram Pages: 1 -->
<svg width="503pt" height="443pt"
 viewBox="0.00 0.00 503.00 442.70" xmlns="http://www.w3.org/2000/svg" xmlns:xlink="http://www.w3.org/1999/xlink">
<g id="graph0" class="graph" transform="scale(1 1) rotate(0) translate(4 438.7)">
<title>twoDegreesRelationshipsDiagram</title>
<polygon fill="#ffffff" stroke="transparent" points="-4,4 -4,-438.7 499,-438.7 499,4 -4,4"/>
<text text-anchor="middle" x="72.4936" y="-7.3" font-family="Helvetica,sans-Serif" font-size="11.00" fill="#000000">Generated by SchemaSpy</text>
<!-- files_to_items -->
<g id="node1" class="node">
<title>files_to_items</title>
<g id="a_node1"><a xlink:href="../../tables/files_to_items.html" xlink:title="files_to_items" target="_top">
<polygon fill="#ffffff" stroke="transparent" points="357.5,-292.7 357.5,-378.7 467.5,-378.7 467.5,-292.7 357.5,-292.7"/>
<polygon fill="#f5f5f5" stroke="transparent" points="357.5,-355.7 357.5,-378.7 467.5,-378.7 467.5,-355.7 357.5,-355.7"/>
<polygon fill="none" stroke="#000000" points="357.5,-355.7 357.5,-378.7 467.5,-378.7 467.5,-355.7 357.5,-355.7"/>
<text text-anchor="start" x="362.3851" y="-364.8" font-family="Helvetica,sans-Serif" font-weight="bold" font-size="11.00" fill="#000000">files_to_items</text>
<text text-anchor="start" x="433.0219" y="-363.8" font-family="Helvetica,sans-Serif" font-size="11.00" fill="#000000">[table]</text>
<polygon fill="none" stroke="#000000" points="357.5,-333.7 357.5,-355.7 467.5,-355.7 467.5,-333.7 357.5,-333.7"/>
<image xlink:href="../../images/primaryKeys.png" width="11px" height="12px" preserveAspectRatio="xMinYMin meet" x="362.5" y="-350.7"/>
<text text-anchor="start" x="382.5" y="-340.8" font-family="Helvetica,sans-Serif" font-size="11.00" fill="#000000">file</text>
<polygon fill="none" stroke="#000000" points="357.5,-311.7 357.5,-333.7 467.5,-333.7 467.5,-311.7 357.5,-311.7"/>
<image xlink:href="../../images/primaryKeys.png" width="11px" height="12px" preserveAspectRatio="xMinYMin meet" x="362.5" y="-328.7"/>
<text text-anchor="start" x="382.5" y="-318.8" font-family="Helvetica,sans-Serif" font-size="11.00" fill="#000000">item</text>
<polygon fill="#ffffff" stroke="transparent" points="357.5,-292.7 357.5,-311.7 387.5,-311.7 387.5,-292.7 357.5,-292.7"/>
<polygon fill="none" stroke="#000000" points="357.5,-292.7 357.5,-311.7 387.5,-311.7 387.5,-292.7 357.5,-292.7"/>
<text text-anchor="start" x="360.5" y="-298.8" font-family="Helvetica,sans-Serif" font-size="11.00" fill="#000000">&lt; 2</text>
<polygon fill="#ffffff" stroke="transparent" points="387.5,-292.7 387.5,-311.7 450.5,-311.7 450.5,-292.7 387.5,-292.7"/>
<polygon fill="none" stroke="#000000" points="387.5,-292.7 387.5,-311.7 450.5,-311.7 450.5,-292.7 387.5,-292.7"/>
<text text-anchor="start" x="393.7089" y="-298.8" font-family="Helvetica,sans-Serif" font-size="11.00" fill="#000000">1,994 rows</text>
<polygon fill="#ffffff" stroke="transparent" points="450.5,-292.7 450.5,-311.7 467.5,-311.7 467.5,-292.7 450.5,-292.7"/>
<polygon fill="none" stroke="#000000" points="450.5,-292.7 450.5,-311.7 467.5,-311.7 467.5,-292.7 450.5,-292.7"/>
<text text-anchor="start" x="458.3862" y="-298.8" font-family="Helvetica,sans-Serif" font-size="11.00" fill="#000000"> &#160;</text>
</a>
</g>
</g>
<!-- file -->
<g id="node2" class="node">
<title>file</title>
<g id="a_node2"><a xlink:href="../../tables/file.html" xlink:title="file" target="_top">
<polygon fill="#ffffff" stroke="transparent" points="8,-120.7 8,-430.7 289,-430.7 289,-120.7 8,-120.7"/>
<polygon fill="#f5f5f5" stroke="transparent" points="10.5,-405.7 10.5,-428.7 287.5,-428.7 287.5,-405.7 10.5,-405.7"/>
<polygon fill="none" stroke="#000000" points="10.5,-405.7 10.5,-428.7 287.5,-428.7 287.5,-405.7 10.5,-405.7"/>
<text text-anchor="start" x="15.5" y="-414.8" font-family="Helvetica,sans-Serif" font-weight="bold" font-size="11.00" fill="#000000">file</text>
<text text-anchor="start" x="252.5437" y="-413.8" font-family="Helvetica,sans-Serif" font-size="11.00" fill="#000000">[table]</text>
<polygon fill="none" stroke="#000000" points="10.5,-383.7 10.5,-405.7 197.5,-405.7 197.5,-383.7 10.5,-383.7"/>
<image xlink:href="../../images/primaryKeys.png" width="11px" height="12px" preserveAspectRatio="xMinYMin meet" x="15.5" y="-400.7"/>
<text text-anchor="start" x="30.5" y="-390.8" font-family="Helvetica,sans-Serif" font-size="11.00" fill="#000000">id</text>
<polygon fill="none" stroke="#000000" points="197.5,-383.7 197.5,-405.7 287.5,-405.7 287.5,-383.7 197.5,-383.7"/>
<text text-anchor="start" x="200.5" y="-391.4" font-family="Helvetica,sans-Serif" font-size="11.00" fill="#000000">serial[10]</text>
<polygon fill="none" stroke="#000000" points="10.5,-361.7 10.5,-383.7 197.5,-383.7 197.5,-361.7 10.5,-361.7"/>
<text text-anchor="start" x="30.5" y="-368.8" font-family="Helvetica,sans-Serif" font-size="11.00" fill="#000000">source_permalink</text>
<polygon fill="none" stroke="#000000" points="197.5,-361.7 197.5,-383.7 287.5,-383.7 287.5,-361.7 197.5,-361.7"/>
<text text-anchor="start" x="200.0042" y="-369.4" font-family="Helvetica,sans-Serif" font-size="11.00" fill="#000000">text[2147483647]</text>
<polygon fill="none" stroke="#000000" points="10.5,-339.7 10.5,-361.7 197.5,-361.7 197.5,-339.7 10.5,-339.7"/>
<text text-anchor="start" x="30.5" y="-346.8" font-family="Helvetica,sans-Serif" font-size="11.00" fill="#000000">s3_permalink</text>
<polygon fill="none" stroke="#000000" points="197.5,-339.7 197.5,-361.7 287.5,-361.7 287.5,-339.7 197.5,-339.7"/>
<text text-anchor="start" x="200.0042" y="-347.4" font-family="Helvetica,sans-Serif" font-size="11.00" fill="#000000">text[2147483647]</text>
<polygon fill="none" stroke="#000000" points="10.5,-317.7 10.5,-339.7 197.5,-339.7 197.5,-317.7 10.5,-317.7"/>
<text text-anchor="start" x="30.5" y="-324.8" font-family="Helvetica,sans-Serif" font-size="11.00" fill="#000000">filename</text>
<polygon fill="none" stroke="#000000" points="197.5,-317.7 197.5,-339.7 287.5,-339.7 287.5,-317.7 197.5,-317.7"/>
<text text-anchor="start" x="200.0042" y="-325.4" font-family="Helvetica,sans-Serif" font-size="11.00" fill="#000000">text[2147483647]</text>
<polygon fill="none" stroke="#000000" points="10.5,-295.7 10.5,-317.7 197.5,-317.7 197.5,-295.7 10.5,-295.7"/>
<text text-anchor="start" x="30.5" y="-302.8" font-family="Helvetica,sans-Serif" font-size="11.00" fill="#000000">s3_filename</text>
<polygon fill="none" stroke="#000000" points="197.5,-295.7 197.5,-317.7 287.5,-317.7 287.5,-295.7 197.5,-295.7"/>
<text text-anchor="start" x="200.0042" y="-303.4" font-family="Helvetica,sans-Serif" font-size="11.00" fill="#000000">text[2147483647]</text>
<polygon fill="none" stroke="#000000" points="10.5,-273.7 10.5,-295.7 197.5,-295.7 197.5,-273.7 10.5,-273.7"/>
<text text-anchor="start" x="30.5" y="-280.8" font-family="Helvetica,sans-Serif" font-size="11.00" fill="#000000">mime_type</text>
<polygon fill="none" stroke="#000000" points="197.5,-273.7 197.5,-295.7 287.5,-295.7 287.5,-273.7 197.5,-273.7"/>
<text text-anchor="start" x="200.0042" y="-281.4" font-family="Helvetica,sans-Serif" font-size="11.00" fill="#000000">text[2147483647]</text>
<polygon fill="none" stroke="#000000" points="10.5,-251.7 10.5,-273.7 197.5,-273.7 197.5,-251.7 10.5,-251.7"/>
<text text-anchor="start" x="30.5" y="-258.8" font-family="Helvetica,sans-Serif" font-size="11.00" fill="#000000">source_thumbnail_permalink</text>
<polygon fill="none" stroke="#000000" points="197.5,-251.7 197.5,-273.7 287.5,-273.7 287.5,-251.7 197.5,-251.7"/>
<text text-anchor="start" x="200.0042" y="-259.4" font-family="Helvetica,sans-Serif" font-size="11.00" fill="#000000">text[2147483647]</text>
<polygon fill="none" stroke="#000000" points="10.5,-229.7 10.5,-251.7 197.5,-251.7 197.5,-229.7 10.5,-229.7"/>
<text text-anchor="start" x="30.5" y="-236.8" font-family="Helvetica,sans-Serif" font-size="11.00" fill="#000000">s3_thumbnail_permalink</text>
<polygon fill="none" stroke="#000000" points="197.5,-229.7 197.5,-251.7 287.5,-251.7 287.5,-229.7 197.5,-229.7"/>
<text text-anchor="start" x="200.0042" y="-237.4" font-family="Helvetica,sans-Serif" font-size="11.00" fill="#000000">text[2147483647]</text>
<polygon fill="none" stroke="#000000" points="10.5,-207.7 10.5,-229.7 197.5,-229.7 197.5,-207.7 10.5,-207.7"/>
<text text-anchor="start" x="30.5" y="-214.8" font-family="Helvetica,sans-Serif" font-size="11.00" fill="#000000">num_bytes</text>
<polygon fill="none" stroke="#000000" points="197.5,-207.7 197.5,-229.7 287.5,-229.7 287.5,-207.7 197.5,-207.7"/>
<text text-anchor="start" x="200.5" y="-215.4" font-family="Helvetica,sans-Serif" font-size="11.00" fill="#000000">int4[10]</text>
<polygon fill="none" stroke="#000000" points="10.5,-185.7 10.5,-207.7 197.5,-207.7 197.5,-185.7 10.5,-185.7"/>
<text text-anchor="start" x="30.5" y="-192.8" font-family="Helvetica,sans-Serif" font-size="11.00" fill="#000000">scraped_text</text>
<polygon fill="none" stroke="#000000" points="197.5,-185.7 197.5,-207.7 287.5,-207.7 287.5,-185.7 197.5,-185.7"/>
<text text-anchor="start" x="200.0042" y="-193.4" font-family="Helvetica,sans-Serif" font-size="11.00" fill="#000000">text[2147483647]</text>
<polygon fill="none" stroke="#000000" points="10.5,-163.7 10.5,-185.7 197.5,-185.7 197.5,-163.7 10.5,-163.7"/>
<text text-anchor="start" x="30.5" y="-170.8" font-family="Helvetica,sans-Serif" font-size="11.00" fill="#000000">exclude_from_site</text>
<polygon fill="none" stroke="#000000" points="197.5,-163.7 197.5,-185.7 287.5,-185.7 287.5,-163.7 197.5,-163.7"/>
<text text-anchor="start" x="200.5" y="-171.4" font-family="Helvetica,sans-Serif" font-size="11.00" fill="#000000">bool[1]</text>
<polygon fill="none" stroke="#000000" points="10.5,-141.7 10.5,-163.7 197.5,-163.7 197.5,-141.7 10.5,-141.7"/>
<text text-anchor="start" x="30.5" y="-148.8" font-family="Helvetica,sans-Serif" font-size="11.00" fill="#000000">has_thumb</text>
<polygon fill="none" stroke="#000000" points="197.5,-141.7 197.5,-163.7 287.5,-163.7 287.5,-141.7 197.5,-141.7"/>
<text text-anchor="start" x="200.5" y="-149.4" font-family="Helvetica,sans-Serif" font-size="11.00" fill="#000000">bool[1]</text>
<polygon fill="#ffffff" stroke="transparent" points="10.5,-122.7 10.5,-141.7 84.5,-141.7 84.5,-122.7 10.5,-122.7"/>
<polygon fill="none" stroke="#000000" points="10.5,-122.7 10.5,-141.7 84.5,-141.7 84.5,-122.7 10.5,-122.7"/>
<text text-anchor="start" x="13.5" y="-128.8" font-family="Helvetica,sans-Serif" font-size="11.00" fill="#000000">&lt; 0</text>
<polygon fill="#ffffff" stroke="transparent" points="84.5,-122.7 84.5,-141.7 197.5,-141.7 197.5,-122.7 84.5,-122.7"/>
<polygon fill="none" stroke="#000000" points="84.5,-122.7 84.5,-141.7 197.5,-141.7 197.5,-122.7 84.5,-122.7"/>
<text text-anchor="start" x="140.7089" y="-128.8" font-family="Helvetica,sans-Serif" font-size="11.00" fill="#000000">2,735 rows</text>
<polygon fill="#ffffff" stroke="transparent" points="197.5,-122.7 197.5,-141.7 287.5,-141.7 287.5,-122.7 197.5,-122.7"/>
<polygon fill="none" stroke="#000000" points="197.5,-122.7 197.5,-141.7 287.5,-141.7 287.5,-122.7 197.5,-122.7"/>
<text text-anchor="start" x="268.9053" y="-128.8" font-family="Helvetica,sans-Serif" font-size="11.00" fill="#000000">2 &gt;</text>
<polygon fill="none" stroke="#000000" stroke-width="2" points="9,-121.7 9,-429.7 288,-429.7 288,-121.7 9,-121.7"/>
</a>
</g>
</g>
<!-- files_to_items&#45;&gt;file -->
<g id="edge1" class="edge">
<title>files_to_items:w&#45;&gt;file:e</title>
<path fill="none" stroke="#000000" d="M343.1367,-347.678C320.2019,-358.4421 320.0574,-394.7 287.5,-394.7"/>
<polygon fill="#000000" stroke="#000000" points="349.6666,-346.3242 358.2309,-348.225 353.5833,-345.5121 357.5,-344.7 357.5,-344.7 357.5,-344.7 353.5833,-345.5121 356.7691,-341.175 349.6666,-346.3242 349.6666,-346.3242"/>
<ellipse fill="none" stroke="#000000" cx="346.5332" cy="-346.9738" rx="3.2" ry="3.2"/>
</g>
<!-- item -->
<g id="node3" class="node">
<title>item</title>
<g id="a_node3"><a xlink:href="../../tables/item.html" xlink:title="item" target="_top">
<polygon fill="#ffffff" stroke="transparent" points="95,-38.2 95,-99.2 202,-99.2 202,-38.2 95,-38.2"/>
<polygon fill="#f5f5f5" stroke="transparent" points="95.5,-75.7 95.5,-98.7 202.5,-98.7 202.5,-75.7 95.5,-75.7"/>
<polygon fill="none" stroke="#000000" points="95.5,-75.7 95.5,-98.7 202.5,-98.7 202.5,-75.7 95.5,-75.7"/>
<text text-anchor="start" x="100.5" y="-84.8" font-family="Helvetica,sans-Serif" font-weight="bold" font-size="11.00" fill="#000000">item</text>
<text text-anchor="start" x="167.5437" y="-83.8" font-family="Helvetica,sans-Serif" font-size="11.00" fill="#000000">[table]</text>
<polygon fill="none" stroke="#000000" points="95.5,-56.7 95.5,-75.7 202.5,-75.7 202.5,-56.7 95.5,-56.7"/>
<text text-anchor="start" x="98.5" y="-62.8" font-family="Helvetica,sans-Serif" font-size="11.00" fill="#000000">...</text>
<polygon fill="#ffffff" stroke="transparent" points="95.5,-37.7 95.5,-56.7 116.5,-56.7 116.5,-37.7 95.5,-37.7"/>
<polygon fill="none" stroke="#000000" points="95.5,-37.7 95.5,-56.7 116.5,-56.7 116.5,-37.7 95.5,-37.7"/>
<text text-anchor="start" x="98.2027" y="-43.8" font-family="Helvetica,sans-Serif" font-size="11.00" fill="#000000">&lt; 2</text>
<polygon fill="#ffffff" stroke="transparent" points="116.5,-37.7 116.5,-56.7 175.5,-56.7 175.5,-37.7 116.5,-37.7"/>
<polygon fill="none" stroke="#000000" points="116.5,-37.7 116.5,-56.7 175.5,-56.7 175.5,-37.7 116.5,-37.7"/>
<text text-anchor="start" x="119.1045" y="-43.8" font-family="Helvetica,sans-Serif" font-size="11.00" fill="#000000">2,352 rows</text>
<polygon fill="#ffffff" stroke="transparent" points="175.5,-37.7 175.5,-56.7 202.5,-56.7 202.5,-37.7 175.5,-37.7"/>
<polygon fill="none" stroke="#000000" points="175.5,-37.7 175.5,-56.7 202.5,-56.7 202.5,-37.7 175.5,-37.7"/>
<text text-anchor="start" x="178.1452" y="-43.8" font-family="Helvetica,sans-Serif" font-size="11.00" fill="#000000">11 &gt;</text>
</a>
</g>
</g>
<!-- files_to_items&#45;&gt;item -->
<g id="edge2" class="edge">
<title>files_to_items:w&#45;&gt;item:e</title>
<path fill="none" stroke="#000000" d="M343.1484,-321.5017C270.0472,-307.8808 356.8254,-181.4134 297,-110.7 266.9542,-75.1859 249.0188,-65.7 202.5,-65.7"/>
<polygon fill="#000000" stroke="#000000" points="349.5277,-322.0343 357.2004,-326.2875 353.5139,-322.3671 357.5,-322.7 357.5,-322.7 357.5,-322.7 353.5139,-322.3671 357.7996,-319.1125 349.5277,-322.0343 349.5277,-322.0343"/>
<ellipse fill="none" stroke="#000000" cx="346.3388" cy="-321.768" rx="3.2" ry="3.2"/>
</g>
<!-- related_files_to_items -->
<g id="node4" class="node">
<title>related_files_to_items</title>
<g id="a_node4"><a xlink:href="../../tables/related_files_to_items.html" xlink:title="related_files_to_items" target="_top">
<polygon fill="#ffffff" stroke="transparent" points="338,-85.7 338,-171.7 487,-171.7 487,-85.7 338,-85.7"/>
<polygon fill="#f5f5f5" stroke="transparent" points="338.5,-148.7 338.5,-171.7 487.5,-171.7 487.5,-148.7 338.5,-148.7"/>
<polygon fill="none" stroke="#000000" points="338.5,-148.7 338.5,-171.7 487.5,-171.7 487.5,-148.7 338.5,-148.7"/>
<text text-anchor="start" x="343.018" y="-157.8" font-family="Helvetica,sans-Serif" font-weight="bold" font-size="11.00" fill="#000000">related_files_to_items</text>
<text text-anchor="start" x="453.0219" y="-156.8" font-family="Helvetica,sans-Serif" font-size="11.00" fill="#000000">[table]</text>
<polygon fill="none" stroke="#000000" points="338.5,-126.7 338.5,-148.7 487.5,-148.7 487.5,-126.7 338.5,-126.7"/>
<image xlink:href="../../images/primaryKeys.png" width="11px" height="12px" preserveAspectRatio="xMinYMin meet" x="343.5" y="-143.7"/>
<text text-anchor="start" x="359.5" y="-133.8" font-family="Helvetica,sans-Serif" font-size="11.00" fill="#000000">file</text>
<polygon fill="none" stroke="#000000" points="338.5,-104.7 338.5,-126.7 487.5,-126.7 487.5,-104.7 338.5,-104.7"/>
<image xlink:href="../../images/primaryKeys.png" width="11px" height="12px" preserveAspectRatio="xMinYMin meet" x="343.5" y="-121.7"/>
<text text-anchor="start" x="359.5" y="-111.8" font-family="Helvetica,sans-Serif" font-size="11.00" fill="#000000">item</text>
<polygon fill="#ffffff" stroke="transparent" points="338.5,-85.7 338.5,-104.7 392.5,-104.7 392.5,-85.7 338.5,-85.7"/>
<polygon fill="none" stroke="#000000" points="338.5,-85.7 338.5,-104.7 392.5,-104.7 392.5,-85.7 338.5,-85.7"/>
<text text-anchor="start" x="341.5" y="-91.8" font-family="Helvetica,sans-Serif" font-size="11.00" fill="#000000">&lt; 2</text>
<polygon fill="#ffffff" stroke="transparent" points="392.5,-85.7 392.5,-104.7 458.5,-104.7 458.5,-85.7 392.5,-85.7"/>
<polygon fill="none" stroke="#000000" points="392.5,-85.7 392.5,-104.7 458.5,-104.7 458.5,-85.7 392.5,-85.7"/>
<text text-anchor="start" x="410.8807" y="-91.8" font-family="Helvetica,sans-Serif" font-size="11.00" fill="#000000">115 rows</text>
<polygon fill="#ffffff" stroke="transparent" points="458.5,-85.7 458.5,-104.7 487.5,-104.7 487.5,-85.7 458.5,-85.7"/>
<polygon fill="none" stroke="#000000" points="458.5,-85.7 458.5,-104.7 487.5,-104.7 487.5,-85.7 458.5,-85.7"/>
<text text-anchor="start" x="478.3862" y="-91.8" font-family="Helvetica,sans-Serif" font-size="11.00" fill="#000000"> &#160;</text>
</a>
</g>
</g>
<!-- related_files_to_items&#45;&gt;file -->
<g id="edge3" class="edge">
<title>related_files_to_items:w&#45;&gt;file:e</title>
<path fill="none" stroke="#000000" d="M324.0295,-139.3412C238.448,-161.2291 398.491,-394.7 287.5,-394.7"/>
<polygon fill="#000000" stroke="#000000" points="330.551,-138.6016 338.9057,-141.2771 334.5255,-138.1508 338.5,-137.7 338.5,-137.7 338.5,-137.7 334.5255,-138.1508 338.0943,-134.1229 330.551,-138.6016 330.551,-138.6016"/>
<ellipse fill="none" stroke="#000000" cx="327.3713" cy="-138.9622" rx="3.2" ry="3.2"/>
</g>
<!-- related_files_to_items&#45;&gt;item -->
<g id="edge4" class="edge">
<title>related_files_to_items:w&#45;&gt;item:e</title>
<path fill="none" stroke="#000000" d="M324.0706,-114.7895C272.5801,-108.0128 261.743,-65.7 202.5,-65.7"/>
<polygon fill="#000000" stroke="#000000" points="330.5159,-115.1961 338.2733,-119.2929 334.5079,-115.4481 338.5,-115.7 338.5,-115.7 338.5,-115.7 334.5079,-115.4481 338.7267,-112.1071 330.5159,-115.1961 330.5159,-115.1961"/>
<ellipse fill="none" stroke="#000000" cx="327.3222" cy="-114.9946" rx="3.2" ry="3.2"/>
</g>
</g>
</svg>
