<?xml version="1.0" encoding="UTF-8" standalone="no"?>
<!DOCTYPE svg PUBLIC "-//W3C//DTD SVG 1.1//EN"
 "http://www.w3.org/Graphics/SVG/1.1/DTD/svg11.dtd">
<!-- Generated by graphviz version 2.40.1 (20161225.0304)
 -->
<!-- Title: oneDegreeRelationshipsDiagram Pages: 1 -->
<svg width="533pt" height="281pt"
 viewBox="0.00 0.00 533.00 281.20" xmlns="http://www.w3.org/2000/svg" xmlns:xlink="http://www.w3.org/1999/xlink">
<g id="graph0" class="graph" transform="scale(1 1) rotate(0) translate(4 277.2)">
<title>oneDegreeRelationshipsDiagram</title>
<polygon fill="#ffffff" stroke="transparent" points="-4,4 -4,-277.2 529,-277.2 529,4 -4,4"/>
<text text-anchor="middle" x="72.4936" y="-7.3" font-family="Helvetica,sans-Serif" font-size="11.00" fill="#000000">Generated by SchemaSpy</text>
<!-- files_to_items -->
<g id="node1" class="node">
<title>files_to_items</title>
<g id="a_node1"><a xlink:href="../../tables/files_to_items.html" xlink:title="files_to_items" target="_top">
<polygon fill="#ffffff" stroke="transparent" points="370,-139.7 370,-229.7 517,-229.7 517,-139.7 370,-139.7"/>
<polygon fill="#f5f5f5" stroke="transparent" points="372.5,-204.7 372.5,-227.7 515.5,-227.7 515.5,-204.7 372.5,-204.7"/>
<polygon fill="none" stroke="#000000" points="372.5,-204.7 372.5,-227.7 515.5,-227.7 515.5,-204.7 372.5,-204.7"/>
<text text-anchor="start" x="377.5" y="-213.8" font-family="Helvetica,sans-Serif" font-weight="bold" font-size="11.00" fill="#000000">files_to_items</text>
<text text-anchor="start" x="480.5437" y="-212.8" font-family="Helvetica,sans-Serif" font-size="11.00" fill="#000000">[table]</text>
<polygon fill="none" stroke="#000000" points="372.5,-182.7 372.5,-204.7 473.5,-204.7 473.5,-182.7 372.5,-182.7"/>
<image xlink:href="../../images/primaryKeys.png" width="11px" height="12px" preserveAspectRatio="xMinYMin meet" x="377.5" y="-199.7"/>
<text text-anchor="start" x="392.5" y="-189.8" font-family="Helvetica,sans-Serif" font-size="11.00" fill="#000000">file</text>
<polygon fill="none" stroke="#000000" points="473.5,-182.7 473.5,-204.7 515.5,-204.7 515.5,-182.7 473.5,-182.7"/>
<text text-anchor="start" x="476.4644" y="-190.4" font-family="Helvetica,sans-Serif" font-size="11.00" fill="#000000">int4[10]</text>
<polygon fill="none" stroke="#000000" points="372.5,-160.7 372.5,-182.7 473.5,-182.7 473.5,-160.7 372.5,-160.7"/>
<image xlink:href="../../images/primaryKeys.png" width="11px" height="12px" preserveAspectRatio="xMinYMin meet" x="377.5" y="-177.7"/>
<text text-anchor="start" x="392.5" y="-167.8" font-family="Helvetica,sans-Serif" font-size="11.00" fill="#000000">item</text>
<polygon fill="none" stroke="#000000" points="473.5,-160.7 473.5,-182.7 515.5,-182.7 515.5,-160.7 473.5,-160.7"/>
<text text-anchor="start" x="476.4644" y="-168.4" font-family="Helvetica,sans-Serif" font-size="11.00" fill="#000000">int4[10]</text>
<polygon fill="#ffffff" stroke="transparent" points="372.5,-141.7 372.5,-160.7 403.5,-160.7 403.5,-141.7 372.5,-141.7"/>
<polygon fill="none" stroke="#000000" points="372.5,-141.7 372.5,-160.7 403.5,-160.7 403.5,-141.7 372.5,-141.7"/>
<text text-anchor="start" x="375.5" y="-147.8" font-family="Helvetica,sans-Serif" font-size="11.00" fill="#000000">&lt; 2</text>
<polygon fill="#ffffff" stroke="transparent" points="403.5,-141.7 403.5,-160.7 473.5,-160.7 473.5,-141.7 403.5,-141.7"/>
<polygon fill="none" stroke="#000000" points="403.5,-141.7 403.5,-160.7 473.5,-160.7 473.5,-141.7 403.5,-141.7"/>
<text text-anchor="start" x="416.7089" y="-147.8" font-family="Helvetica,sans-Serif" font-size="11.00" fill="#000000">1,994 rows</text>
<polygon fill="#ffffff" stroke="transparent" points="473.5,-141.7 473.5,-160.7 515.5,-160.7 515.5,-141.7 473.5,-141.7"/>
<polygon fill="none" stroke="#000000" points="473.5,-141.7 473.5,-160.7 515.5,-160.7 515.5,-141.7 473.5,-141.7"/>
<text text-anchor="start" x="496.9053" y="-147.8" font-family="Helvetica,sans-Serif" font-size="11.00" fill="#000000">0 &gt;</text>
<polygon fill="none" stroke="#000000" stroke-width="2" points="371,-140.7 371,-228.7 516,-228.7 516,-140.7 371,-140.7"/>
</a>
</g>
</g>
<!-- file -->
<g id="node2" class="node">
<title>file</title>
<g id="a_node2"><a xlink:href="../../tables/file.html" xlink:title="file" target="_top">
<polygon fill="#ffffff" stroke="transparent" points="71,-186.2 71,-269.2 258,-269.2 258,-186.2 71,-186.2"/>
<polygon fill="#f5f5f5" stroke="transparent" points="71.5,-245.7 71.5,-268.7 258.5,-268.7 258.5,-245.7 71.5,-245.7"/>
<polygon fill="none" stroke="#000000" points="71.5,-245.7 71.5,-268.7 258.5,-268.7 258.5,-245.7 71.5,-245.7"/>
<text text-anchor="start" x="76.5" y="-254.8" font-family="Helvetica,sans-Serif" font-weight="bold" font-size="11.00" fill="#000000">file</text>
<text text-anchor="start" x="223.5437" y="-253.8" font-family="Helvetica,sans-Serif" font-size="11.00" fill="#000000">[table]</text>
<polygon fill="none" stroke="#000000" points="71.5,-223.7 71.5,-245.7 258.5,-245.7 258.5,-223.7 71.5,-223.7"/>
<image xlink:href="../../images/primaryKeys.png" width="11px" height="12px" preserveAspectRatio="xMinYMin meet" x="76.5" y="-240.7"/>
<text text-anchor="start" x="91.5" y="-230.8" font-family="Helvetica,sans-Serif" font-size="11.00" fill="#000000">id</text>
<polygon fill="none" stroke="#000000" points="71.5,-204.7 71.5,-223.7 258.5,-223.7 258.5,-204.7 71.5,-204.7"/>
<text text-anchor="start" x="74.5" y="-210.8" font-family="Helvetica,sans-Serif" font-size="11.00" fill="#000000">...</text>
<polygon fill="#ffffff" stroke="transparent" points="71.5,-185.7 71.5,-204.7 130.5,-204.7 130.5,-185.7 71.5,-185.7"/>
<polygon fill="none" stroke="#000000" points="71.5,-185.7 71.5,-204.7 130.5,-204.7 130.5,-185.7 71.5,-185.7"/>
<text text-anchor="start" x="74.5" y="-191.8" font-family="Helvetica,sans-Serif" font-size="11.00" fill="#000000"> &#160;</text>
<polygon fill="#ffffff" stroke="transparent" points="130.5,-185.7 130.5,-204.7 213.5,-204.7 213.5,-185.7 130.5,-185.7"/>
<polygon fill="none" stroke="#000000" points="130.5,-185.7 130.5,-204.7 213.5,-204.7 213.5,-185.7 130.5,-185.7"/>
<text text-anchor="start" x="156.7089" y="-191.8" font-family="Helvetica,sans-Serif" font-size="11.00" fill="#000000">2,735 rows</text>
<polygon fill="#ffffff" stroke="transparent" points="213.5,-185.7 213.5,-204.7 258.5,-204.7 258.5,-185.7 213.5,-185.7"/>
<polygon fill="none" stroke="#000000" points="213.5,-185.7 213.5,-204.7 258.5,-204.7 258.5,-185.7 213.5,-185.7"/>
<text text-anchor="start" x="239.9053" y="-191.8" font-family="Helvetica,sans-Serif" font-size="11.00" fill="#000000">2 &gt;</text>
</a>
</g>
</g>
<!-- files_to_items&#45;&gt;file -->
<g id="edge1" class="edge">
<title>files_to_items:w&#45;&gt;file:e</title>
<path fill="none" stroke="#000000" d="M357.9968,-194.7967C316.97,-201.3168 307.0857,-234.7 258.5,-234.7"/>
<polygon fill="#000000" stroke="#000000" points="364.5228,-194.3032 372.7715,-197.2898 368.5114,-194.0016 372.5,-193.7 372.5,-193.7 372.5,-193.7 368.5114,-194.0016 372.2285,-190.1102 364.5228,-194.3032 364.5228,-194.3032"/>
<ellipse fill="none" stroke="#000000" cx="361.3319" cy="-194.5445" rx="3.2" ry="3.2"/>
</g>
<!-- item -->
<g id="node3" class="node">
<title>item</title>
<g id="a_node3"><a xlink:href="../../tables/item.html" xlink:title="item" target="_top">
<polygon fill="#ffffff" stroke="transparent" points="8,-38.2 8,-165.2 321,-165.2 321,-38.2 8,-38.2"/>
<polygon fill="#f5f5f5" stroke="transparent" points="8.5,-141.7 8.5,-164.7 321.5,-164.7 321.5,-141.7 8.5,-141.7"/>
<polygon fill="none" stroke="#000000" points="8.5,-141.7 8.5,-164.7 321.5,-164.7 321.5,-141.7 8.5,-141.7"/>
<text text-anchor="start" x="13.5" y="-150.8" font-family="Helvetica,sans-Serif" font-weight="bold" font-size="11.00" fill="#000000">item</text>
<text text-anchor="start" x="286.5437" y="-149.8" font-family="Helvetica,sans-Serif" font-size="11.00" fill="#000000">[table]</text>
<polygon fill="none" stroke="#000000" points="8.5,-119.7 8.5,-141.7 321.5,-141.7 321.5,-119.7 8.5,-119.7"/>
<image xlink:href="../../images/primaryKeys.png" width="11px" height="12px" preserveAspectRatio="xMinYMin meet" x="13.5" y="-136.7"/>
<text text-anchor="start" x="28.5" y="-126.8" font-family="Helvetica,sans-Serif" font-size="11.00" fill="#000000">id</text>
<polygon fill="#ffffff" stroke="transparent" points="8.5,-97.7 8.5,-119.7 321.5,-119.7 321.5,-97.7 8.5,-97.7"/>
<polygon fill="none" stroke="#000000" points="8.5,-97.7 8.5,-119.7 321.5,-119.7 321.5,-97.7 8.5,-97.7"/>
<image xlink:href="../../images/foreignKeys.png" width="11px" height="12px" preserveAspectRatio="xMinYMin meet" x="13.5" y="-114.7"/>
<text text-anchor="start" x="28.5" y="-104.8" font-family="Helvetica,sans-Serif" font-size="11.00" fill="#000000">field_relationship</text>
<polygon fill="#ffffff" stroke="transparent" points="8.5,-75.7 8.5,-97.7 321.5,-97.7 321.5,-75.7 8.5,-75.7"/>
<polygon fill="none" stroke="#000000" points="8.5,-75.7 8.5,-97.7 321.5,-97.7 321.5,-75.7 8.5,-75.7"/>
<image xlink:href="../../images/foreignKeys.png" width="11px" height="12px" preserveAspectRatio="xMinYMin meet" x="13.5" y="-92.7"/>
<text text-anchor="start" x="28.5" y="-82.8" font-family="Helvetica,sans-Serif" font-size="11.00" fill="#000000">geo_specificity</text>
<polygon fill="none" stroke="#000000" points="8.5,-56.7 8.5,-75.7 321.5,-75.7 321.5,-56.7 8.5,-56.7"/>
<text text-anchor="start" x="11.5" y="-62.8" font-family="Helvetica,sans-Serif" font-size="11.00" fill="#000000">...</text>
<polygon fill="#ffffff" stroke="transparent" points="8.5,-37.7 8.5,-56.7 132.5,-56.7 132.5,-37.7 8.5,-37.7"/>
<polygon fill="none" stroke="#000000" points="8.5,-37.7 8.5,-56.7 132.5,-56.7 132.5,-37.7 8.5,-37.7"/>
<text text-anchor="start" x="11.5" y="-43.8" font-family="Helvetica,sans-Serif" font-size="11.00" fill="#000000">&lt; 2</text>
<polygon fill="#ffffff" stroke="transparent" points="132.5,-37.7 132.5,-56.7 242.5,-56.7 242.5,-37.7 132.5,-37.7"/>
<polygon fill="none" stroke="#000000" points="132.5,-37.7 132.5,-56.7 242.5,-56.7 242.5,-37.7 132.5,-37.7"/>
<text text-anchor="start" x="185.7089" y="-43.8" font-family="Helvetica,sans-Serif" font-size="11.00" fill="#000000">2,352 rows</text>
<polygon fill="#ffffff" stroke="transparent" points="242.5,-37.7 242.5,-56.7 321.5,-56.7 321.5,-37.7 242.5,-37.7"/>
<polygon fill="none" stroke="#000000" points="242.5,-37.7 242.5,-56.7 321.5,-56.7 321.5,-37.7 242.5,-37.7"/>
<text text-anchor="start" x="296.7904" y="-43.8" font-family="Helvetica,sans-Serif" font-size="11.00" fill="#000000">11 &gt;</text>
</a>
</g>
</g>
<!-- files_to_items&#45;&gt;item -->
<g id="edge2" class="edge">
<title>files_to_items:w&#45;&gt;item:e</title>
<path fill="none" stroke="#000000" d="M358.6568,-167.3123C344.8325,-156.7354 344.6756,-130.7 321.5,-130.7"/>
<polygon fill="#000000" stroke="#000000" points="364.8739,-169.2828 371.4123,-175.1317 368.6869,-170.4914 372.5,-171.7 372.5,-171.7 372.5,-171.7 368.6869,-170.4914 373.5877,-168.2683 364.8739,-169.2828 364.8739,-169.2828"/>
<ellipse fill="none" stroke="#000000" cx="361.8235" cy="-168.3159" rx="3.2" ry="3.2"/>
</g>
</g>
</svg>
