<?xml version="1.0" encoding="UTF-8" standalone="no"?>
<!DOCTYPE svg PUBLIC "-//W3C//DTD SVG 1.1//EN"
 "http://www.w3.org/Graphics/SVG/1.1/DTD/svg11.dtd">
<!-- Generated by graphviz version 2.40.1 (20161225.0304)
 -->
<!-- Title: oneDegreeRelationshipsDiagram Pages: 1 -->
<svg width="503pt" height="411pt"
 viewBox="0.00 0.00 503.00 411.20" xmlns="http://www.w3.org/2000/svg" xmlns:xlink="http://www.w3.org/1999/xlink">
<g id="graph0" class="graph" transform="scale(1 1) rotate(0) translate(4 407.2)">
<title>oneDegreeRelationshipsDiagram</title>
<polygon fill="#ffffff" stroke="transparent" points="-4,4 -4,-407.2 499,-407.2 499,4 -4,4"/>
<text text-anchor="middle" x="72.4936" y="-7.3" font-family="Helvetica,sans-Serif" font-size="11.00" fill="#000000">Generated by SchemaSpy</text>
<!-- files_to_items -->
<g id="node1" class="node">
<title>files_to_items</title>
<g id="a_node1"><a xlink:href="../../tables/files_to_items.html" xlink:title="files_to_items" target="_top">
<polygon fill="#ffffff" stroke="transparent" points="357.5,-313.2 357.5,-399.2 467.5,-399.2 467.5,-313.2 357.5,-313.2"/>
<polygon fill="#f5f5f5" stroke="transparent" points="357.5,-376.2 357.5,-399.2 467.5,-399.2 467.5,-376.2 357.5,-376.2"/>
<polygon fill="none" stroke="#000000" points="357.5,-376.2 357.5,-399.2 467.5,-399.2 467.5,-376.2 357.5,-376.2"/>
<text text-anchor="start" x="362.3851" y="-385.3" font-family="Helvetica,sans-Serif" font-weight="bold" font-size="11.00" fill="#000000">files_to_items</text>
<text text-anchor="start" x="433.0219" y="-384.3" font-family="Helvetica,sans-Serif" font-size="11.00" fill="#000000">[table]</text>
<polygon fill="none" stroke="#000000" points="357.5,-354.2 357.5,-376.2 467.5,-376.2 467.5,-354.2 357.5,-354.2"/>
<image xlink:href="../../images/primaryKeys.png" width="11px" height="12px" preserveAspectRatio="xMinYMin meet" x="362.5" y="-371.2"/>
<text text-anchor="start" x="382.5" y="-361.3" font-family="Helvetica,sans-Serif" font-size="11.00" fill="#000000">file</text>
<polygon fill="none" stroke="#000000" points="357.5,-332.2 357.5,-354.2 467.5,-354.2 467.5,-332.2 357.5,-332.2"/>
<image xlink:href="../../images/primaryKeys.png" width="11px" height="12px" preserveAspectRatio="xMinYMin meet" x="362.5" y="-349.2"/>
<text text-anchor="start" x="382.5" y="-339.3" font-family="Helvetica,sans-Serif" font-size="11.00" fill="#000000">item</text>
<polygon fill="#ffffff" stroke="transparent" points="357.5,-313.2 357.5,-332.2 387.5,-332.2 387.5,-313.2 357.5,-313.2"/>
<polygon fill="none" stroke="#000000" points="357.5,-313.2 357.5,-332.2 387.5,-332.2 387.5,-313.2 357.5,-313.2"/>
<text text-anchor="start" x="360.5" y="-319.3" font-family="Helvetica,sans-Serif" font-size="11.00" fill="#000000">&lt; 2</text>
<polygon fill="#ffffff" stroke="transparent" points="387.5,-313.2 387.5,-332.2 450.5,-332.2 450.5,-313.2 387.5,-313.2"/>
<polygon fill="none" stroke="#000000" points="387.5,-313.2 387.5,-332.2 450.5,-332.2 450.5,-313.2 387.5,-313.2"/>
<text text-anchor="start" x="393.7089" y="-319.3" font-family="Helvetica,sans-Serif" font-size="11.00" fill="#000000">1,994 rows</text>
<polygon fill="#ffffff" stroke="transparent" points="450.5,-313.2 450.5,-332.2 467.5,-332.2 467.5,-313.2 450.5,-313.2"/>
<polygon fill="none" stroke="#000000" points="450.5,-313.2 450.5,-332.2 467.5,-332.2 467.5,-313.2 450.5,-313.2"/>
<text text-anchor="start" x="458.3862" y="-319.3" font-family="Helvetica,sans-Serif" font-size="11.00" fill="#000000"> &#160;</text>
</a>
</g>
</g>
<!-- file -->
<g id="node2" class="node">
<title>file</title>
<g id="a_node2"><a xlink:href="../../tables/file.html" xlink:title="file" target="_top">
<polygon fill="#ffffff" stroke="transparent" points="8,-38.2 8,-348.2 289,-348.2 289,-38.2 8,-38.2"/>
<polygon fill="#f5f5f5" stroke="transparent" points="10.5,-323.2 10.5,-346.2 287.5,-346.2 287.5,-323.2 10.5,-323.2"/>
<polygon fill="none" stroke="#000000" points="10.5,-323.2 10.5,-346.2 287.5,-346.2 287.5,-323.2 10.5,-323.2"/>
<text text-anchor="start" x="15.5" y="-332.3" font-family="Helvetica,sans-Serif" font-weight="bold" font-size="11.00" fill="#000000">file</text>
<text text-anchor="start" x="252.5437" y="-331.3" font-family="Helvetica,sans-Serif" font-size="11.00" fill="#000000">[table]</text>
<polygon fill="none" stroke="#000000" points="10.5,-301.2 10.5,-323.2 197.5,-323.2 197.5,-301.2 10.5,-301.2"/>
<image xlink:href="../../images/primaryKeys.png" width="11px" height="12px" preserveAspectRatio="xMinYMin meet" x="15.5" y="-318.2"/>
<text text-anchor="start" x="30.5" y="-308.3" font-family="Helvetica,sans-Serif" font-size="11.00" fill="#000000">id</text>
<polygon fill="none" stroke="#000000" points="197.5,-301.2 197.5,-323.2 287.5,-323.2 287.5,-301.2 197.5,-301.2"/>
<text text-anchor="start" x="200.5" y="-308.9" font-family="Helvetica,sans-Serif" font-size="11.00" fill="#000000">serial[10]</text>
<polygon fill="none" stroke="#000000" points="10.5,-279.2 10.5,-301.2 197.5,-301.2 197.5,-279.2 10.5,-279.2"/>
<text text-anchor="start" x="30.5" y="-286.3" font-family="Helvetica,sans-Serif" font-size="11.00" fill="#000000">source_permalink</text>
<polygon fill="none" stroke="#000000" points="197.5,-279.2 197.5,-301.2 287.5,-301.2 287.5,-279.2 197.5,-279.2"/>
<text text-anchor="start" x="200.0042" y="-286.9" font-family="Helvetica,sans-Serif" font-size="11.00" fill="#000000">text[2147483647]</text>
<polygon fill="none" stroke="#000000" points="10.5,-257.2 10.5,-279.2 197.5,-279.2 197.5,-257.2 10.5,-257.2"/>
<text text-anchor="start" x="30.5" y="-264.3" font-family="Helvetica,sans-Serif" font-size="11.00" fill="#000000">s3_permalink</text>
<polygon fill="none" stroke="#000000" points="197.5,-257.2 197.5,-279.2 287.5,-279.2 287.5,-257.2 197.5,-257.2"/>
<text text-anchor="start" x="200.0042" y="-264.9" font-family="Helvetica,sans-Serif" font-size="11.00" fill="#000000">text[2147483647]</text>
<polygon fill="none" stroke="#000000" points="10.5,-235.2 10.5,-257.2 197.5,-257.2 197.5,-235.2 10.5,-235.2"/>
<text text-anchor="start" x="30.5" y="-242.3" font-family="Helvetica,sans-Serif" font-size="11.00" fill="#000000">filename</text>
<polygon fill="none" stroke="#000000" points="197.5,-235.2 197.5,-257.2 287.5,-257.2 287.5,-235.2 197.5,-235.2"/>
<text text-anchor="start" x="200.0042" y="-242.9" font-family="Helvetica,sans-Serif" font-size="11.00" fill="#000000">text[2147483647]</text>
<polygon fill="none" stroke="#000000" points="10.5,-213.2 10.5,-235.2 197.5,-235.2 197.5,-213.2 10.5,-213.2"/>
<text text-anchor="start" x="30.5" y="-220.3" font-family="Helvetica,sans-Serif" font-size="11.00" fill="#000000">s3_filename</text>
<polygon fill="none" stroke="#000000" points="197.5,-213.2 197.5,-235.2 287.5,-235.2 287.5,-213.2 197.5,-213.2"/>
<text text-anchor="start" x="200.0042" y="-220.9" font-family="Helvetica,sans-Serif" font-size="11.00" fill="#000000">text[2147483647]</text>
<polygon fill="none" stroke="#000000" points="10.5,-191.2 10.5,-213.2 197.5,-213.2 197.5,-191.2 10.5,-191.2"/>
<text text-anchor="start" x="30.5" y="-198.3" font-family="Helvetica,sans-Serif" font-size="11.00" fill="#000000">mime_type</text>
<polygon fill="none" stroke="#000000" points="197.5,-191.2 197.5,-213.2 287.5,-213.2 287.5,-191.2 197.5,-191.2"/>
<text text-anchor="start" x="200.0042" y="-198.9" font-family="Helvetica,sans-Serif" font-size="11.00" fill="#000000">text[2147483647]</text>
<polygon fill="none" stroke="#000000" points="10.5,-169.2 10.5,-191.2 197.5,-191.2 197.5,-169.2 10.5,-169.2"/>
<text text-anchor="start" x="30.5" y="-176.3" font-family="Helvetica,sans-Serif" font-size="11.00" fill="#000000">source_thumbnail_permalink</text>
<polygon fill="none" stroke="#000000" points="197.5,-169.2 197.5,-191.2 287.5,-191.2 287.5,-169.2 197.5,-169.2"/>
<text text-anchor="start" x="200.0042" y="-176.9" font-family="Helvetica,sans-Serif" font-size="11.00" fill="#000000">text[2147483647]</text>
<polygon fill="none" stroke="#000000" points="10.5,-147.2 10.5,-169.2 197.5,-169.2 197.5,-147.2 10.5,-147.2"/>
<text text-anchor="start" x="30.5" y="-154.3" font-family="Helvetica,sans-Serif" font-size="11.00" fill="#000000">s3_thumbnail_permalink</text>
<polygon fill="none" stroke="#000000" points="197.5,-147.2 197.5,-169.2 287.5,-169.2 287.5,-147.2 197.5,-147.2"/>
<text text-anchor="start" x="200.0042" y="-154.9" font-family="Helvetica,sans-Serif" font-size="11.00" fill="#000000">text[2147483647]</text>
<polygon fill="none" stroke="#000000" points="10.5,-125.2 10.5,-147.2 197.5,-147.2 197.5,-125.2 10.5,-125.2"/>
<text text-anchor="start" x="30.5" y="-132.3" font-family="Helvetica,sans-Serif" font-size="11.00" fill="#000000">num_bytes</text>
<polygon fill="none" stroke="#000000" points="197.5,-125.2 197.5,-147.2 287.5,-147.2 287.5,-125.2 197.5,-125.2"/>
<text text-anchor="start" x="200.5" y="-132.9" font-family="Helvetica,sans-Serif" font-size="11.00" fill="#000000">int4[10]</text>
<polygon fill="none" stroke="#000000" points="10.5,-103.2 10.5,-125.2 197.5,-125.2 197.5,-103.2 10.5,-103.2"/>
<text text-anchor="start" x="30.5" y="-110.3" font-family="Helvetica,sans-Serif" font-size="11.00" fill="#000000">scraped_text</text>
<polygon fill="none" stroke="#000000" points="197.5,-103.2 197.5,-125.2 287.5,-125.2 287.5,-103.2 197.5,-103.2"/>
<text text-anchor="start" x="200.0042" y="-110.9" font-family="Helvetica,sans-Serif" font-size="11.00" fill="#000000">text[2147483647]</text>
<polygon fill="none" stroke="#000000" points="10.5,-81.2 10.5,-103.2 197.5,-103.2 197.5,-81.2 10.5,-81.2"/>
<text text-anchor="start" x="30.5" y="-88.3" font-family="Helvetica,sans-Serif" font-size="11.00" fill="#000000">exclude_from_site</text>
<polygon fill="none" stroke="#000000" points="197.5,-81.2 197.5,-103.2 287.5,-103.2 287.5,-81.2 197.5,-81.2"/>
<text text-anchor="start" x="200.5" y="-88.9" font-family="Helvetica,sans-Serif" font-size="11.00" fill="#000000">bool[1]</text>
<polygon fill="none" stroke="#000000" points="10.5,-59.2 10.5,-81.2 197.5,-81.2 197.5,-59.2 10.5,-59.2"/>
<text text-anchor="start" x="30.5" y="-66.3" font-family="Helvetica,sans-Serif" font-size="11.00" fill="#000000">has_thumb</text>
<polygon fill="none" stroke="#000000" points="197.5,-59.2 197.5,-81.2 287.5,-81.2 287.5,-59.2 197.5,-59.2"/>
<text text-anchor="start" x="200.5" y="-66.9" font-family="Helvetica,sans-Serif" font-size="11.00" fill="#000000">bool[1]</text>
<polygon fill="#ffffff" stroke="transparent" points="10.5,-40.2 10.5,-59.2 84.5,-59.2 84.5,-40.2 10.5,-40.2"/>
<polygon fill="none" stroke="#000000" points="10.5,-40.2 10.5,-59.2 84.5,-59.2 84.5,-40.2 10.5,-40.2"/>
<text text-anchor="start" x="13.5" y="-46.3" font-family="Helvetica,sans-Serif" font-size="11.00" fill="#000000">&lt; 0</text>
<polygon fill="#ffffff" stroke="transparent" points="84.5,-40.2 84.5,-59.2 197.5,-59.2 197.5,-40.2 84.5,-40.2"/>
<polygon fill="none" stroke="#000000" points="84.5,-40.2 84.5,-59.2 197.5,-59.2 197.5,-40.2 84.5,-40.2"/>
<text text-anchor="start" x="140.7089" y="-46.3" font-family="Helvetica,sans-Serif" font-size="11.00" fill="#000000">2,735 rows</text>
<polygon fill="#ffffff" stroke="transparent" points="197.5,-40.2 197.5,-59.2 287.5,-59.2 287.5,-40.2 197.5,-40.2"/>
<polygon fill="none" stroke="#000000" points="197.5,-40.2 197.5,-59.2 287.5,-59.2 287.5,-40.2 197.5,-40.2"/>
<text text-anchor="start" x="268.9053" y="-46.3" font-family="Helvetica,sans-Serif" font-size="11.00" fill="#000000">2 &gt;</text>
<polygon fill="none" stroke="#000000" stroke-width="2" points="9,-39.2 9,-347.2 288,-347.2 288,-39.2 9,-39.2"/>
</a>
</g>
</g>
<!-- files_to_items&#45;&gt;file -->
<g id="edge1" class="edge">
<title>files_to_items:w&#45;&gt;file:e</title>
<path fill="none" stroke="#000000" d="M343.2455,-362.1986C319.8197,-350.9868 320.8826,-312.2 287.5,-312.2"/>
<polygon fill="#000000" stroke="#000000" points="349.6716,-363.5517 356.7582,-368.7228 353.5858,-364.3758 357.5,-365.2 357.5,-365.2 357.5,-365.2 353.5858,-364.3758 358.2418,-361.6772 349.6716,-363.5517 349.6716,-363.5517"/>
<ellipse fill="none" stroke="#000000" cx="346.5403" cy="-362.8923" rx="3.2" ry="3.2"/>
</g>
<!-- related_files_to_items -->
<g id="node3" class="node">
<title>related_files_to_items</title>
<g id="a_node3"><a xlink:href="../../tables/related_files_to_items.html" xlink:title="related_files_to_items" target="_top">
<polygon fill="#ffffff" stroke="transparent" points="338,-206.2 338,-292.2 487,-292.2 487,-206.2 338,-206.2"/>
<polygon fill="#f5f5f5" stroke="transparent" points="338.5,-269.2 338.5,-292.2 487.5,-292.2 487.5,-269.2 338.5,-269.2"/>
<polygon fill="none" stroke="#000000" points="338.5,-269.2 338.5,-292.2 487.5,-292.2 487.5,-269.2 338.5,-269.2"/>
<text text-anchor="start" x="343.018" y="-278.3" font-family="Helvetica,sans-Serif" font-weight="bold" font-size="11.00" fill="#000000">related_files_to_items</text>
<text text-anchor="start" x="453.0219" y="-277.3" font-family="Helvetica,sans-Serif" font-size="11.00" fill="#000000">[table]</text>
<polygon fill="none" stroke="#000000" points="338.5,-247.2 338.5,-269.2 487.5,-269.2 487.5,-247.2 338.5,-247.2"/>
<image xlink:href="../../images/primaryKeys.png" width="11px" height="12px" preserveAspectRatio="xMinYMin meet" x="343.5" y="-264.2"/>
<text text-anchor="start" x="359.5" y="-254.3" font-family="Helvetica,sans-Serif" font-size="11.00" fill="#000000">file</text>
<polygon fill="none" stroke="#000000" points="338.5,-225.2 338.5,-247.2 487.5,-247.2 487.5,-225.2 338.5,-225.2"/>
<image xlink:href="../../images/primaryKeys.png" width="11px" height="12px" preserveAspectRatio="xMinYMin meet" x="343.5" y="-242.2"/>
<text text-anchor="start" x="359.5" y="-232.3" font-family="Helvetica,sans-Serif" font-size="11.00" fill="#000000">item</text>
<polygon fill="#ffffff" stroke="transparent" points="338.5,-206.2 338.5,-225.2 392.5,-225.2 392.5,-206.2 338.5,-206.2"/>
<polygon fill="none" stroke="#000000" points="338.5,-206.2 338.5,-225.2 392.5,-225.2 392.5,-206.2 338.5,-206.2"/>
<text text-anchor="start" x="341.5" y="-212.3" font-family="Helvetica,sans-Serif" font-size="11.00" fill="#000000">&lt; 2</text>
<polygon fill="#ffffff" stroke="transparent" points="392.5,-206.2 392.5,-225.2 458.5,-225.2 458.5,-206.2 392.5,-206.2"/>
<polygon fill="none" stroke="#000000" points="392.5,-206.2 392.5,-225.2 458.5,-225.2 458.5,-206.2 392.5,-206.2"/>
<text text-anchor="start" x="410.8807" y="-212.3" font-family="Helvetica,sans-Serif" font-size="11.00" fill="#000000">115 rows</text>
<polygon fill="#ffffff" stroke="transparent" points="458.5,-206.2 458.5,-225.2 487.5,-225.2 487.5,-206.2 458.5,-206.2"/>
<polygon fill="none" stroke="#000000" points="458.5,-206.2 458.5,-225.2 487.5,-225.2 487.5,-206.2 458.5,-206.2"/>
<text text-anchor="start" x="478.3862" y="-212.3" font-family="Helvetica,sans-Serif" font-size="11.00" fill="#000000"> &#160;</text>
</a>
</g>
</g>
<!-- related_files_to_items&#45;&gt;file -->
<g id="edge2" class="edge">
<title>related_files_to_items:w&#45;&gt;file:e</title>
<path fill="none" stroke="#000000" d="M324.8001,-262.804C309.3364,-275.8627 314.58,-312.2 287.5,-312.2"/>
<polygon fill="#000000" stroke="#000000" points="330.9168,-260.7485 339.6468,-261.6125 334.7084,-259.4742 338.5,-258.2 338.5,-258.2 338.5,-258.2 334.7084,-259.4742 337.3532,-254.7875 330.9168,-260.7485 330.9168,-260.7485"/>
<ellipse fill="none" stroke="#000000" cx="327.8835" cy="-261.7678" rx="3.2" ry="3.2"/>
</g>
</g>
</svg>
