<?xml version="1.0" encoding="UTF-8" standalone="no"?>
<!DOCTYPE svg PUBLIC "-//W3C//DTD SVG 1.1//EN"
 "http://www.w3.org/Graphics/SVG/1.1/DTD/svg11.dtd">
<!-- Generated by graphviz version 2.40.1 (20161225.0304)
 -->
<!-- Title: twoDegreesRelationshipsDiagram Pages: 1 -->
<svg width="689pt" height="879pt"
 viewBox="0.00 0.00 689.00 879.20" xmlns="http://www.w3.org/2000/svg" xmlns:xlink="http://www.w3.org/1999/xlink">
<g id="graph0" class="graph" transform="scale(1 1) rotate(0) translate(4 875.2)">
<title>twoDegreesRelationshipsDiagram</title>
<polygon fill="#ffffff" stroke="transparent" points="-4,4 -4,-875.2 685,-875.2 685,4 -4,4"/>
<text text-anchor="middle" x="72.4936" y="-7.3" font-family="Helvetica,sans-Serif" font-size="11.00" fill="#000000">Generated by SchemaSpy</text>
<!-- authors_to_items -->
<g id="node1" class="node">
<title>authors_to_items</title>
<g id="a_node1"><a xlink:href="../../tables/authors_to_items.html" xlink:title="authors_to_items" target="_top">
<polygon fill="#ffffff" stroke="transparent" points="526,-642.2 526,-703.2 653,-703.2 653,-642.2 526,-642.2"/>
<polygon fill="#f5f5f5" stroke="transparent" points="526.5,-679.7 526.5,-702.7 653.5,-702.7 653.5,-679.7 526.5,-679.7"/>
<polygon fill="none" stroke="#000000" points="526.5,-679.7 526.5,-702.7 653.5,-702.7 653.5,-679.7 526.5,-679.7"/>
<text text-anchor="start" x="531.3227" y="-688.8" font-family="Helvetica,sans-Serif" font-weight="bold" font-size="11.00" fill="#000000">authors_to_items</text>
<text text-anchor="start" x="619.0219" y="-687.8" font-family="Helvetica,sans-Serif" font-size="11.00" fill="#000000">[table]</text>
<polygon fill="none" stroke="#000000" points="526.5,-660.7 526.5,-679.7 653.5,-679.7 653.5,-660.7 526.5,-660.7"/>
<text text-anchor="start" x="529.5" y="-666.8" font-family="Helvetica,sans-Serif" font-size="11.00" fill="#000000">...</text>
<polygon fill="#ffffff" stroke="transparent" points="526.5,-641.7 526.5,-660.7 564.5,-660.7 564.5,-641.7 526.5,-641.7"/>
<polygon fill="none" stroke="#000000" points="526.5,-641.7 526.5,-660.7 564.5,-660.7 564.5,-641.7 526.5,-641.7"/>
<text text-anchor="start" x="529.5" y="-647.8" font-family="Helvetica,sans-Serif" font-size="11.00" fill="#000000">&lt; 2</text>
<polygon fill="#ffffff" stroke="transparent" points="564.5,-641.7 564.5,-660.7 632.5,-660.7 632.5,-641.7 564.5,-641.7"/>
<polygon fill="none" stroke="#000000" points="564.5,-641.7 564.5,-660.7 632.5,-660.7 632.5,-641.7 564.5,-641.7"/>
<text text-anchor="start" x="575.7089" y="-647.8" font-family="Helvetica,sans-Serif" font-size="11.00" fill="#000000">2,850 rows</text>
<polygon fill="#ffffff" stroke="transparent" points="632.5,-641.7 632.5,-660.7 653.5,-660.7 653.5,-641.7 632.5,-641.7"/>
<polygon fill="none" stroke="#000000" points="632.5,-641.7 632.5,-660.7 653.5,-660.7 653.5,-641.7 632.5,-641.7"/>
<text text-anchor="start" x="644.3862" y="-647.8" font-family="Helvetica,sans-Serif" font-size="11.00" fill="#000000"> &#160;</text>
</a>
</g>
</g>
<!-- item -->
<g id="node2" class="node">
<title>item</title>
<g id="a_node2"><a xlink:href="../../tables/item.html" xlink:title="item" target="_top">
<polygon fill="#ffffff" stroke="transparent" points="144,-331.2 144,-458.2 457,-458.2 457,-331.2 144,-331.2"/>
<polygon fill="#f5f5f5" stroke="transparent" points="144.5,-434.7 144.5,-457.7 457.5,-457.7 457.5,-434.7 144.5,-434.7"/>
<polygon fill="none" stroke="#000000" points="144.5,-434.7 144.5,-457.7 457.5,-457.7 457.5,-434.7 144.5,-434.7"/>
<text text-anchor="start" x="149.5" y="-443.8" font-family="Helvetica,sans-Serif" font-weight="bold" font-size="11.00" fill="#000000">item</text>
<text text-anchor="start" x="422.5437" y="-442.8" font-family="Helvetica,sans-Serif" font-size="11.00" fill="#000000">[table]</text>
<polygon fill="none" stroke="#000000" points="144.5,-412.7 144.5,-434.7 457.5,-434.7 457.5,-412.7 144.5,-412.7"/>
<image xlink:href="../../images/primaryKeys.png" width="11px" height="12px" preserveAspectRatio="xMinYMin meet" x="149.5" y="-429.7"/>
<text text-anchor="start" x="164.5" y="-419.8" font-family="Helvetica,sans-Serif" font-size="11.00" fill="#000000">id</text>
<polygon fill="#ffffff" stroke="transparent" points="144.5,-390.7 144.5,-412.7 457.5,-412.7 457.5,-390.7 144.5,-390.7"/>
<polygon fill="none" stroke="#000000" points="144.5,-390.7 144.5,-412.7 457.5,-412.7 457.5,-390.7 144.5,-390.7"/>
<image xlink:href="../../images/foreignKeys.png" width="11px" height="12px" preserveAspectRatio="xMinYMin meet" x="149.5" y="-407.7"/>
<text text-anchor="start" x="164.5" y="-397.8" font-family="Helvetica,sans-Serif" font-size="11.00" fill="#000000">field_relationship</text>
<polygon fill="#ffffff" stroke="transparent" points="144.5,-368.7 144.5,-390.7 457.5,-390.7 457.5,-368.7 144.5,-368.7"/>
<polygon fill="none" stroke="#000000" points="144.5,-368.7 144.5,-390.7 457.5,-390.7 457.5,-368.7 144.5,-368.7"/>
<image xlink:href="../../images/foreignKeys.png" width="11px" height="12px" preserveAspectRatio="xMinYMin meet" x="149.5" y="-385.7"/>
<text text-anchor="start" x="164.5" y="-375.8" font-family="Helvetica,sans-Serif" font-size="11.00" fill="#000000">geo_specificity</text>
<polygon fill="none" stroke="#000000" points="144.5,-349.7 144.5,-368.7 457.5,-368.7 457.5,-349.7 144.5,-349.7"/>
<text text-anchor="start" x="147.5" y="-355.8" font-family="Helvetica,sans-Serif" font-size="11.00" fill="#000000">...</text>
<polygon fill="#ffffff" stroke="transparent" points="144.5,-330.7 144.5,-349.7 268.5,-349.7 268.5,-330.7 144.5,-330.7"/>
<polygon fill="none" stroke="#000000" points="144.5,-330.7 144.5,-349.7 268.5,-349.7 268.5,-330.7 144.5,-330.7"/>
<text text-anchor="start" x="147.5" y="-336.8" font-family="Helvetica,sans-Serif" font-size="11.00" fill="#000000">&lt; 2</text>
<polygon fill="#ffffff" stroke="transparent" points="268.5,-330.7 268.5,-349.7 378.5,-349.7 378.5,-330.7 268.5,-330.7"/>
<polygon fill="none" stroke="#000000" points="268.5,-330.7 268.5,-349.7 378.5,-349.7 378.5,-330.7 268.5,-330.7"/>
<text text-anchor="start" x="321.7089" y="-336.8" font-family="Helvetica,sans-Serif" font-size="11.00" fill="#000000">2,352 rows</text>
<polygon fill="#ffffff" stroke="transparent" points="378.5,-330.7 378.5,-349.7 457.5,-349.7 457.5,-330.7 378.5,-330.7"/>
<polygon fill="none" stroke="#000000" points="378.5,-330.7 378.5,-349.7 457.5,-349.7 457.5,-330.7 378.5,-330.7"/>
<text text-anchor="start" x="432.7904" y="-336.8" font-family="Helvetica,sans-Serif" font-size="11.00" fill="#000000">11 &gt;</text>
</a>
</g>
</g>
<!-- authors_to_items&#45;&gt;item -->
<g id="edge1" class="edge">
<title>authors_to_items:w&#45;&gt;item:e</title>
<path fill="none" stroke="#000000" d="M512.7533,-665.2282C505.2299,-658.5416 504.0243,-645.2663 498,-631.7 478.8886,-588.6622 504.5903,-423.7 457.5,-423.7"/>
<polygon fill="#000000" stroke="#000000" points="518.8924,-667.2252 525.3863,-673.1234 522.6962,-668.4626 526.5,-669.7 526.5,-669.7 526.5,-669.7 522.6962,-668.4626 527.6137,-666.2766 518.8924,-667.2252 518.8924,-667.2252"/>
<ellipse fill="none" stroke="#000000" cx="515.8494" cy="-666.2353" rx="3.2" ry="3.2"/>
</g>
<!-- optionset -->
<g id="node4" class="node">
<title>optionset</title>
<g id="a_node4"><a xlink:href="../../tables/optionset.html" xlink:title="optionset" target="_top">
<polygon fill="#ffffff" stroke="transparent" points="8,-363.2 8,-424.2 95,-424.2 95,-363.2 8,-363.2"/>
<polygon fill="#f5f5f5" stroke="transparent" points="8.5,-400.7 8.5,-423.7 95.5,-423.7 95.5,-400.7 8.5,-400.7"/>
<polygon fill="none" stroke="#000000" points="8.5,-400.7 8.5,-423.7 95.5,-423.7 95.5,-400.7 8.5,-400.7"/>
<text text-anchor="start" x="13.1854" y="-409.8" font-family="Helvetica,sans-Serif" font-weight="bold" font-size="11.00" fill="#000000">optionset</text>
<text text-anchor="start" x="61.0219" y="-408.8" font-family="Helvetica,sans-Serif" font-size="11.00" fill="#000000">[table]</text>
<polygon fill="none" stroke="#000000" points="8.5,-381.7 8.5,-400.7 95.5,-400.7 95.5,-381.7 8.5,-381.7"/>
<text text-anchor="start" x="11.5" y="-387.8" font-family="Helvetica,sans-Serif" font-size="11.00" fill="#000000">...</text>
<polygon fill="#ffffff" stroke="transparent" points="8.5,-362.7 8.5,-381.7 25.5,-381.7 25.5,-362.7 8.5,-362.7"/>
<polygon fill="none" stroke="#000000" points="8.5,-362.7 8.5,-381.7 25.5,-381.7 25.5,-362.7 8.5,-362.7"/>
<text text-anchor="start" x="11.5" y="-368.8" font-family="Helvetica,sans-Serif" font-size="11.00" fill="#000000"> &#160;</text>
<polygon fill="#ffffff" stroke="transparent" points="25.5,-362.7 25.5,-381.7 71.5,-381.7 71.5,-362.7 25.5,-362.7"/>
<polygon fill="none" stroke="#000000" points="25.5,-362.7 25.5,-381.7 71.5,-381.7 71.5,-362.7 25.5,-362.7"/>
<text text-anchor="start" x="29.9956" y="-368.8" font-family="Helvetica,sans-Serif" font-size="11.00" fill="#000000">47 rows</text>
<polygon fill="#ffffff" stroke="transparent" points="71.5,-362.7 71.5,-381.7 95.5,-381.7 95.5,-362.7 71.5,-362.7"/>
<polygon fill="none" stroke="#000000" points="71.5,-362.7 71.5,-381.7 95.5,-381.7 95.5,-362.7 71.5,-362.7"/>
<text text-anchor="start" x="76.9053" y="-368.8" font-family="Helvetica,sans-Serif" font-size="11.00" fill="#000000">6 &gt;</text>
</a>
</g>
</g>
<!-- item&#45;&gt;optionset -->
<g id="edge10" class="edge">
<title>item:w&#45;&gt;optionset:e</title>
<path fill="none" stroke="#000000" d="M130.2027,-399.8836C118.7382,-396.7593 112.0655,-390.7 95.5,-390.7"/>
<polygon fill="#000000" stroke="#000000" points="136.5638,-400.6917 144.0463,-405.2713 140.5319,-401.1958 144.5,-401.7 144.5,-401.7 144.5,-401.7 140.5319,-401.1958 144.9537,-398.1287 136.5638,-400.6917 136.5638,-400.6917"/>
<ellipse fill="none" stroke="#000000" cx="133.3893" cy="-400.2884" rx="3.2" ry="3.2"/>
</g>
<!-- item&#45;&gt;optionset -->
<g id="edge11" class="edge">
<title>item:w&#45;&gt;optionset:e</title>
<path fill="none" stroke="#000000" d="M130.2027,-381.5164C118.7382,-384.6407 112.0655,-390.7 95.5,-390.7"/>
<polygon fill="#000000" stroke="#000000" points="136.5638,-380.7083 144.9537,-383.2713 140.5319,-380.2042 144.5,-379.7 144.5,-379.7 144.5,-379.7 140.5319,-380.2042 144.0463,-376.1287 136.5638,-380.7083 136.5638,-380.7083"/>
<ellipse fill="none" stroke="#000000" cx="133.3893" cy="-381.1116" rx="3.2" ry="3.2"/>
</g>
<!-- covid_tags_to_items -->
<g id="node3" class="node">
<title>covid_tags_to_items</title>
<g id="a_node3"><a xlink:href="../../tables/covid_tags_to_items.html" xlink:title="covid_tags_to_items" target="_top">
<polygon fill="#ffffff" stroke="transparent" points="518,-806.2 518,-867.2 661,-867.2 661,-806.2 518,-806.2"/>
<polygon fill="#f5f5f5" stroke="transparent" points="518.5,-843.7 518.5,-866.7 661.5,-866.7 661.5,-843.7 518.5,-843.7"/>
<polygon fill="none" stroke="#000000" points="518.5,-843.7 518.5,-866.7 661.5,-866.7 661.5,-843.7 518.5,-843.7"/>
<text text-anchor="start" x="523.3758" y="-852.8" font-family="Helvetica,sans-Serif" font-weight="bold" font-size="11.00" fill="#000000">covid_tags_to_items</text>
<text text-anchor="start" x="627.0219" y="-851.8" font-family="Helvetica,sans-Serif" font-size="11.00" fill="#000000">[table]</text>
<polygon fill="none" stroke="#000000" points="518.5,-824.7 518.5,-843.7 661.5,-843.7 661.5,-824.7 518.5,-824.7"/>
<text text-anchor="start" x="521.5" y="-830.8" font-family="Helvetica,sans-Serif" font-size="11.00" fill="#000000">...</text>
<polygon fill="#ffffff" stroke="transparent" points="518.5,-805.7 518.5,-824.7 564.5,-824.7 564.5,-805.7 518.5,-805.7"/>
<polygon fill="none" stroke="#000000" points="518.5,-805.7 518.5,-824.7 564.5,-824.7 564.5,-805.7 518.5,-805.7"/>
<text text-anchor="start" x="521.5" y="-811.8" font-family="Helvetica,sans-Serif" font-size="11.00" fill="#000000">&lt; 2</text>
<polygon fill="#ffffff" stroke="transparent" points="564.5,-805.7 564.5,-824.7 636.5,-824.7 636.5,-805.7 564.5,-805.7"/>
<polygon fill="none" stroke="#000000" points="564.5,-805.7 564.5,-824.7 636.5,-824.7 636.5,-805.7 564.5,-805.7"/>
<text text-anchor="start" x="579.7089" y="-811.8" font-family="Helvetica,sans-Serif" font-size="11.00" fill="#000000">4,810 rows</text>
<polygon fill="#ffffff" stroke="transparent" points="636.5,-805.7 636.5,-824.7 661.5,-824.7 661.5,-805.7 636.5,-805.7"/>
<polygon fill="none" stroke="#000000" points="636.5,-805.7 636.5,-824.7 661.5,-824.7 661.5,-805.7 636.5,-805.7"/>
<text text-anchor="start" x="652.3862" y="-811.8" font-family="Helvetica,sans-Serif" font-size="11.00" fill="#000000"> &#160;</text>
</a>
</g>
</g>
<!-- covid_tags_to_items&#45;&gt;item -->
<g id="edge3" class="edge">
<title>covid_tags_to_items:w&#45;&gt;item:e</title>
<path fill="none" stroke="#000000" d="M504.4394,-829.6421C440.0875,-787.0607 544.2167,-423.7 457.5,-423.7"/>
<polygon fill="#000000" stroke="#000000" points="510.8137,-831.4817 517.5018,-837.1588 514.6568,-832.5908 518.5,-833.7 518.5,-833.7 518.5,-833.7 514.6568,-832.5908 519.4982,-830.2412 510.8137,-831.4817 510.8137,-831.4817"/>
<ellipse fill="none" stroke="#000000" cx="507.7392" cy="-830.5944" rx="3.2" ry="3.2"/>
</g>
<!-- covid_tags_to_items&#45;&gt;optionset -->
<g id="edge2" class="edge">
<title>covid_tags_to_items:w&#45;&gt;optionset:e</title>
<path fill="none" stroke="#000000" d="M503.9155,-833.5744C316.5849,-830.2911 246.595,-762.3907 136,-603.7 108.4515,-564.1712 143.6814,-390.7 95.5,-390.7"/>
<polygon fill="#000000" stroke="#000000" points="510.5003,-833.6311 518.469,-837.2999 514.5001,-833.6655 518.5,-833.7 518.5,-833.7 518.5,-833.7 514.5001,-833.6655 518.531,-830.1001 510.5003,-833.6311 510.5003,-833.6311"/>
<ellipse fill="none" stroke="#000000" cx="507.3004" cy="-833.6035" rx="3.2" ry="3.2"/>
</g>
<!-- covid_topics_to_items -->
<g id="node5" class="node">
<title>covid_topics_to_items</title>
<g id="a_node5"><a xlink:href="../../tables/covid_topics_to_items.html" xlink:title="covid_topics_to_items" target="_top">
<polygon fill="#ffffff" stroke="transparent" points="514,-724.2 514,-785.2 665,-785.2 665,-724.2 514,-724.2"/>
<polygon fill="#f5f5f5" stroke="transparent" points="514.5,-761.7 514.5,-784.7 665.5,-784.7 665.5,-761.7 514.5,-761.7"/>
<polygon fill="none" stroke="#000000" points="514.5,-761.7 514.5,-784.7 665.5,-784.7 665.5,-761.7 514.5,-761.7"/>
<text text-anchor="start" x="519.4053" y="-770.8" font-family="Helvetica,sans-Serif" font-weight="bold" font-size="11.00" fill="#000000">covid_topics_to_items</text>
<text text-anchor="start" x="631.0219" y="-769.8" font-family="Helvetica,sans-Serif" font-size="11.00" fill="#000000">[table]</text>
<polygon fill="none" stroke="#000000" points="514.5,-742.7 514.5,-761.7 665.5,-761.7 665.5,-742.7 514.5,-742.7"/>
<text text-anchor="start" x="517.5" y="-748.8" font-family="Helvetica,sans-Serif" font-size="11.00" fill="#000000">...</text>
<polygon fill="#ffffff" stroke="transparent" points="514.5,-723.7 514.5,-742.7 575.5,-742.7 575.5,-723.7 514.5,-723.7"/>
<polygon fill="none" stroke="#000000" points="514.5,-723.7 514.5,-742.7 575.5,-742.7 575.5,-723.7 514.5,-723.7"/>
<text text-anchor="start" x="517.5" y="-729.8" font-family="Helvetica,sans-Serif" font-size="11.00" fill="#000000">&lt; 2</text>
<polygon fill="#ffffff" stroke="transparent" points="575.5,-723.7 575.5,-742.7 633.5,-742.7 633.5,-723.7 575.5,-723.7"/>
<polygon fill="none" stroke="#000000" points="575.5,-723.7 575.5,-742.7 633.5,-742.7 633.5,-723.7 575.5,-723.7"/>
<text text-anchor="start" x="598.1105" y="-729.8" font-family="Helvetica,sans-Serif" font-size="11.00" fill="#000000">0 rows</text>
<polygon fill="#ffffff" stroke="transparent" points="633.5,-723.7 633.5,-742.7 665.5,-742.7 665.5,-723.7 633.5,-723.7"/>
<polygon fill="none" stroke="#000000" points="633.5,-723.7 633.5,-742.7 665.5,-742.7 665.5,-723.7 633.5,-723.7"/>
<text text-anchor="start" x="656.3862" y="-729.8" font-family="Helvetica,sans-Serif" font-size="11.00" fill="#000000"> &#160;</text>
</a>
</g>
</g>
<!-- covid_topics_to_items&#45;&gt;item -->
<g id="edge5" class="edge">
<title>covid_topics_to_items:w&#45;&gt;item:e</title>
<path fill="none" stroke="#000000" d="M500.9208,-746.8088C452.8042,-706.0067 526.135,-423.7 457.5,-423.7"/>
<polygon fill="#000000" stroke="#000000" points="506.9734,-748.9889 513.28,-755.087 510.7367,-750.3445 514.5,-751.7 514.5,-751.7 514.5,-751.7 510.7367,-750.3445 515.72,-748.313 506.9734,-748.9889 506.9734,-748.9889"/>
<ellipse fill="none" stroke="#000000" cx="503.9627" cy="-747.9045" rx="3.2" ry="3.2"/>
</g>
<!-- covid_topics_to_items&#45;&gt;optionset -->
<g id="edge4" class="edge">
<title>covid_topics_to_items:w&#45;&gt;optionset:e</title>
<path fill="none" stroke="#000000" d="M500.8422,-745.949C431.7717,-707.3492 151.498,-486.957 136,-468.7 110.7214,-438.9213 134.5612,-390.7 95.5,-390.7"/>
<polygon fill="#000000" stroke="#000000" points="507.127,-748.5954 513.1029,-755.0179 510.8135,-750.1477 514.5,-751.7 514.5,-751.7 514.5,-751.7 510.8135,-750.1477 515.8971,-748.3821 507.127,-748.5954 507.127,-748.5954"/>
<ellipse fill="none" stroke="#000000" cx="504.1778" cy="-747.3535" rx="3.2" ry="3.2"/>
</g>
<!-- events_to_items -->
<g id="node6" class="node">
<title>events_to_items</title>
<g id="a_node6"><a xlink:href="../../tables/events_to_items.html" xlink:title="events_to_items" target="_top">
<polygon fill="#ffffff" stroke="transparent" points="528,-560.2 528,-621.2 651,-621.2 651,-560.2 528,-560.2"/>
<polygon fill="#f5f5f5" stroke="transparent" points="528.5,-597.7 528.5,-620.7 651.5,-620.7 651.5,-597.7 528.5,-597.7"/>
<polygon fill="none" stroke="#000000" points="528.5,-597.7 528.5,-620.7 651.5,-620.7 651.5,-597.7 528.5,-597.7"/>
<text text-anchor="start" x="533.4611" y="-606.8" font-family="Helvetica,sans-Serif" font-weight="bold" font-size="11.00" fill="#000000">events_to_items</text>
<text text-anchor="start" x="617.0219" y="-605.8" font-family="Helvetica,sans-Serif" font-size="11.00" fill="#000000">[table]</text>
<polygon fill="none" stroke="#000000" points="528.5,-578.7 528.5,-597.7 651.5,-597.7 651.5,-578.7 528.5,-578.7"/>
<text text-anchor="start" x="531.5" y="-584.8" font-family="Helvetica,sans-Serif" font-size="11.00" fill="#000000">...</text>
<polygon fill="#ffffff" stroke="transparent" points="528.5,-559.7 528.5,-578.7 564.5,-578.7 564.5,-559.7 528.5,-559.7"/>
<polygon fill="none" stroke="#000000" points="528.5,-559.7 528.5,-578.7 564.5,-578.7 564.5,-559.7 528.5,-559.7"/>
<text text-anchor="start" x="531.5" y="-565.8" font-family="Helvetica,sans-Serif" font-size="11.00" fill="#000000">&lt; 2</text>
<polygon fill="#ffffff" stroke="transparent" points="564.5,-559.7 564.5,-578.7 631.5,-578.7 631.5,-559.7 564.5,-559.7"/>
<polygon fill="none" stroke="#000000" points="564.5,-559.7 564.5,-578.7 631.5,-578.7 631.5,-559.7 564.5,-559.7"/>
<text text-anchor="start" x="574.7089" y="-565.8" font-family="Helvetica,sans-Serif" font-size="11.00" fill="#000000">1,091 rows</text>
<polygon fill="#ffffff" stroke="transparent" points="631.5,-559.7 631.5,-578.7 651.5,-578.7 651.5,-559.7 631.5,-559.7"/>
<polygon fill="none" stroke="#000000" points="631.5,-559.7 631.5,-578.7 651.5,-578.7 651.5,-559.7 631.5,-559.7"/>
<text text-anchor="start" x="642.3862" y="-565.8" font-family="Helvetica,sans-Serif" font-size="11.00" fill="#000000"> &#160;</text>
</a>
</g>
</g>
<!-- events_to_items&#45;&gt;item -->
<g id="edge6" class="edge">
<title>events_to_items:w&#45;&gt;item:e</title>
<path fill="none" stroke="#000000" d="M514.1107,-585.3816C460.6009,-565.4483 531.3417,-423.7 457.5,-423.7"/>
<polygon fill="#000000" stroke="#000000" points="520.6019,-586.4274 527.9273,-591.2542 524.5509,-587.0637 528.5,-587.7 528.5,-587.7 528.5,-587.7 524.5509,-587.0637 529.0727,-584.1458 520.6019,-586.4274 520.6019,-586.4274"/>
<ellipse fill="none" stroke="#000000" cx="517.4426" cy="-585.9184" rx="3.2" ry="3.2"/>
</g>
<!-- files_to_items -->
<g id="node7" class="node">
<title>files_to_items</title>
<g id="a_node7"><a xlink:href="../../tables/files_to_items.html" xlink:title="files_to_items" target="_top">
<polygon fill="#ffffff" stroke="transparent" points="534.5,-478.2 534.5,-539.2 644.5,-539.2 644.5,-478.2 534.5,-478.2"/>
<polygon fill="#f5f5f5" stroke="transparent" points="534.5,-515.7 534.5,-538.7 644.5,-538.7 644.5,-515.7 534.5,-515.7"/>
<polygon fill="none" stroke="#000000" points="534.5,-515.7 534.5,-538.7 644.5,-538.7 644.5,-515.7 534.5,-515.7"/>
<text text-anchor="start" x="539.3851" y="-524.8" font-family="Helvetica,sans-Serif" font-weight="bold" font-size="11.00" fill="#000000">files_to_items</text>
<text text-anchor="start" x="610.0219" y="-523.8" font-family="Helvetica,sans-Serif" font-size="11.00" fill="#000000">[table]</text>
<polygon fill="none" stroke="#000000" points="534.5,-496.7 534.5,-515.7 644.5,-515.7 644.5,-496.7 534.5,-496.7"/>
<text text-anchor="start" x="537.5" y="-502.8" font-family="Helvetica,sans-Serif" font-size="11.00" fill="#000000">...</text>
<polygon fill="#ffffff" stroke="transparent" points="534.5,-477.7 534.5,-496.7 564.5,-496.7 564.5,-477.7 534.5,-477.7"/>
<polygon fill="none" stroke="#000000" points="534.5,-477.7 534.5,-496.7 564.5,-496.7 564.5,-477.7 534.5,-477.7"/>
<text text-anchor="start" x="537.5" y="-483.8" font-family="Helvetica,sans-Serif" font-size="11.00" fill="#000000">&lt; 2</text>
<polygon fill="#ffffff" stroke="transparent" points="564.5,-477.7 564.5,-496.7 627.5,-496.7 627.5,-477.7 564.5,-477.7"/>
<polygon fill="none" stroke="#000000" points="564.5,-477.7 564.5,-496.7 627.5,-496.7 627.5,-477.7 564.5,-477.7"/>
<text text-anchor="start" x="570.7089" y="-483.8" font-family="Helvetica,sans-Serif" font-size="11.00" fill="#000000">1,994 rows</text>
<polygon fill="#ffffff" stroke="transparent" points="627.5,-477.7 627.5,-496.7 644.5,-496.7 644.5,-477.7 627.5,-477.7"/>
<polygon fill="none" stroke="#000000" points="627.5,-477.7 627.5,-496.7 644.5,-496.7 644.5,-477.7 627.5,-477.7"/>
<text text-anchor="start" x="635.3862" y="-483.8" font-family="Helvetica,sans-Serif" font-size="11.00" fill="#000000"> &#160;</text>
</a>
</g>
</g>
<!-- files_to_items&#45;&gt;item -->
<g id="edge7" class="edge">
<title>files_to_items:w&#45;&gt;item:e</title>
<path fill="none" stroke="#000000" d="M520.1074,-502.7816C488.7779,-488.1742 501.8302,-423.7 457.5,-423.7"/>
<polygon fill="#000000" stroke="#000000" points="526.6596,-504.1101 533.7846,-509.2282 530.5798,-504.9051 534.5,-505.7 534.5,-505.7 534.5,-505.7 530.5798,-504.9051 535.2154,-502.1718 526.6596,-504.1101 526.6596,-504.1101"/>
<ellipse fill="none" stroke="#000000" cx="523.5234" cy="-503.4742" rx="3.2" ry="3.2"/>
</g>
<!-- funders_to_items -->
<g id="node8" class="node">
<title>funders_to_items</title>
<g id="a_node8"><a xlink:href="../../tables/funders_to_items.html" xlink:title="funders_to_items" target="_top">
<polygon fill="#ffffff" stroke="transparent" points="506,-202.7 506,-292.7 673,-292.7 673,-202.7 506,-202.7"/>
<polygon fill="#f5f5f5" stroke="transparent" points="508.5,-267.7 508.5,-290.7 671.5,-290.7 671.5,-267.7 508.5,-267.7"/>
<polygon fill="none" stroke="#000000" points="508.5,-267.7 508.5,-290.7 671.5,-290.7 671.5,-267.7 508.5,-267.7"/>
<text text-anchor="start" x="513.5" y="-276.8" font-family="Helvetica,sans-Serif" font-weight="bold" font-size="11.00" fill="#000000">funders_to_items</text>
<text text-anchor="start" x="636.5437" y="-275.8" font-family="Helvetica,sans-Serif" font-size="11.00" fill="#000000">[table]</text>
<polygon fill="none" stroke="#000000" points="508.5,-245.7 508.5,-267.7 629.5,-267.7 629.5,-245.7 508.5,-245.7"/>
<image xlink:href="../../images/primaryKeys.png" width="11px" height="12px" preserveAspectRatio="xMinYMin meet" x="513.5" y="-262.7"/>
<text text-anchor="start" x="528.5" y="-252.8" font-family="Helvetica,sans-Serif" font-size="11.00" fill="#000000">funder</text>
<polygon fill="none" stroke="#000000" points="629.5,-245.7 629.5,-267.7 671.5,-267.7 671.5,-245.7 629.5,-245.7"/>
<text text-anchor="start" x="632.4644" y="-253.4" font-family="Helvetica,sans-Serif" font-size="11.00" fill="#000000">int4[10]</text>
<polygon fill="none" stroke="#000000" points="508.5,-223.7 508.5,-245.7 629.5,-245.7 629.5,-223.7 508.5,-223.7"/>
<image xlink:href="../../images/primaryKeys.png" width="11px" height="12px" preserveAspectRatio="xMinYMin meet" x="513.5" y="-240.7"/>
<text text-anchor="start" x="528.5" y="-230.8" font-family="Helvetica,sans-Serif" font-size="11.00" fill="#000000">item</text>
<polygon fill="none" stroke="#000000" points="629.5,-223.7 629.5,-245.7 671.5,-245.7 671.5,-223.7 629.5,-223.7"/>
<text text-anchor="start" x="632.4644" y="-231.4" font-family="Helvetica,sans-Serif" font-size="11.00" fill="#000000">int4[10]</text>
<polygon fill="#ffffff" stroke="transparent" points="508.5,-204.7 508.5,-223.7 549.5,-223.7 549.5,-204.7 508.5,-204.7"/>
<polygon fill="none" stroke="#000000" points="508.5,-204.7 508.5,-223.7 549.5,-223.7 549.5,-204.7 508.5,-204.7"/>
<text text-anchor="start" x="511.5" y="-210.8" font-family="Helvetica,sans-Serif" font-size="11.00" fill="#000000">&lt; 2</text>
<polygon fill="#ffffff" stroke="transparent" points="549.5,-204.7 549.5,-223.7 629.5,-223.7 629.5,-204.7 549.5,-204.7"/>
<polygon fill="none" stroke="#000000" points="549.5,-204.7 549.5,-223.7 629.5,-223.7 629.5,-204.7 549.5,-204.7"/>
<text text-anchor="start" x="572.7089" y="-210.8" font-family="Helvetica,sans-Serif" font-size="11.00" fill="#000000">3,210 rows</text>
<polygon fill="#ffffff" stroke="transparent" points="629.5,-204.7 629.5,-223.7 671.5,-223.7 671.5,-204.7 629.5,-204.7"/>
<polygon fill="none" stroke="#000000" points="629.5,-204.7 629.5,-223.7 671.5,-223.7 671.5,-204.7 629.5,-204.7"/>
<text text-anchor="start" x="652.9053" y="-210.8" font-family="Helvetica,sans-Serif" font-size="11.00" fill="#000000">0 &gt;</text>
<polygon fill="none" stroke="#000000" stroke-width="2" points="507,-203.7 507,-291.7 672,-291.7 672,-203.7 507,-203.7"/>
</a>
</g>
</g>
<!-- funders_to_items&#45;&gt;item -->
<g id="edge9" class="edge">
<title>funders_to_items:w&#45;&gt;item:e</title>
<path fill="none" stroke="#000000" d="M494.1817,-236.9542C436.4797,-258.2781 538.8968,-423.7 457.5,-423.7"/>
<polygon fill="#000000" stroke="#000000" points="500.5973,-235.9442 509.0599,-238.2562 504.5487,-235.3221 508.5,-234.7 508.5,-234.7 508.5,-234.7 504.5487,-235.3221 507.9401,-231.1438 500.5973,-235.9442 500.5973,-235.9442"/>
<ellipse fill="none" stroke="#000000" cx="497.4363" cy="-236.4419" rx="3.2" ry="3.2"/>
</g>
<!-- funder -->
<g id="node9" class="node">
<title>funder</title>
<g id="a_node9"><a xlink:href="../../tables/funder.html" xlink:title="funder" target="_top">
<polygon fill="#ffffff" stroke="transparent" points="259,-208.2 259,-291.2 342,-291.2 342,-208.2 259,-208.2"/>
<polygon fill="#f5f5f5" stroke="transparent" points="259.5,-267.7 259.5,-290.7 342.5,-290.7 342.5,-267.7 259.5,-267.7"/>
<polygon fill="none" stroke="#000000" points="259.5,-267.7 259.5,-290.7 342.5,-290.7 342.5,-267.7 259.5,-267.7"/>
<text text-anchor="start" x="264.5" y="-276.8" font-family="Helvetica,sans-Serif" font-weight="bold" font-size="11.00" fill="#000000">funder</text>
<text text-anchor="start" x="307.5437" y="-275.8" font-family="Helvetica,sans-Serif" font-size="11.00" fill="#000000">[table]</text>
<polygon fill="none" stroke="#000000" points="259.5,-245.7 259.5,-267.7 342.5,-267.7 342.5,-245.7 259.5,-245.7"/>
<image xlink:href="../../images/primaryKeys.png" width="11px" height="12px" preserveAspectRatio="xMinYMin meet" x="264.5" y="-262.7"/>
<text text-anchor="start" x="292.5" y="-252.8" font-family="Helvetica,sans-Serif" font-size="11.00" fill="#000000">id</text>
<polygon fill="none" stroke="#000000" points="259.5,-226.7 259.5,-245.7 342.5,-245.7 342.5,-226.7 259.5,-226.7"/>
<text text-anchor="start" x="262.5" y="-232.8" font-family="Helvetica,sans-Serif" font-size="11.00" fill="#000000">...</text>
<polygon fill="#ffffff" stroke="transparent" points="259.5,-207.7 259.5,-226.7 271.5,-226.7 271.5,-207.7 259.5,-207.7"/>
<polygon fill="none" stroke="#000000" points="259.5,-207.7 259.5,-226.7 271.5,-226.7 271.5,-207.7 259.5,-207.7"/>
<text text-anchor="start" x="262.4431" y="-213.8" font-family="Helvetica,sans-Serif" font-size="11.00" fill="#000000"> &#160;</text>
<polygon fill="#ffffff" stroke="transparent" points="271.5,-207.7 271.5,-226.7 321.5,-226.7 321.5,-207.7 271.5,-207.7"/>
<polygon fill="none" stroke="#000000" points="271.5,-207.7 271.5,-226.7 321.5,-226.7 321.5,-207.7 271.5,-207.7"/>
<text text-anchor="start" x="274.1904" y="-213.8" font-family="Helvetica,sans-Serif" font-size="11.00" fill="#000000">341 rows</text>
<polygon fill="#ffffff" stroke="transparent" points="321.5,-207.7 321.5,-226.7 342.5,-226.7 342.5,-207.7 321.5,-207.7"/>
<polygon fill="none" stroke="#000000" points="321.5,-207.7 321.5,-226.7 342.5,-226.7 342.5,-207.7 321.5,-207.7"/>
<text text-anchor="start" x="324.2027" y="-213.8" font-family="Helvetica,sans-Serif" font-size="11.00" fill="#000000">1 &gt;</text>
</a>
</g>
</g>
<!-- funders_to_items&#45;&gt;funder -->
<g id="edge8" class="edge">
<title>funders_to_items:w&#45;&gt;funder:e</title>
<path fill="none" stroke="#000000" d="M493.7197,-256.7C431.8549,-256.7 411.0903,-256.7 342.5,-256.7"/>
<polygon fill="#000000" stroke="#000000" points="500.5,-256.7001 508.5,-260.3 504.5,-256.7 508.5,-256.7 508.5,-256.7 508.5,-256.7 504.5,-256.7 508.5,-253.1 500.5,-256.7001 500.5,-256.7001"/>
<ellipse fill="none" stroke="#000000" cx="497.3" cy="-256.7001" rx="3.2" ry="3.2"/>
</g>
<!-- items_to_items -->
<g id="node10" class="node">
<title>items_to_items</title>
<g id="a_node10"><a xlink:href="../../tables/items_to_items.html" xlink:title="items_to_items" target="_top">
<polygon fill="#ffffff" stroke="transparent" points="531.5,-396.2 531.5,-457.2 647.5,-457.2 647.5,-396.2 531.5,-396.2"/>
<polygon fill="#f5f5f5" stroke="transparent" points="531.5,-433.7 531.5,-456.7 647.5,-456.7 647.5,-433.7 531.5,-433.7"/>
<polygon fill="none" stroke="#000000" points="531.5,-433.7 531.5,-456.7 647.5,-456.7 647.5,-433.7 531.5,-433.7"/>
<text text-anchor="start" x="536.0246" y="-442.8" font-family="Helvetica,sans-Serif" font-weight="bold" font-size="11.00" fill="#000000">items_to_items</text>
<text text-anchor="start" x="613.0219" y="-441.8" font-family="Helvetica,sans-Serif" font-size="11.00" fill="#000000">[table]</text>
<polygon fill="none" stroke="#000000" points="531.5,-414.7 531.5,-433.7 647.5,-433.7 647.5,-414.7 531.5,-414.7"/>
<text text-anchor="start" x="534.5" y="-420.8" font-family="Helvetica,sans-Serif" font-size="11.00" fill="#000000">...</text>
<polygon fill="#ffffff" stroke="transparent" points="531.5,-395.7 531.5,-414.7 564.5,-414.7 564.5,-395.7 531.5,-395.7"/>
<polygon fill="none" stroke="#000000" points="531.5,-395.7 531.5,-414.7 564.5,-414.7 564.5,-395.7 531.5,-395.7"/>
<text text-anchor="start" x="534.5" y="-401.8" font-family="Helvetica,sans-Serif" font-size="11.00" fill="#000000">&lt; 2</text>
<polygon fill="#ffffff" stroke="transparent" points="564.5,-395.7 564.5,-414.7 629.5,-414.7 629.5,-395.7 564.5,-395.7"/>
<polygon fill="none" stroke="#000000" points="564.5,-395.7 564.5,-414.7 629.5,-414.7 629.5,-395.7 564.5,-395.7"/>
<text text-anchor="start" x="572.7089" y="-401.8" font-family="Helvetica,sans-Serif" font-size="11.00" fill="#000000">1,288 rows</text>
<polygon fill="#ffffff" stroke="transparent" points="629.5,-395.7 629.5,-414.7 647.5,-414.7 647.5,-395.7 629.5,-395.7"/>
<polygon fill="none" stroke="#000000" points="629.5,-395.7 629.5,-414.7 647.5,-414.7 647.5,-395.7 629.5,-395.7"/>
<text text-anchor="start" x="638.3862" y="-401.8" font-family="Helvetica,sans-Serif" font-size="11.00" fill="#000000"> &#160;</text>
</a>
</g>
</g>
<!-- items_to_items&#45;&gt;item -->
<g id="edge12" class="edge">
<title>items_to_items:w&#45;&gt;item:e</title>
<path fill="none" stroke="#000000" d="M517.0865,-421.2314C495.2493,-417.8615 484.9931,-418.6844 457.5,-423.7"/>
<polygon fill="#000000" stroke="#000000" points="523.6148,-422.3494 530.8923,-427.2483 527.5574,-423.0247 531.5,-423.7 531.5,-423.7 531.5,-423.7 527.5574,-423.0247 532.1077,-420.1517 523.6148,-422.3494 523.6148,-422.3494"/>
<ellipse fill="none" stroke="#000000" cx="520.4607" cy="-421.8092" rx="3.2" ry="3.2"/>
</g>
<!-- items_to_items&#45;&gt;item -->
<g id="edge13" class="edge">
<title>items_to_items:w&#45;&gt;item:e</title>
<path fill="none" stroke="#000000" d="M517.0865,-426.5801C495.2493,-430.5116 484.9931,-429.5516 457.5,-423.7"/>
<polygon fill="#000000" stroke="#000000" points="523.6551,-425.2676 532.2054,-427.2302 527.5775,-424.4838 531.5,-423.7 531.5,-423.7 531.5,-423.7 527.5775,-424.4838 530.7946,-420.1698 523.6551,-425.2676 523.6551,-425.2676"/>
<ellipse fill="none" stroke="#000000" cx="520.5171" cy="-425.8946" rx="3.2" ry="3.2"/>
</g>
<!-- key_topics_to_items -->
<g id="node11" class="node">
<title>key_topics_to_items</title>
<g id="a_node11"><a xlink:href="../../tables/key_topics_to_items.html" xlink:title="key_topics_to_items" target="_top">
<polygon fill="#ffffff" stroke="transparent" points="518.5,-120.2 518.5,-181.2 660.5,-181.2 660.5,-120.2 518.5,-120.2"/>
<polygon fill="#f5f5f5" stroke="transparent" points="518.5,-157.7 518.5,-180.7 660.5,-180.7 660.5,-157.7 518.5,-157.7"/>
<polygon fill="none" stroke="#000000" points="518.5,-157.7 518.5,-180.7 660.5,-180.7 660.5,-157.7 518.5,-157.7"/>
<text text-anchor="start" x="523.1832" y="-166.8" font-family="Helvetica,sans-Serif" font-weight="bold" font-size="11.00" fill="#000000">key_topics_to_items</text>
<text text-anchor="start" x="626.0219" y="-165.8" font-family="Helvetica,sans-Serif" font-size="11.00" fill="#000000">[table]</text>
<polygon fill="none" stroke="#000000" points="518.5,-138.7 518.5,-157.7 660.5,-157.7 660.5,-138.7 518.5,-138.7"/>
<text text-anchor="start" x="521.5" y="-144.8" font-family="Helvetica,sans-Serif" font-size="11.00" fill="#000000">...</text>
<polygon fill="#ffffff" stroke="transparent" points="518.5,-119.7 518.5,-138.7 564.5,-138.7 564.5,-119.7 518.5,-119.7"/>
<polygon fill="none" stroke="#000000" points="518.5,-119.7 518.5,-138.7 564.5,-138.7 564.5,-119.7 518.5,-119.7"/>
<text text-anchor="start" x="521.5" y="-125.8" font-family="Helvetica,sans-Serif" font-size="11.00" fill="#000000">&lt; 2</text>
<polygon fill="#ffffff" stroke="transparent" points="564.5,-119.7 564.5,-138.7 635.5,-138.7 635.5,-119.7 564.5,-119.7"/>
<polygon fill="none" stroke="#000000" points="564.5,-119.7 564.5,-138.7 635.5,-138.7 635.5,-119.7 564.5,-119.7"/>
<text text-anchor="start" x="578.7089" y="-125.8" font-family="Helvetica,sans-Serif" font-size="11.00" fill="#000000">2,352 rows</text>
<polygon fill="#ffffff" stroke="transparent" points="635.5,-119.7 635.5,-138.7 660.5,-138.7 660.5,-119.7 635.5,-119.7"/>
<polygon fill="none" stroke="#000000" points="635.5,-119.7 635.5,-138.7 660.5,-138.7 660.5,-119.7 635.5,-119.7"/>
<text text-anchor="start" x="651.3862" y="-125.8" font-family="Helvetica,sans-Serif" font-size="11.00" fill="#000000"> &#160;</text>
</a>
</g>
</g>
<!-- key_topics_to_items&#45;&gt;item -->
<g id="edge14" class="edge">
<title>key_topics_to_items:w&#45;&gt;item:e</title>
<path fill="none" stroke="#000000" d="M504.9677,-153.4647C465.8531,-193.0992 514.9154,-423.7 457.5,-423.7"/>
<polygon fill="#000000" stroke="#000000" points="511.14,-150.8353 519.9109,-151.012 514.82,-149.2677 518.5,-147.7 518.5,-147.7 518.5,-147.7 514.82,-149.2677 517.0891,-144.388 511.14,-150.8353 511.14,-150.8353"/>
<ellipse fill="none" stroke="#000000" cx="508.196" cy="-152.0895" rx="3.2" ry="3.2"/>
</g>
<!-- key_topics_to_items&#45;&gt;optionset -->
<g id="edge15" class="edge">
<title>key_topics_to_items:w&#45;&gt;optionset:e</title>
<path fill="none" stroke="#000000" d="M503.6502,-147.5351C342.0235,-143.9615 258.1136,-84.6291 136,-197.7 71.6895,-257.2482 183.146,-390.7 95.5,-390.7"/>
<polygon fill="#000000" stroke="#000000" points="510.5005,-147.6111 518.46,-151.2998 514.5002,-147.6556 518.5,-147.7 518.5,-147.7 518.5,-147.7 514.5002,-147.6556 518.54,-144.1002 510.5005,-147.6111 510.5005,-147.6111"/>
<ellipse fill="none" stroke="#000000" cx="507.3007" cy="-147.5755" rx="3.2" ry="3.2"/>
</g>
<!-- related_files_to_items -->
<g id="node12" class="node">
<title>related_files_to_items</title>
<g id="a_node12"><a xlink:href="../../tables/related_files_to_items.html" xlink:title="related_files_to_items" target="_top">
<polygon fill="#ffffff" stroke="transparent" points="515,-314.2 515,-375.2 664,-375.2 664,-314.2 515,-314.2"/>
<polygon fill="#f5f5f5" stroke="transparent" points="515.5,-351.7 515.5,-374.7 664.5,-374.7 664.5,-351.7 515.5,-351.7"/>
<polygon fill="none" stroke="#000000" points="515.5,-351.7 515.5,-374.7 664.5,-374.7 664.5,-351.7 515.5,-351.7"/>
<text text-anchor="start" x="520.018" y="-360.8" font-family="Helvetica,sans-Serif" font-weight="bold" font-size="11.00" fill="#000000">related_files_to_items</text>
<text text-anchor="start" x="630.0219" y="-359.8" font-family="Helvetica,sans-Serif" font-size="11.00" fill="#000000">[table]</text>
<polygon fill="none" stroke="#000000" points="515.5,-332.7 515.5,-351.7 664.5,-351.7 664.5,-332.7 515.5,-332.7"/>
<text text-anchor="start" x="518.5" y="-338.8" font-family="Helvetica,sans-Serif" font-size="11.00" fill="#000000">...</text>
<polygon fill="#ffffff" stroke="transparent" points="515.5,-313.7 515.5,-332.7 569.5,-332.7 569.5,-313.7 515.5,-313.7"/>
<polygon fill="none" stroke="#000000" points="515.5,-313.7 515.5,-332.7 569.5,-332.7 569.5,-313.7 515.5,-313.7"/>
<text text-anchor="start" x="518.5" y="-319.8" font-family="Helvetica,sans-Serif" font-size="11.00" fill="#000000">&lt; 2</text>
<polygon fill="#ffffff" stroke="transparent" points="569.5,-313.7 569.5,-332.7 635.5,-332.7 635.5,-313.7 569.5,-313.7"/>
<polygon fill="none" stroke="#000000" points="569.5,-313.7 569.5,-332.7 635.5,-332.7 635.5,-313.7 569.5,-313.7"/>
<text text-anchor="start" x="587.8807" y="-319.8" font-family="Helvetica,sans-Serif" font-size="11.00" fill="#000000">115 rows</text>
<polygon fill="#ffffff" stroke="transparent" points="635.5,-313.7 635.5,-332.7 664.5,-332.7 664.5,-313.7 635.5,-313.7"/>
<polygon fill="none" stroke="#000000" points="635.5,-313.7 635.5,-332.7 664.5,-332.7 664.5,-313.7 635.5,-313.7"/>
<text text-anchor="start" x="655.3862" y="-319.8" font-family="Helvetica,sans-Serif" font-size="11.00" fill="#000000"> &#160;</text>
</a>
</g>
</g>
<!-- related_files_to_items&#45;&gt;item -->
<g id="edge16" class="edge">
<title>related_files_to_items:w&#45;&gt;item:e</title>
<path fill="none" stroke="#000000" d="M501.3756,-345.655C477.8298,-362.0348 496.2109,-423.7 457.5,-423.7"/>
<polygon fill="#000000" stroke="#000000" points="507.7963,-343.8572 516.4707,-345.1667 511.6482,-342.7786 515.5,-341.7 515.5,-341.7 515.5,-341.7 511.6482,-342.7786 514.5293,-338.2333 507.7963,-343.8572 507.7963,-343.8572"/>
<ellipse fill="none" stroke="#000000" cx="504.7148" cy="-344.7201" rx="3.2" ry="3.2"/>
</g>
<!-- tags_to_items -->
<g id="node13" class="node">
<title>tags_to_items</title>
<g id="a_node13"><a xlink:href="../../tables/tags_to_items.html" xlink:title="tags_to_items" target="_top">
<polygon fill="#ffffff" stroke="transparent" points="534,-38.2 534,-99.2 645,-99.2 645,-38.2 534,-38.2"/>
<polygon fill="#f5f5f5" stroke="transparent" points="534.5,-75.7 534.5,-98.7 645.5,-98.7 645.5,-75.7 534.5,-75.7"/>
<polygon fill="none" stroke="#000000" points="534.5,-75.7 534.5,-98.7 645.5,-98.7 645.5,-75.7 534.5,-75.7"/>
<text text-anchor="start" x="539.2686" y="-84.8" font-family="Helvetica,sans-Serif" font-weight="bold" font-size="11.00" fill="#000000">tags_to_items</text>
<text text-anchor="start" x="611.0219" y="-83.8" font-family="Helvetica,sans-Serif" font-size="11.00" fill="#000000">[table]</text>
<polygon fill="none" stroke="#000000" points="534.5,-56.7 534.5,-75.7 645.5,-75.7 645.5,-56.7 534.5,-56.7"/>
<text text-anchor="start" x="537.5" y="-62.8" font-family="Helvetica,sans-Serif" font-size="11.00" fill="#000000">...</text>
<polygon fill="#ffffff" stroke="transparent" points="534.5,-37.7 534.5,-56.7 575.5,-56.7 575.5,-37.7 534.5,-37.7"/>
<polygon fill="none" stroke="#000000" points="534.5,-37.7 534.5,-56.7 575.5,-56.7 575.5,-37.7 534.5,-37.7"/>
<text text-anchor="start" x="537.5" y="-43.8" font-family="Helvetica,sans-Serif" font-size="11.00" fill="#000000">&lt; 2</text>
<polygon fill="#ffffff" stroke="transparent" points="575.5,-37.7 575.5,-56.7 623.5,-56.7 623.5,-37.7 575.5,-37.7"/>
<polygon fill="none" stroke="#000000" points="575.5,-37.7 575.5,-56.7 623.5,-56.7 623.5,-37.7 575.5,-37.7"/>
<text text-anchor="start" x="588.1105" y="-43.8" font-family="Helvetica,sans-Serif" font-size="11.00" fill="#000000">0 rows</text>
<polygon fill="#ffffff" stroke="transparent" points="623.5,-37.7 623.5,-56.7 645.5,-56.7 645.5,-37.7 623.5,-37.7"/>
<polygon fill="none" stroke="#000000" points="623.5,-37.7 623.5,-56.7 645.5,-56.7 645.5,-37.7 623.5,-37.7"/>
<text text-anchor="start" x="636.3862" y="-43.8" font-family="Helvetica,sans-Serif" font-size="11.00" fill="#000000"> &#160;</text>
</a>
</g>
</g>
<!-- tags_to_items&#45;&gt;item -->
<g id="edge17" class="edge">
<title>tags_to_items:w&#45;&gt;item:e</title>
<path fill="none" stroke="#000000" d="M520.2316,-68.8784C508.1398,-75.5465 505.7611,-91.8621 498,-109.7 469.9306,-174.2139 527.8558,-423.7 457.5,-423.7"/>
<polygon fill="#000000" stroke="#000000" points="526.6914,-67.4395 535.2828,-69.2139 530.5957,-66.5697 534.5,-65.7 534.5,-65.7 534.5,-65.7 530.5957,-66.5697 533.7172,-62.1861 526.6914,-67.4395 526.6914,-67.4395"/>
<ellipse fill="none" stroke="#000000" cx="523.5679" cy="-68.1353" rx="3.2" ry="3.2"/>
</g>
<!-- tags_to_items&#45;&gt;optionset -->
<g id="edge18" class="edge">
<title>tags_to_items:w&#45;&gt;optionset:e</title>
<path fill="none" stroke="#000000" d="M519.9938,-65.558C350.2358,-62.2522 259.2511,-3.4893 136,-126.7 94.0242,-168.662 154.853,-390.7 95.5,-390.7"/>
<polygon fill="#000000" stroke="#000000" points="526.5004,-65.6216 534.4647,-69.2998 530.5002,-65.6608 534.5,-65.7 534.5,-65.7 534.5,-65.7 530.5002,-65.6608 534.5353,-62.1002 526.5004,-65.6216 526.5004,-65.6216"/>
<ellipse fill="none" stroke="#000000" cx="523.3005" cy="-65.5903" rx="3.2" ry="3.2"/>
</g>
</g>
</svg>
