<?xml version="1.0" encoding="UTF-8" standalone="no"?>
<!DOCTYPE svg PUBLIC "-//W3C//DTD SVG 1.1//EN"
 "http://www.w3.org/Graphics/SVG/1.1/DTD/svg11.dtd">
<!-- Generated by graphviz version 2.40.1 (20161225.0304)
 -->
<!-- Title: twoDegreesRelationshipsDiagram Pages: 1 -->
<svg width="365pt" height="223pt"
 viewBox="0.00 0.00 365.00 222.70" xmlns="http://www.w3.org/2000/svg" xmlns:xlink="http://www.w3.org/1999/xlink">
<g id="graph0" class="graph" transform="scale(1 1) rotate(0) translate(4 218.7)">
<title>twoDegreesRelationshipsDiagram</title>
<polygon fill="#ffffff" stroke="transparent" points="-4,4 -4,-218.7 361,-218.7 361,4 -4,4"/>
<text text-anchor="middle" x="72.4936" y="-7.3" font-family="Helvetica,sans-Serif" font-size="11.00" fill="#000000">Generated by SchemaSpy</text>
<!-- funders_to_items -->
<g id="node1" class="node">
<title>funders_to_items</title>
<g id="a_node1"><a xlink:href="../../tables/funders_to_items.html" xlink:title="funders_to_items" target="_top">
<polygon fill="#ffffff" stroke="transparent" points="222,-78.7 222,-164.7 349,-164.7 349,-78.7 222,-78.7"/>
<polygon fill="#f5f5f5" stroke="transparent" points="222.5,-141.7 222.5,-164.7 349.5,-164.7 349.5,-141.7 222.5,-141.7"/>
<polygon fill="none" stroke="#000000" points="222.5,-141.7 222.5,-164.7 349.5,-164.7 349.5,-141.7 222.5,-141.7"/>
<text text-anchor="start" x="227.3227" y="-150.8" font-family="Helvetica,sans-Serif" font-weight="bold" font-size="11.00" fill="#000000">funders_to_items</text>
<text text-anchor="start" x="315.0219" y="-149.8" font-family="Helvetica,sans-Serif" font-size="11.00" fill="#000000">[table]</text>
<polygon fill="none" stroke="#000000" points="222.5,-119.7 222.5,-141.7 349.5,-141.7 349.5,-119.7 222.5,-119.7"/>
<image xlink:href="../../images/primaryKeys.png" width="11px" height="12px" preserveAspectRatio="xMinYMin meet" x="227.5" y="-136.7"/>
<text text-anchor="start" x="245.5" y="-126.8" font-family="Helvetica,sans-Serif" font-size="11.00" fill="#000000">funder</text>
<polygon fill="none" stroke="#000000" points="222.5,-97.7 222.5,-119.7 349.5,-119.7 349.5,-97.7 222.5,-97.7"/>
<image xlink:href="../../images/primaryKeys.png" width="11px" height="12px" preserveAspectRatio="xMinYMin meet" x="227.5" y="-114.7"/>
<text text-anchor="start" x="245.5" y="-104.8" font-family="Helvetica,sans-Serif" font-size="11.00" fill="#000000">item</text>
<polygon fill="#ffffff" stroke="transparent" points="222.5,-78.7 222.5,-97.7 260.5,-97.7 260.5,-78.7 222.5,-78.7"/>
<polygon fill="none" stroke="#000000" points="222.5,-78.7 222.5,-97.7 260.5,-97.7 260.5,-78.7 222.5,-78.7"/>
<text text-anchor="start" x="225.5" y="-84.8" font-family="Helvetica,sans-Serif" font-size="11.00" fill="#000000">&lt; 2</text>
<polygon fill="#ffffff" stroke="transparent" points="260.5,-78.7 260.5,-97.7 328.5,-97.7 328.5,-78.7 260.5,-78.7"/>
<polygon fill="none" stroke="#000000" points="260.5,-78.7 260.5,-97.7 328.5,-97.7 328.5,-78.7 260.5,-78.7"/>
<text text-anchor="start" x="271.7089" y="-84.8" font-family="Helvetica,sans-Serif" font-size="11.00" fill="#000000">3,210 rows</text>
<polygon fill="#ffffff" stroke="transparent" points="328.5,-78.7 328.5,-97.7 349.5,-97.7 349.5,-78.7 328.5,-78.7"/>
<polygon fill="none" stroke="#000000" points="328.5,-78.7 328.5,-97.7 349.5,-97.7 349.5,-78.7 328.5,-78.7"/>
<text text-anchor="start" x="340.3862" y="-84.8" font-family="Helvetica,sans-Serif" font-size="11.00" fill="#000000"> &#160;</text>
</a>
</g>
</g>
<!-- funder -->
<g id="node2" class="node">
<title>funder</title>
<g id="a_node2"><a xlink:href="../../tables/funder.html" xlink:title="funder" target="_top">
<polygon fill="#ffffff" stroke="transparent" points="8,-120.7 8,-210.7 173,-210.7 173,-120.7 8,-120.7"/>
<polygon fill="#f5f5f5" stroke="transparent" points="10.5,-185.7 10.5,-208.7 171.5,-208.7 171.5,-185.7 10.5,-185.7"/>
<polygon fill="none" stroke="#000000" points="10.5,-185.7 10.5,-208.7 171.5,-208.7 171.5,-185.7 10.5,-185.7"/>
<text text-anchor="start" x="15.5" y="-194.8" font-family="Helvetica,sans-Serif" font-weight="bold" font-size="11.00" fill="#000000">funder</text>
<text text-anchor="start" x="136.5437" y="-193.8" font-family="Helvetica,sans-Serif" font-size="11.00" fill="#000000">[table]</text>
<polygon fill="none" stroke="#000000" points="10.5,-163.7 10.5,-185.7 81.5,-185.7 81.5,-163.7 10.5,-163.7"/>
<image xlink:href="../../images/primaryKeys.png" width="11px" height="12px" preserveAspectRatio="xMinYMin meet" x="15.5" y="-180.7"/>
<text text-anchor="start" x="37.5" y="-170.8" font-family="Helvetica,sans-Serif" font-size="11.00" fill="#000000">id</text>
<polygon fill="none" stroke="#000000" points="81.5,-163.7 81.5,-185.7 171.5,-185.7 171.5,-163.7 81.5,-163.7"/>
<text text-anchor="start" x="84.5" y="-171.4" font-family="Helvetica,sans-Serif" font-size="11.00" fill="#000000">serial[10]</text>
<polygon fill="none" stroke="#000000" points="10.5,-141.7 10.5,-163.7 81.5,-163.7 81.5,-141.7 10.5,-141.7"/>
<text text-anchor="start" x="37.5" y="-148.8" font-family="Helvetica,sans-Serif" font-size="11.00" fill="#000000">name</text>
<polygon fill="none" stroke="#000000" points="81.5,-141.7 81.5,-163.7 171.5,-163.7 171.5,-141.7 81.5,-141.7"/>
<text text-anchor="start" x="84.0042" y="-149.4" font-family="Helvetica,sans-Serif" font-size="11.00" fill="#000000">text[2147483647]</text>
<polygon fill="#ffffff" stroke="transparent" points="10.5,-122.7 10.5,-141.7 31.5,-141.7 31.5,-122.7 10.5,-122.7"/>
<polygon fill="none" stroke="#000000" points="10.5,-122.7 10.5,-141.7 31.5,-141.7 31.5,-122.7 10.5,-122.7"/>
<text text-anchor="start" x="13.2027" y="-128.8" font-family="Helvetica,sans-Serif" font-size="11.00" fill="#000000">&lt; 0</text>
<polygon fill="#ffffff" stroke="transparent" points="31.5,-122.7 31.5,-141.7 81.5,-141.7 81.5,-122.7 31.5,-122.7"/>
<polygon fill="none" stroke="#000000" points="31.5,-122.7 31.5,-141.7 81.5,-141.7 81.5,-122.7 31.5,-122.7"/>
<text text-anchor="start" x="34.1903" y="-128.8" font-family="Helvetica,sans-Serif" font-size="11.00" fill="#000000">341 rows</text>
<polygon fill="#ffffff" stroke="transparent" points="81.5,-122.7 81.5,-141.7 171.5,-141.7 171.5,-122.7 81.5,-122.7"/>
<polygon fill="none" stroke="#000000" points="81.5,-122.7 81.5,-141.7 171.5,-141.7 171.5,-122.7 81.5,-122.7"/>
<text text-anchor="start" x="152.9053" y="-128.8" font-family="Helvetica,sans-Serif" font-size="11.00" fill="#000000">1 &gt;</text>
<polygon fill="none" stroke="#000000" stroke-width="2" points="9,-121.7 9,-209.7 172,-209.7 172,-121.7 9,-121.7"/>
</a>
</g>
</g>
<!-- funders_to_items&#45;&gt;funder -->
<g id="edge1" class="edge">
<title>funders_to_items:w&#45;&gt;funder:e</title>
<path fill="none" stroke="#000000" d="M208.4107,-135.4088C194.5669,-146.7596 195.3557,-174.7 171.5,-174.7"/>
<polygon fill="#000000" stroke="#000000" points="214.9125,-133.2358 223.6411,-134.1144 218.7063,-131.9679 222.5,-130.7 222.5,-130.7 222.5,-130.7 218.7063,-131.9679 221.3589,-127.2856 214.9125,-133.2358 214.9125,-133.2358"/>
<ellipse fill="none" stroke="#000000" cx="211.8775" cy="-134.2502" rx="3.2" ry="3.2"/>
</g>
<!-- item -->
<g id="node3" class="node">
<title>item</title>
<g id="a_node3"><a xlink:href="../../tables/item.html" xlink:title="item" target="_top">
<polygon fill="#ffffff" stroke="transparent" points="37,-38.2 37,-99.2 144,-99.2 144,-38.2 37,-38.2"/>
<polygon fill="#f5f5f5" stroke="transparent" points="37.5,-75.7 37.5,-98.7 144.5,-98.7 144.5,-75.7 37.5,-75.7"/>
<polygon fill="none" stroke="#000000" points="37.5,-75.7 37.5,-98.7 144.5,-98.7 144.5,-75.7 37.5,-75.7"/>
<text text-anchor="start" x="42.5" y="-84.8" font-family="Helvetica,sans-Serif" font-weight="bold" font-size="11.00" fill="#000000">item</text>
<text text-anchor="start" x="109.5437" y="-83.8" font-family="Helvetica,sans-Serif" font-size="11.00" fill="#000000">[table]</text>
<polygon fill="none" stroke="#000000" points="37.5,-56.7 37.5,-75.7 144.5,-75.7 144.5,-56.7 37.5,-56.7"/>
<text text-anchor="start" x="40.5" y="-62.8" font-family="Helvetica,sans-Serif" font-size="11.00" fill="#000000">...</text>
<polygon fill="#ffffff" stroke="transparent" points="37.5,-37.7 37.5,-56.7 58.5,-56.7 58.5,-37.7 37.5,-37.7"/>
<polygon fill="none" stroke="#000000" points="37.5,-37.7 37.5,-56.7 58.5,-56.7 58.5,-37.7 37.5,-37.7"/>
<text text-anchor="start" x="40.2027" y="-43.8" font-family="Helvetica,sans-Serif" font-size="11.00" fill="#000000">&lt; 2</text>
<polygon fill="#ffffff" stroke="transparent" points="58.5,-37.7 58.5,-56.7 117.5,-56.7 117.5,-37.7 58.5,-37.7"/>
<polygon fill="none" stroke="#000000" points="58.5,-37.7 58.5,-56.7 117.5,-56.7 117.5,-37.7 58.5,-37.7"/>
<text text-anchor="start" x="61.1045" y="-43.8" font-family="Helvetica,sans-Serif" font-size="11.00" fill="#000000">2,352 rows</text>
<polygon fill="#ffffff" stroke="transparent" points="117.5,-37.7 117.5,-56.7 144.5,-56.7 144.5,-37.7 117.5,-37.7"/>
<polygon fill="none" stroke="#000000" points="117.5,-37.7 117.5,-56.7 144.5,-56.7 144.5,-37.7 117.5,-37.7"/>
<text text-anchor="start" x="120.1452" y="-43.8" font-family="Helvetica,sans-Serif" font-size="11.00" fill="#000000">11 &gt;</text>
</a>
</g>
</g>
<!-- funders_to_items&#45;&gt;item -->
<g id="edge2" class="edge">
<title>funders_to_items:w&#45;&gt;item:e</title>
<path fill="none" stroke="#000000" d="M207.9911,-106.3881C182.4379,-97.4566 178.5188,-65.7 144.5,-65.7"/>
<polygon fill="#000000" stroke="#000000" points="214.5997,-107.4411 221.9335,-112.2552 218.5498,-108.0706 222.5,-108.7 222.5,-108.7 222.5,-108.7 218.5498,-108.0706 223.0665,-105.1448 214.5997,-107.4411 214.5997,-107.4411"/>
<ellipse fill="none" stroke="#000000" cx="211.4395" cy="-106.9375" rx="3.2" ry="3.2"/>
</g>
</g>
</svg>
