<?xml version="1.0" encoding="UTF-8" standalone="no"?>
<!DOCTYPE svg PUBLIC "-//W3C//DTD SVG 1.1//EN"
 "http://www.w3.org/Graphics/SVG/1.1/DTD/svg11.dtd">
<!-- Generated by graphviz version 2.40.1 (20161225.0304)
 -->
<!-- Title: oneDegreeRelationshipsDiagram Pages: 1 -->
<svg width="365pt" height="140pt"
 viewBox="0.00 0.00 365.00 140.20" xmlns="http://www.w3.org/2000/svg" xmlns:xlink="http://www.w3.org/1999/xlink">
<g id="graph0" class="graph" transform="scale(1 1) rotate(0) translate(4 136.2)">
<title>oneDegreeRelationshipsDiagram</title>
<polygon fill="#ffffff" stroke="transparent" points="-4,4 -4,-136.2 361,-136.2 361,4 -4,4"/>
<text text-anchor="middle" x="72.4936" y="-7.3" font-family="Helvetica,sans-Serif" font-size="11.00" fill="#000000">Generated by SchemaSpy</text>
<!-- funders_to_items -->
<g id="node1" class="node">
<title>funders_to_items</title>
<g id="a_node1"><a xlink:href="../../tables/funders_to_items.html" xlink:title="funders_to_items" target="_top">
<polygon fill="#ffffff" stroke="transparent" points="222,-40.2 222,-126.2 349,-126.2 349,-40.2 222,-40.2"/>
<polygon fill="#f5f5f5" stroke="transparent" points="222.5,-103.2 222.5,-126.2 349.5,-126.2 349.5,-103.2 222.5,-103.2"/>
<polygon fill="none" stroke="#000000" points="222.5,-103.2 222.5,-126.2 349.5,-126.2 349.5,-103.2 222.5,-103.2"/>
<text text-anchor="start" x="227.3227" y="-112.3" font-family="Helvetica,sans-Serif" font-weight="bold" font-size="11.00" fill="#000000">funders_to_items</text>
<text text-anchor="start" x="315.0219" y="-111.3" font-family="Helvetica,sans-Serif" font-size="11.00" fill="#000000">[table]</text>
<polygon fill="none" stroke="#000000" points="222.5,-81.2 222.5,-103.2 349.5,-103.2 349.5,-81.2 222.5,-81.2"/>
<image xlink:href="../../images/primaryKeys.png" width="11px" height="12px" preserveAspectRatio="xMinYMin meet" x="227.5" y="-98.2"/>
<text text-anchor="start" x="245.5" y="-88.3" font-family="Helvetica,sans-Serif" font-size="11.00" fill="#000000">funder</text>
<polygon fill="none" stroke="#000000" points="222.5,-59.2 222.5,-81.2 349.5,-81.2 349.5,-59.2 222.5,-59.2"/>
<image xlink:href="../../images/primaryKeys.png" width="11px" height="12px" preserveAspectRatio="xMinYMin meet" x="227.5" y="-76.2"/>
<text text-anchor="start" x="245.5" y="-66.3" font-family="Helvetica,sans-Serif" font-size="11.00" fill="#000000">item</text>
<polygon fill="#ffffff" stroke="transparent" points="222.5,-40.2 222.5,-59.2 260.5,-59.2 260.5,-40.2 222.5,-40.2"/>
<polygon fill="none" stroke="#000000" points="222.5,-40.2 222.5,-59.2 260.5,-59.2 260.5,-40.2 222.5,-40.2"/>
<text text-anchor="start" x="225.5" y="-46.3" font-family="Helvetica,sans-Serif" font-size="11.00" fill="#000000">&lt; 2</text>
<polygon fill="#ffffff" stroke="transparent" points="260.5,-40.2 260.5,-59.2 328.5,-59.2 328.5,-40.2 260.5,-40.2"/>
<polygon fill="none" stroke="#000000" points="260.5,-40.2 260.5,-59.2 328.5,-59.2 328.5,-40.2 260.5,-40.2"/>
<text text-anchor="start" x="271.7089" y="-46.3" font-family="Helvetica,sans-Serif" font-size="11.00" fill="#000000">3,210 rows</text>
<polygon fill="#ffffff" stroke="transparent" points="328.5,-40.2 328.5,-59.2 349.5,-59.2 349.5,-40.2 328.5,-40.2"/>
<polygon fill="none" stroke="#000000" points="328.5,-40.2 328.5,-59.2 349.5,-59.2 349.5,-40.2 328.5,-40.2"/>
<text text-anchor="start" x="340.3862" y="-46.3" font-family="Helvetica,sans-Serif" font-size="11.00" fill="#000000"> &#160;</text>
</a>
</g>
</g>
<!-- funder -->
<g id="node2" class="node">
<title>funder</title>
<g id="a_node2"><a xlink:href="../../tables/funder.html" xlink:title="funder" target="_top">
<polygon fill="#ffffff" stroke="transparent" points="8,-38.2 8,-128.2 173,-128.2 173,-38.2 8,-38.2"/>
<polygon fill="#f5f5f5" stroke="transparent" points="10.5,-103.2 10.5,-126.2 171.5,-126.2 171.5,-103.2 10.5,-103.2"/>
<polygon fill="none" stroke="#000000" points="10.5,-103.2 10.5,-126.2 171.5,-126.2 171.5,-103.2 10.5,-103.2"/>
<text text-anchor="start" x="15.5" y="-112.3" font-family="Helvetica,sans-Serif" font-weight="bold" font-size="11.00" fill="#000000">funder</text>
<text text-anchor="start" x="136.5437" y="-111.3" font-family="Helvetica,sans-Serif" font-size="11.00" fill="#000000">[table]</text>
<polygon fill="none" stroke="#000000" points="10.5,-81.2 10.5,-103.2 81.5,-103.2 81.5,-81.2 10.5,-81.2"/>
<image xlink:href="../../images/primaryKeys.png" width="11px" height="12px" preserveAspectRatio="xMinYMin meet" x="15.5" y="-98.2"/>
<text text-anchor="start" x="37.5" y="-88.3" font-family="Helvetica,sans-Serif" font-size="11.00" fill="#000000">id</text>
<polygon fill="none" stroke="#000000" points="81.5,-81.2 81.5,-103.2 171.5,-103.2 171.5,-81.2 81.5,-81.2"/>
<text text-anchor="start" x="84.5" y="-88.9" font-family="Helvetica,sans-Serif" font-size="11.00" fill="#000000">serial[10]</text>
<polygon fill="none" stroke="#000000" points="10.5,-59.2 10.5,-81.2 81.5,-81.2 81.5,-59.2 10.5,-59.2"/>
<text text-anchor="start" x="37.5" y="-66.3" font-family="Helvetica,sans-Serif" font-size="11.00" fill="#000000">name</text>
<polygon fill="none" stroke="#000000" points="81.5,-59.2 81.5,-81.2 171.5,-81.2 171.5,-59.2 81.5,-59.2"/>
<text text-anchor="start" x="84.0042" y="-66.9" font-family="Helvetica,sans-Serif" font-size="11.00" fill="#000000">text[2147483647]</text>
<polygon fill="#ffffff" stroke="transparent" points="10.5,-40.2 10.5,-59.2 31.5,-59.2 31.5,-40.2 10.5,-40.2"/>
<polygon fill="none" stroke="#000000" points="10.5,-40.2 10.5,-59.2 31.5,-59.2 31.5,-40.2 10.5,-40.2"/>
<text text-anchor="start" x="13.2027" y="-46.3" font-family="Helvetica,sans-Serif" font-size="11.00" fill="#000000">&lt; 0</text>
<polygon fill="#ffffff" stroke="transparent" points="31.5,-40.2 31.5,-59.2 81.5,-59.2 81.5,-40.2 31.5,-40.2"/>
<polygon fill="none" stroke="#000000" points="31.5,-40.2 31.5,-59.2 81.5,-59.2 81.5,-40.2 31.5,-40.2"/>
<text text-anchor="start" x="34.1903" y="-46.3" font-family="Helvetica,sans-Serif" font-size="11.00" fill="#000000">341 rows</text>
<polygon fill="#ffffff" stroke="transparent" points="81.5,-40.2 81.5,-59.2 171.5,-59.2 171.5,-40.2 81.5,-40.2"/>
<polygon fill="none" stroke="#000000" points="81.5,-40.2 81.5,-59.2 171.5,-59.2 171.5,-40.2 81.5,-40.2"/>
<text text-anchor="start" x="152.9053" y="-46.3" font-family="Helvetica,sans-Serif" font-size="11.00" fill="#000000">1 &gt;</text>
<polygon fill="none" stroke="#000000" stroke-width="2" points="9,-39.2 9,-127.2 172,-127.2 172,-39.2 9,-39.2"/>
</a>
</g>
</g>
<!-- funders_to_items&#45;&gt;funder -->
<g id="edge1" class="edge">
<title>funders_to_items:w&#45;&gt;funder:e</title>
<path fill="none" stroke="#000000" d="M207.776,-92.2C195.7815,-92.2 188.3229,-92.2 171.5,-92.2"/>
<polygon fill="#000000" stroke="#000000" points="214.5,-92.2001 222.5,-95.8 218.5,-92.2 222.5,-92.2 222.5,-92.2 222.5,-92.2 218.5,-92.2 222.5,-88.6 214.5,-92.2001 214.5,-92.2001"/>
<ellipse fill="none" stroke="#000000" cx="211.3" cy="-92.2001" rx="3.2" ry="3.2"/>
</g>
</g>
</svg>
