<?xml version="1.0" encoding="UTF-8" standalone="no"?>
<!DOCTYPE svg PUBLIC "-//W3C//DTD SVG 1.1//EN"
 "http://www.w3.org/Graphics/SVG/1.1/DTD/svg11.dtd">
<!-- Generated by graphviz version 2.40.1 (20161225.0304)
 -->
<!-- Title: twoDegreesRelationshipsDiagram Pages: 1 -->
<svg width="676pt" height="879pt"
 viewBox="0.00 0.00 676.00 879.20" xmlns="http://www.w3.org/2000/svg" xmlns:xlink="http://www.w3.org/1999/xlink">
<g id="graph0" class="graph" transform="scale(1 1) rotate(0) translate(4 875.2)">
<title>twoDegreesRelationshipsDiagram</title>
<polygon fill="#ffffff" stroke="transparent" points="-4,4 -4,-875.2 672,-875.2 672,4 -4,4"/>
<text text-anchor="middle" x="72.4936" y="-7.3" font-family="Helvetica,sans-Serif" font-size="11.00" fill="#000000">Generated by SchemaSpy</text>
<!-- authors_to_items -->
<g id="node1" class="node">
<title>authors_to_items</title>
<g id="a_node1"><a xlink:href="../../tables/authors_to_items.html" xlink:title="authors_to_items" target="_top">
<polygon fill="#ffffff" stroke="transparent" points="519.5,-642.2 519.5,-703.2 646.5,-703.2 646.5,-642.2 519.5,-642.2"/>
<polygon fill="#f5f5f5" stroke="transparent" points="520,-679.7 520,-702.7 647,-702.7 647,-679.7 520,-679.7"/>
<polygon fill="none" stroke="#000000" points="520,-679.7 520,-702.7 647,-702.7 647,-679.7 520,-679.7"/>
<text text-anchor="start" x="524.8227" y="-688.8" font-family="Helvetica,sans-Serif" font-weight="bold" font-size="11.00" fill="#000000">authors_to_items</text>
<text text-anchor="start" x="612.5219" y="-687.8" font-family="Helvetica,sans-Serif" font-size="11.00" fill="#000000">[table]</text>
<polygon fill="none" stroke="#000000" points="520,-660.7 520,-679.7 647,-679.7 647,-660.7 520,-660.7"/>
<text text-anchor="start" x="523" y="-666.8" font-family="Helvetica,sans-Serif" font-size="11.00" fill="#000000">...</text>
<polygon fill="#ffffff" stroke="transparent" points="520,-641.7 520,-660.7 558,-660.7 558,-641.7 520,-641.7"/>
<polygon fill="none" stroke="#000000" points="520,-641.7 520,-660.7 558,-660.7 558,-641.7 520,-641.7"/>
<text text-anchor="start" x="523" y="-647.8" font-family="Helvetica,sans-Serif" font-size="11.00" fill="#000000">&lt; 2</text>
<polygon fill="#ffffff" stroke="transparent" points="558,-641.7 558,-660.7 626,-660.7 626,-641.7 558,-641.7"/>
<polygon fill="none" stroke="#000000" points="558,-641.7 558,-660.7 626,-660.7 626,-641.7 558,-641.7"/>
<text text-anchor="start" x="569.2089" y="-647.8" font-family="Helvetica,sans-Serif" font-size="11.00" fill="#000000">2,850 rows</text>
<polygon fill="#ffffff" stroke="transparent" points="626,-641.7 626,-660.7 647,-660.7 647,-641.7 626,-641.7"/>
<polygon fill="none" stroke="#000000" points="626,-641.7 626,-660.7 647,-660.7 647,-641.7 626,-641.7"/>
<text text-anchor="start" x="637.8862" y="-647.8" font-family="Helvetica,sans-Serif" font-size="11.00" fill="#000000"> &#160;</text>
</a>
</g>
</g>
<!-- item -->
<g id="node2" class="node">
<title>item</title>
<g id="a_node2"><a xlink:href="../../tables/item.html" xlink:title="item" target="_top">
<polygon fill="#ffffff" stroke="transparent" points="144,-331.2 144,-458.2 457,-458.2 457,-331.2 144,-331.2"/>
<polygon fill="#f5f5f5" stroke="transparent" points="144.5,-434.7 144.5,-457.7 457.5,-457.7 457.5,-434.7 144.5,-434.7"/>
<polygon fill="none" stroke="#000000" points="144.5,-434.7 144.5,-457.7 457.5,-457.7 457.5,-434.7 144.5,-434.7"/>
<text text-anchor="start" x="149.5" y="-443.8" font-family="Helvetica,sans-Serif" font-weight="bold" font-size="11.00" fill="#000000">item</text>
<text text-anchor="start" x="422.5437" y="-442.8" font-family="Helvetica,sans-Serif" font-size="11.00" fill="#000000">[table]</text>
<polygon fill="none" stroke="#000000" points="144.5,-412.7 144.5,-434.7 457.5,-434.7 457.5,-412.7 144.5,-412.7"/>
<image xlink:href="../../images/primaryKeys.png" width="11px" height="12px" preserveAspectRatio="xMinYMin meet" x="149.5" y="-429.7"/>
<text text-anchor="start" x="164.5" y="-419.8" font-family="Helvetica,sans-Serif" font-size="11.00" fill="#000000">id</text>
<polygon fill="#ffffff" stroke="transparent" points="144.5,-390.7 144.5,-412.7 457.5,-412.7 457.5,-390.7 144.5,-390.7"/>
<polygon fill="none" stroke="#000000" points="144.5,-390.7 144.5,-412.7 457.5,-412.7 457.5,-390.7 144.5,-390.7"/>
<image xlink:href="../../images/foreignKeys.png" width="11px" height="12px" preserveAspectRatio="xMinYMin meet" x="149.5" y="-407.7"/>
<text text-anchor="start" x="164.5" y="-397.8" font-family="Helvetica,sans-Serif" font-size="11.00" fill="#000000">field_relationship</text>
<polygon fill="#ffffff" stroke="transparent" points="144.5,-368.7 144.5,-390.7 457.5,-390.7 457.5,-368.7 144.5,-368.7"/>
<polygon fill="none" stroke="#000000" points="144.5,-368.7 144.5,-390.7 457.5,-390.7 457.5,-368.7 144.5,-368.7"/>
<image xlink:href="../../images/foreignKeys.png" width="11px" height="12px" preserveAspectRatio="xMinYMin meet" x="149.5" y="-385.7"/>
<text text-anchor="start" x="164.5" y="-375.8" font-family="Helvetica,sans-Serif" font-size="11.00" fill="#000000">geo_specificity</text>
<polygon fill="none" stroke="#000000" points="144.5,-349.7 144.5,-368.7 457.5,-368.7 457.5,-349.7 144.5,-349.7"/>
<text text-anchor="start" x="147.5" y="-355.8" font-family="Helvetica,sans-Serif" font-size="11.00" fill="#000000">...</text>
<polygon fill="#ffffff" stroke="transparent" points="144.5,-330.7 144.5,-349.7 268.5,-349.7 268.5,-330.7 144.5,-330.7"/>
<polygon fill="none" stroke="#000000" points="144.5,-330.7 144.5,-349.7 268.5,-349.7 268.5,-330.7 144.5,-330.7"/>
<text text-anchor="start" x="147.5" y="-336.8" font-family="Helvetica,sans-Serif" font-size="11.00" fill="#000000">&lt; 2</text>
<polygon fill="#ffffff" stroke="transparent" points="268.5,-330.7 268.5,-349.7 378.5,-349.7 378.5,-330.7 268.5,-330.7"/>
<polygon fill="none" stroke="#000000" points="268.5,-330.7 268.5,-349.7 378.5,-349.7 378.5,-330.7 268.5,-330.7"/>
<text text-anchor="start" x="321.7089" y="-336.8" font-family="Helvetica,sans-Serif" font-size="11.00" fill="#000000">2,352 rows</text>
<polygon fill="#ffffff" stroke="transparent" points="378.5,-330.7 378.5,-349.7 457.5,-349.7 457.5,-330.7 378.5,-330.7"/>
<polygon fill="none" stroke="#000000" points="378.5,-330.7 378.5,-349.7 457.5,-349.7 457.5,-330.7 378.5,-330.7"/>
<text text-anchor="start" x="432.7904" y="-336.8" font-family="Helvetica,sans-Serif" font-size="11.00" fill="#000000">11 &gt;</text>
</a>
</g>
</g>
<!-- authors_to_items&#45;&gt;item -->
<g id="edge1" class="edge">
<title>authors_to_items:w&#45;&gt;item:e</title>
<path fill="none" stroke="#000000" d="M506.7743,-663.6191C472.0912,-625.7371 508.6156,-423.7 457.5,-423.7"/>
<polygon fill="#000000" stroke="#000000" points="512.7315,-666.358 518.4961,-672.9708 516.3657,-668.029 520,-669.7 520,-669.7 520,-669.7 516.3657,-668.029 521.5039,-666.4292 512.7315,-666.358 512.7315,-666.358"/>
<ellipse fill="none" stroke="#000000" cx="509.8241" cy="-665.0212" rx="3.2" ry="3.2"/>
</g>
<!-- optionset -->
<g id="node4" class="node">
<title>optionset</title>
<g id="a_node4"><a xlink:href="../../tables/optionset.html" xlink:title="optionset" target="_top">
<polygon fill="#ffffff" stroke="transparent" points="8,-363.2 8,-424.2 95,-424.2 95,-363.2 8,-363.2"/>
<polygon fill="#f5f5f5" stroke="transparent" points="8.5,-400.7 8.5,-423.7 95.5,-423.7 95.5,-400.7 8.5,-400.7"/>
<polygon fill="none" stroke="#000000" points="8.5,-400.7 8.5,-423.7 95.5,-423.7 95.5,-400.7 8.5,-400.7"/>
<text text-anchor="start" x="13.1854" y="-409.8" font-family="Helvetica,sans-Serif" font-weight="bold" font-size="11.00" fill="#000000">optionset</text>
<text text-anchor="start" x="61.0219" y="-408.8" font-family="Helvetica,sans-Serif" font-size="11.00" fill="#000000">[table]</text>
<polygon fill="none" stroke="#000000" points="8.5,-381.7 8.5,-400.7 95.5,-400.7 95.5,-381.7 8.5,-381.7"/>
<text text-anchor="start" x="11.5" y="-387.8" font-family="Helvetica,sans-Serif" font-size="11.00" fill="#000000">...</text>
<polygon fill="#ffffff" stroke="transparent" points="8.5,-362.7 8.5,-381.7 25.5,-381.7 25.5,-362.7 8.5,-362.7"/>
<polygon fill="none" stroke="#000000" points="8.5,-362.7 8.5,-381.7 25.5,-381.7 25.5,-362.7 8.5,-362.7"/>
<text text-anchor="start" x="11.5" y="-368.8" font-family="Helvetica,sans-Serif" font-size="11.00" fill="#000000"> &#160;</text>
<polygon fill="#ffffff" stroke="transparent" points="25.5,-362.7 25.5,-381.7 71.5,-381.7 71.5,-362.7 25.5,-362.7"/>
<polygon fill="none" stroke="#000000" points="25.5,-362.7 25.5,-381.7 71.5,-381.7 71.5,-362.7 25.5,-362.7"/>
<text text-anchor="start" x="29.9956" y="-368.8" font-family="Helvetica,sans-Serif" font-size="11.00" fill="#000000">47 rows</text>
<polygon fill="#ffffff" stroke="transparent" points="71.5,-362.7 71.5,-381.7 95.5,-381.7 95.5,-362.7 71.5,-362.7"/>
<polygon fill="none" stroke="#000000" points="71.5,-362.7 71.5,-381.7 95.5,-381.7 95.5,-362.7 71.5,-362.7"/>
<text text-anchor="start" x="76.9053" y="-368.8" font-family="Helvetica,sans-Serif" font-size="11.00" fill="#000000">6 &gt;</text>
</a>
</g>
</g>
<!-- item&#45;&gt;optionset -->
<g id="edge9" class="edge">
<title>item:w&#45;&gt;optionset:e</title>
<path fill="none" stroke="#000000" d="M130.2027,-399.8836C118.7382,-396.7593 112.0655,-390.7 95.5,-390.7"/>
<polygon fill="#000000" stroke="#000000" points="136.5638,-400.6917 144.0463,-405.2713 140.5319,-401.1958 144.5,-401.7 144.5,-401.7 144.5,-401.7 140.5319,-401.1958 144.9537,-398.1287 136.5638,-400.6917 136.5638,-400.6917"/>
<ellipse fill="none" stroke="#000000" cx="133.3893" cy="-400.2884" rx="3.2" ry="3.2"/>
</g>
<!-- item&#45;&gt;optionset -->
<g id="edge10" class="edge">
<title>item:w&#45;&gt;optionset:e</title>
<path fill="none" stroke="#000000" d="M130.2027,-381.5164C118.7382,-384.6407 112.0655,-390.7 95.5,-390.7"/>
<polygon fill="#000000" stroke="#000000" points="136.5638,-380.7083 144.9537,-383.2713 140.5319,-380.2042 144.5,-379.7 144.5,-379.7 144.5,-379.7 140.5319,-380.2042 144.0463,-376.1287 136.5638,-380.7083 136.5638,-380.7083"/>
<ellipse fill="none" stroke="#000000" cx="133.3893" cy="-381.1116" rx="3.2" ry="3.2"/>
</g>
<!-- covid_tags_to_items -->
<g id="node3" class="node">
<title>covid_tags_to_items</title>
<g id="a_node3"><a xlink:href="../../tables/covid_tags_to_items.html" xlink:title="covid_tags_to_items" target="_top">
<polygon fill="#ffffff" stroke="transparent" points="511.5,-806.2 511.5,-867.2 654.5,-867.2 654.5,-806.2 511.5,-806.2"/>
<polygon fill="#f5f5f5" stroke="transparent" points="512,-843.7 512,-866.7 655,-866.7 655,-843.7 512,-843.7"/>
<polygon fill="none" stroke="#000000" points="512,-843.7 512,-866.7 655,-866.7 655,-843.7 512,-843.7"/>
<text text-anchor="start" x="516.8758" y="-852.8" font-family="Helvetica,sans-Serif" font-weight="bold" font-size="11.00" fill="#000000">covid_tags_to_items</text>
<text text-anchor="start" x="620.5219" y="-851.8" font-family="Helvetica,sans-Serif" font-size="11.00" fill="#000000">[table]</text>
<polygon fill="none" stroke="#000000" points="512,-824.7 512,-843.7 655,-843.7 655,-824.7 512,-824.7"/>
<text text-anchor="start" x="515" y="-830.8" font-family="Helvetica,sans-Serif" font-size="11.00" fill="#000000">...</text>
<polygon fill="#ffffff" stroke="transparent" points="512,-805.7 512,-824.7 558,-824.7 558,-805.7 512,-805.7"/>
<polygon fill="none" stroke="#000000" points="512,-805.7 512,-824.7 558,-824.7 558,-805.7 512,-805.7"/>
<text text-anchor="start" x="515" y="-811.8" font-family="Helvetica,sans-Serif" font-size="11.00" fill="#000000">&lt; 2</text>
<polygon fill="#ffffff" stroke="transparent" points="558,-805.7 558,-824.7 630,-824.7 630,-805.7 558,-805.7"/>
<polygon fill="none" stroke="#000000" points="558,-805.7 558,-824.7 630,-824.7 630,-805.7 558,-805.7"/>
<text text-anchor="start" x="573.2089" y="-811.8" font-family="Helvetica,sans-Serif" font-size="11.00" fill="#000000">4,810 rows</text>
<polygon fill="#ffffff" stroke="transparent" points="630,-805.7 630,-824.7 655,-824.7 655,-805.7 630,-805.7"/>
<polygon fill="none" stroke="#000000" points="630,-805.7 630,-824.7 655,-824.7 655,-805.7 630,-805.7"/>
<text text-anchor="start" x="645.8862" y="-811.8" font-family="Helvetica,sans-Serif" font-size="11.00" fill="#000000"> &#160;</text>
</a>
</g>
</g>
<!-- covid_tags_to_items&#45;&gt;item -->
<g id="edge3" class="edge">
<title>covid_tags_to_items:w&#45;&gt;item:e</title>
<path fill="none" stroke="#000000" d="M498.0332,-829.6421C434.4832,-787.0607 544.027,-423.7 457.5,-423.7"/>
<polygon fill="#000000" stroke="#000000" points="504.3177,-831.4679 510.9956,-837.157 508.1588,-832.584 512,-833.7 512,-833.7 512,-833.7 508.1588,-832.584 513.0044,-830.243 504.3177,-831.4679 504.3177,-831.4679"/>
<ellipse fill="none" stroke="#000000" cx="501.2447" cy="-830.5751" rx="3.2" ry="3.2"/>
</g>
<!-- covid_tags_to_items&#45;&gt;optionset -->
<g id="edge2" class="edge">
<title>covid_tags_to_items:w&#45;&gt;optionset:e</title>
<path fill="none" stroke="#000000" d="M497.3547,-833.5693C313.0216,-830.2192 244.4811,-762.2614 136,-605.7 108.3102,-565.7376 144.1181,-390.7 95.5,-390.7"/>
<polygon fill="#000000" stroke="#000000" points="504.0003,-833.6286 511.9678,-837.2999 508.0002,-833.6643 512,-833.7 512,-833.7 512,-833.7 508.0002,-833.6643 512.0322,-830.1001 504.0003,-833.6286 504.0003,-833.6286"/>
<ellipse fill="none" stroke="#000000" cx="500.8004" cy="-833.6" rx="3.2" ry="3.2"/>
</g>
<!-- covid_topics_to_items -->
<g id="node5" class="node">
<title>covid_topics_to_items</title>
<g id="a_node5"><a xlink:href="../../tables/covid_topics_to_items.html" xlink:title="covid_topics_to_items" target="_top">
<polygon fill="#ffffff" stroke="transparent" points="507.5,-724.2 507.5,-785.2 658.5,-785.2 658.5,-724.2 507.5,-724.2"/>
<polygon fill="#f5f5f5" stroke="transparent" points="508,-761.7 508,-784.7 659,-784.7 659,-761.7 508,-761.7"/>
<polygon fill="none" stroke="#000000" points="508,-761.7 508,-784.7 659,-784.7 659,-761.7 508,-761.7"/>
<text text-anchor="start" x="512.9053" y="-770.8" font-family="Helvetica,sans-Serif" font-weight="bold" font-size="11.00" fill="#000000">covid_topics_to_items</text>
<text text-anchor="start" x="624.5219" y="-769.8" font-family="Helvetica,sans-Serif" font-size="11.00" fill="#000000">[table]</text>
<polygon fill="none" stroke="#000000" points="508,-742.7 508,-761.7 659,-761.7 659,-742.7 508,-742.7"/>
<text text-anchor="start" x="511" y="-748.8" font-family="Helvetica,sans-Serif" font-size="11.00" fill="#000000">...</text>
<polygon fill="#ffffff" stroke="transparent" points="508,-723.7 508,-742.7 569,-742.7 569,-723.7 508,-723.7"/>
<polygon fill="none" stroke="#000000" points="508,-723.7 508,-742.7 569,-742.7 569,-723.7 508,-723.7"/>
<text text-anchor="start" x="511" y="-729.8" font-family="Helvetica,sans-Serif" font-size="11.00" fill="#000000">&lt; 2</text>
<polygon fill="#ffffff" stroke="transparent" points="569,-723.7 569,-742.7 627,-742.7 627,-723.7 569,-723.7"/>
<polygon fill="none" stroke="#000000" points="569,-723.7 569,-742.7 627,-742.7 627,-723.7 569,-723.7"/>
<text text-anchor="start" x="591.6105" y="-729.8" font-family="Helvetica,sans-Serif" font-size="11.00" fill="#000000">0 rows</text>
<polygon fill="#ffffff" stroke="transparent" points="627,-723.7 627,-742.7 659,-742.7 659,-723.7 627,-723.7"/>
<polygon fill="none" stroke="#000000" points="627,-723.7 627,-742.7 659,-742.7 659,-723.7 627,-723.7"/>
<text text-anchor="start" x="649.8862" y="-729.8" font-family="Helvetica,sans-Serif" font-size="11.00" fill="#000000"> &#160;</text>
</a>
</g>
</g>
<!-- covid_topics_to_items&#45;&gt;item -->
<g id="edge5" class="edge">
<title>covid_topics_to_items:w&#45;&gt;item:e</title>
<path fill="none" stroke="#000000" d="M494.2616,-746.5479C447.7095,-704.8193 525.7743,-423.7 457.5,-423.7"/>
<polygon fill="#000000" stroke="#000000" points="500.5094,-748.8909 506.7359,-755.0708 504.2547,-750.2954 508,-751.7 508,-751.7 508,-751.7 504.2547,-750.2954 509.2641,-748.3292 500.5094,-748.8909 500.5094,-748.8909"/>
<ellipse fill="none" stroke="#000000" cx="497.5132" cy="-747.7672" rx="3.2" ry="3.2"/>
</g>
<!-- covid_topics_to_items&#45;&gt;optionset -->
<g id="edge4" class="edge">
<title>covid_topics_to_items:w&#45;&gt;optionset:e</title>
<path fill="none" stroke="#000000" d="M494.5416,-745.9459C426.5608,-707.3252 151.2525,-486.8201 136,-468.7 110.8456,-438.8163 134.5612,-390.7 95.5,-390.7"/>
<polygon fill="#000000" stroke="#000000" points="500.6441,-748.555 506.5847,-755.0101 504.3221,-750.1275 508,-751.7 508,-751.7 508,-751.7 504.3221,-750.1275 509.4153,-748.3899 500.6441,-748.555 500.6441,-748.555"/>
<ellipse fill="none" stroke="#000000" cx="497.7018" cy="-747.297" rx="3.2" ry="3.2"/>
</g>
<!-- events_to_items -->
<g id="node6" class="node">
<title>events_to_items</title>
<g id="a_node6"><a xlink:href="../../tables/events_to_items.html" xlink:title="events_to_items" target="_top">
<polygon fill="#ffffff" stroke="transparent" points="521.5,-560.2 521.5,-621.2 644.5,-621.2 644.5,-560.2 521.5,-560.2"/>
<polygon fill="#f5f5f5" stroke="transparent" points="522,-597.7 522,-620.7 645,-620.7 645,-597.7 522,-597.7"/>
<polygon fill="none" stroke="#000000" points="522,-597.7 522,-620.7 645,-620.7 645,-597.7 522,-597.7"/>
<text text-anchor="start" x="526.9611" y="-606.8" font-family="Helvetica,sans-Serif" font-weight="bold" font-size="11.00" fill="#000000">events_to_items</text>
<text text-anchor="start" x="610.5219" y="-605.8" font-family="Helvetica,sans-Serif" font-size="11.00" fill="#000000">[table]</text>
<polygon fill="none" stroke="#000000" points="522,-578.7 522,-597.7 645,-597.7 645,-578.7 522,-578.7"/>
<text text-anchor="start" x="525" y="-584.8" font-family="Helvetica,sans-Serif" font-size="11.00" fill="#000000">...</text>
<polygon fill="#ffffff" stroke="transparent" points="522,-559.7 522,-578.7 558,-578.7 558,-559.7 522,-559.7"/>
<polygon fill="none" stroke="#000000" points="522,-559.7 522,-578.7 558,-578.7 558,-559.7 522,-559.7"/>
<text text-anchor="start" x="525" y="-565.8" font-family="Helvetica,sans-Serif" font-size="11.00" fill="#000000">&lt; 2</text>
<polygon fill="#ffffff" stroke="transparent" points="558,-559.7 558,-578.7 625,-578.7 625,-559.7 558,-559.7"/>
<polygon fill="none" stroke="#000000" points="558,-559.7 558,-578.7 625,-578.7 625,-559.7 558,-559.7"/>
<text text-anchor="start" x="568.2089" y="-565.8" font-family="Helvetica,sans-Serif" font-size="11.00" fill="#000000">1,091 rows</text>
<polygon fill="#ffffff" stroke="transparent" points="625,-559.7 625,-578.7 645,-578.7 645,-559.7 625,-559.7"/>
<polygon fill="none" stroke="#000000" points="625,-559.7 625,-578.7 645,-578.7 645,-559.7 625,-559.7"/>
<text text-anchor="start" x="635.8862" y="-565.8" font-family="Helvetica,sans-Serif" font-size="11.00" fill="#000000"> &#160;</text>
</a>
</g>
</g>
<!-- events_to_items&#45;&gt;item -->
<g id="edge6" class="edge">
<title>events_to_items:w&#45;&gt;item:e</title>
<path fill="none" stroke="#000000" d="M507.5618,-585.2544C456.1044,-564.8533 530.1634,-423.7 457.5,-423.7"/>
<polygon fill="#000000" stroke="#000000" points="514.1124,-586.3639 521.3988,-591.2494 518.0562,-587.032 522,-587.7 522,-587.7 522,-587.7 518.0562,-587.032 522.6012,-584.1506 514.1124,-586.3639 514.1124,-586.3639"/>
<ellipse fill="none" stroke="#000000" cx="510.9573" cy="-585.8295" rx="3.2" ry="3.2"/>
</g>
<!-- files_to_items -->
<g id="node7" class="node">
<title>files_to_items</title>
<g id="a_node7"><a xlink:href="../../tables/files_to_items.html" xlink:title="files_to_items" target="_top">
<polygon fill="#ffffff" stroke="transparent" points="528,-478.2 528,-539.2 638,-539.2 638,-478.2 528,-478.2"/>
<polygon fill="#f5f5f5" stroke="transparent" points="528,-515.7 528,-538.7 638,-538.7 638,-515.7 528,-515.7"/>
<polygon fill="none" stroke="#000000" points="528,-515.7 528,-538.7 638,-538.7 638,-515.7 528,-515.7"/>
<text text-anchor="start" x="532.8851" y="-524.8" font-family="Helvetica,sans-Serif" font-weight="bold" font-size="11.00" fill="#000000">files_to_items</text>
<text text-anchor="start" x="603.5219" y="-523.8" font-family="Helvetica,sans-Serif" font-size="11.00" fill="#000000">[table]</text>
<polygon fill="none" stroke="#000000" points="528,-496.7 528,-515.7 638,-515.7 638,-496.7 528,-496.7"/>
<text text-anchor="start" x="531" y="-502.8" font-family="Helvetica,sans-Serif" font-size="11.00" fill="#000000">...</text>
<polygon fill="#ffffff" stroke="transparent" points="528,-477.7 528,-496.7 558,-496.7 558,-477.7 528,-477.7"/>
<polygon fill="none" stroke="#000000" points="528,-477.7 528,-496.7 558,-496.7 558,-477.7 528,-477.7"/>
<text text-anchor="start" x="531" y="-483.8" font-family="Helvetica,sans-Serif" font-size="11.00" fill="#000000">&lt; 2</text>
<polygon fill="#ffffff" stroke="transparent" points="558,-477.7 558,-496.7 621,-496.7 621,-477.7 558,-477.7"/>
<polygon fill="none" stroke="#000000" points="558,-477.7 558,-496.7 621,-496.7 621,-477.7 558,-477.7"/>
<text text-anchor="start" x="564.2089" y="-483.8" font-family="Helvetica,sans-Serif" font-size="11.00" fill="#000000">1,994 rows</text>
<polygon fill="#ffffff" stroke="transparent" points="621,-477.7 621,-496.7 638,-496.7 638,-477.7 621,-477.7"/>
<polygon fill="none" stroke="#000000" points="621,-477.7 621,-496.7 638,-496.7 638,-477.7 621,-477.7"/>
<text text-anchor="start" x="628.8862" y="-483.8" font-family="Helvetica,sans-Serif" font-size="11.00" fill="#000000"> &#160;</text>
</a>
</g>
</g>
<!-- files_to_items&#45;&gt;item -->
<g id="edge7" class="edge">
<title>files_to_items:w&#45;&gt;item:e</title>
<path fill="none" stroke="#000000" d="M513.9018,-502.5856C484.9316,-487.6073 499.9299,-423.7 457.5,-423.7"/>
<polygon fill="#000000" stroke="#000000" points="520.1883,-503.9743 527.2234,-509.2153 524.0942,-504.8372 528,-505.7 528,-505.7 528,-505.7 524.0942,-504.8372 528.7766,-502.1847 520.1883,-503.9743 520.1883,-503.9743"/>
<ellipse fill="none" stroke="#000000" cx="517.0637" cy="-503.2841" rx="3.2" ry="3.2"/>
</g>
<!-- funders_to_items -->
<g id="node8" class="node">
<title>funders_to_items</title>
<g id="a_node8"><a xlink:href="../../tables/funders_to_items.html" xlink:title="funders_to_items" target="_top">
<polygon fill="#ffffff" stroke="transparent" points="519.5,-396.2 519.5,-457.2 646.5,-457.2 646.5,-396.2 519.5,-396.2"/>
<polygon fill="#f5f5f5" stroke="transparent" points="520,-433.7 520,-456.7 647,-456.7 647,-433.7 520,-433.7"/>
<polygon fill="none" stroke="#000000" points="520,-433.7 520,-456.7 647,-456.7 647,-433.7 520,-433.7"/>
<text text-anchor="start" x="524.8227" y="-442.8" font-family="Helvetica,sans-Serif" font-weight="bold" font-size="11.00" fill="#000000">funders_to_items</text>
<text text-anchor="start" x="612.5219" y="-441.8" font-family="Helvetica,sans-Serif" font-size="11.00" fill="#000000">[table]</text>
<polygon fill="none" stroke="#000000" points="520,-414.7 520,-433.7 647,-433.7 647,-414.7 520,-414.7"/>
<text text-anchor="start" x="523" y="-420.8" font-family="Helvetica,sans-Serif" font-size="11.00" fill="#000000">...</text>
<polygon fill="#ffffff" stroke="transparent" points="520,-395.7 520,-414.7 558,-414.7 558,-395.7 520,-395.7"/>
<polygon fill="none" stroke="#000000" points="520,-395.7 520,-414.7 558,-414.7 558,-395.7 520,-395.7"/>
<text text-anchor="start" x="523" y="-401.8" font-family="Helvetica,sans-Serif" font-size="11.00" fill="#000000">&lt; 2</text>
<polygon fill="#ffffff" stroke="transparent" points="558,-395.7 558,-414.7 626,-414.7 626,-395.7 558,-395.7"/>
<polygon fill="none" stroke="#000000" points="558,-395.7 558,-414.7 626,-414.7 626,-395.7 558,-395.7"/>
<text text-anchor="start" x="569.2089" y="-401.8" font-family="Helvetica,sans-Serif" font-size="11.00" fill="#000000">3,210 rows</text>
<polygon fill="#ffffff" stroke="transparent" points="626,-395.7 626,-414.7 647,-414.7 647,-395.7 626,-395.7"/>
<polygon fill="none" stroke="#000000" points="626,-395.7 626,-414.7 647,-414.7 647,-395.7 626,-395.7"/>
<text text-anchor="start" x="637.8862" y="-401.8" font-family="Helvetica,sans-Serif" font-size="11.00" fill="#000000"> &#160;</text>
</a>
</g>
</g>
<!-- funders_to_items&#45;&gt;item -->
<g id="edge8" class="edge">
<title>funders_to_items:w&#45;&gt;item:e</title>
<path fill="none" stroke="#000000" d="M505.3024,-423.7C488.5415,-423.7 479.6354,-423.7 457.5,-423.7"/>
<polygon fill="#000000" stroke="#000000" points="512,-423.7001 520,-427.3 516,-423.7 520,-423.7 520,-423.7 520,-423.7 516,-423.7 520,-420.1 512,-423.7001 512,-423.7001"/>
<ellipse fill="none" stroke="#000000" cx="508.8" cy="-423.7001" rx="3.2" ry="3.2"/>
</g>
<!-- items_to_items -->
<g id="node9" class="node">
<title>items_to_items</title>
<g id="a_node9"><a xlink:href="../../tables/items_to_items.html" xlink:title="items_to_items" target="_top">
<polygon fill="#ffffff" stroke="transparent" points="506,-284.7 506,-374.7 660,-374.7 660,-284.7 506,-284.7"/>
<polygon fill="#f5f5f5" stroke="transparent" points="508,-349.7 508,-372.7 658,-372.7 658,-349.7 508,-349.7"/>
<polygon fill="none" stroke="#000000" points="508,-349.7 508,-372.7 658,-372.7 658,-349.7 508,-349.7"/>
<text text-anchor="start" x="513" y="-358.8" font-family="Helvetica,sans-Serif" font-weight="bold" font-size="11.00" fill="#000000">items_to_items</text>
<text text-anchor="start" x="623.0437" y="-357.8" font-family="Helvetica,sans-Serif" font-size="11.00" fill="#000000">[table]</text>
<polygon fill="none" stroke="#000000" points="508,-327.7 508,-349.7 616,-349.7 616,-327.7 508,-327.7"/>
<image xlink:href="../../images/primaryKeys.png" width="11px" height="12px" preserveAspectRatio="xMinYMin meet" x="513" y="-344.7"/>
<text text-anchor="start" x="528" y="-334.8" font-family="Helvetica,sans-Serif" font-size="11.00" fill="#000000">item</text>
<polygon fill="none" stroke="#000000" points="616,-327.7 616,-349.7 658,-349.7 658,-327.7 616,-327.7"/>
<text text-anchor="start" x="618.9644" y="-335.4" font-family="Helvetica,sans-Serif" font-size="11.00" fill="#000000">int4[10]</text>
<polygon fill="none" stroke="#000000" points="508,-305.7 508,-327.7 616,-327.7 616,-305.7 508,-305.7"/>
<image xlink:href="../../images/primaryKeys.png" width="11px" height="12px" preserveAspectRatio="xMinYMin meet" x="513" y="-322.7"/>
<text text-anchor="start" x="528" y="-312.8" font-family="Helvetica,sans-Serif" font-size="11.00" fill="#000000">item_2</text>
<polygon fill="none" stroke="#000000" points="616,-305.7 616,-327.7 658,-327.7 658,-305.7 616,-305.7"/>
<text text-anchor="start" x="618.9644" y="-313.4" font-family="Helvetica,sans-Serif" font-size="11.00" fill="#000000">int4[10]</text>
<polygon fill="#ffffff" stroke="transparent" points="508,-286.7 508,-305.7 543,-305.7 543,-286.7 508,-286.7"/>
<polygon fill="none" stroke="#000000" points="508,-286.7 508,-305.7 543,-305.7 543,-286.7 508,-286.7"/>
<text text-anchor="start" x="511" y="-292.8" font-family="Helvetica,sans-Serif" font-size="11.00" fill="#000000">&lt; 2</text>
<polygon fill="#ffffff" stroke="transparent" points="543,-286.7 543,-305.7 616,-305.7 616,-286.7 543,-286.7"/>
<polygon fill="none" stroke="#000000" points="543,-286.7 543,-305.7 616,-305.7 616,-286.7 543,-286.7"/>
<text text-anchor="start" x="559.2089" y="-292.8" font-family="Helvetica,sans-Serif" font-size="11.00" fill="#000000">1,288 rows</text>
<polygon fill="#ffffff" stroke="transparent" points="616,-286.7 616,-305.7 658,-305.7 658,-286.7 616,-286.7"/>
<polygon fill="none" stroke="#000000" points="616,-286.7 616,-305.7 658,-305.7 658,-286.7 616,-286.7"/>
<text text-anchor="start" x="639.4053" y="-292.8" font-family="Helvetica,sans-Serif" font-size="11.00" fill="#000000">0 &gt;</text>
<polygon fill="none" stroke="#000000" stroke-width="2" points="507,-285.7 507,-373.7 659,-373.7 659,-285.7 507,-285.7"/>
</a>
</g>
</g>
<!-- items_to_items&#45;&gt;item -->
<g id="edge11" class="edge">
<title>items_to_items:w&#45;&gt;item:e</title>
<path fill="none" stroke="#000000" d="M494.1216,-343.032C472.76,-360.3534 495.4344,-423.7 457.5,-423.7"/>
<polygon fill="#000000" stroke="#000000" points="500.3634,-341.0837 509.0727,-342.1365 504.1817,-339.8919 508,-338.7 508,-338.7 508,-338.7 504.1817,-339.8919 506.9273,-335.2635 500.3634,-341.0837 500.3634,-341.0837"/>
<ellipse fill="none" stroke="#000000" cx="497.3087" cy="-342.0372" rx="3.2" ry="3.2"/>
</g>
<!-- items_to_items&#45;&gt;item -->
<g id="edge12" class="edge">
<title>items_to_items:w&#45;&gt;item:e</title>
<path fill="none" stroke="#000000" d="M493.9464,-320.5082C466.4242,-339.5691 504.129,-423.7 457.5,-423.7"/>
<polygon fill="#000000" stroke="#000000" points="500.2785,-318.7924 508.9416,-320.1747 504.1392,-317.7462 508,-316.7 508,-316.7 508,-316.7 504.1392,-317.7462 507.0584,-313.2253 500.2785,-318.7924 500.2785,-318.7924"/>
<ellipse fill="none" stroke="#000000" cx="497.1898" cy="-319.6293" rx="3.2" ry="3.2"/>
</g>
<!-- key_topics_to_items -->
<g id="node10" class="node">
<title>key_topics_to_items</title>
<g id="a_node10"><a xlink:href="../../tables/key_topics_to_items.html" xlink:title="key_topics_to_items" target="_top">
<polygon fill="#ffffff" stroke="transparent" points="512,-120.2 512,-181.2 654,-181.2 654,-120.2 512,-120.2"/>
<polygon fill="#f5f5f5" stroke="transparent" points="512,-157.7 512,-180.7 654,-180.7 654,-157.7 512,-157.7"/>
<polygon fill="none" stroke="#000000" points="512,-157.7 512,-180.7 654,-180.7 654,-157.7 512,-157.7"/>
<text text-anchor="start" x="516.6832" y="-166.8" font-family="Helvetica,sans-Serif" font-weight="bold" font-size="11.00" fill="#000000">key_topics_to_items</text>
<text text-anchor="start" x="619.5219" y="-165.8" font-family="Helvetica,sans-Serif" font-size="11.00" fill="#000000">[table]</text>
<polygon fill="none" stroke="#000000" points="512,-138.7 512,-157.7 654,-157.7 654,-138.7 512,-138.7"/>
<text text-anchor="start" x="515" y="-144.8" font-family="Helvetica,sans-Serif" font-size="11.00" fill="#000000">...</text>
<polygon fill="#ffffff" stroke="transparent" points="512,-119.7 512,-138.7 558,-138.7 558,-119.7 512,-119.7"/>
<polygon fill="none" stroke="#000000" points="512,-119.7 512,-138.7 558,-138.7 558,-119.7 512,-119.7"/>
<text text-anchor="start" x="515" y="-125.8" font-family="Helvetica,sans-Serif" font-size="11.00" fill="#000000">&lt; 2</text>
<polygon fill="#ffffff" stroke="transparent" points="558,-119.7 558,-138.7 629,-138.7 629,-119.7 558,-119.7"/>
<polygon fill="none" stroke="#000000" points="558,-119.7 558,-138.7 629,-138.7 629,-119.7 558,-119.7"/>
<text text-anchor="start" x="572.2089" y="-125.8" font-family="Helvetica,sans-Serif" font-size="11.00" fill="#000000">2,352 rows</text>
<polygon fill="#ffffff" stroke="transparent" points="629,-119.7 629,-138.7 654,-138.7 654,-119.7 629,-119.7"/>
<polygon fill="none" stroke="#000000" points="629,-119.7 629,-138.7 654,-138.7 654,-119.7 629,-119.7"/>
<text text-anchor="start" x="644.8862" y="-125.8" font-family="Helvetica,sans-Serif" font-size="11.00" fill="#000000"> &#160;</text>
</a>
</g>
</g>
<!-- key_topics_to_items&#45;&gt;item -->
<g id="edge13" class="edge">
<title>key_topics_to_items:w&#45;&gt;item:e</title>
<path fill="none" stroke="#000000" d="M498.6612,-153.4647C460.623,-193.0992 514.645,-423.7 457.5,-423.7"/>
<polygon fill="#000000" stroke="#000000" points="504.6564,-150.8737 513.4282,-151.0046 508.3282,-149.2869 512,-147.7 512,-147.7 512,-147.7 508.3282,-149.2869 510.5718,-144.3954 504.6564,-150.8737 504.6564,-150.8737"/>
<ellipse fill="none" stroke="#000000" cx="501.719" cy="-152.1432" rx="3.2" ry="3.2"/>
</g>
<!-- key_topics_to_items&#45;&gt;optionset -->
<g id="edge14" class="edge">
<title>key_topics_to_items:w&#45;&gt;optionset:e</title>
<path fill="none" stroke="#000000" d="M497.4524,-147.8068C324.9806,-150.3929 268.3443,-200.1598 136,-320.7 109.427,-344.9029 131.443,-390.7 95.5,-390.7"/>
<polygon fill="#000000" stroke="#000000" points="504.0002,-147.7588 512.0265,-151.2999 508.0001,-147.7294 512,-147.7 512,-147.7 512,-147.7 508.0001,-147.7294 511.9735,-144.1001 504.0002,-147.7588 504.0002,-147.7588"/>
<ellipse fill="none" stroke="#000000" cx="500.8003" cy="-147.7823" rx="3.2" ry="3.2"/>
</g>
<!-- related_files_to_items -->
<g id="node11" class="node">
<title>related_files_to_items</title>
<g id="a_node11"><a xlink:href="../../tables/related_files_to_items.html" xlink:title="related_files_to_items" target="_top">
<polygon fill="#ffffff" stroke="transparent" points="508.5,-202.2 508.5,-263.2 657.5,-263.2 657.5,-202.2 508.5,-202.2"/>
<polygon fill="#f5f5f5" stroke="transparent" points="509,-239.7 509,-262.7 658,-262.7 658,-239.7 509,-239.7"/>
<polygon fill="none" stroke="#000000" points="509,-239.7 509,-262.7 658,-262.7 658,-239.7 509,-239.7"/>
<text text-anchor="start" x="513.518" y="-248.8" font-family="Helvetica,sans-Serif" font-weight="bold" font-size="11.00" fill="#000000">related_files_to_items</text>
<text text-anchor="start" x="623.5219" y="-247.8" font-family="Helvetica,sans-Serif" font-size="11.00" fill="#000000">[table]</text>
<polygon fill="none" stroke="#000000" points="509,-220.7 509,-239.7 658,-239.7 658,-220.7 509,-220.7"/>
<text text-anchor="start" x="512" y="-226.8" font-family="Helvetica,sans-Serif" font-size="11.00" fill="#000000">...</text>
<polygon fill="#ffffff" stroke="transparent" points="509,-201.7 509,-220.7 563,-220.7 563,-201.7 509,-201.7"/>
<polygon fill="none" stroke="#000000" points="509,-201.7 509,-220.7 563,-220.7 563,-201.7 509,-201.7"/>
<text text-anchor="start" x="512" y="-207.8" font-family="Helvetica,sans-Serif" font-size="11.00" fill="#000000">&lt; 2</text>
<polygon fill="#ffffff" stroke="transparent" points="563,-201.7 563,-220.7 629,-220.7 629,-201.7 563,-201.7"/>
<polygon fill="none" stroke="#000000" points="563,-201.7 563,-220.7 629,-220.7 629,-201.7 563,-201.7"/>
<text text-anchor="start" x="581.3807" y="-207.8" font-family="Helvetica,sans-Serif" font-size="11.00" fill="#000000">115 rows</text>
<polygon fill="#ffffff" stroke="transparent" points="629,-201.7 629,-220.7 658,-220.7 658,-201.7 629,-201.7"/>
<polygon fill="none" stroke="#000000" points="629,-201.7 629,-220.7 658,-220.7 658,-201.7 629,-201.7"/>
<text text-anchor="start" x="648.8862" y="-207.8" font-family="Helvetica,sans-Serif" font-size="11.00" fill="#000000"> &#160;</text>
</a>
</g>
</g>
<!-- related_files_to_items&#45;&gt;item -->
<g id="edge15" class="edge">
<title>related_files_to_items:w&#45;&gt;item:e</title>
<path fill="none" stroke="#000000" d="M494.7006,-231.8787C434.8118,-253.1922 541.1331,-423.7 457.5,-423.7"/>
<polygon fill="#000000" stroke="#000000" points="501.0913,-230.905 509.5423,-233.2589 505.0456,-230.3025 509,-229.7 509,-229.7 509,-229.7 505.0456,-230.3025 508.4577,-226.1411 501.0913,-230.905 501.0913,-230.905"/>
<ellipse fill="none" stroke="#000000" cx="497.9278" cy="-231.3871" rx="3.2" ry="3.2"/>
</g>
<!-- tags_to_items -->
<g id="node12" class="node">
<title>tags_to_items</title>
<g id="a_node12"><a xlink:href="../../tables/tags_to_items.html" xlink:title="tags_to_items" target="_top">
<polygon fill="#ffffff" stroke="transparent" points="527.5,-38.2 527.5,-99.2 638.5,-99.2 638.5,-38.2 527.5,-38.2"/>
<polygon fill="#f5f5f5" stroke="transparent" points="528,-75.7 528,-98.7 639,-98.7 639,-75.7 528,-75.7"/>
<polygon fill="none" stroke="#000000" points="528,-75.7 528,-98.7 639,-98.7 639,-75.7 528,-75.7"/>
<text text-anchor="start" x="532.7686" y="-84.8" font-family="Helvetica,sans-Serif" font-weight="bold" font-size="11.00" fill="#000000">tags_to_items</text>
<text text-anchor="start" x="604.5219" y="-83.8" font-family="Helvetica,sans-Serif" font-size="11.00" fill="#000000">[table]</text>
<polygon fill="none" stroke="#000000" points="528,-56.7 528,-75.7 639,-75.7 639,-56.7 528,-56.7"/>
<text text-anchor="start" x="531" y="-62.8" font-family="Helvetica,sans-Serif" font-size="11.00" fill="#000000">...</text>
<polygon fill="#ffffff" stroke="transparent" points="528,-37.7 528,-56.7 569,-56.7 569,-37.7 528,-37.7"/>
<polygon fill="none" stroke="#000000" points="528,-37.7 528,-56.7 569,-56.7 569,-37.7 528,-37.7"/>
<text text-anchor="start" x="531" y="-43.8" font-family="Helvetica,sans-Serif" font-size="11.00" fill="#000000">&lt; 2</text>
<polygon fill="#ffffff" stroke="transparent" points="569,-37.7 569,-56.7 617,-56.7 617,-37.7 569,-37.7"/>
<polygon fill="none" stroke="#000000" points="569,-37.7 569,-56.7 617,-56.7 617,-37.7 569,-37.7"/>
<text text-anchor="start" x="581.6105" y="-43.8" font-family="Helvetica,sans-Serif" font-size="11.00" fill="#000000">0 rows</text>
<polygon fill="#ffffff" stroke="transparent" points="617,-37.7 617,-56.7 639,-56.7 639,-37.7 617,-37.7"/>
<polygon fill="none" stroke="#000000" points="617,-37.7 617,-56.7 639,-56.7 639,-37.7 617,-37.7"/>
<text text-anchor="start" x="629.8862" y="-43.8" font-family="Helvetica,sans-Serif" font-size="11.00" fill="#000000"> &#160;</text>
</a>
</g>
</g>
<!-- tags_to_items&#45;&gt;item -->
<g id="edge16" class="edge">
<title>tags_to_items:w&#45;&gt;item:e</title>
<path fill="none" stroke="#000000" d="M514.0309,-70.2264C458.3292,-111.6682 533.199,-423.7 457.5,-423.7"/>
<polygon fill="#000000" stroke="#000000" points="520.3896,-68.1661 529.1097,-69.1247 524.1948,-66.933 528,-65.7 528,-65.7 528,-65.7 524.1948,-66.933 526.8903,-62.2753 520.3896,-68.1661 520.3896,-68.1661"/>
<ellipse fill="none" stroke="#000000" cx="517.3454" cy="-69.1525" rx="3.2" ry="3.2"/>
</g>
<!-- tags_to_items&#45;&gt;optionset -->
<g id="edge17" class="edge">
<title>tags_to_items:w&#45;&gt;optionset:e</title>
<path fill="none" stroke="#000000" d="M513.5994,-65.5986C345.1076,-63.2476 255.9299,-21.9641 136,-146.7 97.9053,-186.3213 150.4641,-390.7 95.5,-390.7"/>
<polygon fill="#000000" stroke="#000000" points="520.0002,-65.6436 527.9746,-69.2999 524.0001,-65.6718 528,-65.7 528,-65.7 528,-65.7 524.0001,-65.6718 528.0254,-62.1001 520.0002,-65.6436 520.0002,-65.6436"/>
<ellipse fill="none" stroke="#000000" cx="516.8003" cy="-65.6211" rx="3.2" ry="3.2"/>
</g>
</g>
</svg>
