<?xml version="1.0" encoding="UTF-8" standalone="no"?>
<!DOCTYPE svg PUBLIC "-//W3C//DTD SVG 1.1//EN"
 "http://www.w3.org/Graphics/SVG/1.1/DTD/svg11.dtd">
<!-- Generated by graphviz version 2.40.1 (20161225.0304)
 -->
<!-- Title: twoDegreesRelationshipsDiagram Pages: 1 -->
<svg width="707pt" height="879pt"
 viewBox="0.00 0.00 707.00 879.20" xmlns="http://www.w3.org/2000/svg" xmlns:xlink="http://www.w3.org/1999/xlink">
<g id="graph0" class="graph" transform="scale(1 1) rotate(0) translate(4 875.2)">
<title>twoDegreesRelationshipsDiagram</title>
<polygon fill="#ffffff" stroke="transparent" points="-4,4 -4,-875.2 703,-875.2 703,4 -4,4"/>
<text text-anchor="middle" x="72.4936" y="-7.3" font-family="Helvetica,sans-Serif" font-size="11.00" fill="#000000">Generated by SchemaSpy</text>
<!-- authors_to_items -->
<g id="node1" class="node">
<title>authors_to_items</title>
<g id="a_node1"><a xlink:href="../../tables/authors_to_items.html" xlink:title="authors_to_items" target="_top">
<polygon fill="#ffffff" stroke="transparent" points="535,-642.2 535,-703.2 662,-703.2 662,-642.2 535,-642.2"/>
<polygon fill="#f5f5f5" stroke="transparent" points="535.5,-679.7 535.5,-702.7 662.5,-702.7 662.5,-679.7 535.5,-679.7"/>
<polygon fill="none" stroke="#000000" points="535.5,-679.7 535.5,-702.7 662.5,-702.7 662.5,-679.7 535.5,-679.7"/>
<text text-anchor="start" x="540.3227" y="-688.8" font-family="Helvetica,sans-Serif" font-weight="bold" font-size="11.00" fill="#000000">authors_to_items</text>
<text text-anchor="start" x="628.0219" y="-687.8" font-family="Helvetica,sans-Serif" font-size="11.00" fill="#000000">[table]</text>
<polygon fill="none" stroke="#000000" points="535.5,-660.7 535.5,-679.7 662.5,-679.7 662.5,-660.7 535.5,-660.7"/>
<text text-anchor="start" x="538.5" y="-666.8" font-family="Helvetica,sans-Serif" font-size="11.00" fill="#000000">...</text>
<polygon fill="#ffffff" stroke="transparent" points="535.5,-641.7 535.5,-660.7 573.5,-660.7 573.5,-641.7 535.5,-641.7"/>
<polygon fill="none" stroke="#000000" points="535.5,-641.7 535.5,-660.7 573.5,-660.7 573.5,-641.7 535.5,-641.7"/>
<text text-anchor="start" x="538.5" y="-647.8" font-family="Helvetica,sans-Serif" font-size="11.00" fill="#000000">&lt; 2</text>
<polygon fill="#ffffff" stroke="transparent" points="573.5,-641.7 573.5,-660.7 641.5,-660.7 641.5,-641.7 573.5,-641.7"/>
<polygon fill="none" stroke="#000000" points="573.5,-641.7 573.5,-660.7 641.5,-660.7 641.5,-641.7 573.5,-641.7"/>
<text text-anchor="start" x="584.7089" y="-647.8" font-family="Helvetica,sans-Serif" font-size="11.00" fill="#000000">2,850 rows</text>
<polygon fill="#ffffff" stroke="transparent" points="641.5,-641.7 641.5,-660.7 662.5,-660.7 662.5,-641.7 641.5,-641.7"/>
<polygon fill="none" stroke="#000000" points="641.5,-641.7 641.5,-660.7 662.5,-660.7 662.5,-641.7 641.5,-641.7"/>
<text text-anchor="start" x="653.3862" y="-647.8" font-family="Helvetica,sans-Serif" font-size="11.00" fill="#000000"> &#160;</text>
</a>
</g>
</g>
<!-- item -->
<g id="node2" class="node">
<title>item</title>
<g id="a_node2"><a xlink:href="../../tables/item.html" xlink:title="item" target="_top">
<polygon fill="#ffffff" stroke="transparent" points="144,-331.2 144,-458.2 457,-458.2 457,-331.2 144,-331.2"/>
<polygon fill="#f5f5f5" stroke="transparent" points="144.5,-434.7 144.5,-457.7 457.5,-457.7 457.5,-434.7 144.5,-434.7"/>
<polygon fill="none" stroke="#000000" points="144.5,-434.7 144.5,-457.7 457.5,-457.7 457.5,-434.7 144.5,-434.7"/>
<text text-anchor="start" x="149.5" y="-443.8" font-family="Helvetica,sans-Serif" font-weight="bold" font-size="11.00" fill="#000000">item</text>
<text text-anchor="start" x="422.5437" y="-442.8" font-family="Helvetica,sans-Serif" font-size="11.00" fill="#000000">[table]</text>
<polygon fill="none" stroke="#000000" points="144.5,-412.7 144.5,-434.7 457.5,-434.7 457.5,-412.7 144.5,-412.7"/>
<image xlink:href="../../images/primaryKeys.png" width="11px" height="12px" preserveAspectRatio="xMinYMin meet" x="149.5" y="-429.7"/>
<text text-anchor="start" x="164.5" y="-419.8" font-family="Helvetica,sans-Serif" font-size="11.00" fill="#000000">id</text>
<polygon fill="#ffffff" stroke="transparent" points="144.5,-390.7 144.5,-412.7 457.5,-412.7 457.5,-390.7 144.5,-390.7"/>
<polygon fill="none" stroke="#000000" points="144.5,-390.7 144.5,-412.7 457.5,-412.7 457.5,-390.7 144.5,-390.7"/>
<image xlink:href="../../images/foreignKeys.png" width="11px" height="12px" preserveAspectRatio="xMinYMin meet" x="149.5" y="-407.7"/>
<text text-anchor="start" x="164.5" y="-397.8" font-family="Helvetica,sans-Serif" font-size="11.00" fill="#000000">field_relationship</text>
<polygon fill="#ffffff" stroke="transparent" points="144.5,-368.7 144.5,-390.7 457.5,-390.7 457.5,-368.7 144.5,-368.7"/>
<polygon fill="none" stroke="#000000" points="144.5,-368.7 144.5,-390.7 457.5,-390.7 457.5,-368.7 144.5,-368.7"/>
<image xlink:href="../../images/foreignKeys.png" width="11px" height="12px" preserveAspectRatio="xMinYMin meet" x="149.5" y="-385.7"/>
<text text-anchor="start" x="164.5" y="-375.8" font-family="Helvetica,sans-Serif" font-size="11.00" fill="#000000">geo_specificity</text>
<polygon fill="none" stroke="#000000" points="144.5,-349.7 144.5,-368.7 457.5,-368.7 457.5,-349.7 144.5,-349.7"/>
<text text-anchor="start" x="147.5" y="-355.8" font-family="Helvetica,sans-Serif" font-size="11.00" fill="#000000">...</text>
<polygon fill="#ffffff" stroke="transparent" points="144.5,-330.7 144.5,-349.7 268.5,-349.7 268.5,-330.7 144.5,-330.7"/>
<polygon fill="none" stroke="#000000" points="144.5,-330.7 144.5,-349.7 268.5,-349.7 268.5,-330.7 144.5,-330.7"/>
<text text-anchor="start" x="147.5" y="-336.8" font-family="Helvetica,sans-Serif" font-size="11.00" fill="#000000">&lt; 2</text>
<polygon fill="#ffffff" stroke="transparent" points="268.5,-330.7 268.5,-349.7 378.5,-349.7 378.5,-330.7 268.5,-330.7"/>
<polygon fill="none" stroke="#000000" points="268.5,-330.7 268.5,-349.7 378.5,-349.7 378.5,-330.7 268.5,-330.7"/>
<text text-anchor="start" x="321.7089" y="-336.8" font-family="Helvetica,sans-Serif" font-size="11.00" fill="#000000">2,352 rows</text>
<polygon fill="#ffffff" stroke="transparent" points="378.5,-330.7 378.5,-349.7 457.5,-349.7 457.5,-330.7 378.5,-330.7"/>
<polygon fill="none" stroke="#000000" points="378.5,-330.7 378.5,-349.7 457.5,-349.7 457.5,-330.7 378.5,-330.7"/>
<text text-anchor="start" x="432.7904" y="-336.8" font-family="Helvetica,sans-Serif" font-size="11.00" fill="#000000">11 &gt;</text>
</a>
</g>
</g>
<!-- authors_to_items&#45;&gt;item -->
<g id="edge1" class="edge">
<title>authors_to_items:w&#45;&gt;item:e</title>
<path fill="none" stroke="#000000" d="M521.1876,-666.7136C509.8994,-660.9446 506.3051,-647.4391 498,-631.7 476.0236,-590.0523 504.5903,-423.7 457.5,-423.7"/>
<polygon fill="#000000" stroke="#000000" points="527.6687,-668.0659 534.7646,-673.2241 531.5843,-668.8829 535.5,-669.7 535.5,-669.7 535.5,-669.7 531.5843,-668.8829 536.2354,-666.1759 527.6687,-668.0659 527.6687,-668.0659"/>
<ellipse fill="none" stroke="#000000" cx="524.5361" cy="-667.4122" rx="3.2" ry="3.2"/>
</g>
<!-- optionset -->
<g id="node4" class="node">
<title>optionset</title>
<g id="a_node4"><a xlink:href="../../tables/optionset.html" xlink:title="optionset" target="_top">
<polygon fill="#ffffff" stroke="transparent" points="8,-342.2 8,-425.2 95,-425.2 95,-342.2 8,-342.2"/>
<polygon fill="#f5f5f5" stroke="transparent" points="8.5,-401.7 8.5,-424.7 95.5,-424.7 95.5,-401.7 8.5,-401.7"/>
<polygon fill="none" stroke="#000000" points="8.5,-401.7 8.5,-424.7 95.5,-424.7 95.5,-401.7 8.5,-401.7"/>
<text text-anchor="start" x="13.1854" y="-410.8" font-family="Helvetica,sans-Serif" font-weight="bold" font-size="11.00" fill="#000000">optionset</text>
<text text-anchor="start" x="61.0219" y="-409.8" font-family="Helvetica,sans-Serif" font-size="11.00" fill="#000000">[table]</text>
<polygon fill="none" stroke="#000000" points="8.5,-379.7 8.5,-401.7 95.5,-401.7 95.5,-379.7 8.5,-379.7"/>
<image xlink:href="../../images/primaryKeys.png" width="11px" height="12px" preserveAspectRatio="xMinYMin meet" x="13.5" y="-396.7"/>
<text text-anchor="start" x="34.5" y="-386.8" font-family="Helvetica,sans-Serif" font-size="11.00" fill="#000000">id</text>
<polygon fill="none" stroke="#000000" points="8.5,-360.7 8.5,-379.7 95.5,-379.7 95.5,-360.7 8.5,-360.7"/>
<text text-anchor="start" x="11.5" y="-366.8" font-family="Helvetica,sans-Serif" font-size="11.00" fill="#000000">...</text>
<polygon fill="#ffffff" stroke="transparent" points="8.5,-341.7 8.5,-360.7 25.5,-360.7 25.5,-341.7 8.5,-341.7"/>
<polygon fill="none" stroke="#000000" points="8.5,-341.7 8.5,-360.7 25.5,-360.7 25.5,-341.7 8.5,-341.7"/>
<text text-anchor="start" x="11.5" y="-347.8" font-family="Helvetica,sans-Serif" font-size="11.00" fill="#000000"> &#160;</text>
<polygon fill="#ffffff" stroke="transparent" points="25.5,-341.7 25.5,-360.7 71.5,-360.7 71.5,-341.7 25.5,-341.7"/>
<polygon fill="none" stroke="#000000" points="25.5,-341.7 25.5,-360.7 71.5,-360.7 71.5,-341.7 25.5,-341.7"/>
<text text-anchor="start" x="29.9956" y="-347.8" font-family="Helvetica,sans-Serif" font-size="11.00" fill="#000000">47 rows</text>
<polygon fill="#ffffff" stroke="transparent" points="71.5,-341.7 71.5,-360.7 95.5,-360.7 95.5,-341.7 71.5,-341.7"/>
<polygon fill="none" stroke="#000000" points="71.5,-341.7 71.5,-360.7 95.5,-360.7 95.5,-341.7 71.5,-341.7"/>
<text text-anchor="start" x="76.9053" y="-347.8" font-family="Helvetica,sans-Serif" font-size="11.00" fill="#000000">6 &gt;</text>
</a>
</g>
</g>
<!-- item&#45;&gt;optionset -->
<g id="edge9" class="edge">
<title>item:w&#45;&gt;optionset:e</title>
<path fill="none" stroke="#000000" d="M130.2027,-399.8836C118.7382,-396.7593 112.0655,-390.7 95.5,-390.7"/>
<polygon fill="#000000" stroke="#000000" points="136.5638,-400.6917 144.0463,-405.2713 140.5319,-401.1958 144.5,-401.7 144.5,-401.7 144.5,-401.7 140.5319,-401.1958 144.9537,-398.1287 136.5638,-400.6917 136.5638,-400.6917"/>
<ellipse fill="none" stroke="#000000" cx="133.3893" cy="-400.2884" rx="3.2" ry="3.2"/>
</g>
<!-- item&#45;&gt;optionset -->
<g id="edge10" class="edge">
<title>item:w&#45;&gt;optionset:e</title>
<path fill="none" stroke="#000000" d="M130.2027,-381.5164C118.7382,-384.6407 112.0655,-390.7 95.5,-390.7"/>
<polygon fill="#000000" stroke="#000000" points="136.5638,-380.7083 144.9537,-383.2713 140.5319,-380.2042 144.5,-379.7 144.5,-379.7 144.5,-379.7 140.5319,-380.2042 144.0463,-376.1287 136.5638,-380.7083 136.5638,-380.7083"/>
<ellipse fill="none" stroke="#000000" cx="133.3893" cy="-381.1116" rx="3.2" ry="3.2"/>
</g>
<!-- covid_tags_to_items -->
<g id="node3" class="node">
<title>covid_tags_to_items</title>
<g id="a_node3"><a xlink:href="../../tables/covid_tags_to_items.html" xlink:title="covid_tags_to_items" target="_top">
<polygon fill="#ffffff" stroke="transparent" points="527,-806.2 527,-867.2 670,-867.2 670,-806.2 527,-806.2"/>
<polygon fill="#f5f5f5" stroke="transparent" points="527.5,-843.7 527.5,-866.7 670.5,-866.7 670.5,-843.7 527.5,-843.7"/>
<polygon fill="none" stroke="#000000" points="527.5,-843.7 527.5,-866.7 670.5,-866.7 670.5,-843.7 527.5,-843.7"/>
<text text-anchor="start" x="532.3758" y="-852.8" font-family="Helvetica,sans-Serif" font-weight="bold" font-size="11.00" fill="#000000">covid_tags_to_items</text>
<text text-anchor="start" x="636.0219" y="-851.8" font-family="Helvetica,sans-Serif" font-size="11.00" fill="#000000">[table]</text>
<polygon fill="none" stroke="#000000" points="527.5,-824.7 527.5,-843.7 670.5,-843.7 670.5,-824.7 527.5,-824.7"/>
<text text-anchor="start" x="530.5" y="-830.8" font-family="Helvetica,sans-Serif" font-size="11.00" fill="#000000">...</text>
<polygon fill="#ffffff" stroke="transparent" points="527.5,-805.7 527.5,-824.7 573.5,-824.7 573.5,-805.7 527.5,-805.7"/>
<polygon fill="none" stroke="#000000" points="527.5,-805.7 527.5,-824.7 573.5,-824.7 573.5,-805.7 527.5,-805.7"/>
<text text-anchor="start" x="530.5" y="-811.8" font-family="Helvetica,sans-Serif" font-size="11.00" fill="#000000">&lt; 2</text>
<polygon fill="#ffffff" stroke="transparent" points="573.5,-805.7 573.5,-824.7 645.5,-824.7 645.5,-805.7 573.5,-805.7"/>
<polygon fill="none" stroke="#000000" points="573.5,-805.7 573.5,-824.7 645.5,-824.7 645.5,-805.7 573.5,-805.7"/>
<text text-anchor="start" x="588.7089" y="-811.8" font-family="Helvetica,sans-Serif" font-size="11.00" fill="#000000">4,810 rows</text>
<polygon fill="#ffffff" stroke="transparent" points="645.5,-805.7 645.5,-824.7 670.5,-824.7 670.5,-805.7 645.5,-805.7"/>
<polygon fill="none" stroke="#000000" points="645.5,-805.7 645.5,-824.7 670.5,-824.7 670.5,-805.7 645.5,-805.7"/>
<text text-anchor="start" x="661.3862" y="-811.8" font-family="Helvetica,sans-Serif" font-size="11.00" fill="#000000"> &#160;</text>
</a>
</g>
</g>
<!-- covid_tags_to_items&#45;&gt;item -->
<g id="edge3" class="edge">
<title>covid_tags_to_items:w&#45;&gt;item:e</title>
<path fill="none" stroke="#000000" d="M513.3042,-829.6421C447.8189,-787.0607 544.5137,-423.7 457.5,-423.7"/>
<polygon fill="#000000" stroke="#000000" points="519.8081,-831.5012 526.5105,-837.1614 523.654,-832.6006 527.5,-833.7 527.5,-833.7 527.5,-833.7 523.654,-832.6006 528.4895,-830.2386 519.8081,-831.5012 519.8081,-831.5012"/>
<ellipse fill="none" stroke="#000000" cx="516.7313" cy="-830.6217" rx="3.2" ry="3.2"/>
</g>
<!-- covid_tags_to_items&#45;&gt;optionset -->
<g id="edge2" class="edge">
<title>covid_tags_to_items:w&#45;&gt;optionset:e</title>
<path fill="none" stroke="#000000" d="M512.9619,-833.5845C322.2939,-830.5019 249.3494,-765.4069 136,-604.7 108.1036,-565.1485 143.8997,-390.7 95.5,-390.7"/>
<polygon fill="#000000" stroke="#000000" points="519.5003,-833.6364 527.4714,-837.2999 523.5001,-833.6682 527.5,-833.7 527.5,-833.7 527.5,-833.7 523.5001,-833.6682 527.5286,-830.1001 519.5003,-833.6364 519.5003,-833.6364"/>
<ellipse fill="none" stroke="#000000" cx="516.3004" cy="-833.611" rx="3.2" ry="3.2"/>
</g>
<!-- covid_topics_to_items -->
<g id="node5" class="node">
<title>covid_topics_to_items</title>
<g id="a_node5"><a xlink:href="../../tables/covid_topics_to_items.html" xlink:title="covid_topics_to_items" target="_top">
<polygon fill="#ffffff" stroke="transparent" points="523,-724.2 523,-785.2 674,-785.2 674,-724.2 523,-724.2"/>
<polygon fill="#f5f5f5" stroke="transparent" points="523.5,-761.7 523.5,-784.7 674.5,-784.7 674.5,-761.7 523.5,-761.7"/>
<polygon fill="none" stroke="#000000" points="523.5,-761.7 523.5,-784.7 674.5,-784.7 674.5,-761.7 523.5,-761.7"/>
<text text-anchor="start" x="528.4053" y="-770.8" font-family="Helvetica,sans-Serif" font-weight="bold" font-size="11.00" fill="#000000">covid_topics_to_items</text>
<text text-anchor="start" x="640.0219" y="-769.8" font-family="Helvetica,sans-Serif" font-size="11.00" fill="#000000">[table]</text>
<polygon fill="none" stroke="#000000" points="523.5,-742.7 523.5,-761.7 674.5,-761.7 674.5,-742.7 523.5,-742.7"/>
<text text-anchor="start" x="526.5" y="-748.8" font-family="Helvetica,sans-Serif" font-size="11.00" fill="#000000">...</text>
<polygon fill="#ffffff" stroke="transparent" points="523.5,-723.7 523.5,-742.7 584.5,-742.7 584.5,-723.7 523.5,-723.7"/>
<polygon fill="none" stroke="#000000" points="523.5,-723.7 523.5,-742.7 584.5,-742.7 584.5,-723.7 523.5,-723.7"/>
<text text-anchor="start" x="526.5" y="-729.8" font-family="Helvetica,sans-Serif" font-size="11.00" fill="#000000">&lt; 2</text>
<polygon fill="#ffffff" stroke="transparent" points="584.5,-723.7 584.5,-742.7 642.5,-742.7 642.5,-723.7 584.5,-723.7"/>
<polygon fill="none" stroke="#000000" points="584.5,-723.7 584.5,-742.7 642.5,-742.7 642.5,-723.7 584.5,-723.7"/>
<text text-anchor="start" x="607.1105" y="-729.8" font-family="Helvetica,sans-Serif" font-size="11.00" fill="#000000">0 rows</text>
<polygon fill="#ffffff" stroke="transparent" points="642.5,-723.7 642.5,-742.7 674.5,-742.7 674.5,-723.7 642.5,-723.7"/>
<polygon fill="none" stroke="#000000" points="642.5,-723.7 642.5,-742.7 674.5,-742.7 674.5,-723.7 642.5,-723.7"/>
<text text-anchor="start" x="665.3862" y="-729.8" font-family="Helvetica,sans-Serif" font-size="11.00" fill="#000000"> &#160;</text>
</a>
</g>
</g>
<!-- covid_topics_to_items&#45;&gt;item -->
<g id="edge5" class="edge">
<title>covid_topics_to_items:w&#45;&gt;item:e</title>
<path fill="none" stroke="#000000" d="M509.7231,-746.8088C460.2827,-706.0067 526.4769,-423.7 457.5,-423.7"/>
<polygon fill="#000000" stroke="#000000" points="515.961,-749.0234 522.2955,-755.0925 519.7305,-750.3617 523.5,-751.7 523.5,-751.7 523.5,-751.7 519.7305,-750.3617 524.7045,-748.3075 515.961,-749.0234 515.961,-749.0234"/>
<ellipse fill="none" stroke="#000000" cx="512.9454" cy="-747.9528" rx="3.2" ry="3.2"/>
</g>
<!-- covid_topics_to_items&#45;&gt;optionset -->
<g id="edge4" class="edge">
<title>covid_topics_to_items:w&#45;&gt;optionset:e</title>
<path fill="none" stroke="#000000" d="M509.2788,-748.4417C430.4807,-719.4834 168.3568,-506.3859 136,-468.7 110.5546,-439.0637 134.5612,-390.7 95.5,-390.7"/>
<polygon fill="#000000" stroke="#000000" points="515.702,-749.9134 522.696,-755.2091 519.601,-750.8067 523.5,-751.7 523.5,-751.7 523.5,-751.7 519.601,-750.8067 524.304,-748.1909 515.702,-749.9134 515.702,-749.9134"/>
<ellipse fill="none" stroke="#000000" cx="512.5829" cy="-749.1987" rx="3.2" ry="3.2"/>
</g>
<!-- events_to_items -->
<g id="node6" class="node">
<title>events_to_items</title>
<g id="a_node6"><a xlink:href="../../tables/events_to_items.html" xlink:title="events_to_items" target="_top">
<polygon fill="#ffffff" stroke="transparent" points="537,-560.2 537,-621.2 660,-621.2 660,-560.2 537,-560.2"/>
<polygon fill="#f5f5f5" stroke="transparent" points="537.5,-597.7 537.5,-620.7 660.5,-620.7 660.5,-597.7 537.5,-597.7"/>
<polygon fill="none" stroke="#000000" points="537.5,-597.7 537.5,-620.7 660.5,-620.7 660.5,-597.7 537.5,-597.7"/>
<text text-anchor="start" x="542.4611" y="-606.8" font-family="Helvetica,sans-Serif" font-weight="bold" font-size="11.00" fill="#000000">events_to_items</text>
<text text-anchor="start" x="626.0219" y="-605.8" font-family="Helvetica,sans-Serif" font-size="11.00" fill="#000000">[table]</text>
<polygon fill="none" stroke="#000000" points="537.5,-578.7 537.5,-597.7 660.5,-597.7 660.5,-578.7 537.5,-578.7"/>
<text text-anchor="start" x="540.5" y="-584.8" font-family="Helvetica,sans-Serif" font-size="11.00" fill="#000000">...</text>
<polygon fill="#ffffff" stroke="transparent" points="537.5,-559.7 537.5,-578.7 573.5,-578.7 573.5,-559.7 537.5,-559.7"/>
<polygon fill="none" stroke="#000000" points="537.5,-559.7 537.5,-578.7 573.5,-578.7 573.5,-559.7 537.5,-559.7"/>
<text text-anchor="start" x="540.5" y="-565.8" font-family="Helvetica,sans-Serif" font-size="11.00" fill="#000000">&lt; 2</text>
<polygon fill="#ffffff" stroke="transparent" points="573.5,-559.7 573.5,-578.7 640.5,-578.7 640.5,-559.7 573.5,-559.7"/>
<polygon fill="none" stroke="#000000" points="573.5,-559.7 573.5,-578.7 640.5,-578.7 640.5,-559.7 573.5,-559.7"/>
<text text-anchor="start" x="583.7089" y="-565.8" font-family="Helvetica,sans-Serif" font-size="11.00" fill="#000000">1,091 rows</text>
<polygon fill="#ffffff" stroke="transparent" points="640.5,-559.7 640.5,-578.7 660.5,-578.7 660.5,-559.7 640.5,-559.7"/>
<polygon fill="none" stroke="#000000" points="640.5,-559.7 640.5,-578.7 660.5,-578.7 660.5,-559.7 640.5,-559.7"/>
<text text-anchor="start" x="651.3862" y="-565.8" font-family="Helvetica,sans-Serif" font-size="11.00" fill="#000000"> &#160;</text>
</a>
</g>
</g>
<!-- events_to_items&#45;&gt;item -->
<g id="edge6" class="edge">
<title>events_to_items:w&#45;&gt;item:e</title>
<path fill="none" stroke="#000000" d="M523.2269,-584.8489C511.428,-579.1088 507.7728,-565.3617 498,-549.7 466.8607,-499.7967 516.3218,-423.7 457.5,-423.7"/>
<polygon fill="#000000" stroke="#000000" points="529.655,-586.1329 536.7948,-591.2303 533.5775,-586.9164 537.5,-587.7 537.5,-587.7 537.5,-587.7 533.5775,-586.9164 538.2052,-584.1697 529.655,-586.1329 529.655,-586.1329"/>
<ellipse fill="none" stroke="#000000" cx="526.517" cy="-585.506" rx="3.2" ry="3.2"/>
</g>
<!-- files_to_items -->
<g id="node7" class="node">
<title>files_to_items</title>
<g id="a_node7"><a xlink:href="../../tables/files_to_items.html" xlink:title="files_to_items" target="_top">
<polygon fill="#ffffff" stroke="transparent" points="543.5,-478.2 543.5,-539.2 653.5,-539.2 653.5,-478.2 543.5,-478.2"/>
<polygon fill="#f5f5f5" stroke="transparent" points="543.5,-515.7 543.5,-538.7 653.5,-538.7 653.5,-515.7 543.5,-515.7"/>
<polygon fill="none" stroke="#000000" points="543.5,-515.7 543.5,-538.7 653.5,-538.7 653.5,-515.7 543.5,-515.7"/>
<text text-anchor="start" x="548.3851" y="-524.8" font-family="Helvetica,sans-Serif" font-weight="bold" font-size="11.00" fill="#000000">files_to_items</text>
<text text-anchor="start" x="619.0219" y="-523.8" font-family="Helvetica,sans-Serif" font-size="11.00" fill="#000000">[table]</text>
<polygon fill="none" stroke="#000000" points="543.5,-496.7 543.5,-515.7 653.5,-515.7 653.5,-496.7 543.5,-496.7"/>
<text text-anchor="start" x="546.5" y="-502.8" font-family="Helvetica,sans-Serif" font-size="11.00" fill="#000000">...</text>
<polygon fill="#ffffff" stroke="transparent" points="543.5,-477.7 543.5,-496.7 573.5,-496.7 573.5,-477.7 543.5,-477.7"/>
<polygon fill="none" stroke="#000000" points="543.5,-477.7 543.5,-496.7 573.5,-496.7 573.5,-477.7 543.5,-477.7"/>
<text text-anchor="start" x="546.5" y="-483.8" font-family="Helvetica,sans-Serif" font-size="11.00" fill="#000000">&lt; 2</text>
<polygon fill="#ffffff" stroke="transparent" points="573.5,-477.7 573.5,-496.7 636.5,-496.7 636.5,-477.7 573.5,-477.7"/>
<polygon fill="none" stroke="#000000" points="573.5,-477.7 573.5,-496.7 636.5,-496.7 636.5,-477.7 573.5,-477.7"/>
<text text-anchor="start" x="579.7089" y="-483.8" font-family="Helvetica,sans-Serif" font-size="11.00" fill="#000000">1,994 rows</text>
<polygon fill="#ffffff" stroke="transparent" points="636.5,-477.7 636.5,-496.7 653.5,-496.7 653.5,-477.7 636.5,-477.7"/>
<polygon fill="none" stroke="#000000" points="636.5,-477.7 636.5,-496.7 653.5,-496.7 653.5,-477.7 636.5,-477.7"/>
<text text-anchor="start" x="644.3862" y="-483.8" font-family="Helvetica,sans-Serif" font-size="11.00" fill="#000000"> &#160;</text>
</a>
</g>
</g>
<!-- files_to_items&#45;&gt;item -->
<g id="edge7" class="edge">
<title>files_to_items:w&#45;&gt;item:e</title>
<path fill="none" stroke="#000000" d="M529.1108,-502.897C516.142,-496.8019 512.7523,-481.758 498,-467.7 478.7588,-449.3643 484.0786,-423.7 457.5,-423.7"/>
<polygon fill="#000000" stroke="#000000" points="535.6476,-504.1703 542.8116,-509.2336 539.5738,-504.9352 543.5,-505.7 543.5,-505.7 543.5,-505.7 539.5738,-504.9352 544.1884,-502.1664 535.6476,-504.1703 535.6476,-504.1703"/>
<ellipse fill="none" stroke="#000000" cx="532.5066" cy="-503.5584" rx="3.2" ry="3.2"/>
</g>
<!-- funders_to_items -->
<g id="node8" class="node">
<title>funders_to_items</title>
<g id="a_node8"><a xlink:href="../../tables/funders_to_items.html" xlink:title="funders_to_items" target="_top">
<polygon fill="#ffffff" stroke="transparent" points="535,-396.2 535,-457.2 662,-457.2 662,-396.2 535,-396.2"/>
<polygon fill="#f5f5f5" stroke="transparent" points="535.5,-433.7 535.5,-456.7 662.5,-456.7 662.5,-433.7 535.5,-433.7"/>
<polygon fill="none" stroke="#000000" points="535.5,-433.7 535.5,-456.7 662.5,-456.7 662.5,-433.7 535.5,-433.7"/>
<text text-anchor="start" x="540.3227" y="-442.8" font-family="Helvetica,sans-Serif" font-weight="bold" font-size="11.00" fill="#000000">funders_to_items</text>
<text text-anchor="start" x="628.0219" y="-441.8" font-family="Helvetica,sans-Serif" font-size="11.00" fill="#000000">[table]</text>
<polygon fill="none" stroke="#000000" points="535.5,-414.7 535.5,-433.7 662.5,-433.7 662.5,-414.7 535.5,-414.7"/>
<text text-anchor="start" x="538.5" y="-420.8" font-family="Helvetica,sans-Serif" font-size="11.00" fill="#000000">...</text>
<polygon fill="#ffffff" stroke="transparent" points="535.5,-395.7 535.5,-414.7 573.5,-414.7 573.5,-395.7 535.5,-395.7"/>
<polygon fill="none" stroke="#000000" points="535.5,-395.7 535.5,-414.7 573.5,-414.7 573.5,-395.7 535.5,-395.7"/>
<text text-anchor="start" x="538.5" y="-401.8" font-family="Helvetica,sans-Serif" font-size="11.00" fill="#000000">&lt; 2</text>
<polygon fill="#ffffff" stroke="transparent" points="573.5,-395.7 573.5,-414.7 641.5,-414.7 641.5,-395.7 573.5,-395.7"/>
<polygon fill="none" stroke="#000000" points="573.5,-395.7 573.5,-414.7 641.5,-414.7 641.5,-395.7 573.5,-395.7"/>
<text text-anchor="start" x="584.7089" y="-401.8" font-family="Helvetica,sans-Serif" font-size="11.00" fill="#000000">3,210 rows</text>
<polygon fill="#ffffff" stroke="transparent" points="641.5,-395.7 641.5,-414.7 662.5,-414.7 662.5,-395.7 641.5,-395.7"/>
<polygon fill="none" stroke="#000000" points="641.5,-395.7 641.5,-414.7 662.5,-414.7 662.5,-395.7 641.5,-395.7"/>
<text text-anchor="start" x="653.3862" y="-401.8" font-family="Helvetica,sans-Serif" font-size="11.00" fill="#000000"> &#160;</text>
</a>
</g>
</g>
<!-- funders_to_items&#45;&gt;item -->
<g id="edge8" class="edge">
<title>funders_to_items:w&#45;&gt;item:e</title>
<path fill="none" stroke="#000000" d="M520.9559,-423.7C497.4902,-423.7 486.75,-423.7 457.5,-423.7"/>
<polygon fill="#000000" stroke="#000000" points="527.5,-423.7001 535.5,-427.3 531.5,-423.7 535.5,-423.7 535.5,-423.7 535.5,-423.7 531.5,-423.7 535.5,-420.1 527.5,-423.7001 527.5,-423.7001"/>
<ellipse fill="none" stroke="#000000" cx="524.3" cy="-423.7001" rx="3.2" ry="3.2"/>
</g>
<!-- items_to_items -->
<g id="node9" class="node">
<title>items_to_items</title>
<g id="a_node9"><a xlink:href="../../tables/items_to_items.html" xlink:title="items_to_items" target="_top">
<polygon fill="#ffffff" stroke="transparent" points="540.5,-314.2 540.5,-375.2 656.5,-375.2 656.5,-314.2 540.5,-314.2"/>
<polygon fill="#f5f5f5" stroke="transparent" points="540.5,-351.7 540.5,-374.7 656.5,-374.7 656.5,-351.7 540.5,-351.7"/>
<polygon fill="none" stroke="#000000" points="540.5,-351.7 540.5,-374.7 656.5,-374.7 656.5,-351.7 540.5,-351.7"/>
<text text-anchor="start" x="545.0246" y="-360.8" font-family="Helvetica,sans-Serif" font-weight="bold" font-size="11.00" fill="#000000">items_to_items</text>
<text text-anchor="start" x="622.0219" y="-359.8" font-family="Helvetica,sans-Serif" font-size="11.00" fill="#000000">[table]</text>
<polygon fill="none" stroke="#000000" points="540.5,-332.7 540.5,-351.7 656.5,-351.7 656.5,-332.7 540.5,-332.7"/>
<text text-anchor="start" x="543.5" y="-338.8" font-family="Helvetica,sans-Serif" font-size="11.00" fill="#000000">...</text>
<polygon fill="#ffffff" stroke="transparent" points="540.5,-313.7 540.5,-332.7 573.5,-332.7 573.5,-313.7 540.5,-313.7"/>
<polygon fill="none" stroke="#000000" points="540.5,-313.7 540.5,-332.7 573.5,-332.7 573.5,-313.7 540.5,-313.7"/>
<text text-anchor="start" x="543.5" y="-319.8" font-family="Helvetica,sans-Serif" font-size="11.00" fill="#000000">&lt; 2</text>
<polygon fill="#ffffff" stroke="transparent" points="573.5,-313.7 573.5,-332.7 638.5,-332.7 638.5,-313.7 573.5,-313.7"/>
<polygon fill="none" stroke="#000000" points="573.5,-313.7 573.5,-332.7 638.5,-332.7 638.5,-313.7 573.5,-313.7"/>
<text text-anchor="start" x="581.7089" y="-319.8" font-family="Helvetica,sans-Serif" font-size="11.00" fill="#000000">1,288 rows</text>
<polygon fill="#ffffff" stroke="transparent" points="638.5,-313.7 638.5,-332.7 656.5,-332.7 656.5,-313.7 638.5,-313.7"/>
<polygon fill="none" stroke="#000000" points="638.5,-313.7 638.5,-332.7 656.5,-332.7 656.5,-313.7 638.5,-313.7"/>
<text text-anchor="start" x="647.3862" y="-319.8" font-family="Helvetica,sans-Serif" font-size="11.00" fill="#000000"> &#160;</text>
</a>
</g>
</g>
<!-- items_to_items&#45;&gt;item -->
<g id="edge11" class="edge">
<title>items_to_items:w&#45;&gt;item:e</title>
<path fill="none" stroke="#000000" d="M525.8993,-342.6749C492.307,-352.7283 503.6838,-418.3563 457.5,-423.7"/>
<polygon fill="#000000" stroke="#000000" points="532.5178,-342.233 540.7399,-345.292 536.5089,-341.9665 540.5,-341.7 540.5,-341.7 540.5,-341.7 536.5089,-341.9665 540.2601,-338.108 532.5178,-342.233 532.5178,-342.233"/>
<ellipse fill="none" stroke="#000000" cx="529.3249" cy="-342.4462" rx="3.2" ry="3.2"/>
</g>
<!-- items_to_items&#45;&gt;item -->
<g id="edge12" class="edge">
<title>items_to_items:w&#45;&gt;item:e</title>
<path fill="none" stroke="#000000" d="M526.344,-346.2253C492.2061,-365.0069 503.8863,-429.9617 457.5,-423.7"/>
<polygon fill="#000000" stroke="#000000" points="532.8799,-344.136 541.5962,-345.1291 536.6899,-342.918 540.5,-341.7 540.5,-341.7 540.5,-341.7 536.6899,-342.918 539.4038,-338.2709 532.8799,-344.136 532.8799,-344.136"/>
<ellipse fill="none" stroke="#000000" cx="529.8318" cy="-345.1103" rx="3.2" ry="3.2"/>
</g>
<!-- key_topics_to_items -->
<g id="node10" class="node">
<title>key_topics_to_items</title>
<g id="a_node10"><a xlink:href="../../tables/key_topics_to_items.html" xlink:title="key_topics_to_items" target="_top">
<polygon fill="#ffffff" stroke="transparent" points="506,-120.7 506,-210.7 691,-210.7 691,-120.7 506,-120.7"/>
<polygon fill="#f5f5f5" stroke="transparent" points="508.5,-185.7 508.5,-208.7 689.5,-208.7 689.5,-185.7 508.5,-185.7"/>
<polygon fill="none" stroke="#000000" points="508.5,-185.7 508.5,-208.7 689.5,-208.7 689.5,-185.7 508.5,-185.7"/>
<text text-anchor="start" x="513.5" y="-194.8" font-family="Helvetica,sans-Serif" font-weight="bold" font-size="11.00" fill="#000000">key_topics_to_items</text>
<text text-anchor="start" x="654.5437" y="-193.8" font-family="Helvetica,sans-Serif" font-size="11.00" fill="#000000">[table]</text>
<polygon fill="none" stroke="#000000" points="508.5,-163.7 508.5,-185.7 647.5,-185.7 647.5,-163.7 508.5,-163.7"/>
<image xlink:href="../../images/primaryKeys.png" width="11px" height="12px" preserveAspectRatio="xMinYMin meet" x="513.5" y="-180.7"/>
<text text-anchor="start" x="528.5" y="-170.8" font-family="Helvetica,sans-Serif" font-size="11.00" fill="#000000">item</text>
<polygon fill="none" stroke="#000000" points="647.5,-163.7 647.5,-185.7 689.5,-185.7 689.5,-163.7 647.5,-163.7"/>
<text text-anchor="start" x="650.4644" y="-171.4" font-family="Helvetica,sans-Serif" font-size="11.00" fill="#000000">int4[10]</text>
<polygon fill="none" stroke="#000000" points="508.5,-141.7 508.5,-163.7 647.5,-163.7 647.5,-141.7 508.5,-141.7"/>
<image xlink:href="../../images/primaryKeys.png" width="11px" height="12px" preserveAspectRatio="xMinYMin meet" x="513.5" y="-158.7"/>
<text text-anchor="start" x="528.5" y="-148.8" font-family="Helvetica,sans-Serif" font-size="11.00" fill="#000000">keytopic</text>
<polygon fill="none" stroke="#000000" points="647.5,-141.7 647.5,-163.7 689.5,-163.7 689.5,-141.7 647.5,-141.7"/>
<text text-anchor="start" x="650.4644" y="-149.4" font-family="Helvetica,sans-Serif" font-size="11.00" fill="#000000">int4[10]</text>
<polygon fill="#ffffff" stroke="transparent" points="508.5,-122.7 508.5,-141.7 558.5,-141.7 558.5,-122.7 508.5,-122.7"/>
<polygon fill="none" stroke="#000000" points="508.5,-122.7 508.5,-141.7 558.5,-141.7 558.5,-122.7 508.5,-122.7"/>
<text text-anchor="start" x="511.5" y="-128.8" font-family="Helvetica,sans-Serif" font-size="11.00" fill="#000000">&lt; 2</text>
<polygon fill="#ffffff" stroke="transparent" points="558.5,-122.7 558.5,-141.7 647.5,-141.7 647.5,-122.7 558.5,-122.7"/>
<polygon fill="none" stroke="#000000" points="558.5,-122.7 558.5,-141.7 647.5,-141.7 647.5,-122.7 558.5,-122.7"/>
<text text-anchor="start" x="590.7089" y="-128.8" font-family="Helvetica,sans-Serif" font-size="11.00" fill="#000000">2,352 rows</text>
<polygon fill="#ffffff" stroke="transparent" points="647.5,-122.7 647.5,-141.7 689.5,-141.7 689.5,-122.7 647.5,-122.7"/>
<polygon fill="none" stroke="#000000" points="647.5,-122.7 647.5,-141.7 689.5,-141.7 689.5,-122.7 647.5,-122.7"/>
<text text-anchor="start" x="670.9053" y="-128.8" font-family="Helvetica,sans-Serif" font-size="11.00" fill="#000000">0 &gt;</text>
<polygon fill="none" stroke="#000000" stroke-width="2" points="507,-121.7 507,-209.7 690,-209.7 690,-121.7 507,-121.7"/>
</a>
</g>
</g>
<!-- key_topics_to_items&#45;&gt;item -->
<g id="edge13" class="edge">
<title>key_topics_to_items:w&#45;&gt;item:e</title>
<path fill="none" stroke="#000000" d="M493.9447,-176.423C411.9323,-198.4227 564.9483,-423.7 457.5,-423.7"/>
<polygon fill="#000000" stroke="#000000" points="500.5555,-175.6405 508.9232,-178.275 504.5277,-175.1702 508.5,-174.7 508.5,-174.7 508.5,-174.7 504.5277,-175.1702 508.0768,-171.125 500.5555,-175.6405 500.5555,-175.6405"/>
<ellipse fill="none" stroke="#000000" cx="497.3777" cy="-176.0167" rx="3.2" ry="3.2"/>
</g>
<!-- key_topics_to_items&#45;&gt;optionset -->
<g id="edge14" class="edge">
<title>key_topics_to_items:w&#45;&gt;optionset:e</title>
<path fill="none" stroke="#000000" d="M493.8792,-152.8043C323.7559,-155.2838 267.0447,-202.2437 136,-320.7 109.336,-344.8026 131.443,-390.7 95.5,-390.7"/>
<polygon fill="#000000" stroke="#000000" points="500.5002,-152.7571 508.5257,-156.2999 504.5001,-152.7285 508.5,-152.7 508.5,-152.7 508.5,-152.7 504.5001,-152.7285 508.4743,-149.1001 500.5002,-152.7571 500.5002,-152.7571"/>
<ellipse fill="none" stroke="#000000" cx="497.3003" cy="-152.7799" rx="3.2" ry="3.2"/>
</g>
<!-- related_files_to_items -->
<g id="node11" class="node">
<title>related_files_to_items</title>
<g id="a_node11"><a xlink:href="../../tables/related_files_to_items.html" xlink:title="related_files_to_items" target="_top">
<polygon fill="#ffffff" stroke="transparent" points="524,-232.2 524,-293.2 673,-293.2 673,-232.2 524,-232.2"/>
<polygon fill="#f5f5f5" stroke="transparent" points="524.5,-269.7 524.5,-292.7 673.5,-292.7 673.5,-269.7 524.5,-269.7"/>
<polygon fill="none" stroke="#000000" points="524.5,-269.7 524.5,-292.7 673.5,-292.7 673.5,-269.7 524.5,-269.7"/>
<text text-anchor="start" x="529.018" y="-278.8" font-family="Helvetica,sans-Serif" font-weight="bold" font-size="11.00" fill="#000000">related_files_to_items</text>
<text text-anchor="start" x="639.0219" y="-277.8" font-family="Helvetica,sans-Serif" font-size="11.00" fill="#000000">[table]</text>
<polygon fill="none" stroke="#000000" points="524.5,-250.7 524.5,-269.7 673.5,-269.7 673.5,-250.7 524.5,-250.7"/>
<text text-anchor="start" x="527.5" y="-256.8" font-family="Helvetica,sans-Serif" font-size="11.00" fill="#000000">...</text>
<polygon fill="#ffffff" stroke="transparent" points="524.5,-231.7 524.5,-250.7 578.5,-250.7 578.5,-231.7 524.5,-231.7"/>
<polygon fill="none" stroke="#000000" points="524.5,-231.7 524.5,-250.7 578.5,-250.7 578.5,-231.7 524.5,-231.7"/>
<text text-anchor="start" x="527.5" y="-237.8" font-family="Helvetica,sans-Serif" font-size="11.00" fill="#000000">&lt; 2</text>
<polygon fill="#ffffff" stroke="transparent" points="578.5,-231.7 578.5,-250.7 644.5,-250.7 644.5,-231.7 578.5,-231.7"/>
<polygon fill="none" stroke="#000000" points="578.5,-231.7 578.5,-250.7 644.5,-250.7 644.5,-231.7 578.5,-231.7"/>
<text text-anchor="start" x="596.8807" y="-237.8" font-family="Helvetica,sans-Serif" font-size="11.00" fill="#000000">115 rows</text>
<polygon fill="#ffffff" stroke="transparent" points="644.5,-231.7 644.5,-250.7 673.5,-250.7 673.5,-231.7 644.5,-231.7"/>
<polygon fill="none" stroke="#000000" points="644.5,-231.7 644.5,-250.7 673.5,-250.7 673.5,-231.7 644.5,-231.7"/>
<text text-anchor="start" x="664.3862" y="-237.8" font-family="Helvetica,sans-Serif" font-size="11.00" fill="#000000"> &#160;</text>
</a>
</g>
</g>
<!-- related_files_to_items&#45;&gt;item -->
<g id="edge15" class="edge">
<title>related_files_to_items:w&#45;&gt;item:e</title>
<path fill="none" stroke="#000000" d="M510.2834,-262.0184C457.6494,-281.9517 530.7008,-423.7 457.5,-423.7"/>
<polygon fill="#000000" stroke="#000000" points="516.6043,-260.9876 525.0794,-263.2531 520.5521,-260.3438 524.5,-259.7 524.5,-259.7 524.5,-259.7 520.5521,-260.3438 523.9206,-256.1469 516.6043,-260.9876 516.6043,-260.9876"/>
<ellipse fill="none" stroke="#000000" cx="513.446" cy="-261.5027" rx="3.2" ry="3.2"/>
</g>
<!-- tags_to_items -->
<g id="node12" class="node">
<title>tags_to_items</title>
<g id="a_node12"><a xlink:href="../../tables/tags_to_items.html" xlink:title="tags_to_items" target="_top">
<polygon fill="#ffffff" stroke="transparent" points="543,-38.2 543,-99.2 654,-99.2 654,-38.2 543,-38.2"/>
<polygon fill="#f5f5f5" stroke="transparent" points="543.5,-75.7 543.5,-98.7 654.5,-98.7 654.5,-75.7 543.5,-75.7"/>
<polygon fill="none" stroke="#000000" points="543.5,-75.7 543.5,-98.7 654.5,-98.7 654.5,-75.7 543.5,-75.7"/>
<text text-anchor="start" x="548.2686" y="-84.8" font-family="Helvetica,sans-Serif" font-weight="bold" font-size="11.00" fill="#000000">tags_to_items</text>
<text text-anchor="start" x="620.0219" y="-83.8" font-family="Helvetica,sans-Serif" font-size="11.00" fill="#000000">[table]</text>
<polygon fill="none" stroke="#000000" points="543.5,-56.7 543.5,-75.7 654.5,-75.7 654.5,-56.7 543.5,-56.7"/>
<text text-anchor="start" x="546.5" y="-62.8" font-family="Helvetica,sans-Serif" font-size="11.00" fill="#000000">...</text>
<polygon fill="#ffffff" stroke="transparent" points="543.5,-37.7 543.5,-56.7 584.5,-56.7 584.5,-37.7 543.5,-37.7"/>
<polygon fill="none" stroke="#000000" points="543.5,-37.7 543.5,-56.7 584.5,-56.7 584.5,-37.7 543.5,-37.7"/>
<text text-anchor="start" x="546.5" y="-43.8" font-family="Helvetica,sans-Serif" font-size="11.00" fill="#000000">&lt; 2</text>
<polygon fill="#ffffff" stroke="transparent" points="584.5,-37.7 584.5,-56.7 632.5,-56.7 632.5,-37.7 584.5,-37.7"/>
<polygon fill="none" stroke="#000000" points="584.5,-37.7 584.5,-56.7 632.5,-56.7 632.5,-37.7 584.5,-37.7"/>
<text text-anchor="start" x="597.1105" y="-43.8" font-family="Helvetica,sans-Serif" font-size="11.00" fill="#000000">0 rows</text>
<polygon fill="#ffffff" stroke="transparent" points="632.5,-37.7 632.5,-56.7 654.5,-56.7 654.5,-37.7 632.5,-37.7"/>
<polygon fill="none" stroke="#000000" points="632.5,-37.7 632.5,-56.7 654.5,-56.7 654.5,-37.7 632.5,-37.7"/>
<text text-anchor="start" x="645.3862" y="-43.8" font-family="Helvetica,sans-Serif" font-size="11.00" fill="#000000"> &#160;</text>
</a>
</g>
</g>
<!-- tags_to_items&#45;&gt;item -->
<g id="edge16" class="edge">
<title>tags_to_items:w&#45;&gt;item:e</title>
<path fill="none" stroke="#000000" d="M528.9899,-67.9289C513.1149,-73.6205 508.0566,-89.6654 498,-109.7 466.4374,-172.5788 527.8558,-423.7 457.5,-423.7"/>
<polygon fill="#000000" stroke="#000000" points="535.5927,-66.9147 544.0466,-69.2583 539.5464,-66.3073 543.5,-65.7 543.5,-65.7 543.5,-65.7 539.5464,-66.3073 542.9534,-62.1417 535.5927,-66.9147 535.5927,-66.9147"/>
<ellipse fill="none" stroke="#000000" cx="532.4298" cy="-67.4006" rx="3.2" ry="3.2"/>
</g>
<!-- tags_to_items&#45;&gt;optionset -->
<g id="edge17" class="edge">
<title>tags_to_items:w&#45;&gt;optionset:e</title>
<path fill="none" stroke="#000000" d="M529.0456,-65.6051C353.4101,-63.3217 260.8523,-21.7342 136,-151.7 98.6813,-190.5472 149.3683,-390.7 95.5,-390.7"/>
<polygon fill="#000000" stroke="#000000" points="535.5002,-65.6474 543.4764,-69.2999 539.5001,-65.6737 543.5,-65.7 543.5,-65.7 543.5,-65.7 539.5001,-65.6737 543.5236,-62.1001 535.5002,-65.6474 535.5002,-65.6474"/>
<ellipse fill="none" stroke="#000000" cx="532.3002" cy="-65.6264" rx="3.2" ry="3.2"/>
</g>
</g>
</svg>
