<?xml version="1.0" encoding="UTF-8" standalone="no"?>
<!DOCTYPE svg PUBLIC "-//W3C//DTD SVG 1.1//EN"
 "http://www.w3.org/Graphics/SVG/1.1/DTD/svg11.dtd">
<!-- Generated by graphviz version 2.40.1 (20161225.0304)
 -->
<!-- Title: oneDegreeRelationshipsDiagram Pages: 1 -->
<svg width="707pt" height="227pt"
 viewBox="0.00 0.00 707.00 227.40" xmlns="http://www.w3.org/2000/svg" xmlns:xlink="http://www.w3.org/1999/xlink">
<g id="graph0" class="graph" transform="scale(1 1) rotate(0) translate(4 223.3996)">
<title>oneDegreeRelationshipsDiagram</title>
<polygon fill="#ffffff" stroke="transparent" points="-4,4 -4,-223.3996 703,-223.3996 703,4 -4,4"/>
<text text-anchor="middle" x="72.4936" y="-7.3" font-family="Helvetica,sans-Serif" font-size="11.00" fill="#000000">Generated by SchemaSpy</text>
<!-- item -->
<g id="node1" class="node">
<title>item</title>
<g id="a_node1"><a xlink:href="../../tables/item.html" xlink:title="item" target="_top">
<polygon fill="#ffffff" stroke="transparent" points="144,-88.3996 144,-215.3996 457,-215.3996 457,-88.3996 144,-88.3996"/>
<polygon fill="#f5f5f5" stroke="transparent" points="144.5,-191.8996 144.5,-214.8996 457.5,-214.8996 457.5,-191.8996 144.5,-191.8996"/>
<polygon fill="none" stroke="#000000" points="144.5,-191.8996 144.5,-214.8996 457.5,-214.8996 457.5,-191.8996 144.5,-191.8996"/>
<text text-anchor="start" x="149.5" y="-200.9996" font-family="Helvetica,sans-Serif" font-weight="bold" font-size="11.00" fill="#000000">item</text>
<text text-anchor="start" x="422.5437" y="-199.9996" font-family="Helvetica,sans-Serif" font-size="11.00" fill="#000000">[table]</text>
<polygon fill="none" stroke="#000000" points="144.5,-169.8996 144.5,-191.8996 457.5,-191.8996 457.5,-169.8996 144.5,-169.8996"/>
<image xlink:href="../../images/primaryKeys.png" width="11px" height="12px" preserveAspectRatio="xMinYMin meet" x="149.5" y="-186.9"/>
<text text-anchor="start" x="164.5" y="-176.9996" font-family="Helvetica,sans-Serif" font-size="11.00" fill="#000000">id</text>
<polygon fill="#ffffff" stroke="transparent" points="144.5,-147.8996 144.5,-169.8996 457.5,-169.8996 457.5,-147.8996 144.5,-147.8996"/>
<polygon fill="none" stroke="#000000" points="144.5,-147.8996 144.5,-169.8996 457.5,-169.8996 457.5,-147.8996 144.5,-147.8996"/>
<image xlink:href="../../images/foreignKeys.png" width="11px" height="12px" preserveAspectRatio="xMinYMin meet" x="149.5" y="-164.9"/>
<text text-anchor="start" x="164.5" y="-154.9996" font-family="Helvetica,sans-Serif" font-size="11.00" fill="#000000">field_relationship</text>
<polygon fill="#ffffff" stroke="transparent" points="144.5,-125.8996 144.5,-147.8996 457.5,-147.8996 457.5,-125.8996 144.5,-125.8996"/>
<polygon fill="none" stroke="#000000" points="144.5,-125.8996 144.5,-147.8996 457.5,-147.8996 457.5,-125.8996 144.5,-125.8996"/>
<image xlink:href="../../images/foreignKeys.png" width="11px" height="12px" preserveAspectRatio="xMinYMin meet" x="149.5" y="-142.9"/>
<text text-anchor="start" x="164.5" y="-132.9996" font-family="Helvetica,sans-Serif" font-size="11.00" fill="#000000">geo_specificity</text>
<polygon fill="none" stroke="#000000" points="144.5,-106.8996 144.5,-125.8996 457.5,-125.8996 457.5,-106.8996 144.5,-106.8996"/>
<text text-anchor="start" x="147.5" y="-112.9996" font-family="Helvetica,sans-Serif" font-size="11.00" fill="#000000">...</text>
<polygon fill="#ffffff" stroke="transparent" points="144.5,-87.8996 144.5,-106.8996 268.5,-106.8996 268.5,-87.8996 144.5,-87.8996"/>
<polygon fill="none" stroke="#000000" points="144.5,-87.8996 144.5,-106.8996 268.5,-106.8996 268.5,-87.8996 144.5,-87.8996"/>
<text text-anchor="start" x="147.5" y="-93.9996" font-family="Helvetica,sans-Serif" font-size="11.00" fill="#000000">&lt; 2</text>
<polygon fill="#ffffff" stroke="transparent" points="268.5,-87.8996 268.5,-106.8996 378.5,-106.8996 378.5,-87.8996 268.5,-87.8996"/>
<polygon fill="none" stroke="#000000" points="268.5,-87.8996 268.5,-106.8996 378.5,-106.8996 378.5,-87.8996 268.5,-87.8996"/>
<text text-anchor="start" x="321.7089" y="-93.9996" font-family="Helvetica,sans-Serif" font-size="11.00" fill="#000000">2,352 rows</text>
<polygon fill="#ffffff" stroke="transparent" points="378.5,-87.8996 378.5,-106.8996 457.5,-106.8996 457.5,-87.8996 378.5,-87.8996"/>
<polygon fill="none" stroke="#000000" points="378.5,-87.8996 378.5,-106.8996 457.5,-106.8996 457.5,-87.8996 378.5,-87.8996"/>
<text text-anchor="start" x="432.7904" y="-93.9996" font-family="Helvetica,sans-Serif" font-size="11.00" fill="#000000">11 &gt;</text>
</a>
</g>
</g>
<!-- optionset -->
<g id="node2" class="node">
<title>optionset</title>
<g id="a_node2"><a xlink:href="../../tables/optionset.html" xlink:title="optionset" target="_top">
<polygon fill="#ffffff" stroke="transparent" points="8,-88.3996 8,-171.3996 95,-171.3996 95,-88.3996 8,-88.3996"/>
<polygon fill="#f5f5f5" stroke="transparent" points="8.5,-147.8996 8.5,-170.8996 95.5,-170.8996 95.5,-147.8996 8.5,-147.8996"/>
<polygon fill="none" stroke="#000000" points="8.5,-147.8996 8.5,-170.8996 95.5,-170.8996 95.5,-147.8996 8.5,-147.8996"/>
<text text-anchor="start" x="13.1854" y="-156.9996" font-family="Helvetica,sans-Serif" font-weight="bold" font-size="11.00" fill="#000000">optionset</text>
<text text-anchor="start" x="61.0219" y="-155.9996" font-family="Helvetica,sans-Serif" font-size="11.00" fill="#000000">[table]</text>
<polygon fill="none" stroke="#000000" points="8.5,-125.8996 8.5,-147.8996 95.5,-147.8996 95.5,-125.8996 8.5,-125.8996"/>
<image xlink:href="../../images/primaryKeys.png" width="11px" height="12px" preserveAspectRatio="xMinYMin meet" x="13.5" y="-142.9"/>
<text text-anchor="start" x="34.5" y="-132.9996" font-family="Helvetica,sans-Serif" font-size="11.00" fill="#000000">id</text>
<polygon fill="none" stroke="#000000" points="8.5,-106.8996 8.5,-125.8996 95.5,-125.8996 95.5,-106.8996 8.5,-106.8996"/>
<text text-anchor="start" x="11.5" y="-112.9996" font-family="Helvetica,sans-Serif" font-size="11.00" fill="#000000">...</text>
<polygon fill="#ffffff" stroke="transparent" points="8.5,-87.8996 8.5,-106.8996 25.5,-106.8996 25.5,-87.8996 8.5,-87.8996"/>
<polygon fill="none" stroke="#000000" points="8.5,-87.8996 8.5,-106.8996 25.5,-106.8996 25.5,-87.8996 8.5,-87.8996"/>
<text text-anchor="start" x="11.5" y="-93.9996" font-family="Helvetica,sans-Serif" font-size="11.00" fill="#000000"> &#160;</text>
<polygon fill="#ffffff" stroke="transparent" points="25.5,-87.8996 25.5,-106.8996 71.5,-106.8996 71.5,-87.8996 25.5,-87.8996"/>
<polygon fill="none" stroke="#000000" points="25.5,-87.8996 25.5,-106.8996 71.5,-106.8996 71.5,-87.8996 25.5,-87.8996"/>
<text text-anchor="start" x="29.9956" y="-93.9996" font-family="Helvetica,sans-Serif" font-size="11.00" fill="#000000">47 rows</text>
<polygon fill="#ffffff" stroke="transparent" points="71.5,-87.8996 71.5,-106.8996 95.5,-106.8996 95.5,-87.8996 71.5,-87.8996"/>
<polygon fill="none" stroke="#000000" points="71.5,-87.8996 71.5,-106.8996 95.5,-106.8996 95.5,-87.8996 71.5,-87.8996"/>
<text text-anchor="start" x="76.9053" y="-93.9996" font-family="Helvetica,sans-Serif" font-size="11.00" fill="#000000">6 &gt;</text>
</a>
</g>
</g>
<!-- item&#45;&gt;optionset -->
<g id="edge1" class="edge">
<title>item:w&#45;&gt;optionset:e</title>
<path fill="none" stroke="#000000" d="M130.1297,-155.4621C118.5865,-149.2746 113.4041,-136.8996 95.5,-136.8996"/>
<polygon fill="#000000" stroke="#000000" points="136.7195,-157.0384 143.6625,-162.4008 140.6098,-157.969 144.5,-158.8996 144.5,-158.8996 144.5,-158.8996 140.6098,-157.969 145.3375,-155.3984 136.7195,-157.0384 136.7195,-157.0384"/>
<ellipse fill="none" stroke="#000000" cx="133.6073" cy="-156.2939" rx="3.2" ry="3.2"/>
</g>
<!-- item&#45;&gt;optionset -->
<g id="edge2" class="edge">
<title>item:w&#45;&gt;optionset:e</title>
<path fill="none" stroke="#000000" d="M129.9909,-136.8996C118.6774,-136.8996 111.4931,-136.8996 95.5,-136.8996"/>
<polygon fill="#000000" stroke="#000000" points="136.5,-136.8996 144.5,-140.4996 140.5,-136.8996 144.5,-136.8996 144.5,-136.8996 144.5,-136.8996 140.5,-136.8996 144.5,-133.2996 136.5,-136.8996 136.5,-136.8996"/>
<ellipse fill="none" stroke="#000000" cx="133.3" cy="-136.8997" rx="3.2" ry="3.2"/>
</g>
<!-- key_topics_to_items -->
<g id="node3" class="node">
<title>key_topics_to_items</title>
<g id="a_node3"><a xlink:href="../../tables/key_topics_to_items.html" xlink:title="key_topics_to_items" target="_top">
<polygon fill="#ffffff" stroke="transparent" points="506,-78.8996 506,-168.8996 691,-168.8996 691,-78.8996 506,-78.8996"/>
<polygon fill="#f5f5f5" stroke="transparent" points="508.5,-143.8996 508.5,-166.8996 689.5,-166.8996 689.5,-143.8996 508.5,-143.8996"/>
<polygon fill="none" stroke="#000000" points="508.5,-143.8996 508.5,-166.8996 689.5,-166.8996 689.5,-143.8996 508.5,-143.8996"/>
<text text-anchor="start" x="513.5" y="-152.9996" font-family="Helvetica,sans-Serif" font-weight="bold" font-size="11.00" fill="#000000">key_topics_to_items</text>
<text text-anchor="start" x="654.5437" y="-151.9996" font-family="Helvetica,sans-Serif" font-size="11.00" fill="#000000">[table]</text>
<polygon fill="none" stroke="#000000" points="508.5,-121.8996 508.5,-143.8996 647.5,-143.8996 647.5,-121.8996 508.5,-121.8996"/>
<image xlink:href="../../images/primaryKeys.png" width="11px" height="12px" preserveAspectRatio="xMinYMin meet" x="513.5" y="-138.9"/>
<text text-anchor="start" x="528.5" y="-128.9996" font-family="Helvetica,sans-Serif" font-size="11.00" fill="#000000">item</text>
<polygon fill="none" stroke="#000000" points="647.5,-121.8996 647.5,-143.8996 689.5,-143.8996 689.5,-121.8996 647.5,-121.8996"/>
<text text-anchor="start" x="650.4644" y="-129.5996" font-family="Helvetica,sans-Serif" font-size="11.00" fill="#000000">int4[10]</text>
<polygon fill="none" stroke="#000000" points="508.5,-99.8996 508.5,-121.8996 647.5,-121.8996 647.5,-99.8996 508.5,-99.8996"/>
<image xlink:href="../../images/primaryKeys.png" width="11px" height="12px" preserveAspectRatio="xMinYMin meet" x="513.5" y="-116.9"/>
<text text-anchor="start" x="528.5" y="-106.9996" font-family="Helvetica,sans-Serif" font-size="11.00" fill="#000000">keytopic</text>
<polygon fill="none" stroke="#000000" points="647.5,-99.8996 647.5,-121.8996 689.5,-121.8996 689.5,-99.8996 647.5,-99.8996"/>
<text text-anchor="start" x="650.4644" y="-107.5996" font-family="Helvetica,sans-Serif" font-size="11.00" fill="#000000">int4[10]</text>
<polygon fill="#ffffff" stroke="transparent" points="508.5,-80.8996 508.5,-99.8996 558.5,-99.8996 558.5,-80.8996 508.5,-80.8996"/>
<polygon fill="none" stroke="#000000" points="508.5,-80.8996 508.5,-99.8996 558.5,-99.8996 558.5,-80.8996 508.5,-80.8996"/>
<text text-anchor="start" x="511.5" y="-86.9996" font-family="Helvetica,sans-Serif" font-size="11.00" fill="#000000">&lt; 2</text>
<polygon fill="#ffffff" stroke="transparent" points="558.5,-80.8996 558.5,-99.8996 647.5,-99.8996 647.5,-80.8996 558.5,-80.8996"/>
<polygon fill="none" stroke="#000000" points="558.5,-80.8996 558.5,-99.8996 647.5,-99.8996 647.5,-80.8996 558.5,-80.8996"/>
<text text-anchor="start" x="590.7089" y="-86.9996" font-family="Helvetica,sans-Serif" font-size="11.00" fill="#000000">2,352 rows</text>
<polygon fill="#ffffff" stroke="transparent" points="647.5,-80.8996 647.5,-99.8996 689.5,-99.8996 689.5,-80.8996 647.5,-80.8996"/>
<polygon fill="none" stroke="#000000" points="647.5,-80.8996 647.5,-99.8996 689.5,-99.8996 689.5,-80.8996 647.5,-80.8996"/>
<text text-anchor="start" x="670.9053" y="-86.9996" font-family="Helvetica,sans-Serif" font-size="11.00" fill="#000000">0 &gt;</text>
<polygon fill="none" stroke="#000000" stroke-width="2" points="507,-79.8996 507,-167.8996 690,-167.8996 690,-79.8996 507,-79.8996"/>
</a>
</g>
</g>
<!-- key_topics_to_items&#45;&gt;item -->
<g id="edge3" class="edge">
<title>key_topics_to_items:w&#45;&gt;item:e</title>
<path fill="none" stroke="#000000" d="M494.4801,-137.6775C480.1524,-149.8185 482.5475,-180.8996 457.5,-180.8996"/>
<polygon fill="#000000" stroke="#000000" points="500.9277,-135.4802 509.6613,-136.3071 504.7138,-134.1899 508.5,-132.8996 508.5,-132.8996 508.5,-132.8996 504.7138,-134.1899 507.3387,-129.492 500.9277,-135.4802 500.9277,-135.4802"/>
<ellipse fill="none" stroke="#000000" cx="497.8987" cy="-136.5125" rx="3.2" ry="3.2"/>
</g>
<!-- key_topics_to_items&#45;&gt;optionset -->
<g id="edge4" class="edge">
<title>key_topics_to_items:w&#45;&gt;optionset:e</title>
<path fill="none" stroke="#000000" d="M494.382,-106.5953C484.3964,-99.0383 482.0707,-83.642 465,-77.8996 326.409,-31.2791 265.3854,-9.7795 136,-77.8996 107.8565,-92.7168 127.3057,-136.8996 95.5,-136.8996"/>
<polygon fill="#000000" stroke="#000000" points="500.8477,-108.5665 507.4501,-114.3431 504.6739,-109.7331 508.5,-110.8996 508.5,-110.8996 508.5,-110.8996 504.6739,-109.7331 509.5499,-107.4561 500.8477,-108.5665 500.8477,-108.5665"/>
<ellipse fill="none" stroke="#000000" cx="497.7868" cy="-107.6333" rx="3.2" ry="3.2"/>
</g>
</g>
</svg>
