<?xml version="1.0" encoding="UTF-8" standalone="no"?>
<!DOCTYPE svg PUBLIC "-//W3C//DTD SVG 1.1//EN"
 "http://www.w3.org/Graphics/SVG/1.1/DTD/svg11.dtd">
<!-- Generated by graphviz version 2.40.1 (20161225.0304)
 -->
<!-- Title: oneDegreeRelationshipsDiagram Pages: 1 -->
<svg width="755pt" height="457pt"
 viewBox="0.00 0.00 755.00 457.20" xmlns="http://www.w3.org/2000/svg" xmlns:xlink="http://www.w3.org/1999/xlink">
<g id="graph0" class="graph" transform="scale(1 1) rotate(0) translate(4 453.2)">
<title>oneDegreeRelationshipsDiagram</title>
<polygon fill="#ffffff" stroke="transparent" points="-4,4 -4,-453.2 751,-453.2 751,4 -4,4"/>
<text text-anchor="middle" x="72.4936" y="-7.3" font-family="Helvetica,sans-Serif" font-size="11.00" fill="#000000">Generated by SchemaSpy</text>
<!-- covid_tags_to_items -->
<g id="node1" class="node">
<title>covid_tags_to_items</title>
<g id="a_node1"><a xlink:href="../../tables/covid_tags_to_items.html" xlink:title="covid_tags_to_items" target="_top">
<polygon fill="#ffffff" stroke="transparent" points="592,-359.2 592,-445.2 735,-445.2 735,-359.2 592,-359.2"/>
<polygon fill="#f5f5f5" stroke="transparent" points="592.5,-422.2 592.5,-445.2 735.5,-445.2 735.5,-422.2 592.5,-422.2"/>
<polygon fill="none" stroke="#000000" points="592.5,-422.2 592.5,-445.2 735.5,-445.2 735.5,-422.2 592.5,-422.2"/>
<text text-anchor="start" x="597.3758" y="-431.3" font-family="Helvetica,sans-Serif" font-weight="bold" font-size="11.00" fill="#000000">covid_tags_to_items</text>
<text text-anchor="start" x="701.0219" y="-430.3" font-family="Helvetica,sans-Serif" font-size="11.00" fill="#000000">[table]</text>
<polygon fill="none" stroke="#000000" points="592.5,-400.2 592.5,-422.2 735.5,-422.2 735.5,-400.2 592.5,-400.2"/>
<image xlink:href="../../images/primaryKeys.png" width="11px" height="12px" preserveAspectRatio="xMinYMin meet" x="597.5" y="-417.2"/>
<text text-anchor="start" x="614.5" y="-407.3" font-family="Helvetica,sans-Serif" font-size="11.00" fill="#000000">covidtag</text>
<polygon fill="none" stroke="#000000" points="592.5,-378.2 592.5,-400.2 735.5,-400.2 735.5,-378.2 592.5,-378.2"/>
<image xlink:href="../../images/primaryKeys.png" width="11px" height="12px" preserveAspectRatio="xMinYMin meet" x="597.5" y="-395.2"/>
<text text-anchor="start" x="614.5" y="-385.3" font-family="Helvetica,sans-Serif" font-size="11.00" fill="#000000">item</text>
<polygon fill="#ffffff" stroke="transparent" points="592.5,-359.2 592.5,-378.2 638.5,-378.2 638.5,-359.2 592.5,-359.2"/>
<polygon fill="none" stroke="#000000" points="592.5,-359.2 592.5,-378.2 638.5,-378.2 638.5,-359.2 592.5,-359.2"/>
<text text-anchor="start" x="595.5" y="-365.3" font-family="Helvetica,sans-Serif" font-size="11.00" fill="#000000">&lt; 2</text>
<polygon fill="#ffffff" stroke="transparent" points="638.5,-359.2 638.5,-378.2 710.5,-378.2 710.5,-359.2 638.5,-359.2"/>
<polygon fill="none" stroke="#000000" points="638.5,-359.2 638.5,-378.2 710.5,-378.2 710.5,-359.2 638.5,-359.2"/>
<text text-anchor="start" x="653.7089" y="-365.3" font-family="Helvetica,sans-Serif" font-size="11.00" fill="#000000">4,810 rows</text>
<polygon fill="#ffffff" stroke="transparent" points="710.5,-359.2 710.5,-378.2 735.5,-378.2 735.5,-359.2 710.5,-359.2"/>
<polygon fill="none" stroke="#000000" points="710.5,-359.2 710.5,-378.2 735.5,-378.2 735.5,-359.2 710.5,-359.2"/>
<text text-anchor="start" x="726.3862" y="-365.3" font-family="Helvetica,sans-Serif" font-size="11.00" fill="#000000"> &#160;</text>
</a>
</g>
</g>
<!-- optionset -->
<g id="node2" class="node">
<title>optionset</title>
<g id="a_node2"><a xlink:href="../../tables/optionset.html" xlink:title="optionset" target="_top">
<polygon fill="#ffffff" stroke="transparent" points="8,-154.2 8,-266.2 177,-266.2 177,-154.2 8,-154.2"/>
<polygon fill="#f5f5f5" stroke="transparent" points="10.5,-241.2 10.5,-264.2 175.5,-264.2 175.5,-241.2 10.5,-241.2"/>
<polygon fill="none" stroke="#000000" points="10.5,-241.2 10.5,-264.2 175.5,-264.2 175.5,-241.2 10.5,-241.2"/>
<text text-anchor="start" x="15.5" y="-250.3" font-family="Helvetica,sans-Serif" font-weight="bold" font-size="11.00" fill="#000000">optionset</text>
<text text-anchor="start" x="140.5437" y="-249.3" font-family="Helvetica,sans-Serif" font-size="11.00" fill="#000000">[table]</text>
<polygon fill="none" stroke="#000000" points="10.5,-219.2 10.5,-241.2 85.5,-241.2 85.5,-219.2 10.5,-219.2"/>
<image xlink:href="../../images/primaryKeys.png" width="11px" height="12px" preserveAspectRatio="xMinYMin meet" x="15.5" y="-236.2"/>
<text text-anchor="start" x="30.5" y="-226.3" font-family="Helvetica,sans-Serif" font-size="11.00" fill="#000000">id</text>
<polygon fill="none" stroke="#000000" points="85.5,-219.2 85.5,-241.2 175.5,-241.2 175.5,-219.2 85.5,-219.2"/>
<text text-anchor="start" x="88.5" y="-226.9" font-family="Helvetica,sans-Serif" font-size="11.00" fill="#000000">serial[10]</text>
<polygon fill="none" stroke="#000000" points="10.5,-197.2 10.5,-219.2 85.5,-219.2 85.5,-197.2 10.5,-197.2"/>
<text text-anchor="start" x="30.5" y="-204.3" font-family="Helvetica,sans-Serif" font-size="11.00" fill="#000000">name</text>
<polygon fill="none" stroke="#000000" points="85.5,-197.2 85.5,-219.2 175.5,-219.2 175.5,-197.2 85.5,-197.2"/>
<text text-anchor="start" x="88.0042" y="-204.9" font-family="Helvetica,sans-Serif" font-size="11.00" fill="#000000">text[2147483647]</text>
<polygon fill="none" stroke="#000000" points="10.5,-175.2 10.5,-197.2 85.5,-197.2 85.5,-175.2 10.5,-175.2"/>
<text text-anchor="start" x="30.5" y="-182.3" font-family="Helvetica,sans-Serif" font-size="11.00" fill="#000000">classtype</text>
<polygon fill="none" stroke="#000000" points="85.5,-175.2 85.5,-197.2 175.5,-197.2 175.5,-175.2 85.5,-175.2"/>
<text text-anchor="start" x="88.0042" y="-182.9" font-family="Helvetica,sans-Serif" font-size="11.00" fill="#000000">text[2147483647]</text>
<polygon fill="#ffffff" stroke="transparent" points="10.5,-156.2 10.5,-175.2 36.5,-175.2 36.5,-156.2 10.5,-156.2"/>
<polygon fill="none" stroke="#000000" points="10.5,-156.2 10.5,-175.2 36.5,-175.2 36.5,-156.2 10.5,-156.2"/>
<text text-anchor="start" x="13.5" y="-162.3" font-family="Helvetica,sans-Serif" font-size="11.00" fill="#000000">&lt; 0</text>
<polygon fill="#ffffff" stroke="transparent" points="36.5,-156.2 36.5,-175.2 85.5,-175.2 85.5,-156.2 36.5,-156.2"/>
<polygon fill="none" stroke="#000000" points="36.5,-156.2 36.5,-175.2 85.5,-175.2 85.5,-156.2 36.5,-156.2"/>
<text text-anchor="start" x="43.9956" y="-162.3" font-family="Helvetica,sans-Serif" font-size="11.00" fill="#000000">47 rows</text>
<polygon fill="#ffffff" stroke="transparent" points="85.5,-156.2 85.5,-175.2 175.5,-175.2 175.5,-156.2 85.5,-156.2"/>
<polygon fill="none" stroke="#000000" points="85.5,-156.2 85.5,-175.2 175.5,-175.2 175.5,-156.2 85.5,-156.2"/>
<text text-anchor="start" x="156.9053" y="-162.3" font-family="Helvetica,sans-Serif" font-size="11.00" fill="#000000">6 &gt;</text>
<polygon fill="none" stroke="#000000" stroke-width="2" points="9,-155.2 9,-265.2 176,-265.2 176,-155.2 9,-155.2"/>
</a>
</g>
</g>
<!-- covid_tags_to_items&#45;&gt;optionset -->
<g id="edge1" class="edge">
<title>covid_tags_to_items:w&#45;&gt;optionset:e</title>
<path fill="none" stroke="#000000" d="M577.8158,-411.2794C418.2768,-412.9848 344.8118,-440.5475 218,-335.2 179.2749,-303.0296 225.8445,-230.2 175.5,-230.2"/>
<polygon fill="#000000" stroke="#000000" points="584.5001,-411.2433 592.5195,-414.7999 588.5001,-411.2217 592.5,-411.2 592.5,-411.2 592.5,-411.2 588.5001,-411.2217 592.4805,-407.6001 584.5001,-411.2433 584.5001,-411.2433"/>
<ellipse fill="none" stroke="#000000" cx="581.3002" cy="-411.2606" rx="3.2" ry="3.2"/>
</g>
<!-- item -->
<g id="node3" class="node">
<title>item</title>
<g id="a_node3"><a xlink:href="../../tables/item.html" xlink:title="item" target="_top">
<polygon fill="#ffffff" stroke="transparent" points="226,-170.7 226,-297.7 539,-297.7 539,-170.7 226,-170.7"/>
<polygon fill="#f5f5f5" stroke="transparent" points="226.5,-274.2 226.5,-297.2 539.5,-297.2 539.5,-274.2 226.5,-274.2"/>
<polygon fill="none" stroke="#000000" points="226.5,-274.2 226.5,-297.2 539.5,-297.2 539.5,-274.2 226.5,-274.2"/>
<text text-anchor="start" x="231.5" y="-283.3" font-family="Helvetica,sans-Serif" font-weight="bold" font-size="11.00" fill="#000000">item</text>
<text text-anchor="start" x="504.5437" y="-282.3" font-family="Helvetica,sans-Serif" font-size="11.00" fill="#000000">[table]</text>
<polygon fill="none" stroke="#000000" points="226.5,-252.2 226.5,-274.2 539.5,-274.2 539.5,-252.2 226.5,-252.2"/>
<image xlink:href="../../images/primaryKeys.png" width="11px" height="12px" preserveAspectRatio="xMinYMin meet" x="231.5" y="-269.2"/>
<text text-anchor="start" x="246.5" y="-259.3" font-family="Helvetica,sans-Serif" font-size="11.00" fill="#000000">id</text>
<polygon fill="#ffffff" stroke="transparent" points="226.5,-230.2 226.5,-252.2 539.5,-252.2 539.5,-230.2 226.5,-230.2"/>
<polygon fill="none" stroke="#000000" points="226.5,-230.2 226.5,-252.2 539.5,-252.2 539.5,-230.2 226.5,-230.2"/>
<image xlink:href="../../images/foreignKeys.png" width="11px" height="12px" preserveAspectRatio="xMinYMin meet" x="231.5" y="-247.2"/>
<text text-anchor="start" x="246.5" y="-237.3" font-family="Helvetica,sans-Serif" font-size="11.00" fill="#000000">field_relationship</text>
<polygon fill="#ffffff" stroke="transparent" points="226.5,-208.2 226.5,-230.2 539.5,-230.2 539.5,-208.2 226.5,-208.2"/>
<polygon fill="none" stroke="#000000" points="226.5,-208.2 226.5,-230.2 539.5,-230.2 539.5,-208.2 226.5,-208.2"/>
<image xlink:href="../../images/foreignKeys.png" width="11px" height="12px" preserveAspectRatio="xMinYMin meet" x="231.5" y="-225.2"/>
<text text-anchor="start" x="246.5" y="-215.3" font-family="Helvetica,sans-Serif" font-size="11.00" fill="#000000">geo_specificity</text>
<polygon fill="none" stroke="#000000" points="226.5,-189.2 226.5,-208.2 539.5,-208.2 539.5,-189.2 226.5,-189.2"/>
<text text-anchor="start" x="229.5" y="-195.3" font-family="Helvetica,sans-Serif" font-size="11.00" fill="#000000">...</text>
<polygon fill="#ffffff" stroke="transparent" points="226.5,-170.2 226.5,-189.2 350.5,-189.2 350.5,-170.2 226.5,-170.2"/>
<polygon fill="none" stroke="#000000" points="226.5,-170.2 226.5,-189.2 350.5,-189.2 350.5,-170.2 226.5,-170.2"/>
<text text-anchor="start" x="229.5" y="-176.3" font-family="Helvetica,sans-Serif" font-size="11.00" fill="#000000">&lt; 2</text>
<polygon fill="#ffffff" stroke="transparent" points="350.5,-170.2 350.5,-189.2 460.5,-189.2 460.5,-170.2 350.5,-170.2"/>
<polygon fill="none" stroke="#000000" points="350.5,-170.2 350.5,-189.2 460.5,-189.2 460.5,-170.2 350.5,-170.2"/>
<text text-anchor="start" x="403.7089" y="-176.3" font-family="Helvetica,sans-Serif" font-size="11.00" fill="#000000">2,352 rows</text>
<polygon fill="#ffffff" stroke="transparent" points="460.5,-170.2 460.5,-189.2 539.5,-189.2 539.5,-170.2 460.5,-170.2"/>
<polygon fill="none" stroke="#000000" points="460.5,-170.2 460.5,-189.2 539.5,-189.2 539.5,-170.2 460.5,-170.2"/>
<text text-anchor="start" x="514.7904" y="-176.3" font-family="Helvetica,sans-Serif" font-size="11.00" fill="#000000">11 &gt;</text>
</a>
</g>
</g>
<!-- covid_tags_to_items&#45;&gt;item -->
<g id="edge2" class="edge">
<title>covid_tags_to_items:w&#45;&gt;item:e</title>
<path fill="none" stroke="#000000" d="M578.1587,-385.8298C543.8947,-365.7923 594.3196,-263.2 539.5,-263.2"/>
<polygon fill="#000000" stroke="#000000" points="584.7122,-387.3698 591.6764,-392.7045 588.6061,-388.2849 592.5,-389.2 592.5,-389.2 592.5,-389.2 588.6061,-388.2849 593.3236,-385.6955 584.7122,-387.3698 584.7122,-387.3698"/>
<ellipse fill="none" stroke="#000000" cx="581.597" cy="-386.6377" rx="3.2" ry="3.2"/>
</g>
<!-- item&#45;&gt;optionset -->
<g id="edge5" class="edge">
<title>item:w&#45;&gt;optionset:e</title>
<path fill="none" stroke="#000000" d="M212.0097,-239.4813C199.8398,-236.3875 192.8909,-230.2 175.5,-230.2"/>
<polygon fill="#000000" stroke="#000000" points="218.5557,-240.2576 226.0759,-244.7749 222.5278,-240.7288 226.5,-241.2 226.5,-241.2 226.5,-241.2 222.5278,-240.7288 226.9241,-237.6251 218.5557,-240.2576 218.5557,-240.2576"/>
<ellipse fill="none" stroke="#000000" cx="215.378" cy="-239.8807" rx="3.2" ry="3.2"/>
</g>
<!-- item&#45;&gt;optionset -->
<g id="edge6" class="edge">
<title>item:w&#45;&gt;optionset:e</title>
<path fill="none" stroke="#000000" d="M212.0097,-220.9188C199.8398,-224.0125 192.8909,-230.2 175.5,-230.2"/>
<polygon fill="#000000" stroke="#000000" points="218.5557,-220.1424 226.9241,-222.7749 222.5278,-219.6712 226.5,-219.2 226.5,-219.2 226.5,-219.2 222.5278,-219.6712 226.0759,-215.6251 218.5557,-220.1424 218.5557,-220.1424"/>
<ellipse fill="none" stroke="#000000" cx="215.378" cy="-220.5193" rx="3.2" ry="3.2"/>
</g>
<!-- covid_topics_to_items -->
<g id="node4" class="node">
<title>covid_topics_to_items</title>
<g id="a_node4"><a xlink:href="../../tables/covid_topics_to_items.html" xlink:title="covid_topics_to_items" target="_top">
<polygon fill="#ffffff" stroke="transparent" points="588,-252.2 588,-338.2 739,-338.2 739,-252.2 588,-252.2"/>
<polygon fill="#f5f5f5" stroke="transparent" points="588.5,-315.2 588.5,-338.2 739.5,-338.2 739.5,-315.2 588.5,-315.2"/>
<polygon fill="none" stroke="#000000" points="588.5,-315.2 588.5,-338.2 739.5,-338.2 739.5,-315.2 588.5,-315.2"/>
<text text-anchor="start" x="593.4053" y="-324.3" font-family="Helvetica,sans-Serif" font-weight="bold" font-size="11.00" fill="#000000">covid_topics_to_items</text>
<text text-anchor="start" x="705.0219" y="-323.3" font-family="Helvetica,sans-Serif" font-size="11.00" fill="#000000">[table]</text>
<polygon fill="none" stroke="#000000" points="588.5,-293.2 588.5,-315.2 739.5,-315.2 739.5,-293.2 588.5,-293.2"/>
<image xlink:href="../../images/primaryKeys.png" width="11px" height="12px" preserveAspectRatio="xMinYMin meet" x="593.5" y="-310.2"/>
<text text-anchor="start" x="609.5" y="-300.3" font-family="Helvetica,sans-Serif" font-size="11.00" fill="#000000">covidtopic</text>
<polygon fill="none" stroke="#000000" points="588.5,-271.2 588.5,-293.2 739.5,-293.2 739.5,-271.2 588.5,-271.2"/>
<image xlink:href="../../images/primaryKeys.png" width="11px" height="12px" preserveAspectRatio="xMinYMin meet" x="593.5" y="-288.2"/>
<text text-anchor="start" x="609.5" y="-278.3" font-family="Helvetica,sans-Serif" font-size="11.00" fill="#000000">item</text>
<polygon fill="#ffffff" stroke="transparent" points="588.5,-252.2 588.5,-271.2 649.5,-271.2 649.5,-252.2 588.5,-252.2"/>
<polygon fill="none" stroke="#000000" points="588.5,-252.2 588.5,-271.2 649.5,-271.2 649.5,-252.2 588.5,-252.2"/>
<text text-anchor="start" x="591.5" y="-258.3" font-family="Helvetica,sans-Serif" font-size="11.00" fill="#000000">&lt; 2</text>
<polygon fill="#ffffff" stroke="transparent" points="649.5,-252.2 649.5,-271.2 707.5,-271.2 707.5,-252.2 649.5,-252.2"/>
<polygon fill="none" stroke="#000000" points="649.5,-252.2 649.5,-271.2 707.5,-271.2 707.5,-252.2 649.5,-252.2"/>
<text text-anchor="start" x="672.1105" y="-258.3" font-family="Helvetica,sans-Serif" font-size="11.00" fill="#000000">0 rows</text>
<polygon fill="#ffffff" stroke="transparent" points="707.5,-252.2 707.5,-271.2 739.5,-271.2 739.5,-252.2 707.5,-252.2"/>
<polygon fill="none" stroke="#000000" points="707.5,-252.2 707.5,-271.2 739.5,-271.2 739.5,-252.2 707.5,-252.2"/>
<text text-anchor="start" x="730.3862" y="-258.3" font-family="Helvetica,sans-Serif" font-size="11.00" fill="#000000"> &#160;</text>
</a>
</g>
</g>
<!-- covid_topics_to_items&#45;&gt;optionset -->
<g id="edge3" class="edge">
<title>covid_topics_to_items:w&#45;&gt;optionset:e</title>
<path fill="none" stroke="#000000" d="M574.1002,-304.9821C565.6707,-305.9646 559.58,-307.5951 547,-308.2 400.9465,-315.2225 343.7196,-382.8695 218,-308.2 184.0568,-288.0399 214.9787,-230.2 175.5,-230.2"/>
<polygon fill="#000000" stroke="#000000" points="580.5118,-304.6339 588.6953,-307.7947 584.5059,-304.417 588.5,-304.2 588.5,-304.2 588.5,-304.2 584.5059,-304.417 588.3047,-300.6053 580.5118,-304.6339 580.5118,-304.6339"/>
<ellipse fill="none" stroke="#000000" cx="577.3165" cy="-304.8075" rx="3.2" ry="3.2"/>
</g>
<!-- covid_topics_to_items&#45;&gt;item -->
<g id="edge4" class="edge">
<title>covid_topics_to_items:w&#45;&gt;item:e</title>
<path fill="none" stroke="#000000" d="M574.2744,-279.2313C562.6829,-273.8875 557.0182,-263.2 539.5,-263.2"/>
<polygon fill="#000000" stroke="#000000" points="580.6687,-280.5656 587.7645,-285.7241 584.5844,-281.3828 588.5,-282.2 588.5,-282.2 588.5,-282.2 584.5844,-281.3828 589.2355,-278.6759 580.6687,-280.5656 580.6687,-280.5656"/>
<ellipse fill="none" stroke="#000000" cx="577.5362" cy="-279.9119" rx="3.2" ry="3.2"/>
</g>
<!-- key_topics_to_items -->
<g id="node5" class="node">
<title>key_topics_to_items</title>
<g id="a_node5"><a xlink:href="../../tables/key_topics_to_items.html" xlink:title="key_topics_to_items" target="_top">
<polygon fill="#ffffff" stroke="transparent" points="592.5,-145.2 592.5,-231.2 734.5,-231.2 734.5,-145.2 592.5,-145.2"/>
<polygon fill="#f5f5f5" stroke="transparent" points="592.5,-208.2 592.5,-231.2 734.5,-231.2 734.5,-208.2 592.5,-208.2"/>
<polygon fill="none" stroke="#000000" points="592.5,-208.2 592.5,-231.2 734.5,-231.2 734.5,-208.2 592.5,-208.2"/>
<text text-anchor="start" x="597.1832" y="-217.3" font-family="Helvetica,sans-Serif" font-weight="bold" font-size="11.00" fill="#000000">key_topics_to_items</text>
<text text-anchor="start" x="700.0219" y="-216.3" font-family="Helvetica,sans-Serif" font-size="11.00" fill="#000000">[table]</text>
<polygon fill="none" stroke="#000000" points="592.5,-186.2 592.5,-208.2 734.5,-208.2 734.5,-186.2 592.5,-186.2"/>
<image xlink:href="../../images/primaryKeys.png" width="11px" height="12px" preserveAspectRatio="xMinYMin meet" x="597.5" y="-203.2"/>
<text text-anchor="start" x="614.5" y="-193.3" font-family="Helvetica,sans-Serif" font-size="11.00" fill="#000000">item</text>
<polygon fill="none" stroke="#000000" points="592.5,-164.2 592.5,-186.2 734.5,-186.2 734.5,-164.2 592.5,-164.2"/>
<image xlink:href="../../images/primaryKeys.png" width="11px" height="12px" preserveAspectRatio="xMinYMin meet" x="597.5" y="-181.2"/>
<text text-anchor="start" x="614.5" y="-171.3" font-family="Helvetica,sans-Serif" font-size="11.00" fill="#000000">keytopic</text>
<polygon fill="#ffffff" stroke="transparent" points="592.5,-145.2 592.5,-164.2 638.5,-164.2 638.5,-145.2 592.5,-145.2"/>
<polygon fill="none" stroke="#000000" points="592.5,-145.2 592.5,-164.2 638.5,-164.2 638.5,-145.2 592.5,-145.2"/>
<text text-anchor="start" x="595.5" y="-151.3" font-family="Helvetica,sans-Serif" font-size="11.00" fill="#000000">&lt; 2</text>
<polygon fill="#ffffff" stroke="transparent" points="638.5,-145.2 638.5,-164.2 709.5,-164.2 709.5,-145.2 638.5,-145.2"/>
<polygon fill="none" stroke="#000000" points="638.5,-145.2 638.5,-164.2 709.5,-164.2 709.5,-145.2 638.5,-145.2"/>
<text text-anchor="start" x="652.7089" y="-151.3" font-family="Helvetica,sans-Serif" font-size="11.00" fill="#000000">2,352 rows</text>
<polygon fill="#ffffff" stroke="transparent" points="709.5,-145.2 709.5,-164.2 734.5,-164.2 734.5,-145.2 709.5,-145.2"/>
<polygon fill="none" stroke="#000000" points="709.5,-145.2 709.5,-164.2 734.5,-164.2 734.5,-145.2 709.5,-145.2"/>
<text text-anchor="start" x="725.3862" y="-151.3" font-family="Helvetica,sans-Serif" font-size="11.00" fill="#000000"> &#160;</text>
</a>
</g>
</g>
<!-- key_topics_to_items&#45;&gt;optionset -->
<g id="edge8" class="edge">
<title>key_topics_to_items:w&#45;&gt;optionset:e</title>
<path fill="none" stroke="#000000" d="M578.0318,-172.8837C568.0052,-169.3139 562.1106,-162.6265 547,-160.2 402.6274,-137.016 345.4307,-88.4898 218,-160.2 186.2811,-178.0494 211.8963,-230.2 175.5,-230.2"/>
<polygon fill="#000000" stroke="#000000" points="584.6006,-173.9353 591.9309,-178.7547 588.5503,-174.5676 592.5,-175.2 592.5,-175.2 592.5,-175.2 588.5503,-174.5676 593.0691,-171.6453 584.6006,-173.9353 584.6006,-173.9353"/>
<ellipse fill="none" stroke="#000000" cx="581.4408" cy="-173.4294" rx="3.2" ry="3.2"/>
</g>
<!-- key_topics_to_items&#45;&gt;item -->
<g id="edge7" class="edge">
<title>key_topics_to_items:w&#45;&gt;item:e</title>
<path fill="none" stroke="#000000" d="M578.2887,-201.9466C560.566,-217.0798 570.9485,-263.2 539.5,-263.2"/>
<polygon fill="#000000" stroke="#000000" points="584.912,-199.7344 593.6405,-200.6146 588.706,-198.4672 592.5,-197.2 592.5,-197.2 592.5,-197.2 588.706,-198.4672 591.3595,-193.7854 584.912,-199.7344 584.912,-199.7344"/>
<ellipse fill="none" stroke="#000000" cx="581.8769" cy="-200.7482" rx="3.2" ry="3.2"/>
</g>
<!-- tags_to_items -->
<g id="node6" class="node">
<title>tags_to_items</title>
<g id="a_node6"><a xlink:href="../../tables/tags_to_items.html" xlink:title="tags_to_items" target="_top">
<polygon fill="#ffffff" stroke="transparent" points="608,-38.2 608,-124.2 719,-124.2 719,-38.2 608,-38.2"/>
<polygon fill="#f5f5f5" stroke="transparent" points="608.5,-101.2 608.5,-124.2 719.5,-124.2 719.5,-101.2 608.5,-101.2"/>
<polygon fill="none" stroke="#000000" points="608.5,-101.2 608.5,-124.2 719.5,-124.2 719.5,-101.2 608.5,-101.2"/>
<text text-anchor="start" x="613.2686" y="-110.3" font-family="Helvetica,sans-Serif" font-weight="bold" font-size="11.00" fill="#000000">tags_to_items</text>
<text text-anchor="start" x="685.0219" y="-109.3" font-family="Helvetica,sans-Serif" font-size="11.00" fill="#000000">[table]</text>
<polygon fill="none" stroke="#000000" points="608.5,-79.2 608.5,-101.2 719.5,-101.2 719.5,-79.2 608.5,-79.2"/>
<image xlink:href="../../images/primaryKeys.png" width="11px" height="12px" preserveAspectRatio="xMinYMin meet" x="613.5" y="-96.2"/>
<text text-anchor="start" x="633.5" y="-86.3" font-family="Helvetica,sans-Serif" font-size="11.00" fill="#000000">item</text>
<polygon fill="none" stroke="#000000" points="608.5,-57.2 608.5,-79.2 719.5,-79.2 719.5,-57.2 608.5,-57.2"/>
<image xlink:href="../../images/primaryKeys.png" width="11px" height="12px" preserveAspectRatio="xMinYMin meet" x="613.5" y="-74.2"/>
<text text-anchor="start" x="633.5" y="-64.3" font-family="Helvetica,sans-Serif" font-size="11.00" fill="#000000">tag</text>
<polygon fill="#ffffff" stroke="transparent" points="608.5,-38.2 608.5,-57.2 649.5,-57.2 649.5,-38.2 608.5,-38.2"/>
<polygon fill="none" stroke="#000000" points="608.5,-38.2 608.5,-57.2 649.5,-57.2 649.5,-38.2 608.5,-38.2"/>
<text text-anchor="start" x="611.5" y="-44.3" font-family="Helvetica,sans-Serif" font-size="11.00" fill="#000000">&lt; 2</text>
<polygon fill="#ffffff" stroke="transparent" points="649.5,-38.2 649.5,-57.2 697.5,-57.2 697.5,-38.2 649.5,-38.2"/>
<polygon fill="none" stroke="#000000" points="649.5,-38.2 649.5,-57.2 697.5,-57.2 697.5,-38.2 649.5,-38.2"/>
<text text-anchor="start" x="662.1105" y="-44.3" font-family="Helvetica,sans-Serif" font-size="11.00" fill="#000000">0 rows</text>
<polygon fill="#ffffff" stroke="transparent" points="697.5,-38.2 697.5,-57.2 719.5,-57.2 719.5,-38.2 697.5,-38.2"/>
<polygon fill="none" stroke="#000000" points="697.5,-38.2 697.5,-57.2 719.5,-57.2 719.5,-38.2 697.5,-38.2"/>
<text text-anchor="start" x="710.3862" y="-44.3" font-family="Helvetica,sans-Serif" font-size="11.00" fill="#000000"> &#160;</text>
</a>
</g>
</g>
<!-- tags_to_items&#45;&gt;optionset -->
<g id="edge10" class="edge">
<title>tags_to_items:w&#45;&gt;optionset:e</title>
<path fill="none" stroke="#000000" d="M593.8592,-68.0671C429.0045,-65.0847 351.5702,-13.921 218,-119.2 176.5121,-151.9005 228.3258,-230.2 175.5,-230.2"/>
<polygon fill="#000000" stroke="#000000" points="600.5003,-68.1273 608.4673,-71.7999 604.5002,-68.1637 608.5,-68.2 608.5,-68.2 608.5,-68.2 604.5002,-68.1637 608.5327,-64.6001 600.5003,-68.1273 600.5003,-68.1273"/>
<ellipse fill="none" stroke="#000000" cx="597.3005" cy="-68.0982" rx="3.2" ry="3.2"/>
</g>
<!-- tags_to_items&#45;&gt;item -->
<g id="edge9" class="edge">
<title>tags_to_items:w&#45;&gt;item:e</title>
<path fill="none" stroke="#000000" d="M593.9234,-92.5148C538.0843,-113.0439 616.6202,-263.2 539.5,-263.2"/>
<polygon fill="#000000" stroke="#000000" points="600.599,-91.4547 609.0646,-93.7554 604.5495,-90.8274 608.5,-90.2 608.5,-90.2 608.5,-90.2 604.5495,-90.8274 607.9354,-86.6446 600.599,-91.4547 600.599,-91.4547"/>
<ellipse fill="none" stroke="#000000" cx="597.4386" cy="-91.9566" rx="3.2" ry="3.2"/>
</g>
</g>
</svg>
