<?xml version="1.0" encoding="UTF-8" standalone="no"?>
<!DOCTYPE svg PUBLIC "-//W3C//DTD SVG 1.1//EN"
 "http://www.w3.org/Graphics/SVG/1.1/DTD/svg11.dtd">
<!-- Generated by graphviz version 2.40.1 (20161225.0304)
 -->
<!-- Title: twoDegreesRelationshipsDiagram Pages: 1 -->
<svg width="755pt" height="950pt"
 viewBox="0.00 0.00 755.00 950.20" xmlns="http://www.w3.org/2000/svg" xmlns:xlink="http://www.w3.org/1999/xlink">
<g id="graph0" class="graph" transform="scale(1 1) rotate(0) translate(4 946.2)">
<title>twoDegreesRelationshipsDiagram</title>
<polygon fill="#ffffff" stroke="transparent" points="-4,4 -4,-946.2 751,-946.2 751,4 -4,4"/>
<text text-anchor="middle" x="72.4936" y="-7.3" font-family="Helvetica,sans-Serif" font-size="11.00" fill="#000000">Generated by SchemaSpy</text>
<!-- authors_to_items -->
<g id="node1" class="node">
<title>authors_to_items</title>
<g id="a_node1"><a xlink:href="../../tables/authors_to_items.html" xlink:title="authors_to_items" target="_top">
<polygon fill="#ffffff" stroke="transparent" points="600,-662.7 600,-723.7 727,-723.7 727,-662.7 600,-662.7"/>
<polygon fill="#f5f5f5" stroke="transparent" points="600.5,-700.2 600.5,-723.2 727.5,-723.2 727.5,-700.2 600.5,-700.2"/>
<polygon fill="none" stroke="#000000" points="600.5,-700.2 600.5,-723.2 727.5,-723.2 727.5,-700.2 600.5,-700.2"/>
<text text-anchor="start" x="605.3227" y="-709.3" font-family="Helvetica,sans-Serif" font-weight="bold" font-size="11.00" fill="#000000">authors_to_items</text>
<text text-anchor="start" x="693.0219" y="-708.3" font-family="Helvetica,sans-Serif" font-size="11.00" fill="#000000">[table]</text>
<polygon fill="none" stroke="#000000" points="600.5,-681.2 600.5,-700.2 727.5,-700.2 727.5,-681.2 600.5,-681.2"/>
<text text-anchor="start" x="603.5" y="-687.3" font-family="Helvetica,sans-Serif" font-size="11.00" fill="#000000">...</text>
<polygon fill="#ffffff" stroke="transparent" points="600.5,-662.2 600.5,-681.2 638.5,-681.2 638.5,-662.2 600.5,-662.2"/>
<polygon fill="none" stroke="#000000" points="600.5,-662.2 600.5,-681.2 638.5,-681.2 638.5,-662.2 600.5,-662.2"/>
<text text-anchor="start" x="603.5" y="-668.3" font-family="Helvetica,sans-Serif" font-size="11.00" fill="#000000">&lt; 2</text>
<polygon fill="#ffffff" stroke="transparent" points="638.5,-662.2 638.5,-681.2 706.5,-681.2 706.5,-662.2 638.5,-662.2"/>
<polygon fill="none" stroke="#000000" points="638.5,-662.2 638.5,-681.2 706.5,-681.2 706.5,-662.2 638.5,-662.2"/>
<text text-anchor="start" x="649.7089" y="-668.3" font-family="Helvetica,sans-Serif" font-size="11.00" fill="#000000">2,850 rows</text>
<polygon fill="#ffffff" stroke="transparent" points="706.5,-662.2 706.5,-681.2 727.5,-681.2 727.5,-662.2 706.5,-662.2"/>
<polygon fill="none" stroke="#000000" points="706.5,-662.2 706.5,-681.2 727.5,-681.2 727.5,-662.2 706.5,-662.2"/>
<text text-anchor="start" x="718.3862" y="-668.3" font-family="Helvetica,sans-Serif" font-size="11.00" fill="#000000"> &#160;</text>
</a>
</g>
</g>
<!-- item -->
<g id="node2" class="node">
<title>item</title>
<g id="a_node2"><a xlink:href="../../tables/item.html" xlink:title="item" target="_top">
<polygon fill="#ffffff" stroke="transparent" points="226,-351.7 226,-478.7 539,-478.7 539,-351.7 226,-351.7"/>
<polygon fill="#f5f5f5" stroke="transparent" points="226.5,-455.2 226.5,-478.2 539.5,-478.2 539.5,-455.2 226.5,-455.2"/>
<polygon fill="none" stroke="#000000" points="226.5,-455.2 226.5,-478.2 539.5,-478.2 539.5,-455.2 226.5,-455.2"/>
<text text-anchor="start" x="231.5" y="-464.3" font-family="Helvetica,sans-Serif" font-weight="bold" font-size="11.00" fill="#000000">item</text>
<text text-anchor="start" x="504.5437" y="-463.3" font-family="Helvetica,sans-Serif" font-size="11.00" fill="#000000">[table]</text>
<polygon fill="none" stroke="#000000" points="226.5,-433.2 226.5,-455.2 539.5,-455.2 539.5,-433.2 226.5,-433.2"/>
<image xlink:href="../../images/primaryKeys.png" width="11px" height="12px" preserveAspectRatio="xMinYMin meet" x="231.5" y="-450.2"/>
<text text-anchor="start" x="246.5" y="-440.3" font-family="Helvetica,sans-Serif" font-size="11.00" fill="#000000">id</text>
<polygon fill="#ffffff" stroke="transparent" points="226.5,-411.2 226.5,-433.2 539.5,-433.2 539.5,-411.2 226.5,-411.2"/>
<polygon fill="none" stroke="#000000" points="226.5,-411.2 226.5,-433.2 539.5,-433.2 539.5,-411.2 226.5,-411.2"/>
<image xlink:href="../../images/foreignKeys.png" width="11px" height="12px" preserveAspectRatio="xMinYMin meet" x="231.5" y="-428.2"/>
<text text-anchor="start" x="246.5" y="-418.3" font-family="Helvetica,sans-Serif" font-size="11.00" fill="#000000">field_relationship</text>
<polygon fill="#ffffff" stroke="transparent" points="226.5,-389.2 226.5,-411.2 539.5,-411.2 539.5,-389.2 226.5,-389.2"/>
<polygon fill="none" stroke="#000000" points="226.5,-389.2 226.5,-411.2 539.5,-411.2 539.5,-389.2 226.5,-389.2"/>
<image xlink:href="../../images/foreignKeys.png" width="11px" height="12px" preserveAspectRatio="xMinYMin meet" x="231.5" y="-406.2"/>
<text text-anchor="start" x="246.5" y="-396.3" font-family="Helvetica,sans-Serif" font-size="11.00" fill="#000000">geo_specificity</text>
<polygon fill="none" stroke="#000000" points="226.5,-370.2 226.5,-389.2 539.5,-389.2 539.5,-370.2 226.5,-370.2"/>
<text text-anchor="start" x="229.5" y="-376.3" font-family="Helvetica,sans-Serif" font-size="11.00" fill="#000000">...</text>
<polygon fill="#ffffff" stroke="transparent" points="226.5,-351.2 226.5,-370.2 350.5,-370.2 350.5,-351.2 226.5,-351.2"/>
<polygon fill="none" stroke="#000000" points="226.5,-351.2 226.5,-370.2 350.5,-370.2 350.5,-351.2 226.5,-351.2"/>
<text text-anchor="start" x="229.5" y="-357.3" font-family="Helvetica,sans-Serif" font-size="11.00" fill="#000000">&lt; 2</text>
<polygon fill="#ffffff" stroke="transparent" points="350.5,-351.2 350.5,-370.2 460.5,-370.2 460.5,-351.2 350.5,-351.2"/>
<polygon fill="none" stroke="#000000" points="350.5,-351.2 350.5,-370.2 460.5,-370.2 460.5,-351.2 350.5,-351.2"/>
<text text-anchor="start" x="403.7089" y="-357.3" font-family="Helvetica,sans-Serif" font-size="11.00" fill="#000000">2,352 rows</text>
<polygon fill="#ffffff" stroke="transparent" points="460.5,-351.2 460.5,-370.2 539.5,-370.2 539.5,-351.2 460.5,-351.2"/>
<polygon fill="none" stroke="#000000" points="460.5,-351.2 460.5,-370.2 539.5,-370.2 539.5,-351.2 460.5,-351.2"/>
<text text-anchor="start" x="514.7904" y="-357.3" font-family="Helvetica,sans-Serif" font-size="11.00" fill="#000000">11 &gt;</text>
</a>
</g>
</g>
<!-- authors_to_items&#45;&gt;item -->
<g id="edge1" class="edge">
<title>authors_to_items:w&#45;&gt;item:e</title>
<path fill="none" stroke="#000000" d="M587.3282,-684.1191C552.9122,-646.2371 590.5421,-444.2 539.5,-444.2"/>
<polygon fill="#000000" stroke="#000000" points="593.2367,-686.8468 598.991,-693.4685 596.8683,-688.5234 600.5,-690.2 600.5,-690.2 600.5,-690.2 596.8683,-688.5234 602.009,-686.9315 593.2367,-686.8468 593.2367,-686.8468"/>
<ellipse fill="none" stroke="#000000" cx="590.3313" cy="-685.5055" rx="3.2" ry="3.2"/>
</g>
<!-- optionset -->
<g id="node4" class="node">
<title>optionset</title>
<g id="a_node4"><a xlink:href="../../tables/optionset.html" xlink:title="optionset" target="_top">
<polygon fill="#ffffff" stroke="transparent" points="8,-335.2 8,-447.2 177,-447.2 177,-335.2 8,-335.2"/>
<polygon fill="#f5f5f5" stroke="transparent" points="10.5,-422.2 10.5,-445.2 175.5,-445.2 175.5,-422.2 10.5,-422.2"/>
<polygon fill="none" stroke="#000000" points="10.5,-422.2 10.5,-445.2 175.5,-445.2 175.5,-422.2 10.5,-422.2"/>
<text text-anchor="start" x="15.5" y="-431.3" font-family="Helvetica,sans-Serif" font-weight="bold" font-size="11.00" fill="#000000">optionset</text>
<text text-anchor="start" x="140.5437" y="-430.3" font-family="Helvetica,sans-Serif" font-size="11.00" fill="#000000">[table]</text>
<polygon fill="none" stroke="#000000" points="10.5,-400.2 10.5,-422.2 85.5,-422.2 85.5,-400.2 10.5,-400.2"/>
<image xlink:href="../../images/primaryKeys.png" width="11px" height="12px" preserveAspectRatio="xMinYMin meet" x="15.5" y="-417.2"/>
<text text-anchor="start" x="30.5" y="-407.3" font-family="Helvetica,sans-Serif" font-size="11.00" fill="#000000">id</text>
<polygon fill="none" stroke="#000000" points="85.5,-400.2 85.5,-422.2 175.5,-422.2 175.5,-400.2 85.5,-400.2"/>
<text text-anchor="start" x="88.5" y="-407.9" font-family="Helvetica,sans-Serif" font-size="11.00" fill="#000000">serial[10]</text>
<polygon fill="none" stroke="#000000" points="10.5,-378.2 10.5,-400.2 85.5,-400.2 85.5,-378.2 10.5,-378.2"/>
<text text-anchor="start" x="30.5" y="-385.3" font-family="Helvetica,sans-Serif" font-size="11.00" fill="#000000">name</text>
<polygon fill="none" stroke="#000000" points="85.5,-378.2 85.5,-400.2 175.5,-400.2 175.5,-378.2 85.5,-378.2"/>
<text text-anchor="start" x="88.0042" y="-385.9" font-family="Helvetica,sans-Serif" font-size="11.00" fill="#000000">text[2147483647]</text>
<polygon fill="none" stroke="#000000" points="10.5,-356.2 10.5,-378.2 85.5,-378.2 85.5,-356.2 10.5,-356.2"/>
<text text-anchor="start" x="30.5" y="-363.3" font-family="Helvetica,sans-Serif" font-size="11.00" fill="#000000">classtype</text>
<polygon fill="none" stroke="#000000" points="85.5,-356.2 85.5,-378.2 175.5,-378.2 175.5,-356.2 85.5,-356.2"/>
<text text-anchor="start" x="88.0042" y="-363.9" font-family="Helvetica,sans-Serif" font-size="11.00" fill="#000000">text[2147483647]</text>
<polygon fill="#ffffff" stroke="transparent" points="10.5,-337.2 10.5,-356.2 36.5,-356.2 36.5,-337.2 10.5,-337.2"/>
<polygon fill="none" stroke="#000000" points="10.5,-337.2 10.5,-356.2 36.5,-356.2 36.5,-337.2 10.5,-337.2"/>
<text text-anchor="start" x="13.5" y="-343.3" font-family="Helvetica,sans-Serif" font-size="11.00" fill="#000000">&lt; 0</text>
<polygon fill="#ffffff" stroke="transparent" points="36.5,-337.2 36.5,-356.2 85.5,-356.2 85.5,-337.2 36.5,-337.2"/>
<polygon fill="none" stroke="#000000" points="36.5,-337.2 36.5,-356.2 85.5,-356.2 85.5,-337.2 36.5,-337.2"/>
<text text-anchor="start" x="43.9956" y="-343.3" font-family="Helvetica,sans-Serif" font-size="11.00" fill="#000000">47 rows</text>
<polygon fill="#ffffff" stroke="transparent" points="85.5,-337.2 85.5,-356.2 175.5,-356.2 175.5,-337.2 85.5,-337.2"/>
<polygon fill="none" stroke="#000000" points="85.5,-337.2 85.5,-356.2 175.5,-356.2 175.5,-337.2 85.5,-337.2"/>
<text text-anchor="start" x="156.9053" y="-343.3" font-family="Helvetica,sans-Serif" font-size="11.00" fill="#000000">6 &gt;</text>
<polygon fill="none" stroke="#000000" stroke-width="2" points="9,-336.2 9,-446.2 176,-446.2 176,-336.2 9,-336.2"/>
</a>
</g>
</g>
<!-- item&#45;&gt;optionset -->
<g id="edge9" class="edge">
<title>item:w&#45;&gt;optionset:e</title>
<path fill="none" stroke="#000000" d="M212.0097,-420.4813C199.8398,-417.3875 192.8909,-411.2 175.5,-411.2"/>
<polygon fill="#000000" stroke="#000000" points="218.5557,-421.2576 226.0759,-425.7749 222.5278,-421.7288 226.5,-422.2 226.5,-422.2 226.5,-422.2 222.5278,-421.7288 226.9241,-418.6251 218.5557,-421.2576 218.5557,-421.2576"/>
<ellipse fill="none" stroke="#000000" cx="215.378" cy="-420.8807" rx="3.2" ry="3.2"/>
</g>
<!-- item&#45;&gt;optionset -->
<g id="edge10" class="edge">
<title>item:w&#45;&gt;optionset:e</title>
<path fill="none" stroke="#000000" d="M212.0097,-401.9188C199.8398,-405.0125 192.8909,-411.2 175.5,-411.2"/>
<polygon fill="#000000" stroke="#000000" points="218.5557,-401.1424 226.9241,-403.7749 222.5278,-400.6712 226.5,-400.2 226.5,-400.2 226.5,-400.2 222.5278,-400.6712 226.0759,-396.6251 218.5557,-401.1424 218.5557,-401.1424"/>
<ellipse fill="none" stroke="#000000" cx="215.378" cy="-401.5193" rx="3.2" ry="3.2"/>
</g>
<!-- covid_tags_to_items -->
<g id="node3" class="node">
<title>covid_tags_to_items</title>
<g id="a_node3"><a xlink:href="../../tables/covid_tags_to_items.html" xlink:title="covid_tags_to_items" target="_top">
<polygon fill="#ffffff" stroke="transparent" points="592,-852.2 592,-938.2 735,-938.2 735,-852.2 592,-852.2"/>
<polygon fill="#f5f5f5" stroke="transparent" points="592.5,-915.2 592.5,-938.2 735.5,-938.2 735.5,-915.2 592.5,-915.2"/>
<polygon fill="none" stroke="#000000" points="592.5,-915.2 592.5,-938.2 735.5,-938.2 735.5,-915.2 592.5,-915.2"/>
<text text-anchor="start" x="597.3758" y="-924.3" font-family="Helvetica,sans-Serif" font-weight="bold" font-size="11.00" fill="#000000">covid_tags_to_items</text>
<text text-anchor="start" x="701.0219" y="-923.3" font-family="Helvetica,sans-Serif" font-size="11.00" fill="#000000">[table]</text>
<polygon fill="none" stroke="#000000" points="592.5,-893.2 592.5,-915.2 735.5,-915.2 735.5,-893.2 592.5,-893.2"/>
<image xlink:href="../../images/primaryKeys.png" width="11px" height="12px" preserveAspectRatio="xMinYMin meet" x="597.5" y="-910.2"/>
<text text-anchor="start" x="614.5" y="-900.3" font-family="Helvetica,sans-Serif" font-size="11.00" fill="#000000">covidtag</text>
<polygon fill="none" stroke="#000000" points="592.5,-871.2 592.5,-893.2 735.5,-893.2 735.5,-871.2 592.5,-871.2"/>
<image xlink:href="../../images/primaryKeys.png" width="11px" height="12px" preserveAspectRatio="xMinYMin meet" x="597.5" y="-888.2"/>
<text text-anchor="start" x="614.5" y="-878.3" font-family="Helvetica,sans-Serif" font-size="11.00" fill="#000000">item</text>
<polygon fill="#ffffff" stroke="transparent" points="592.5,-852.2 592.5,-871.2 638.5,-871.2 638.5,-852.2 592.5,-852.2"/>
<polygon fill="none" stroke="#000000" points="592.5,-852.2 592.5,-871.2 638.5,-871.2 638.5,-852.2 592.5,-852.2"/>
<text text-anchor="start" x="595.5" y="-858.3" font-family="Helvetica,sans-Serif" font-size="11.00" fill="#000000">&lt; 2</text>
<polygon fill="#ffffff" stroke="transparent" points="638.5,-852.2 638.5,-871.2 710.5,-871.2 710.5,-852.2 638.5,-852.2"/>
<polygon fill="none" stroke="#000000" points="638.5,-852.2 638.5,-871.2 710.5,-871.2 710.5,-852.2 638.5,-852.2"/>
<text text-anchor="start" x="653.7089" y="-858.3" font-family="Helvetica,sans-Serif" font-size="11.00" fill="#000000">4,810 rows</text>
<polygon fill="#ffffff" stroke="transparent" points="710.5,-852.2 710.5,-871.2 735.5,-871.2 735.5,-852.2 710.5,-852.2"/>
<polygon fill="none" stroke="#000000" points="710.5,-852.2 710.5,-871.2 735.5,-871.2 735.5,-852.2 710.5,-852.2"/>
<text text-anchor="start" x="726.3862" y="-858.3" font-family="Helvetica,sans-Serif" font-size="11.00" fill="#000000"> &#160;</text>
</a>
</g>
</g>
<!-- covid_tags_to_items&#45;&gt;item -->
<g id="edge3" class="edge">
<title>covid_tags_to_items:w&#45;&gt;item:e</title>
<path fill="none" stroke="#000000" d="M578.4993,-878.4135C509.3856,-835.6037 632.1816,-444.2 539.5,-444.2"/>
<polygon fill="#000000" stroke="#000000" points="584.7774,-880.1114 591.5601,-885.6751 588.6387,-881.1557 592.5,-882.2 592.5,-882.2 592.5,-882.2 588.6387,-881.1557 593.4399,-878.7249 584.7774,-880.1114 584.7774,-880.1114"/>
<ellipse fill="none" stroke="#000000" cx="581.6884" cy="-879.2759" rx="3.2" ry="3.2"/>
</g>
<!-- covid_tags_to_items&#45;&gt;optionset -->
<g id="edge2" class="edge">
<title>covid_tags_to_items:w&#45;&gt;optionset:e</title>
<path fill="none" stroke="#000000" d="M577.8548,-904.036C386.0922,-899.6685 325.1813,-808.1842 218,-641.2 189.9241,-597.4589 227.4764,-411.2 175.5,-411.2"/>
<polygon fill="#000000" stroke="#000000" points="584.5005,-904.1103 592.4597,-907.7998 588.5003,-904.1552 592.5,-904.2 592.5,-904.2 592.5,-904.2 588.5003,-904.1552 592.5403,-900.6002 584.5005,-904.1103 584.5005,-904.1103"/>
<ellipse fill="none" stroke="#000000" cx="581.3007" cy="-904.0745" rx="3.2" ry="3.2"/>
</g>
<!-- covid_topics_to_items -->
<g id="node5" class="node">
<title>covid_topics_to_items</title>
<g id="a_node5"><a xlink:href="../../tables/covid_topics_to_items.html" xlink:title="covid_topics_to_items" target="_top">
<polygon fill="#ffffff" stroke="transparent" points="588,-745.2 588,-831.2 739,-831.2 739,-745.2 588,-745.2"/>
<polygon fill="#f5f5f5" stroke="transparent" points="588.5,-808.2 588.5,-831.2 739.5,-831.2 739.5,-808.2 588.5,-808.2"/>
<polygon fill="none" stroke="#000000" points="588.5,-808.2 588.5,-831.2 739.5,-831.2 739.5,-808.2 588.5,-808.2"/>
<text text-anchor="start" x="593.4053" y="-817.3" font-family="Helvetica,sans-Serif" font-weight="bold" font-size="11.00" fill="#000000">covid_topics_to_items</text>
<text text-anchor="start" x="705.0219" y="-816.3" font-family="Helvetica,sans-Serif" font-size="11.00" fill="#000000">[table]</text>
<polygon fill="none" stroke="#000000" points="588.5,-786.2 588.5,-808.2 739.5,-808.2 739.5,-786.2 588.5,-786.2"/>
<image xlink:href="../../images/primaryKeys.png" width="11px" height="12px" preserveAspectRatio="xMinYMin meet" x="593.5" y="-803.2"/>
<text text-anchor="start" x="609.5" y="-793.3" font-family="Helvetica,sans-Serif" font-size="11.00" fill="#000000">covidtopic</text>
<polygon fill="none" stroke="#000000" points="588.5,-764.2 588.5,-786.2 739.5,-786.2 739.5,-764.2 588.5,-764.2"/>
<image xlink:href="../../images/primaryKeys.png" width="11px" height="12px" preserveAspectRatio="xMinYMin meet" x="593.5" y="-781.2"/>
<text text-anchor="start" x="609.5" y="-771.3" font-family="Helvetica,sans-Serif" font-size="11.00" fill="#000000">item</text>
<polygon fill="#ffffff" stroke="transparent" points="588.5,-745.2 588.5,-764.2 649.5,-764.2 649.5,-745.2 588.5,-745.2"/>
<polygon fill="none" stroke="#000000" points="588.5,-745.2 588.5,-764.2 649.5,-764.2 649.5,-745.2 588.5,-745.2"/>
<text text-anchor="start" x="591.5" y="-751.3" font-family="Helvetica,sans-Serif" font-size="11.00" fill="#000000">&lt; 2</text>
<polygon fill="#ffffff" stroke="transparent" points="649.5,-745.2 649.5,-764.2 707.5,-764.2 707.5,-745.2 649.5,-745.2"/>
<polygon fill="none" stroke="#000000" points="649.5,-745.2 649.5,-764.2 707.5,-764.2 707.5,-745.2 649.5,-745.2"/>
<text text-anchor="start" x="672.1105" y="-751.3" font-family="Helvetica,sans-Serif" font-size="11.00" fill="#000000">0 rows</text>
<polygon fill="#ffffff" stroke="transparent" points="707.5,-745.2 707.5,-764.2 739.5,-764.2 739.5,-745.2 707.5,-745.2"/>
<polygon fill="none" stroke="#000000" points="707.5,-745.2 707.5,-764.2 739.5,-764.2 739.5,-745.2 707.5,-745.2"/>
<text text-anchor="start" x="730.3862" y="-751.3" font-family="Helvetica,sans-Serif" font-size="11.00" fill="#000000"> &#160;</text>
</a>
</g>
</g>
<!-- covid_topics_to_items&#45;&gt;item -->
<g id="edge5" class="edge">
<title>covid_topics_to_items:w&#45;&gt;item:e</title>
<path fill="none" stroke="#000000" d="M574.6782,-770.0008C527.9853,-727.8905 608.3385,-444.2 539.5,-444.2"/>
<polygon fill="#000000" stroke="#000000" points="581.0122,-772.3834 587.2325,-778.5695 584.7561,-773.7917 588.5,-775.2 588.5,-775.2 588.5,-775.2 584.7561,-773.7917 589.7675,-771.8305 581.0122,-772.3834 581.0122,-772.3834"/>
<ellipse fill="none" stroke="#000000" cx="578.0171" cy="-771.2567" rx="3.2" ry="3.2"/>
</g>
<!-- covid_topics_to_items&#45;&gt;optionset -->
<g id="edge4" class="edge">
<title>covid_topics_to_items:w&#45;&gt;optionset:e</title>
<path fill="none" stroke="#000000" d="M574.4578,-793.619C497.4425,-761.7972 249.6727,-527.7263 218,-489.2 192.929,-458.7039 214.9787,-411.2 175.5,-411.2"/>
<polygon fill="#000000" stroke="#000000" points="580.7481,-795.2231 587.6104,-800.6884 584.624,-796.2116 588.5,-797.2 588.5,-797.2 588.5,-797.2 584.624,-796.2116 589.3896,-793.7116 580.7481,-795.2231 580.7481,-795.2231"/>
<ellipse fill="none" stroke="#000000" cx="577.6473" cy="-794.4323" rx="3.2" ry="3.2"/>
</g>
<!-- events_to_items -->
<g id="node6" class="node">
<title>events_to_items</title>
<g id="a_node6"><a xlink:href="../../tables/events_to_items.html" xlink:title="events_to_items" target="_top">
<polygon fill="#ffffff" stroke="transparent" points="602,-580.7 602,-641.7 725,-641.7 725,-580.7 602,-580.7"/>
<polygon fill="#f5f5f5" stroke="transparent" points="602.5,-618.2 602.5,-641.2 725.5,-641.2 725.5,-618.2 602.5,-618.2"/>
<polygon fill="none" stroke="#000000" points="602.5,-618.2 602.5,-641.2 725.5,-641.2 725.5,-618.2 602.5,-618.2"/>
<text text-anchor="start" x="607.4611" y="-627.3" font-family="Helvetica,sans-Serif" font-weight="bold" font-size="11.00" fill="#000000">events_to_items</text>
<text text-anchor="start" x="691.0219" y="-626.3" font-family="Helvetica,sans-Serif" font-size="11.00" fill="#000000">[table]</text>
<polygon fill="none" stroke="#000000" points="602.5,-599.2 602.5,-618.2 725.5,-618.2 725.5,-599.2 602.5,-599.2"/>
<text text-anchor="start" x="605.5" y="-605.3" font-family="Helvetica,sans-Serif" font-size="11.00" fill="#000000">...</text>
<polygon fill="#ffffff" stroke="transparent" points="602.5,-580.2 602.5,-599.2 638.5,-599.2 638.5,-580.2 602.5,-580.2"/>
<polygon fill="none" stroke="#000000" points="602.5,-580.2 602.5,-599.2 638.5,-599.2 638.5,-580.2 602.5,-580.2"/>
<text text-anchor="start" x="605.5" y="-586.3" font-family="Helvetica,sans-Serif" font-size="11.00" fill="#000000">&lt; 2</text>
<polygon fill="#ffffff" stroke="transparent" points="638.5,-580.2 638.5,-599.2 705.5,-599.2 705.5,-580.2 638.5,-580.2"/>
<polygon fill="none" stroke="#000000" points="638.5,-580.2 638.5,-599.2 705.5,-599.2 705.5,-580.2 638.5,-580.2"/>
<text text-anchor="start" x="648.7089" y="-586.3" font-family="Helvetica,sans-Serif" font-size="11.00" fill="#000000">1,091 rows</text>
<polygon fill="#ffffff" stroke="transparent" points="705.5,-580.2 705.5,-599.2 725.5,-599.2 725.5,-580.2 705.5,-580.2"/>
<polygon fill="none" stroke="#000000" points="705.5,-580.2 705.5,-599.2 725.5,-599.2 725.5,-580.2 705.5,-580.2"/>
<text text-anchor="start" x="716.3862" y="-586.3" font-family="Helvetica,sans-Serif" font-size="11.00" fill="#000000"> &#160;</text>
</a>
</g>
</g>
<!-- events_to_items&#45;&gt;item -->
<g id="edge6" class="edge">
<title>events_to_items:w&#45;&gt;item:e</title>
<path fill="none" stroke="#000000" d="M588.1257,-605.7544C536.9888,-585.3533 611.9393,-444.2 539.5,-444.2"/>
<polygon fill="#000000" stroke="#000000" points="594.6133,-606.8581 601.8962,-611.749 598.5567,-607.5291 602.5,-608.2 602.5,-608.2 602.5,-608.2 598.5567,-607.5291 603.1038,-604.651 594.6133,-606.8581 594.6133,-606.8581"/>
<ellipse fill="none" stroke="#000000" cx="591.4587" cy="-606.3214" rx="3.2" ry="3.2"/>
</g>
<!-- files_to_items -->
<g id="node7" class="node">
<title>files_to_items</title>
<g id="a_node7"><a xlink:href="../../tables/files_to_items.html" xlink:title="files_to_items" target="_top">
<polygon fill="#ffffff" stroke="transparent" points="608.5,-498.7 608.5,-559.7 718.5,-559.7 718.5,-498.7 608.5,-498.7"/>
<polygon fill="#f5f5f5" stroke="transparent" points="608.5,-536.2 608.5,-559.2 718.5,-559.2 718.5,-536.2 608.5,-536.2"/>
<polygon fill="none" stroke="#000000" points="608.5,-536.2 608.5,-559.2 718.5,-559.2 718.5,-536.2 608.5,-536.2"/>
<text text-anchor="start" x="613.3851" y="-545.3" font-family="Helvetica,sans-Serif" font-weight="bold" font-size="11.00" fill="#000000">files_to_items</text>
<text text-anchor="start" x="684.0219" y="-544.3" font-family="Helvetica,sans-Serif" font-size="11.00" fill="#000000">[table]</text>
<polygon fill="none" stroke="#000000" points="608.5,-517.2 608.5,-536.2 718.5,-536.2 718.5,-517.2 608.5,-517.2"/>
<text text-anchor="start" x="611.5" y="-523.3" font-family="Helvetica,sans-Serif" font-size="11.00" fill="#000000">...</text>
<polygon fill="#ffffff" stroke="transparent" points="608.5,-498.2 608.5,-517.2 638.5,-517.2 638.5,-498.2 608.5,-498.2"/>
<polygon fill="none" stroke="#000000" points="608.5,-498.2 608.5,-517.2 638.5,-517.2 638.5,-498.2 608.5,-498.2"/>
<text text-anchor="start" x="611.5" y="-504.3" font-family="Helvetica,sans-Serif" font-size="11.00" fill="#000000">&lt; 2</text>
<polygon fill="#ffffff" stroke="transparent" points="638.5,-498.2 638.5,-517.2 701.5,-517.2 701.5,-498.2 638.5,-498.2"/>
<polygon fill="none" stroke="#000000" points="638.5,-498.2 638.5,-517.2 701.5,-517.2 701.5,-498.2 638.5,-498.2"/>
<text text-anchor="start" x="644.7089" y="-504.3" font-family="Helvetica,sans-Serif" font-size="11.00" fill="#000000">1,994 rows</text>
<polygon fill="#ffffff" stroke="transparent" points="701.5,-498.2 701.5,-517.2 718.5,-517.2 718.5,-498.2 701.5,-498.2"/>
<polygon fill="none" stroke="#000000" points="701.5,-498.2 701.5,-517.2 718.5,-517.2 718.5,-498.2 701.5,-498.2"/>
<text text-anchor="start" x="709.3862" y="-504.3" font-family="Helvetica,sans-Serif" font-size="11.00" fill="#000000"> &#160;</text>
</a>
</g>
</g>
<!-- files_to_items&#45;&gt;item -->
<g id="edge7" class="edge">
<title>files_to_items:w&#45;&gt;item:e</title>
<path fill="none" stroke="#000000" d="M594.1849,-522.8839C566.1462,-507.543 581.3625,-444.2 539.5,-444.2"/>
<polygon fill="#000000" stroke="#000000" points="600.7064,-524.3946 607.6876,-529.7071 604.6032,-525.2973 608.5,-526.2 608.5,-526.2 608.5,-526.2 604.6032,-525.2973 609.3124,-522.6929 600.7064,-524.3946 600.7064,-524.3946"/>
<ellipse fill="none" stroke="#000000" cx="597.5889" cy="-523.6724" rx="3.2" ry="3.2"/>
</g>
<!-- funders_to_items -->
<g id="node8" class="node">
<title>funders_to_items</title>
<g id="a_node8"><a xlink:href="../../tables/funders_to_items.html" xlink:title="funders_to_items" target="_top">
<polygon fill="#ffffff" stroke="transparent" points="600,-416.7 600,-477.7 727,-477.7 727,-416.7 600,-416.7"/>
<polygon fill="#f5f5f5" stroke="transparent" points="600.5,-454.2 600.5,-477.2 727.5,-477.2 727.5,-454.2 600.5,-454.2"/>
<polygon fill="none" stroke="#000000" points="600.5,-454.2 600.5,-477.2 727.5,-477.2 727.5,-454.2 600.5,-454.2"/>
<text text-anchor="start" x="605.3227" y="-463.3" font-family="Helvetica,sans-Serif" font-weight="bold" font-size="11.00" fill="#000000">funders_to_items</text>
<text text-anchor="start" x="693.0219" y="-462.3" font-family="Helvetica,sans-Serif" font-size="11.00" fill="#000000">[table]</text>
<polygon fill="none" stroke="#000000" points="600.5,-435.2 600.5,-454.2 727.5,-454.2 727.5,-435.2 600.5,-435.2"/>
<text text-anchor="start" x="603.5" y="-441.3" font-family="Helvetica,sans-Serif" font-size="11.00" fill="#000000">...</text>
<polygon fill="#ffffff" stroke="transparent" points="600.5,-416.2 600.5,-435.2 638.5,-435.2 638.5,-416.2 600.5,-416.2"/>
<polygon fill="none" stroke="#000000" points="600.5,-416.2 600.5,-435.2 638.5,-435.2 638.5,-416.2 600.5,-416.2"/>
<text text-anchor="start" x="603.5" y="-422.3" font-family="Helvetica,sans-Serif" font-size="11.00" fill="#000000">&lt; 2</text>
<polygon fill="#ffffff" stroke="transparent" points="638.5,-416.2 638.5,-435.2 706.5,-435.2 706.5,-416.2 638.5,-416.2"/>
<polygon fill="none" stroke="#000000" points="638.5,-416.2 638.5,-435.2 706.5,-435.2 706.5,-416.2 638.5,-416.2"/>
<text text-anchor="start" x="649.7089" y="-422.3" font-family="Helvetica,sans-Serif" font-size="11.00" fill="#000000">3,210 rows</text>
<polygon fill="#ffffff" stroke="transparent" points="706.5,-416.2 706.5,-435.2 727.5,-435.2 727.5,-416.2 706.5,-416.2"/>
<polygon fill="none" stroke="#000000" points="706.5,-416.2 706.5,-435.2 727.5,-435.2 727.5,-416.2 706.5,-416.2"/>
<text text-anchor="start" x="718.3862" y="-422.3" font-family="Helvetica,sans-Serif" font-size="11.00" fill="#000000"> &#160;</text>
</a>
</g>
</g>
<!-- funders_to_items&#45;&gt;item -->
<g id="edge8" class="edge">
<title>funders_to_items:w&#45;&gt;item:e</title>
<path fill="none" stroke="#000000" d="M585.6762,-444.2C569.6248,-444.2 560.8924,-444.2 539.5,-444.2"/>
<polygon fill="#000000" stroke="#000000" points="592.5,-444.2001 600.5,-447.8 596.5,-444.2 600.5,-444.2 600.5,-444.2 600.5,-444.2 596.5,-444.2 600.5,-440.6 592.5,-444.2001 592.5,-444.2001"/>
<ellipse fill="none" stroke="#000000" cx="589.3" cy="-444.2001" rx="3.2" ry="3.2"/>
</g>
<!-- items_to_items -->
<g id="node9" class="node">
<title>items_to_items</title>
<g id="a_node9"><a xlink:href="../../tables/items_to_items.html" xlink:title="items_to_items" target="_top">
<polygon fill="#ffffff" stroke="transparent" points="605.5,-334.7 605.5,-395.7 721.5,-395.7 721.5,-334.7 605.5,-334.7"/>
<polygon fill="#f5f5f5" stroke="transparent" points="605.5,-372.2 605.5,-395.2 721.5,-395.2 721.5,-372.2 605.5,-372.2"/>
<polygon fill="none" stroke="#000000" points="605.5,-372.2 605.5,-395.2 721.5,-395.2 721.5,-372.2 605.5,-372.2"/>
<text text-anchor="start" x="610.0246" y="-381.3" font-family="Helvetica,sans-Serif" font-weight="bold" font-size="11.00" fill="#000000">items_to_items</text>
<text text-anchor="start" x="687.0219" y="-380.3" font-family="Helvetica,sans-Serif" font-size="11.00" fill="#000000">[table]</text>
<polygon fill="none" stroke="#000000" points="605.5,-353.2 605.5,-372.2 721.5,-372.2 721.5,-353.2 605.5,-353.2"/>
<text text-anchor="start" x="608.5" y="-359.3" font-family="Helvetica,sans-Serif" font-size="11.00" fill="#000000">...</text>
<polygon fill="#ffffff" stroke="transparent" points="605.5,-334.2 605.5,-353.2 638.5,-353.2 638.5,-334.2 605.5,-334.2"/>
<polygon fill="none" stroke="#000000" points="605.5,-334.2 605.5,-353.2 638.5,-353.2 638.5,-334.2 605.5,-334.2"/>
<text text-anchor="start" x="608.5" y="-340.3" font-family="Helvetica,sans-Serif" font-size="11.00" fill="#000000">&lt; 2</text>
<polygon fill="#ffffff" stroke="transparent" points="638.5,-334.2 638.5,-353.2 703.5,-353.2 703.5,-334.2 638.5,-334.2"/>
<polygon fill="none" stroke="#000000" points="638.5,-334.2 638.5,-353.2 703.5,-353.2 703.5,-334.2 638.5,-334.2"/>
<text text-anchor="start" x="646.7089" y="-340.3" font-family="Helvetica,sans-Serif" font-size="11.00" fill="#000000">1,288 rows</text>
<polygon fill="#ffffff" stroke="transparent" points="703.5,-334.2 703.5,-353.2 721.5,-353.2 721.5,-334.2 703.5,-334.2"/>
<polygon fill="none" stroke="#000000" points="703.5,-334.2 703.5,-353.2 721.5,-353.2 721.5,-334.2 703.5,-334.2"/>
<text text-anchor="start" x="712.3862" y="-340.3" font-family="Helvetica,sans-Serif" font-size="11.00" fill="#000000"> &#160;</text>
</a>
</g>
</g>
<!-- items_to_items&#45;&gt;item -->
<g id="edge11" class="edge">
<title>items_to_items:w&#45;&gt;item:e</title>
<path fill="none" stroke="#000000" d="M591.1511,-363.7547C564.4468,-375.5125 580.4351,-438.95 539.5,-444.2"/>
<polygon fill="#000000" stroke="#000000" points="597.5465,-363.0618 605.8878,-365.7791 601.5233,-362.6309 605.5,-362.2 605.5,-362.2 605.5,-362.2 601.5233,-362.6309 605.1122,-358.6209 597.5465,-363.0618 597.5465,-363.0618"/>
<ellipse fill="none" stroke="#000000" cx="594.3652" cy="-363.4065" rx="3.2" ry="3.2"/>
</g>
<!-- items_to_items&#45;&gt;item -->
<g id="edge12" class="edge">
<title>items_to_items:w&#45;&gt;item:e</title>
<path fill="none" stroke="#000000" d="M591.8767,-367.4869C564.1568,-387.1965 580.8006,-450.3797 539.5,-444.2"/>
<polygon fill="#000000" stroke="#000000" points="598.0419,-365.0943 606.8025,-365.5561 601.771,-363.6472 605.5,-362.2 605.5,-362.2 605.5,-362.2 601.771,-363.6472 604.1975,-358.8439 598.0419,-365.0943 598.0419,-365.0943"/>
<ellipse fill="none" stroke="#000000" cx="595.0587" cy="-366.2521" rx="3.2" ry="3.2"/>
</g>
<!-- key_topics_to_items -->
<g id="node10" class="node">
<title>key_topics_to_items</title>
<g id="a_node10"><a xlink:href="../../tables/key_topics_to_items.html" xlink:title="key_topics_to_items" target="_top">
<polygon fill="#ffffff" stroke="transparent" points="592.5,-145.2 592.5,-231.2 734.5,-231.2 734.5,-145.2 592.5,-145.2"/>
<polygon fill="#f5f5f5" stroke="transparent" points="592.5,-208.2 592.5,-231.2 734.5,-231.2 734.5,-208.2 592.5,-208.2"/>
<polygon fill="none" stroke="#000000" points="592.5,-208.2 592.5,-231.2 734.5,-231.2 734.5,-208.2 592.5,-208.2"/>
<text text-anchor="start" x="597.1832" y="-217.3" font-family="Helvetica,sans-Serif" font-weight="bold" font-size="11.00" fill="#000000">key_topics_to_items</text>
<text text-anchor="start" x="700.0219" y="-216.3" font-family="Helvetica,sans-Serif" font-size="11.00" fill="#000000">[table]</text>
<polygon fill="none" stroke="#000000" points="592.5,-186.2 592.5,-208.2 734.5,-208.2 734.5,-186.2 592.5,-186.2"/>
<image xlink:href="../../images/primaryKeys.png" width="11px" height="12px" preserveAspectRatio="xMinYMin meet" x="597.5" y="-203.2"/>
<text text-anchor="start" x="614.5" y="-193.3" font-family="Helvetica,sans-Serif" font-size="11.00" fill="#000000">item</text>
<polygon fill="none" stroke="#000000" points="592.5,-164.2 592.5,-186.2 734.5,-186.2 734.5,-164.2 592.5,-164.2"/>
<image xlink:href="../../images/primaryKeys.png" width="11px" height="12px" preserveAspectRatio="xMinYMin meet" x="597.5" y="-181.2"/>
<text text-anchor="start" x="614.5" y="-171.3" font-family="Helvetica,sans-Serif" font-size="11.00" fill="#000000">keytopic</text>
<polygon fill="#ffffff" stroke="transparent" points="592.5,-145.2 592.5,-164.2 638.5,-164.2 638.5,-145.2 592.5,-145.2"/>
<polygon fill="none" stroke="#000000" points="592.5,-145.2 592.5,-164.2 638.5,-164.2 638.5,-145.2 592.5,-145.2"/>
<text text-anchor="start" x="595.5" y="-151.3" font-family="Helvetica,sans-Serif" font-size="11.00" fill="#000000">&lt; 2</text>
<polygon fill="#ffffff" stroke="transparent" points="638.5,-145.2 638.5,-164.2 709.5,-164.2 709.5,-145.2 638.5,-145.2"/>
<polygon fill="none" stroke="#000000" points="638.5,-145.2 638.5,-164.2 709.5,-164.2 709.5,-145.2 638.5,-145.2"/>
<text text-anchor="start" x="652.7089" y="-151.3" font-family="Helvetica,sans-Serif" font-size="11.00" fill="#000000">2,352 rows</text>
<polygon fill="#ffffff" stroke="transparent" points="709.5,-145.2 709.5,-164.2 734.5,-164.2 734.5,-145.2 709.5,-145.2"/>
<polygon fill="none" stroke="#000000" points="709.5,-145.2 709.5,-164.2 734.5,-164.2 734.5,-145.2 709.5,-145.2"/>
<text text-anchor="start" x="725.3862" y="-151.3" font-family="Helvetica,sans-Serif" font-size="11.00" fill="#000000"> &#160;</text>
</a>
</g>
</g>
<!-- key_topics_to_items&#45;&gt;item -->
<g id="edge13" class="edge">
<title>key_topics_to_items:w&#45;&gt;item:e</title>
<path fill="none" stroke="#000000" d="M578.0173,-198.9092C496.3,-220.7322 646.2943,-444.2 539.5,-444.2"/>
<polygon fill="#000000" stroke="#000000" points="584.5551,-198.1377 592.9219,-200.7752 588.5276,-197.6688 592.5,-197.2 592.5,-197.2 592.5,-197.2 588.5276,-197.6688 592.0781,-193.6248 584.5551,-198.1377 584.5551,-198.1377"/>
<ellipse fill="none" stroke="#000000" cx="581.3772" cy="-198.5127" rx="3.2" ry="3.2"/>
</g>
<!-- key_topics_to_items&#45;&gt;optionset -->
<g id="edge14" class="edge">
<title>key_topics_to_items:w&#45;&gt;optionset:e</title>
<path fill="none" stroke="#000000" d="M577.8443,-175.3033C407.3302,-177.7597 350.9946,-224.2751 218,-341.2 190.6656,-365.2316 211.8963,-411.2 175.5,-411.2"/>
<polygon fill="#000000" stroke="#000000" points="584.5002,-175.2564 592.5254,-178.7999 588.5001,-175.2282 592.5,-175.2 592.5,-175.2 592.5,-175.2 588.5001,-175.2282 592.4746,-171.6001 584.5002,-175.2564 584.5002,-175.2564"/>
<ellipse fill="none" stroke="#000000" cx="581.3003" cy="-175.279" rx="3.2" ry="3.2"/>
</g>
<!-- related_files_to_items -->
<g id="node11" class="node">
<title>related_files_to_items</title>
<g id="a_node11"><a xlink:href="../../tables/related_files_to_items.html" xlink:title="related_files_to_items" target="_top">
<polygon fill="#ffffff" stroke="transparent" points="589,-252.7 589,-313.7 738,-313.7 738,-252.7 589,-252.7"/>
<polygon fill="#f5f5f5" stroke="transparent" points="589.5,-290.2 589.5,-313.2 738.5,-313.2 738.5,-290.2 589.5,-290.2"/>
<polygon fill="none" stroke="#000000" points="589.5,-290.2 589.5,-313.2 738.5,-313.2 738.5,-290.2 589.5,-290.2"/>
<text text-anchor="start" x="594.018" y="-299.3" font-family="Helvetica,sans-Serif" font-weight="bold" font-size="11.00" fill="#000000">related_files_to_items</text>
<text text-anchor="start" x="704.0219" y="-298.3" font-family="Helvetica,sans-Serif" font-size="11.00" fill="#000000">[table]</text>
<polygon fill="none" stroke="#000000" points="589.5,-271.2 589.5,-290.2 738.5,-290.2 738.5,-271.2 589.5,-271.2"/>
<text text-anchor="start" x="592.5" y="-277.3" font-family="Helvetica,sans-Serif" font-size="11.00" fill="#000000">...</text>
<polygon fill="#ffffff" stroke="transparent" points="589.5,-252.2 589.5,-271.2 643.5,-271.2 643.5,-252.2 589.5,-252.2"/>
<polygon fill="none" stroke="#000000" points="589.5,-252.2 589.5,-271.2 643.5,-271.2 643.5,-252.2 589.5,-252.2"/>
<text text-anchor="start" x="592.5" y="-258.3" font-family="Helvetica,sans-Serif" font-size="11.00" fill="#000000">&lt; 2</text>
<polygon fill="#ffffff" stroke="transparent" points="643.5,-252.2 643.5,-271.2 709.5,-271.2 709.5,-252.2 643.5,-252.2"/>
<polygon fill="none" stroke="#000000" points="643.5,-252.2 643.5,-271.2 709.5,-271.2 709.5,-252.2 643.5,-252.2"/>
<text text-anchor="start" x="661.8807" y="-258.3" font-family="Helvetica,sans-Serif" font-size="11.00" fill="#000000">115 rows</text>
<polygon fill="#ffffff" stroke="transparent" points="709.5,-252.2 709.5,-271.2 738.5,-271.2 738.5,-252.2 709.5,-252.2"/>
<polygon fill="none" stroke="#000000" points="709.5,-252.2 709.5,-271.2 738.5,-271.2 738.5,-252.2 709.5,-252.2"/>
<text text-anchor="start" x="729.3862" y="-258.3" font-family="Helvetica,sans-Serif" font-size="11.00" fill="#000000"> &#160;</text>
</a>
</g>
</g>
<!-- related_files_to_items&#45;&gt;item -->
<g id="edge15" class="edge">
<title>related_files_to_items:w&#45;&gt;item:e</title>
<path fill="none" stroke="#000000" d="M575.0378,-282.9097C527.8629,-304.2328 609.8968,-444.2 539.5,-444.2"/>
<polygon fill="#000000" stroke="#000000" points="581.6368,-281.6733 590.163,-283.7384 585.5684,-280.9367 589.5,-280.2 589.5,-280.2 589.5,-280.2 585.5684,-280.9367 588.837,-276.6616 581.6368,-281.6733 581.6368,-281.6733"/>
<ellipse fill="none" stroke="#000000" cx="578.4916" cy="-282.2627" rx="3.2" ry="3.2"/>
</g>
<!-- tags_to_items -->
<g id="node12" class="node">
<title>tags_to_items</title>
<g id="a_node12"><a xlink:href="../../tables/tags_to_items.html" xlink:title="tags_to_items" target="_top">
<polygon fill="#ffffff" stroke="transparent" points="608,-38.2 608,-124.2 719,-124.2 719,-38.2 608,-38.2"/>
<polygon fill="#f5f5f5" stroke="transparent" points="608.5,-101.2 608.5,-124.2 719.5,-124.2 719.5,-101.2 608.5,-101.2"/>
<polygon fill="none" stroke="#000000" points="608.5,-101.2 608.5,-124.2 719.5,-124.2 719.5,-101.2 608.5,-101.2"/>
<text text-anchor="start" x="613.2686" y="-110.3" font-family="Helvetica,sans-Serif" font-weight="bold" font-size="11.00" fill="#000000">tags_to_items</text>
<text text-anchor="start" x="685.0219" y="-109.3" font-family="Helvetica,sans-Serif" font-size="11.00" fill="#000000">[table]</text>
<polygon fill="none" stroke="#000000" points="608.5,-79.2 608.5,-101.2 719.5,-101.2 719.5,-79.2 608.5,-79.2"/>
<image xlink:href="../../images/primaryKeys.png" width="11px" height="12px" preserveAspectRatio="xMinYMin meet" x="613.5" y="-96.2"/>
<text text-anchor="start" x="633.5" y="-86.3" font-family="Helvetica,sans-Serif" font-size="11.00" fill="#000000">item</text>
<polygon fill="none" stroke="#000000" points="608.5,-57.2 608.5,-79.2 719.5,-79.2 719.5,-57.2 608.5,-57.2"/>
<image xlink:href="../../images/primaryKeys.png" width="11px" height="12px" preserveAspectRatio="xMinYMin meet" x="613.5" y="-74.2"/>
<text text-anchor="start" x="633.5" y="-64.3" font-family="Helvetica,sans-Serif" font-size="11.00" fill="#000000">tag</text>
<polygon fill="#ffffff" stroke="transparent" points="608.5,-38.2 608.5,-57.2 649.5,-57.2 649.5,-38.2 608.5,-38.2"/>
<polygon fill="none" stroke="#000000" points="608.5,-38.2 608.5,-57.2 649.5,-57.2 649.5,-38.2 608.5,-38.2"/>
<text text-anchor="start" x="611.5" y="-44.3" font-family="Helvetica,sans-Serif" font-size="11.00" fill="#000000">&lt; 2</text>
<polygon fill="#ffffff" stroke="transparent" points="649.5,-38.2 649.5,-57.2 697.5,-57.2 697.5,-38.2 649.5,-38.2"/>
<polygon fill="none" stroke="#000000" points="649.5,-38.2 649.5,-57.2 697.5,-57.2 697.5,-38.2 649.5,-38.2"/>
<text text-anchor="start" x="662.1105" y="-44.3" font-family="Helvetica,sans-Serif" font-size="11.00" fill="#000000">0 rows</text>
<polygon fill="#ffffff" stroke="transparent" points="697.5,-38.2 697.5,-57.2 719.5,-57.2 719.5,-38.2 697.5,-38.2"/>
<polygon fill="none" stroke="#000000" points="697.5,-38.2 697.5,-57.2 719.5,-57.2 719.5,-38.2 697.5,-38.2"/>
<text text-anchor="start" x="710.3862" y="-44.3" font-family="Helvetica,sans-Serif" font-size="11.00" fill="#000000"> &#160;</text>
</a>
</g>
</g>
<!-- tags_to_items&#45;&gt;item -->
<g id="edge16" class="edge">
<title>tags_to_items:w&#45;&gt;item:e</title>
<path fill="none" stroke="#000000" d="M594.7008,-94.6759C539.7219,-135.6546 614.3248,-444.2 539.5,-444.2"/>
<polygon fill="#000000" stroke="#000000" points="600.8903,-92.6683 609.6107,-93.6244 604.6951,-91.4342 608.5,-90.2 608.5,-90.2 608.5,-90.2 604.6951,-91.4342 607.3893,-86.7756 600.8903,-92.6683 600.8903,-92.6683"/>
<ellipse fill="none" stroke="#000000" cx="597.8464" cy="-93.6556" rx="3.2" ry="3.2"/>
</g>
<!-- tags_to_items&#45;&gt;optionset -->
<g id="edge17" class="edge">
<title>tags_to_items:w&#45;&gt;optionset:e</title>
<path fill="none" stroke="#000000" d="M593.9486,-68.1441C423.7622,-66.8638 336.1504,-45.2155 218,-174.2 181.8583,-213.6557 229.0068,-411.2 175.5,-411.2"/>
<polygon fill="#000000" stroke="#000000" points="600.5001,-68.1692 608.4861,-71.8 604.5,-68.1846 608.5,-68.2 608.5,-68.2 608.5,-68.2 604.5,-68.1846 608.5139,-64.6 600.5001,-68.1692 600.5001,-68.1692"/>
<ellipse fill="none" stroke="#000000" cx="597.3001" cy="-68.1569" rx="3.2" ry="3.2"/>
</g>
</g>
</svg>
