<?xml version="1.0" encoding="UTF-8" standalone="no"?>
<!DOCTYPE svg PUBLIC "-//W3C//DTD SVG 1.1//EN"
 "http://www.w3.org/Graphics/SVG/1.1/DTD/svg11.dtd">
<!-- Generated by graphviz version 2.40.1 (20161225.0304)
 -->
<!-- Title: twoDegreesRelationshipsDiagram Pages: 1 -->
<svg width="715pt" height="879pt"
 viewBox="0.00 0.00 715.00 878.70" xmlns="http://www.w3.org/2000/svg" xmlns:xlink="http://www.w3.org/1999/xlink">
<g id="graph0" class="graph" transform="scale(1 1) rotate(0) translate(4 874.7)">
<title>twoDegreesRelationshipsDiagram</title>
<polygon fill="#ffffff" stroke="transparent" points="-4,4 -4,-874.7 711,-874.7 711,4 -4,4"/>
<text text-anchor="middle" x="72.4936" y="-7.3" font-family="Helvetica,sans-Serif" font-size="11.00" fill="#000000">Generated by SchemaSpy</text>
<!-- authors_to_items -->
<g id="node1" class="node">
<title>authors_to_items</title>
<g id="a_node1"><a xlink:href="../../tables/authors_to_items.html" xlink:title="authors_to_items" target="_top">
<polygon fill="#ffffff" stroke="transparent" points="539,-477.7 539,-538.7 666,-538.7 666,-477.7 539,-477.7"/>
<polygon fill="#f5f5f5" stroke="transparent" points="539.5,-515.2 539.5,-538.2 666.5,-538.2 666.5,-515.2 539.5,-515.2"/>
<polygon fill="none" stroke="#000000" points="539.5,-515.2 539.5,-538.2 666.5,-538.2 666.5,-515.2 539.5,-515.2"/>
<text text-anchor="start" x="544.3227" y="-524.3" font-family="Helvetica,sans-Serif" font-weight="bold" font-size="11.00" fill="#000000">authors_to_items</text>
<text text-anchor="start" x="632.0219" y="-523.3" font-family="Helvetica,sans-Serif" font-size="11.00" fill="#000000">[table]</text>
<polygon fill="none" stroke="#000000" points="539.5,-496.2 539.5,-515.2 666.5,-515.2 666.5,-496.2 539.5,-496.2"/>
<text text-anchor="start" x="542.5" y="-502.3" font-family="Helvetica,sans-Serif" font-size="11.00" fill="#000000">...</text>
<polygon fill="#ffffff" stroke="transparent" points="539.5,-477.2 539.5,-496.2 577.5,-496.2 577.5,-477.2 539.5,-477.2"/>
<polygon fill="none" stroke="#000000" points="539.5,-477.2 539.5,-496.2 577.5,-496.2 577.5,-477.2 539.5,-477.2"/>
<text text-anchor="start" x="542.5" y="-483.3" font-family="Helvetica,sans-Serif" font-size="11.00" fill="#000000">&lt; 2</text>
<polygon fill="#ffffff" stroke="transparent" points="577.5,-477.2 577.5,-496.2 645.5,-496.2 645.5,-477.2 577.5,-477.2"/>
<polygon fill="none" stroke="#000000" points="577.5,-477.2 577.5,-496.2 645.5,-496.2 645.5,-477.2 577.5,-477.2"/>
<text text-anchor="start" x="588.7089" y="-483.3" font-family="Helvetica,sans-Serif" font-size="11.00" fill="#000000">2,850 rows</text>
<polygon fill="#ffffff" stroke="transparent" points="645.5,-477.2 645.5,-496.2 666.5,-496.2 666.5,-477.2 645.5,-477.2"/>
<polygon fill="none" stroke="#000000" points="645.5,-477.2 645.5,-496.2 666.5,-496.2 666.5,-477.2 645.5,-477.2"/>
<text text-anchor="start" x="657.3862" y="-483.3" font-family="Helvetica,sans-Serif" font-size="11.00" fill="#000000"> &#160;</text>
</a>
</g>
</g>
<!-- item -->
<g id="node2" class="node">
<title>item</title>
<g id="a_node2"><a xlink:href="../../tables/item.html" xlink:title="item" target="_top">
<polygon fill="#ffffff" stroke="transparent" points="144,-494.7 144,-621.7 457,-621.7 457,-494.7 144,-494.7"/>
<polygon fill="#f5f5f5" stroke="transparent" points="144.5,-598.2 144.5,-621.2 457.5,-621.2 457.5,-598.2 144.5,-598.2"/>
<polygon fill="none" stroke="#000000" points="144.5,-598.2 144.5,-621.2 457.5,-621.2 457.5,-598.2 144.5,-598.2"/>
<text text-anchor="start" x="149.5" y="-607.3" font-family="Helvetica,sans-Serif" font-weight="bold" font-size="11.00" fill="#000000">item</text>
<text text-anchor="start" x="422.5437" y="-606.3" font-family="Helvetica,sans-Serif" font-size="11.00" fill="#000000">[table]</text>
<polygon fill="none" stroke="#000000" points="144.5,-576.2 144.5,-598.2 457.5,-598.2 457.5,-576.2 144.5,-576.2"/>
<image xlink:href="../../images/primaryKeys.png" width="11px" height="12px" preserveAspectRatio="xMinYMin meet" x="149.5" y="-593.2"/>
<text text-anchor="start" x="164.5" y="-583.3" font-family="Helvetica,sans-Serif" font-size="11.00" fill="#000000">id</text>
<polygon fill="#ffffff" stroke="transparent" points="144.5,-554.2 144.5,-576.2 457.5,-576.2 457.5,-554.2 144.5,-554.2"/>
<polygon fill="none" stroke="#000000" points="144.5,-554.2 144.5,-576.2 457.5,-576.2 457.5,-554.2 144.5,-554.2"/>
<image xlink:href="../../images/foreignKeys.png" width="11px" height="12px" preserveAspectRatio="xMinYMin meet" x="149.5" y="-571.2"/>
<text text-anchor="start" x="164.5" y="-561.3" font-family="Helvetica,sans-Serif" font-size="11.00" fill="#000000">field_relationship</text>
<polygon fill="#ffffff" stroke="transparent" points="144.5,-532.2 144.5,-554.2 457.5,-554.2 457.5,-532.2 144.5,-532.2"/>
<polygon fill="none" stroke="#000000" points="144.5,-532.2 144.5,-554.2 457.5,-554.2 457.5,-532.2 144.5,-532.2"/>
<image xlink:href="../../images/foreignKeys.png" width="11px" height="12px" preserveAspectRatio="xMinYMin meet" x="149.5" y="-549.2"/>
<text text-anchor="start" x="164.5" y="-539.3" font-family="Helvetica,sans-Serif" font-size="11.00" fill="#000000">geo_specificity</text>
<polygon fill="none" stroke="#000000" points="144.5,-513.2 144.5,-532.2 457.5,-532.2 457.5,-513.2 144.5,-513.2"/>
<text text-anchor="start" x="147.5" y="-519.3" font-family="Helvetica,sans-Serif" font-size="11.00" fill="#000000">...</text>
<polygon fill="#ffffff" stroke="transparent" points="144.5,-494.2 144.5,-513.2 268.5,-513.2 268.5,-494.2 144.5,-494.2"/>
<polygon fill="none" stroke="#000000" points="144.5,-494.2 144.5,-513.2 268.5,-513.2 268.5,-494.2 144.5,-494.2"/>
<text text-anchor="start" x="147.5" y="-500.3" font-family="Helvetica,sans-Serif" font-size="11.00" fill="#000000">&lt; 2</text>
<polygon fill="#ffffff" stroke="transparent" points="268.5,-494.2 268.5,-513.2 378.5,-513.2 378.5,-494.2 268.5,-494.2"/>
<polygon fill="none" stroke="#000000" points="268.5,-494.2 268.5,-513.2 378.5,-513.2 378.5,-494.2 268.5,-494.2"/>
<text text-anchor="start" x="321.7089" y="-500.3" font-family="Helvetica,sans-Serif" font-size="11.00" fill="#000000">2,352 rows</text>
<polygon fill="#ffffff" stroke="transparent" points="378.5,-494.2 378.5,-513.2 457.5,-513.2 457.5,-494.2 378.5,-494.2"/>
<polygon fill="none" stroke="#000000" points="378.5,-494.2 378.5,-513.2 457.5,-513.2 457.5,-494.2 378.5,-494.2"/>
<text text-anchor="start" x="432.7904" y="-500.3" font-family="Helvetica,sans-Serif" font-size="11.00" fill="#000000">11 &gt;</text>
</a>
</g>
</g>
<!-- authors_to_items&#45;&gt;item -->
<g id="edge1" class="edge">
<title>authors_to_items:w&#45;&gt;item:e</title>
<path fill="none" stroke="#000000" d="M525.0046,-507.9283C491.7024,-522.1565 503.403,-587.2 457.5,-587.2"/>
<polygon fill="#000000" stroke="#000000" points="531.638,-506.6798 540.1659,-508.7379 535.569,-505.9399 539.5,-505.2 539.5,-505.2 539.5,-505.2 535.569,-505.9399 538.8341,-501.6621 531.638,-506.6798 531.638,-506.6798"/>
<ellipse fill="none" stroke="#000000" cx="528.4933" cy="-507.2717" rx="3.2" ry="3.2"/>
</g>
<!-- optionset -->
<g id="node4" class="node">
<title>optionset</title>
<g id="a_node4"><a xlink:href="../../tables/optionset.html" xlink:title="optionset" target="_top">
<polygon fill="#ffffff" stroke="transparent" points="8,-583.7 8,-644.7 95,-644.7 95,-583.7 8,-583.7"/>
<polygon fill="#f5f5f5" stroke="transparent" points="8.5,-621.2 8.5,-644.2 95.5,-644.2 95.5,-621.2 8.5,-621.2"/>
<polygon fill="none" stroke="#000000" points="8.5,-621.2 8.5,-644.2 95.5,-644.2 95.5,-621.2 8.5,-621.2"/>
<text text-anchor="start" x="13.1854" y="-630.3" font-family="Helvetica,sans-Serif" font-weight="bold" font-size="11.00" fill="#000000">optionset</text>
<text text-anchor="start" x="61.0219" y="-629.3" font-family="Helvetica,sans-Serif" font-size="11.00" fill="#000000">[table]</text>
<polygon fill="none" stroke="#000000" points="8.5,-602.2 8.5,-621.2 95.5,-621.2 95.5,-602.2 8.5,-602.2"/>
<text text-anchor="start" x="11.5" y="-608.3" font-family="Helvetica,sans-Serif" font-size="11.00" fill="#000000">...</text>
<polygon fill="#ffffff" stroke="transparent" points="8.5,-583.2 8.5,-602.2 25.5,-602.2 25.5,-583.2 8.5,-583.2"/>
<polygon fill="none" stroke="#000000" points="8.5,-583.2 8.5,-602.2 25.5,-602.2 25.5,-583.2 8.5,-583.2"/>
<text text-anchor="start" x="11.5" y="-589.3" font-family="Helvetica,sans-Serif" font-size="11.00" fill="#000000"> &#160;</text>
<polygon fill="#ffffff" stroke="transparent" points="25.5,-583.2 25.5,-602.2 71.5,-602.2 71.5,-583.2 25.5,-583.2"/>
<polygon fill="none" stroke="#000000" points="25.5,-583.2 25.5,-602.2 71.5,-602.2 71.5,-583.2 25.5,-583.2"/>
<text text-anchor="start" x="29.9956" y="-589.3" font-family="Helvetica,sans-Serif" font-size="11.00" fill="#000000">47 rows</text>
<polygon fill="#ffffff" stroke="transparent" points="71.5,-583.2 71.5,-602.2 95.5,-602.2 95.5,-583.2 71.5,-583.2"/>
<polygon fill="none" stroke="#000000" points="71.5,-583.2 71.5,-602.2 95.5,-602.2 95.5,-583.2 71.5,-583.2"/>
<text text-anchor="start" x="76.9053" y="-589.3" font-family="Helvetica,sans-Serif" font-size="11.00" fill="#000000">6 &gt;</text>
</a>
</g>
</g>
<!-- item&#45;&gt;optionset -->
<g id="edge10" class="edge">
<title>item:w&#45;&gt;optionset:e</title>
<path fill="none" stroke="#000000" d="M130.6438,-570.1228C117.3174,-581.9896 119.3031,-611.2 95.5,-611.2"/>
<polygon fill="#000000" stroke="#000000" points="136.9616,-567.8783 145.7052,-568.5923 140.7308,-566.5391 144.5,-565.2 144.5,-565.2 144.5,-565.2 140.7308,-566.5391 143.2948,-561.8077 136.9616,-567.8783 136.9616,-567.8783"/>
<ellipse fill="none" stroke="#000000" cx="133.9463" cy="-568.9496" rx="3.2" ry="3.2"/>
</g>
<!-- item&#45;&gt;optionset -->
<g id="edge11" class="edge">
<title>item:w&#45;&gt;optionset:e</title>
<path fill="none" stroke="#000000" d="M130.6785,-548.0904C113.9277,-563.6822 126.6397,-611.2 95.5,-611.2"/>
<polygon fill="#000000" stroke="#000000" points="136.9582,-545.8685 145.7008,-546.5938 140.7291,-544.5343 144.5,-543.2 144.5,-543.2 144.5,-543.2 140.7291,-544.5343 143.2992,-539.8062 136.9582,-545.8685 136.9582,-545.8685"/>
<ellipse fill="none" stroke="#000000" cx="133.9414" cy="-546.9359" rx="3.2" ry="3.2"/>
</g>
<!-- covid_tags_to_items -->
<g id="node3" class="node">
<title>covid_tags_to_items</title>
<g id="a_node3"><a xlink:href="../../tables/covid_tags_to_items.html" xlink:title="covid_tags_to_items" target="_top">
<polygon fill="#ffffff" stroke="transparent" points="531,-723.7 531,-784.7 674,-784.7 674,-723.7 531,-723.7"/>
<polygon fill="#f5f5f5" stroke="transparent" points="531.5,-761.2 531.5,-784.2 674.5,-784.2 674.5,-761.2 531.5,-761.2"/>
<polygon fill="none" stroke="#000000" points="531.5,-761.2 531.5,-784.2 674.5,-784.2 674.5,-761.2 531.5,-761.2"/>
<text text-anchor="start" x="536.3758" y="-770.3" font-family="Helvetica,sans-Serif" font-weight="bold" font-size="11.00" fill="#000000">covid_tags_to_items</text>
<text text-anchor="start" x="640.0219" y="-769.3" font-family="Helvetica,sans-Serif" font-size="11.00" fill="#000000">[table]</text>
<polygon fill="none" stroke="#000000" points="531.5,-742.2 531.5,-761.2 674.5,-761.2 674.5,-742.2 531.5,-742.2"/>
<text text-anchor="start" x="534.5" y="-748.3" font-family="Helvetica,sans-Serif" font-size="11.00" fill="#000000">...</text>
<polygon fill="#ffffff" stroke="transparent" points="531.5,-723.2 531.5,-742.2 577.5,-742.2 577.5,-723.2 531.5,-723.2"/>
<polygon fill="none" stroke="#000000" points="531.5,-723.2 531.5,-742.2 577.5,-742.2 577.5,-723.2 531.5,-723.2"/>
<text text-anchor="start" x="534.5" y="-729.3" font-family="Helvetica,sans-Serif" font-size="11.00" fill="#000000">&lt; 2</text>
<polygon fill="#ffffff" stroke="transparent" points="577.5,-723.2 577.5,-742.2 649.5,-742.2 649.5,-723.2 577.5,-723.2"/>
<polygon fill="none" stroke="#000000" points="577.5,-723.2 577.5,-742.2 649.5,-742.2 649.5,-723.2 577.5,-723.2"/>
<text text-anchor="start" x="592.7089" y="-729.3" font-family="Helvetica,sans-Serif" font-size="11.00" fill="#000000">4,810 rows</text>
<polygon fill="#ffffff" stroke="transparent" points="649.5,-723.2 649.5,-742.2 674.5,-742.2 674.5,-723.2 649.5,-723.2"/>
<polygon fill="none" stroke="#000000" points="649.5,-723.2 649.5,-742.2 674.5,-742.2 674.5,-723.2 649.5,-723.2"/>
<text text-anchor="start" x="665.3862" y="-729.3" font-family="Helvetica,sans-Serif" font-size="11.00" fill="#000000"> &#160;</text>
</a>
</g>
</g>
<!-- covid_tags_to_items&#45;&gt;item -->
<g id="edge3" class="edge">
<title>covid_tags_to_items:w&#45;&gt;item:e</title>
<path fill="none" stroke="#000000" d="M516.9775,-748.8816C462.7984,-728.9483 531.8429,-587.2 457.5,-587.2"/>
<polygon fill="#000000" stroke="#000000" points="523.6,-749.9388 530.9325,-754.755 527.55,-750.5694 531.5,-751.2 531.5,-751.2 531.5,-751.2 527.55,-750.5694 532.0675,-747.645 523.6,-749.9388 523.6,-749.9388"/>
<ellipse fill="none" stroke="#000000" cx="520.44" cy="-749.4343" rx="3.2" ry="3.2"/>
</g>
<!-- covid_tags_to_items&#45;&gt;optionset -->
<g id="edge2" class="edge">
<title>covid_tags_to_items:w&#45;&gt;optionset:e</title>
<path fill="none" stroke="#000000" d="M516.9727,-751.2097C347.7593,-751.4135 284.8505,-753.8737 136,-661.2 111.723,-646.0853 124.0977,-611.2 95.5,-611.2"/>
<polygon fill="#000000" stroke="#000000" points="523.5,-751.2054 531.5024,-754.8 527.5,-751.2027 531.5,-751.2 531.5,-751.2 531.5,-751.2 527.5,-751.2027 531.4976,-747.6 523.5,-751.2054 523.5,-751.2054"/>
<ellipse fill="none" stroke="#000000" cx="520.3" cy="-751.2075" rx="3.2" ry="3.2"/>
</g>
<!-- covid_topics_to_items -->
<g id="node5" class="node">
<title>covid_topics_to_items</title>
<g id="a_node5"><a xlink:href="../../tables/covid_topics_to_items.html" xlink:title="covid_topics_to_items" target="_top">
<polygon fill="#ffffff" stroke="transparent" points="527,-641.7 527,-702.7 678,-702.7 678,-641.7 527,-641.7"/>
<polygon fill="#f5f5f5" stroke="transparent" points="527.5,-679.2 527.5,-702.2 678.5,-702.2 678.5,-679.2 527.5,-679.2"/>
<polygon fill="none" stroke="#000000" points="527.5,-679.2 527.5,-702.2 678.5,-702.2 678.5,-679.2 527.5,-679.2"/>
<text text-anchor="start" x="532.4053" y="-688.3" font-family="Helvetica,sans-Serif" font-weight="bold" font-size="11.00" fill="#000000">covid_topics_to_items</text>
<text text-anchor="start" x="644.0219" y="-687.3" font-family="Helvetica,sans-Serif" font-size="11.00" fill="#000000">[table]</text>
<polygon fill="none" stroke="#000000" points="527.5,-660.2 527.5,-679.2 678.5,-679.2 678.5,-660.2 527.5,-660.2"/>
<text text-anchor="start" x="530.5" y="-666.3" font-family="Helvetica,sans-Serif" font-size="11.00" fill="#000000">...</text>
<polygon fill="#ffffff" stroke="transparent" points="527.5,-641.2 527.5,-660.2 588.5,-660.2 588.5,-641.2 527.5,-641.2"/>
<polygon fill="none" stroke="#000000" points="527.5,-641.2 527.5,-660.2 588.5,-660.2 588.5,-641.2 527.5,-641.2"/>
<text text-anchor="start" x="530.5" y="-647.3" font-family="Helvetica,sans-Serif" font-size="11.00" fill="#000000">&lt; 2</text>
<polygon fill="#ffffff" stroke="transparent" points="588.5,-641.2 588.5,-660.2 646.5,-660.2 646.5,-641.2 588.5,-641.2"/>
<polygon fill="none" stroke="#000000" points="588.5,-641.2 588.5,-660.2 646.5,-660.2 646.5,-641.2 588.5,-641.2"/>
<text text-anchor="start" x="611.1105" y="-647.3" font-family="Helvetica,sans-Serif" font-size="11.00" fill="#000000">0 rows</text>
<polygon fill="#ffffff" stroke="transparent" points="646.5,-641.2 646.5,-660.2 678.5,-660.2 678.5,-641.2 646.5,-641.2"/>
<polygon fill="none" stroke="#000000" points="646.5,-641.2 646.5,-660.2 678.5,-660.2 678.5,-641.2 646.5,-641.2"/>
<text text-anchor="start" x="669.3862" y="-647.3" font-family="Helvetica,sans-Serif" font-size="11.00" fill="#000000"> &#160;</text>
</a>
</g>
</g>
<!-- covid_topics_to_items&#45;&gt;item -->
<g id="edge5" class="edge">
<title>covid_topics_to_items:w&#45;&gt;item:e</title>
<path fill="none" stroke="#000000" d="M513.075,-665.8839C484.7579,-650.543 499.6151,-587.2 457.5,-587.2"/>
<polygon fill="#000000" stroke="#000000" points="519.7034,-667.4076 526.6934,-672.7085 523.6017,-668.3038 527.5,-669.2 527.5,-669.2 527.5,-669.2 523.6017,-668.3038 528.3066,-665.6915 519.7034,-667.4076 519.7034,-667.4076"/>
<ellipse fill="none" stroke="#000000" cx="516.5847" cy="-666.6907" rx="3.2" ry="3.2"/>
</g>
<!-- covid_topics_to_items&#45;&gt;optionset -->
<g id="edge4" class="edge">
<title>covid_topics_to_items:w&#45;&gt;optionset:e</title>
<path fill="none" stroke="#000000" d="M512.9479,-669.228C349.8506,-669.8503 298.9134,-680.158 136,-632.2 116.5494,-626.4742 115.7759,-611.2 95.5,-611.2"/>
<polygon fill="#000000" stroke="#000000" points="519.5,-669.2155 527.507,-672.8 523.5,-669.2077 527.5,-669.2 527.5,-669.2 527.5,-669.2 523.5,-669.2077 527.493,-665.6 519.5,-669.2155 519.5,-669.2155"/>
<ellipse fill="none" stroke="#000000" cx="516.3" cy="-669.2217" rx="3.2" ry="3.2"/>
</g>
<!-- events_to_items -->
<g id="node6" class="node">
<title>events_to_items</title>
<g id="a_node6"><a xlink:href="../../tables/events_to_items.html" xlink:title="events_to_items" target="_top">
<polygon fill="#ffffff" stroke="transparent" points="541,-395.7 541,-456.7 664,-456.7 664,-395.7 541,-395.7"/>
<polygon fill="#f5f5f5" stroke="transparent" points="541.5,-433.2 541.5,-456.2 664.5,-456.2 664.5,-433.2 541.5,-433.2"/>
<polygon fill="none" stroke="#000000" points="541.5,-433.2 541.5,-456.2 664.5,-456.2 664.5,-433.2 541.5,-433.2"/>
<text text-anchor="start" x="546.4611" y="-442.3" font-family="Helvetica,sans-Serif" font-weight="bold" font-size="11.00" fill="#000000">events_to_items</text>
<text text-anchor="start" x="630.0219" y="-441.3" font-family="Helvetica,sans-Serif" font-size="11.00" fill="#000000">[table]</text>
<polygon fill="none" stroke="#000000" points="541.5,-414.2 541.5,-433.2 664.5,-433.2 664.5,-414.2 541.5,-414.2"/>
<text text-anchor="start" x="544.5" y="-420.3" font-family="Helvetica,sans-Serif" font-size="11.00" fill="#000000">...</text>
<polygon fill="#ffffff" stroke="transparent" points="541.5,-395.2 541.5,-414.2 577.5,-414.2 577.5,-395.2 541.5,-395.2"/>
<polygon fill="none" stroke="#000000" points="541.5,-395.2 541.5,-414.2 577.5,-414.2 577.5,-395.2 541.5,-395.2"/>
<text text-anchor="start" x="544.5" y="-401.3" font-family="Helvetica,sans-Serif" font-size="11.00" fill="#000000">&lt; 2</text>
<polygon fill="#ffffff" stroke="transparent" points="577.5,-395.2 577.5,-414.2 644.5,-414.2 644.5,-395.2 577.5,-395.2"/>
<polygon fill="none" stroke="#000000" points="577.5,-395.2 577.5,-414.2 644.5,-414.2 644.5,-395.2 577.5,-395.2"/>
<text text-anchor="start" x="587.7089" y="-401.3" font-family="Helvetica,sans-Serif" font-size="11.00" fill="#000000">1,091 rows</text>
<polygon fill="#ffffff" stroke="transparent" points="644.5,-395.2 644.5,-414.2 664.5,-414.2 664.5,-395.2 644.5,-395.2"/>
<polygon fill="none" stroke="#000000" points="644.5,-395.2 644.5,-414.2 664.5,-414.2 664.5,-395.2 644.5,-395.2"/>
<text text-anchor="start" x="655.3862" y="-401.3" font-family="Helvetica,sans-Serif" font-size="11.00" fill="#000000"> &#160;</text>
</a>
</g>
</g>
<!-- events_to_items&#45;&gt;item -->
<g id="edge6" class="edge">
<title>events_to_items:w&#45;&gt;item:e</title>
<path fill="none" stroke="#000000" d="M527.1956,-425.782C512.7674,-432.0131 509.3894,-448.731 498,-467.2 468.4543,-515.1113 513.7889,-587.2 457.5,-587.2"/>
<polygon fill="#000000" stroke="#000000" points="533.6272,-424.6211 542.1395,-426.7427 537.5636,-423.9106 541.5,-423.2 541.5,-423.2 541.5,-423.2 537.5636,-423.9106 540.8605,-419.6573 533.6272,-424.6211 533.6272,-424.6211"/>
<ellipse fill="none" stroke="#000000" cx="530.4781" cy="-425.1896" rx="3.2" ry="3.2"/>
</g>
<!-- files_to_items -->
<g id="node7" class="node">
<title>files_to_items</title>
<g id="a_node7"><a xlink:href="../../tables/files_to_items.html" xlink:title="files_to_items" target="_top">
<polygon fill="#ffffff" stroke="transparent" points="547.5,-149.7 547.5,-210.7 657.5,-210.7 657.5,-149.7 547.5,-149.7"/>
<polygon fill="#f5f5f5" stroke="transparent" points="547.5,-187.2 547.5,-210.2 657.5,-210.2 657.5,-187.2 547.5,-187.2"/>
<polygon fill="none" stroke="#000000" points="547.5,-187.2 547.5,-210.2 657.5,-210.2 657.5,-187.2 547.5,-187.2"/>
<text text-anchor="start" x="552.3851" y="-196.3" font-family="Helvetica,sans-Serif" font-weight="bold" font-size="11.00" fill="#000000">files_to_items</text>
<text text-anchor="start" x="623.0219" y="-195.3" font-family="Helvetica,sans-Serif" font-size="11.00" fill="#000000">[table]</text>
<polygon fill="none" stroke="#000000" points="547.5,-168.2 547.5,-187.2 657.5,-187.2 657.5,-168.2 547.5,-168.2"/>
<text text-anchor="start" x="550.5" y="-174.3" font-family="Helvetica,sans-Serif" font-size="11.00" fill="#000000">...</text>
<polygon fill="#ffffff" stroke="transparent" points="547.5,-149.2 547.5,-168.2 577.5,-168.2 577.5,-149.2 547.5,-149.2"/>
<polygon fill="none" stroke="#000000" points="547.5,-149.2 547.5,-168.2 577.5,-168.2 577.5,-149.2 547.5,-149.2"/>
<text text-anchor="start" x="550.5" y="-155.3" font-family="Helvetica,sans-Serif" font-size="11.00" fill="#000000">&lt; 2</text>
<polygon fill="#ffffff" stroke="transparent" points="577.5,-149.2 577.5,-168.2 640.5,-168.2 640.5,-149.2 577.5,-149.2"/>
<polygon fill="none" stroke="#000000" points="577.5,-149.2 577.5,-168.2 640.5,-168.2 640.5,-149.2 577.5,-149.2"/>
<text text-anchor="start" x="583.7089" y="-155.3" font-family="Helvetica,sans-Serif" font-size="11.00" fill="#000000">1,994 rows</text>
<polygon fill="#ffffff" stroke="transparent" points="640.5,-149.2 640.5,-168.2 657.5,-168.2 657.5,-149.2 640.5,-149.2"/>
<polygon fill="none" stroke="#000000" points="640.5,-149.2 640.5,-168.2 657.5,-168.2 657.5,-149.2 640.5,-149.2"/>
<text text-anchor="start" x="648.3862" y="-155.3" font-family="Helvetica,sans-Serif" font-size="11.00" fill="#000000"> &#160;</text>
</a>
</g>
</g>
<!-- files_to_items&#45;&gt;item -->
<g id="edge8" class="edge">
<title>files_to_items:w&#45;&gt;item:e</title>
<path fill="none" stroke="#000000" d="M533.16,-179.0199C515.365,-184.1865 508.984,-199.9556 498,-221.2 460.4175,-293.8888 539.3298,-587.2 457.5,-587.2"/>
<polygon fill="#000000" stroke="#000000" points="539.5637,-178.2073 547.9533,-180.7714 543.5318,-177.7036 547.5,-177.2 547.5,-177.2 547.5,-177.2 543.5318,-177.7036 547.0467,-173.6286 539.5637,-178.2073 539.5637,-178.2073"/>
<ellipse fill="none" stroke="#000000" cx="536.3891" cy="-178.6102" rx="3.2" ry="3.2"/>
</g>
<!-- file -->
<g id="node8" class="node">
<title>file</title>
<g id="a_node8"><a xlink:href="../../tables/file.html" xlink:title="file" target="_top">
<polygon fill="#ffffff" stroke="transparent" points="207,-86.7 207,-169.7 394,-169.7 394,-86.7 207,-86.7"/>
<polygon fill="#f5f5f5" stroke="transparent" points="207.5,-146.2 207.5,-169.2 394.5,-169.2 394.5,-146.2 207.5,-146.2"/>
<polygon fill="none" stroke="#000000" points="207.5,-146.2 207.5,-169.2 394.5,-169.2 394.5,-146.2 207.5,-146.2"/>
<text text-anchor="start" x="212.5" y="-155.3" font-family="Helvetica,sans-Serif" font-weight="bold" font-size="11.00" fill="#000000">file</text>
<text text-anchor="start" x="359.5437" y="-154.3" font-family="Helvetica,sans-Serif" font-size="11.00" fill="#000000">[table]</text>
<polygon fill="none" stroke="#000000" points="207.5,-124.2 207.5,-146.2 394.5,-146.2 394.5,-124.2 207.5,-124.2"/>
<image xlink:href="../../images/primaryKeys.png" width="11px" height="12px" preserveAspectRatio="xMinYMin meet" x="212.5" y="-141.2"/>
<text text-anchor="start" x="227.5" y="-131.3" font-family="Helvetica,sans-Serif" font-size="11.00" fill="#000000">id</text>
<polygon fill="none" stroke="#000000" points="207.5,-105.2 207.5,-124.2 394.5,-124.2 394.5,-105.2 207.5,-105.2"/>
<text text-anchor="start" x="210.5" y="-111.3" font-family="Helvetica,sans-Serif" font-size="11.00" fill="#000000">...</text>
<polygon fill="#ffffff" stroke="transparent" points="207.5,-86.2 207.5,-105.2 266.5,-105.2 266.5,-86.2 207.5,-86.2"/>
<polygon fill="none" stroke="#000000" points="207.5,-86.2 207.5,-105.2 266.5,-105.2 266.5,-86.2 207.5,-86.2"/>
<text text-anchor="start" x="210.5" y="-92.3" font-family="Helvetica,sans-Serif" font-size="11.00" fill="#000000"> &#160;</text>
<polygon fill="#ffffff" stroke="transparent" points="266.5,-86.2 266.5,-105.2 349.5,-105.2 349.5,-86.2 266.5,-86.2"/>
<polygon fill="none" stroke="#000000" points="266.5,-86.2 266.5,-105.2 349.5,-105.2 349.5,-86.2 266.5,-86.2"/>
<text text-anchor="start" x="292.7089" y="-92.3" font-family="Helvetica,sans-Serif" font-size="11.00" fill="#000000">2,735 rows</text>
<polygon fill="#ffffff" stroke="transparent" points="349.5,-86.2 349.5,-105.2 394.5,-105.2 394.5,-86.2 349.5,-86.2"/>
<polygon fill="none" stroke="#000000" points="349.5,-86.2 349.5,-105.2 394.5,-105.2 394.5,-86.2 349.5,-86.2"/>
<text text-anchor="start" x="375.9053" y="-92.3" font-family="Helvetica,sans-Serif" font-size="11.00" fill="#000000">2 &gt;</text>
</a>
</g>
</g>
<!-- files_to_items&#45;&gt;file -->
<g id="edge7" class="edge">
<title>files_to_items:w&#45;&gt;file:e</title>
<path fill="none" stroke="#000000" d="M533.0855,-176.5737C474.9488,-171.349 459.9197,-135.2 394.5,-135.2"/>
<polygon fill="#000000" stroke="#000000" points="539.5075,-176.8527 547.3437,-180.7966 543.5038,-177.0263 547.5,-177.2 547.5,-177.2 547.5,-177.2 543.5038,-177.0263 547.6563,-173.6034 539.5075,-176.8527 539.5075,-176.8527"/>
<ellipse fill="none" stroke="#000000" cx="536.3106" cy="-176.7137" rx="3.2" ry="3.2"/>
</g>
<!-- funders_to_items -->
<g id="node9" class="node">
<title>funders_to_items</title>
<g id="a_node9"><a xlink:href="../../tables/funders_to_items.html" xlink:title="funders_to_items" target="_top">
<polygon fill="#ffffff" stroke="transparent" points="539,-313.7 539,-374.7 666,-374.7 666,-313.7 539,-313.7"/>
<polygon fill="#f5f5f5" stroke="transparent" points="539.5,-351.2 539.5,-374.2 666.5,-374.2 666.5,-351.2 539.5,-351.2"/>
<polygon fill="none" stroke="#000000" points="539.5,-351.2 539.5,-374.2 666.5,-374.2 666.5,-351.2 539.5,-351.2"/>
<text text-anchor="start" x="544.3227" y="-360.3" font-family="Helvetica,sans-Serif" font-weight="bold" font-size="11.00" fill="#000000">funders_to_items</text>
<text text-anchor="start" x="632.0219" y="-359.3" font-family="Helvetica,sans-Serif" font-size="11.00" fill="#000000">[table]</text>
<polygon fill="none" stroke="#000000" points="539.5,-332.2 539.5,-351.2 666.5,-351.2 666.5,-332.2 539.5,-332.2"/>
<text text-anchor="start" x="542.5" y="-338.3" font-family="Helvetica,sans-Serif" font-size="11.00" fill="#000000">...</text>
<polygon fill="#ffffff" stroke="transparent" points="539.5,-313.2 539.5,-332.2 577.5,-332.2 577.5,-313.2 539.5,-313.2"/>
<polygon fill="none" stroke="#000000" points="539.5,-313.2 539.5,-332.2 577.5,-332.2 577.5,-313.2 539.5,-313.2"/>
<text text-anchor="start" x="542.5" y="-319.3" font-family="Helvetica,sans-Serif" font-size="11.00" fill="#000000">&lt; 2</text>
<polygon fill="#ffffff" stroke="transparent" points="577.5,-313.2 577.5,-332.2 645.5,-332.2 645.5,-313.2 577.5,-313.2"/>
<polygon fill="none" stroke="#000000" points="577.5,-313.2 577.5,-332.2 645.5,-332.2 645.5,-313.2 577.5,-313.2"/>
<text text-anchor="start" x="588.7089" y="-319.3" font-family="Helvetica,sans-Serif" font-size="11.00" fill="#000000">3,210 rows</text>
<polygon fill="#ffffff" stroke="transparent" points="645.5,-313.2 645.5,-332.2 666.5,-332.2 666.5,-313.2 645.5,-313.2"/>
<polygon fill="none" stroke="#000000" points="645.5,-313.2 645.5,-332.2 666.5,-332.2 666.5,-313.2 645.5,-313.2"/>
<text text-anchor="start" x="657.3862" y="-319.3" font-family="Helvetica,sans-Serif" font-size="11.00" fill="#000000"> &#160;</text>
</a>
</g>
</g>
<!-- funders_to_items&#45;&gt;item -->
<g id="edge9" class="edge">
<title>funders_to_items:w&#45;&gt;item:e</title>
<path fill="none" stroke="#000000" d="M525.0283,-343.917C511.1409,-350.1822 507.6423,-366.5432 498,-385.2 476.9799,-425.8714 503.2822,-587.2 457.5,-587.2"/>
<polygon fill="#000000" stroke="#000000" points="531.6374,-342.6762 540.1643,-344.7382 535.5687,-341.9381 539.5,-341.2 539.5,-341.2 539.5,-341.2 535.5687,-341.9381 538.8357,-337.6618 531.6374,-342.6762 531.6374,-342.6762"/>
<ellipse fill="none" stroke="#000000" cx="528.4923" cy="-343.2667" rx="3.2" ry="3.2"/>
</g>
<!-- items_to_items -->
<g id="node10" class="node">
<title>items_to_items</title>
<g id="a_node10"><a xlink:href="../../tables/items_to_items.html" xlink:title="items_to_items" target="_top">
<polygon fill="#ffffff" stroke="transparent" points="544.5,-559.7 544.5,-620.7 660.5,-620.7 660.5,-559.7 544.5,-559.7"/>
<polygon fill="#f5f5f5" stroke="transparent" points="544.5,-597.2 544.5,-620.2 660.5,-620.2 660.5,-597.2 544.5,-597.2"/>
<polygon fill="none" stroke="#000000" points="544.5,-597.2 544.5,-620.2 660.5,-620.2 660.5,-597.2 544.5,-597.2"/>
<text text-anchor="start" x="549.0246" y="-606.3" font-family="Helvetica,sans-Serif" font-weight="bold" font-size="11.00" fill="#000000">items_to_items</text>
<text text-anchor="start" x="626.0219" y="-605.3" font-family="Helvetica,sans-Serif" font-size="11.00" fill="#000000">[table]</text>
<polygon fill="none" stroke="#000000" points="544.5,-578.2 544.5,-597.2 660.5,-597.2 660.5,-578.2 544.5,-578.2"/>
<text text-anchor="start" x="547.5" y="-584.3" font-family="Helvetica,sans-Serif" font-size="11.00" fill="#000000">...</text>
<polygon fill="#ffffff" stroke="transparent" points="544.5,-559.2 544.5,-578.2 577.5,-578.2 577.5,-559.2 544.5,-559.2"/>
<polygon fill="none" stroke="#000000" points="544.5,-559.2 544.5,-578.2 577.5,-578.2 577.5,-559.2 544.5,-559.2"/>
<text text-anchor="start" x="547.5" y="-565.3" font-family="Helvetica,sans-Serif" font-size="11.00" fill="#000000">&lt; 2</text>
<polygon fill="#ffffff" stroke="transparent" points="577.5,-559.2 577.5,-578.2 642.5,-578.2 642.5,-559.2 577.5,-559.2"/>
<polygon fill="none" stroke="#000000" points="577.5,-559.2 577.5,-578.2 642.5,-578.2 642.5,-559.2 577.5,-559.2"/>
<text text-anchor="start" x="585.7089" y="-565.3" font-family="Helvetica,sans-Serif" font-size="11.00" fill="#000000">1,288 rows</text>
<polygon fill="#ffffff" stroke="transparent" points="642.5,-559.2 642.5,-578.2 660.5,-578.2 660.5,-559.2 642.5,-559.2"/>
<polygon fill="none" stroke="#000000" points="642.5,-559.2 642.5,-578.2 660.5,-578.2 660.5,-559.2 642.5,-559.2"/>
<text text-anchor="start" x="651.3862" y="-565.3" font-family="Helvetica,sans-Serif" font-size="11.00" fill="#000000"> &#160;</text>
</a>
</g>
</g>
<!-- items_to_items&#45;&gt;item -->
<g id="edge12" class="edge">
<title>items_to_items:w&#45;&gt;item:e</title>
<path fill="none" stroke="#000000" d="M530.1186,-585.0755C502.648,-581.3122 490.8802,-582.0203 457.5,-587.2"/>
<polygon fill="#000000" stroke="#000000" points="536.5859,-586.0308 543.9739,-590.7614 540.5429,-586.6154 544.5,-587.2 544.5,-587.2 544.5,-587.2 540.5429,-586.6154 545.0261,-583.6386 536.5859,-586.0308 536.5859,-586.0308"/>
<ellipse fill="none" stroke="#000000" cx="533.4202" cy="-585.5632" rx="3.2" ry="3.2"/>
</g>
<!-- items_to_items&#45;&gt;item -->
<g id="edge13" class="edge">
<title>items_to_items:w&#45;&gt;item:e</title>
<path fill="none" stroke="#000000" d="M530.1186,-589.6786C502.648,-594.0692 490.8802,-593.243 457.5,-587.2"/>
<polygon fill="#000000" stroke="#000000" points="536.6162,-588.5588 545.1114,-590.7477 540.5581,-587.8794 544.5,-587.2 544.5,-587.2 544.5,-587.2 540.5581,-587.8794 543.8886,-583.6523 536.6162,-588.5588 536.6162,-588.5588"/>
<ellipse fill="none" stroke="#000000" cx="533.4627" cy="-589.1023" rx="3.2" ry="3.2"/>
</g>
<!-- key_topics_to_items -->
<g id="node11" class="node">
<title>key_topics_to_items</title>
<g id="a_node11"><a xlink:href="../../tables/key_topics_to_items.html" xlink:title="key_topics_to_items" target="_top">
<polygon fill="#ffffff" stroke="transparent" points="531.5,-231.7 531.5,-292.7 673.5,-292.7 673.5,-231.7 531.5,-231.7"/>
<polygon fill="#f5f5f5" stroke="transparent" points="531.5,-269.2 531.5,-292.2 673.5,-292.2 673.5,-269.2 531.5,-269.2"/>
<polygon fill="none" stroke="#000000" points="531.5,-269.2 531.5,-292.2 673.5,-292.2 673.5,-269.2 531.5,-269.2"/>
<text text-anchor="start" x="536.1832" y="-278.3" font-family="Helvetica,sans-Serif" font-weight="bold" font-size="11.00" fill="#000000">key_topics_to_items</text>
<text text-anchor="start" x="639.0219" y="-277.3" font-family="Helvetica,sans-Serif" font-size="11.00" fill="#000000">[table]</text>
<polygon fill="none" stroke="#000000" points="531.5,-250.2 531.5,-269.2 673.5,-269.2 673.5,-250.2 531.5,-250.2"/>
<text text-anchor="start" x="534.5" y="-256.3" font-family="Helvetica,sans-Serif" font-size="11.00" fill="#000000">...</text>
<polygon fill="#ffffff" stroke="transparent" points="531.5,-231.2 531.5,-250.2 577.5,-250.2 577.5,-231.2 531.5,-231.2"/>
<polygon fill="none" stroke="#000000" points="531.5,-231.2 531.5,-250.2 577.5,-250.2 577.5,-231.2 531.5,-231.2"/>
<text text-anchor="start" x="534.5" y="-237.3" font-family="Helvetica,sans-Serif" font-size="11.00" fill="#000000">&lt; 2</text>
<polygon fill="#ffffff" stroke="transparent" points="577.5,-231.2 577.5,-250.2 648.5,-250.2 648.5,-231.2 577.5,-231.2"/>
<polygon fill="none" stroke="#000000" points="577.5,-231.2 577.5,-250.2 648.5,-250.2 648.5,-231.2 577.5,-231.2"/>
<text text-anchor="start" x="591.7089" y="-237.3" font-family="Helvetica,sans-Serif" font-size="11.00" fill="#000000">2,352 rows</text>
<polygon fill="#ffffff" stroke="transparent" points="648.5,-231.2 648.5,-250.2 673.5,-250.2 673.5,-231.2 648.5,-231.2"/>
<polygon fill="none" stroke="#000000" points="648.5,-231.2 648.5,-250.2 673.5,-250.2 673.5,-231.2 648.5,-231.2"/>
<text text-anchor="start" x="664.3862" y="-237.3" font-family="Helvetica,sans-Serif" font-size="11.00" fill="#000000"> &#160;</text>
</a>
</g>
</g>
<!-- key_topics_to_items&#45;&gt;item -->
<g id="edge14" class="edge">
<title>key_topics_to_items:w&#45;&gt;item:e</title>
<path fill="none" stroke="#000000" d="M517.2304,-262.8864C506.5753,-269.9471 505.1138,-286.1941 498,-303.2 473.3985,-362.0114 521.2496,-587.2 457.5,-587.2"/>
<polygon fill="#000000" stroke="#000000" points="523.7543,-261.2011 532.4005,-262.6856 527.6271,-260.2005 531.5,-259.2 531.5,-259.2 531.5,-259.2 527.6271,-260.2005 530.5995,-255.7144 523.7543,-261.2011 523.7543,-261.2011"/>
<ellipse fill="none" stroke="#000000" cx="520.656" cy="-262.0015" rx="3.2" ry="3.2"/>
</g>
<!-- key_topics_to_items&#45;&gt;optionset -->
<g id="edge15" class="edge">
<title>key_topics_to_items:w&#45;&gt;optionset:e</title>
<path fill="none" stroke="#000000" d="M516.9289,-259.3217C326.0121,-262.5683 260.2309,-330.9293 136,-484.2 98.6951,-530.2252 154.745,-611.2 95.5,-611.2"/>
<polygon fill="#000000" stroke="#000000" points="523.5003,-259.2669 531.5301,-262.7999 527.5001,-259.2334 531.5,-259.2 531.5,-259.2 531.5,-259.2 527.5001,-259.2334 531.4699,-255.6001 523.5003,-259.2669 523.5003,-259.2669"/>
<ellipse fill="none" stroke="#000000" cx="520.3004" cy="-259.2936" rx="3.2" ry="3.2"/>
</g>
<!-- related_files_to_items -->
<g id="node12" class="node">
<title>related_files_to_items</title>
<g id="a_node12"><a xlink:href="../../tables/related_files_to_items.html" xlink:title="related_files_to_items" target="_top">
<polygon fill="#ffffff" stroke="transparent" points="506,-38.2 506,-128.2 699,-128.2 699,-38.2 506,-38.2"/>
<polygon fill="#f5f5f5" stroke="transparent" points="508.5,-103.2 508.5,-126.2 697.5,-126.2 697.5,-103.2 508.5,-103.2"/>
<polygon fill="none" stroke="#000000" points="508.5,-103.2 508.5,-126.2 697.5,-126.2 697.5,-103.2 508.5,-103.2"/>
<text text-anchor="start" x="513.5" y="-112.3" font-family="Helvetica,sans-Serif" font-weight="bold" font-size="11.00" fill="#000000">related_files_to_items</text>
<text text-anchor="start" x="662.5437" y="-111.3" font-family="Helvetica,sans-Serif" font-size="11.00" fill="#000000">[table]</text>
<polygon fill="none" stroke="#000000" points="508.5,-81.2 508.5,-103.2 655.5,-103.2 655.5,-81.2 508.5,-81.2"/>
<image xlink:href="../../images/primaryKeys.png" width="11px" height="12px" preserveAspectRatio="xMinYMin meet" x="513.5" y="-98.2"/>
<text text-anchor="start" x="528.5" y="-88.3" font-family="Helvetica,sans-Serif" font-size="11.00" fill="#000000">file</text>
<polygon fill="none" stroke="#000000" points="655.5,-81.2 655.5,-103.2 697.5,-103.2 697.5,-81.2 655.5,-81.2"/>
<text text-anchor="start" x="658.4644" y="-88.9" font-family="Helvetica,sans-Serif" font-size="11.00" fill="#000000">int4[10]</text>
<polygon fill="none" stroke="#000000" points="508.5,-59.2 508.5,-81.2 655.5,-81.2 655.5,-59.2 508.5,-59.2"/>
<image xlink:href="../../images/primaryKeys.png" width="11px" height="12px" preserveAspectRatio="xMinYMin meet" x="513.5" y="-76.2"/>
<text text-anchor="start" x="528.5" y="-66.3" font-family="Helvetica,sans-Serif" font-size="11.00" fill="#000000">item</text>
<polygon fill="none" stroke="#000000" points="655.5,-59.2 655.5,-81.2 697.5,-81.2 697.5,-59.2 655.5,-59.2"/>
<text text-anchor="start" x="658.4644" y="-66.9" font-family="Helvetica,sans-Serif" font-size="11.00" fill="#000000">int4[10]</text>
<polygon fill="#ffffff" stroke="transparent" points="508.5,-40.2 508.5,-59.2 567.5,-59.2 567.5,-40.2 508.5,-40.2"/>
<polygon fill="none" stroke="#000000" points="508.5,-40.2 508.5,-59.2 567.5,-59.2 567.5,-40.2 508.5,-40.2"/>
<text text-anchor="start" x="511.5" y="-46.3" font-family="Helvetica,sans-Serif" font-size="11.00" fill="#000000">&lt; 2</text>
<polygon fill="#ffffff" stroke="transparent" points="567.5,-40.2 567.5,-59.2 655.5,-59.2 655.5,-40.2 567.5,-40.2"/>
<polygon fill="none" stroke="#000000" points="567.5,-40.2 567.5,-59.2 655.5,-59.2 655.5,-40.2 567.5,-40.2"/>
<text text-anchor="start" x="607.8807" y="-46.3" font-family="Helvetica,sans-Serif" font-size="11.00" fill="#000000">115 rows</text>
<polygon fill="#ffffff" stroke="transparent" points="655.5,-40.2 655.5,-59.2 697.5,-59.2 697.5,-40.2 655.5,-40.2"/>
<polygon fill="none" stroke="#000000" points="655.5,-40.2 655.5,-59.2 697.5,-59.2 697.5,-40.2 655.5,-40.2"/>
<text text-anchor="start" x="678.9053" y="-46.3" font-family="Helvetica,sans-Serif" font-size="11.00" fill="#000000">0 &gt;</text>
<polygon fill="none" stroke="#000000" stroke-width="2" points="507,-39.2 507,-127.2 698,-127.2 698,-39.2 507,-39.2"/>
</a>
</g>
</g>
<!-- related_files_to_items&#45;&gt;item -->
<g id="edge17" class="edge">
<title>related_files_to_items:w&#45;&gt;item:e</title>
<path fill="none" stroke="#000000" d="M497.0916,-79.1735C460.1008,-147.8257 510.7136,-587.2 457.5,-587.2"/>
<polygon fill="#000000" stroke="#000000" points="502.2121,-75.1459 510.7257,-73.0296 505.356,-72.673 508.5,-70.2 508.5,-70.2 508.5,-70.2 505.356,-72.673 506.2743,-67.3704 502.2121,-75.1459 502.2121,-75.1459"/>
<ellipse fill="none" stroke="#000000" cx="499.6969" cy="-77.1243" rx="3.2" ry="3.2"/>
</g>
<!-- related_files_to_items&#45;&gt;file -->
<g id="edge16" class="edge">
<title>related_files_to_items:w&#45;&gt;file:e</title>
<path fill="none" stroke="#000000" d="M493.9314,-93.3501C452.7739,-100.1884 443.3629,-135.2 394.5,-135.2"/>
<polygon fill="#000000" stroke="#000000" points="500.5248,-92.8297 508.7834,-95.7888 504.5124,-92.5148 508.5,-92.2 508.5,-92.2 508.5,-92.2 504.5124,-92.5148 508.2166,-88.6112 500.5248,-92.8297 500.5248,-92.8297"/>
<ellipse fill="none" stroke="#000000" cx="497.3347" cy="-93.0815" rx="3.2" ry="3.2"/>
</g>
<!-- tags_to_items -->
<g id="node13" class="node">
<title>tags_to_items</title>
<g id="a_node13"><a xlink:href="../../tables/tags_to_items.html" xlink:title="tags_to_items" target="_top">
<polygon fill="#ffffff" stroke="transparent" points="547,-805.7 547,-866.7 658,-866.7 658,-805.7 547,-805.7"/>
<polygon fill="#f5f5f5" stroke="transparent" points="547.5,-843.2 547.5,-866.2 658.5,-866.2 658.5,-843.2 547.5,-843.2"/>
<polygon fill="none" stroke="#000000" points="547.5,-843.2 547.5,-866.2 658.5,-866.2 658.5,-843.2 547.5,-843.2"/>
<text text-anchor="start" x="552.2686" y="-852.3" font-family="Helvetica,sans-Serif" font-weight="bold" font-size="11.00" fill="#000000">tags_to_items</text>
<text text-anchor="start" x="624.0219" y="-851.3" font-family="Helvetica,sans-Serif" font-size="11.00" fill="#000000">[table]</text>
<polygon fill="none" stroke="#000000" points="547.5,-824.2 547.5,-843.2 658.5,-843.2 658.5,-824.2 547.5,-824.2"/>
<text text-anchor="start" x="550.5" y="-830.3" font-family="Helvetica,sans-Serif" font-size="11.00" fill="#000000">...</text>
<polygon fill="#ffffff" stroke="transparent" points="547.5,-805.2 547.5,-824.2 588.5,-824.2 588.5,-805.2 547.5,-805.2"/>
<polygon fill="none" stroke="#000000" points="547.5,-805.2 547.5,-824.2 588.5,-824.2 588.5,-805.2 547.5,-805.2"/>
<text text-anchor="start" x="550.5" y="-811.3" font-family="Helvetica,sans-Serif" font-size="11.00" fill="#000000">&lt; 2</text>
<polygon fill="#ffffff" stroke="transparent" points="588.5,-805.2 588.5,-824.2 636.5,-824.2 636.5,-805.2 588.5,-805.2"/>
<polygon fill="none" stroke="#000000" points="588.5,-805.2 588.5,-824.2 636.5,-824.2 636.5,-805.2 588.5,-805.2"/>
<text text-anchor="start" x="601.1105" y="-811.3" font-family="Helvetica,sans-Serif" font-size="11.00" fill="#000000">0 rows</text>
<polygon fill="#ffffff" stroke="transparent" points="636.5,-805.2 636.5,-824.2 658.5,-824.2 658.5,-805.2 636.5,-805.2"/>
<polygon fill="none" stroke="#000000" points="636.5,-805.2 636.5,-824.2 658.5,-824.2 658.5,-805.2 636.5,-805.2"/>
<text text-anchor="start" x="649.3862" y="-811.3" font-family="Helvetica,sans-Serif" font-size="11.00" fill="#000000"> &#160;</text>
</a>
</g>
</g>
<!-- tags_to_items&#45;&gt;item -->
<g id="edge18" class="edge">
<title>tags_to_items:w&#45;&gt;item:e</title>
<path fill="none" stroke="#000000" d="M532.91,-831.4596C516.546,-826.9652 509.631,-813.9934 498,-795.2 473.2185,-755.1579 504.5903,-587.2 457.5,-587.2"/>
<polygon fill="#000000" stroke="#000000" points="539.5563,-832.2524 547.0736,-836.7747 543.5282,-832.7262 547.5,-833.2 547.5,-833.2 547.5,-833.2 543.5282,-832.7262 547.9264,-829.6253 539.5563,-832.2524 539.5563,-832.2524"/>
<ellipse fill="none" stroke="#000000" cx="536.3788" cy="-831.8733" rx="3.2" ry="3.2"/>
</g>
<!-- tags_to_items&#45;&gt;optionset -->
<g id="edge19" class="edge">
<title>tags_to_items:w&#45;&gt;optionset:e</title>
<path fill="none" stroke="#000000" d="M532.9548,-833.2199C353.1336,-833.6856 272.797,-841.0679 136,-716.2 99.0581,-682.4795 145.5178,-611.2 95.5,-611.2"/>
<polygon fill="#000000" stroke="#000000" points="539.5,-833.211 547.5049,-836.8 543.5,-833.2055 547.5,-833.2 547.5,-833.2 547.5,-833.2 543.5,-833.2055 547.4951,-829.6 539.5,-833.211 539.5,-833.211"/>
<ellipse fill="none" stroke="#000000" cx="536.3" cy="-833.2154" rx="3.2" ry="3.2"/>
</g>
</g>
</svg>
