<?xml version="1.0" encoding="UTF-8" standalone="no"?>
<!DOCTYPE svg PUBLIC "-//W3C//DTD SVG 1.1//EN"
 "http://www.w3.org/Graphics/SVG/1.1/DTD/svg11.dtd">
<!-- Generated by graphviz version 2.40.1 (20161225.0304)
 -->
<!-- Title: twoDegreesRelationshipsDiagram Pages: 1 -->
<svg width="673pt" height="879pt"
 viewBox="0.00 0.00 673.00 878.70" xmlns="http://www.w3.org/2000/svg" xmlns:xlink="http://www.w3.org/1999/xlink">
<g id="graph0" class="graph" transform="scale(1 1) rotate(0) translate(4 874.7)">
<title>twoDegreesRelationshipsDiagram</title>
<polygon fill="#ffffff" stroke="transparent" points="-4,4 -4,-874.7 669,-874.7 669,4 -4,4"/>
<text text-anchor="middle" x="72.4936" y="-7.3" font-family="Helvetica,sans-Serif" font-size="11.00" fill="#000000">Generated by SchemaSpy</text>
<!-- authors_to_items -->
<g id="node1" class="node">
<title>authors_to_items</title>
<g id="a_node1"><a xlink:href="../../tables/authors_to_items.html" xlink:title="authors_to_items" target="_top">
<polygon fill="#ffffff" stroke="transparent" points="518,-641.7 518,-702.7 645,-702.7 645,-641.7 518,-641.7"/>
<polygon fill="#f5f5f5" stroke="transparent" points="518.5,-679.2 518.5,-702.2 645.5,-702.2 645.5,-679.2 518.5,-679.2"/>
<polygon fill="none" stroke="#000000" points="518.5,-679.2 518.5,-702.2 645.5,-702.2 645.5,-679.2 518.5,-679.2"/>
<text text-anchor="start" x="523.3227" y="-688.3" font-family="Helvetica,sans-Serif" font-weight="bold" font-size="11.00" fill="#000000">authors_to_items</text>
<text text-anchor="start" x="611.0219" y="-687.3" font-family="Helvetica,sans-Serif" font-size="11.00" fill="#000000">[table]</text>
<polygon fill="none" stroke="#000000" points="518.5,-660.2 518.5,-679.2 645.5,-679.2 645.5,-660.2 518.5,-660.2"/>
<text text-anchor="start" x="521.5" y="-666.3" font-family="Helvetica,sans-Serif" font-size="11.00" fill="#000000">...</text>
<polygon fill="#ffffff" stroke="transparent" points="518.5,-641.2 518.5,-660.2 556.5,-660.2 556.5,-641.2 518.5,-641.2"/>
<polygon fill="none" stroke="#000000" points="518.5,-641.2 518.5,-660.2 556.5,-660.2 556.5,-641.2 518.5,-641.2"/>
<text text-anchor="start" x="521.5" y="-647.3" font-family="Helvetica,sans-Serif" font-size="11.00" fill="#000000">&lt; 2</text>
<polygon fill="#ffffff" stroke="transparent" points="556.5,-641.2 556.5,-660.2 624.5,-660.2 624.5,-641.2 556.5,-641.2"/>
<polygon fill="none" stroke="#000000" points="556.5,-641.2 556.5,-660.2 624.5,-660.2 624.5,-641.2 556.5,-641.2"/>
<text text-anchor="start" x="567.7089" y="-647.3" font-family="Helvetica,sans-Serif" font-size="11.00" fill="#000000">2,850 rows</text>
<polygon fill="#ffffff" stroke="transparent" points="624.5,-641.2 624.5,-660.2 645.5,-660.2 645.5,-641.2 624.5,-641.2"/>
<polygon fill="none" stroke="#000000" points="624.5,-641.2 624.5,-660.2 645.5,-660.2 645.5,-641.2 624.5,-641.2"/>
<text text-anchor="start" x="636.3862" y="-647.3" font-family="Helvetica,sans-Serif" font-size="11.00" fill="#000000"> &#160;</text>
</a>
</g>
</g>
<!-- item -->
<g id="node2" class="node">
<title>item</title>
<g id="a_node2"><a xlink:href="../../tables/item.html" xlink:title="item" target="_top">
<polygon fill="#ffffff" stroke="transparent" points="144,-330.7 144,-457.7 457,-457.7 457,-330.7 144,-330.7"/>
<polygon fill="#f5f5f5" stroke="transparent" points="144.5,-434.2 144.5,-457.2 457.5,-457.2 457.5,-434.2 144.5,-434.2"/>
<polygon fill="none" stroke="#000000" points="144.5,-434.2 144.5,-457.2 457.5,-457.2 457.5,-434.2 144.5,-434.2"/>
<text text-anchor="start" x="149.5" y="-443.3" font-family="Helvetica,sans-Serif" font-weight="bold" font-size="11.00" fill="#000000">item</text>
<text text-anchor="start" x="422.5437" y="-442.3" font-family="Helvetica,sans-Serif" font-size="11.00" fill="#000000">[table]</text>
<polygon fill="none" stroke="#000000" points="144.5,-412.2 144.5,-434.2 457.5,-434.2 457.5,-412.2 144.5,-412.2"/>
<image xlink:href="../../images/primaryKeys.png" width="11px" height="12px" preserveAspectRatio="xMinYMin meet" x="149.5" y="-429.2"/>
<text text-anchor="start" x="164.5" y="-419.3" font-family="Helvetica,sans-Serif" font-size="11.00" fill="#000000">id</text>
<polygon fill="#ffffff" stroke="transparent" points="144.5,-390.2 144.5,-412.2 457.5,-412.2 457.5,-390.2 144.5,-390.2"/>
<polygon fill="none" stroke="#000000" points="144.5,-390.2 144.5,-412.2 457.5,-412.2 457.5,-390.2 144.5,-390.2"/>
<image xlink:href="../../images/foreignKeys.png" width="11px" height="12px" preserveAspectRatio="xMinYMin meet" x="149.5" y="-407.2"/>
<text text-anchor="start" x="164.5" y="-397.3" font-family="Helvetica,sans-Serif" font-size="11.00" fill="#000000">field_relationship</text>
<polygon fill="#ffffff" stroke="transparent" points="144.5,-368.2 144.5,-390.2 457.5,-390.2 457.5,-368.2 144.5,-368.2"/>
<polygon fill="none" stroke="#000000" points="144.5,-368.2 144.5,-390.2 457.5,-390.2 457.5,-368.2 144.5,-368.2"/>
<image xlink:href="../../images/foreignKeys.png" width="11px" height="12px" preserveAspectRatio="xMinYMin meet" x="149.5" y="-385.2"/>
<text text-anchor="start" x="164.5" y="-375.3" font-family="Helvetica,sans-Serif" font-size="11.00" fill="#000000">geo_specificity</text>
<polygon fill="none" stroke="#000000" points="144.5,-349.2 144.5,-368.2 457.5,-368.2 457.5,-349.2 144.5,-349.2"/>
<text text-anchor="start" x="147.5" y="-355.3" font-family="Helvetica,sans-Serif" font-size="11.00" fill="#000000">...</text>
<polygon fill="#ffffff" stroke="transparent" points="144.5,-330.2 144.5,-349.2 268.5,-349.2 268.5,-330.2 144.5,-330.2"/>
<polygon fill="none" stroke="#000000" points="144.5,-330.2 144.5,-349.2 268.5,-349.2 268.5,-330.2 144.5,-330.2"/>
<text text-anchor="start" x="147.5" y="-336.3" font-family="Helvetica,sans-Serif" font-size="11.00" fill="#000000">&lt; 2</text>
<polygon fill="#ffffff" stroke="transparent" points="268.5,-330.2 268.5,-349.2 378.5,-349.2 378.5,-330.2 268.5,-330.2"/>
<polygon fill="none" stroke="#000000" points="268.5,-330.2 268.5,-349.2 378.5,-349.2 378.5,-330.2 268.5,-330.2"/>
<text text-anchor="start" x="321.7089" y="-336.3" font-family="Helvetica,sans-Serif" font-size="11.00" fill="#000000">2,352 rows</text>
<polygon fill="#ffffff" stroke="transparent" points="378.5,-330.2 378.5,-349.2 457.5,-349.2 457.5,-330.2 378.5,-330.2"/>
<polygon fill="none" stroke="#000000" points="378.5,-330.2 378.5,-349.2 457.5,-349.2 457.5,-330.2 378.5,-330.2"/>
<text text-anchor="start" x="432.7904" y="-336.3" font-family="Helvetica,sans-Serif" font-size="11.00" fill="#000000">11 &gt;</text>
</a>
</g>
</g>
<!-- authors_to_items&#45;&gt;item -->
<g id="edge1" class="edge">
<title>authors_to_items:w&#45;&gt;item:e</title>
<path fill="none" stroke="#000000" d="M505.3282,-663.1191C470.9122,-625.2371 508.5421,-423.2 457.5,-423.2"/>
<polygon fill="#000000" stroke="#000000" points="511.2367,-665.8468 516.991,-672.4685 514.8683,-667.5234 518.5,-669.2 518.5,-669.2 518.5,-669.2 514.8683,-667.5234 520.009,-665.9315 511.2367,-665.8468 511.2367,-665.8468"/>
<ellipse fill="none" stroke="#000000" cx="508.3313" cy="-664.5055" rx="3.2" ry="3.2"/>
</g>
<!-- optionset -->
<g id="node4" class="node">
<title>optionset</title>
<g id="a_node4"><a xlink:href="../../tables/optionset.html" xlink:title="optionset" target="_top">
<polygon fill="#ffffff" stroke="transparent" points="8,-341.7 8,-424.7 95,-424.7 95,-341.7 8,-341.7"/>
<polygon fill="#f5f5f5" stroke="transparent" points="8.5,-401.2 8.5,-424.2 95.5,-424.2 95.5,-401.2 8.5,-401.2"/>
<polygon fill="none" stroke="#000000" points="8.5,-401.2 8.5,-424.2 95.5,-424.2 95.5,-401.2 8.5,-401.2"/>
<text text-anchor="start" x="13.1854" y="-410.3" font-family="Helvetica,sans-Serif" font-weight="bold" font-size="11.00" fill="#000000">optionset</text>
<text text-anchor="start" x="61.0219" y="-409.3" font-family="Helvetica,sans-Serif" font-size="11.00" fill="#000000">[table]</text>
<polygon fill="none" stroke="#000000" points="8.5,-379.2 8.5,-401.2 95.5,-401.2 95.5,-379.2 8.5,-379.2"/>
<image xlink:href="../../images/primaryKeys.png" width="11px" height="12px" preserveAspectRatio="xMinYMin meet" x="13.5" y="-396.2"/>
<text text-anchor="start" x="34.5" y="-386.3" font-family="Helvetica,sans-Serif" font-size="11.00" fill="#000000">id</text>
<polygon fill="none" stroke="#000000" points="8.5,-360.2 8.5,-379.2 95.5,-379.2 95.5,-360.2 8.5,-360.2"/>
<text text-anchor="start" x="11.5" y="-366.3" font-family="Helvetica,sans-Serif" font-size="11.00" fill="#000000">...</text>
<polygon fill="#ffffff" stroke="transparent" points="8.5,-341.2 8.5,-360.2 25.5,-360.2 25.5,-341.2 8.5,-341.2"/>
<polygon fill="none" stroke="#000000" points="8.5,-341.2 8.5,-360.2 25.5,-360.2 25.5,-341.2 8.5,-341.2"/>
<text text-anchor="start" x="11.5" y="-347.3" font-family="Helvetica,sans-Serif" font-size="11.00" fill="#000000"> &#160;</text>
<polygon fill="#ffffff" stroke="transparent" points="25.5,-341.2 25.5,-360.2 71.5,-360.2 71.5,-341.2 25.5,-341.2"/>
<polygon fill="none" stroke="#000000" points="25.5,-341.2 25.5,-360.2 71.5,-360.2 71.5,-341.2 25.5,-341.2"/>
<text text-anchor="start" x="29.9956" y="-347.3" font-family="Helvetica,sans-Serif" font-size="11.00" fill="#000000">47 rows</text>
<polygon fill="#ffffff" stroke="transparent" points="71.5,-341.2 71.5,-360.2 95.5,-360.2 95.5,-341.2 71.5,-341.2"/>
<polygon fill="none" stroke="#000000" points="71.5,-341.2 71.5,-360.2 95.5,-360.2 95.5,-341.2 71.5,-341.2"/>
<text text-anchor="start" x="76.9053" y="-347.3" font-family="Helvetica,sans-Serif" font-size="11.00" fill="#000000">6 &gt;</text>
</a>
</g>
</g>
<!-- item&#45;&gt;optionset -->
<g id="edge9" class="edge">
<title>item:w&#45;&gt;optionset:e</title>
<path fill="none" stroke="#000000" d="M130.2027,-399.3836C118.7382,-396.2593 112.0655,-390.2 95.5,-390.2"/>
<polygon fill="#000000" stroke="#000000" points="136.5638,-400.1917 144.0463,-404.7713 140.5319,-400.6958 144.5,-401.2 144.5,-401.2 144.5,-401.2 140.5319,-400.6958 144.9537,-397.6287 136.5638,-400.1917 136.5638,-400.1917"/>
<ellipse fill="none" stroke="#000000" cx="133.3893" cy="-399.7884" rx="3.2" ry="3.2"/>
</g>
<!-- item&#45;&gt;optionset -->
<g id="edge10" class="edge">
<title>item:w&#45;&gt;optionset:e</title>
<path fill="none" stroke="#000000" d="M130.2027,-381.0164C118.7382,-384.1407 112.0655,-390.2 95.5,-390.2"/>
<polygon fill="#000000" stroke="#000000" points="136.5638,-380.2083 144.9537,-382.7713 140.5319,-379.7042 144.5,-379.2 144.5,-379.2 144.5,-379.2 140.5319,-379.7042 144.0463,-375.6287 136.5638,-380.2083 136.5638,-380.2083"/>
<ellipse fill="none" stroke="#000000" cx="133.3893" cy="-380.6116" rx="3.2" ry="3.2"/>
</g>
<!-- covid_tags_to_items -->
<g id="node3" class="node">
<title>covid_tags_to_items</title>
<g id="a_node3"><a xlink:href="../../tables/covid_tags_to_items.html" xlink:title="covid_tags_to_items" target="_top">
<polygon fill="#ffffff" stroke="transparent" points="510,-805.7 510,-866.7 653,-866.7 653,-805.7 510,-805.7"/>
<polygon fill="#f5f5f5" stroke="transparent" points="510.5,-843.2 510.5,-866.2 653.5,-866.2 653.5,-843.2 510.5,-843.2"/>
<polygon fill="none" stroke="#000000" points="510.5,-843.2 510.5,-866.2 653.5,-866.2 653.5,-843.2 510.5,-843.2"/>
<text text-anchor="start" x="515.3758" y="-852.3" font-family="Helvetica,sans-Serif" font-weight="bold" font-size="11.00" fill="#000000">covid_tags_to_items</text>
<text text-anchor="start" x="619.0219" y="-851.3" font-family="Helvetica,sans-Serif" font-size="11.00" fill="#000000">[table]</text>
<polygon fill="none" stroke="#000000" points="510.5,-824.2 510.5,-843.2 653.5,-843.2 653.5,-824.2 510.5,-824.2"/>
<text text-anchor="start" x="513.5" y="-830.3" font-family="Helvetica,sans-Serif" font-size="11.00" fill="#000000">...</text>
<polygon fill="#ffffff" stroke="transparent" points="510.5,-805.2 510.5,-824.2 556.5,-824.2 556.5,-805.2 510.5,-805.2"/>
<polygon fill="none" stroke="#000000" points="510.5,-805.2 510.5,-824.2 556.5,-824.2 556.5,-805.2 510.5,-805.2"/>
<text text-anchor="start" x="513.5" y="-811.3" font-family="Helvetica,sans-Serif" font-size="11.00" fill="#000000">&lt; 2</text>
<polygon fill="#ffffff" stroke="transparent" points="556.5,-805.2 556.5,-824.2 628.5,-824.2 628.5,-805.2 556.5,-805.2"/>
<polygon fill="none" stroke="#000000" points="556.5,-805.2 556.5,-824.2 628.5,-824.2 628.5,-805.2 556.5,-805.2"/>
<text text-anchor="start" x="571.7089" y="-811.3" font-family="Helvetica,sans-Serif" font-size="11.00" fill="#000000">4,810 rows</text>
<polygon fill="#ffffff" stroke="transparent" points="628.5,-805.2 628.5,-824.2 653.5,-824.2 653.5,-805.2 628.5,-805.2"/>
<polygon fill="none" stroke="#000000" points="628.5,-805.2 628.5,-824.2 653.5,-824.2 653.5,-805.2 628.5,-805.2"/>
<text text-anchor="start" x="644.3862" y="-811.3" font-family="Helvetica,sans-Serif" font-size="11.00" fill="#000000"> &#160;</text>
</a>
</g>
</g>
<!-- covid_tags_to_items&#45;&gt;item -->
<g id="edge3" class="edge">
<title>covid_tags_to_items:w&#45;&gt;item:e</title>
<path fill="none" stroke="#000000" d="M496.5543,-829.1421C433.1874,-786.5607 543.9862,-423.2 457.5,-423.2"/>
<polygon fill="#000000" stroke="#000000" points="502.8186,-830.9648 509.4942,-836.6566 506.6593,-832.0824 510.5,-833.2 510.5,-833.2 510.5,-833.2 506.6593,-832.0824 511.5058,-829.7434 502.8186,-830.9648 502.8186,-830.9648"/>
<ellipse fill="none" stroke="#000000" cx="499.746" cy="-830.0707" rx="3.2" ry="3.2"/>
</g>
<!-- covid_tags_to_items&#45;&gt;optionset -->
<g id="edge2" class="edge">
<title>covid_tags_to_items:w&#45;&gt;optionset:e</title>
<path fill="none" stroke="#000000" d="M495.8979,-833.0686C312.1148,-829.7009 244.0263,-761.4009 136,-605.2 108.3456,-565.2131 144.1181,-390.2 95.5,-390.2"/>
<polygon fill="#000000" stroke="#000000" points="502.5003,-833.128 510.4676,-836.7999 506.5002,-833.164 510.5,-833.2 510.5,-833.2 510.5,-833.2 506.5002,-833.164 510.5324,-829.6001 502.5003,-833.128 502.5003,-833.128"/>
<ellipse fill="none" stroke="#000000" cx="499.3005" cy="-833.0991" rx="3.2" ry="3.2"/>
</g>
<!-- covid_topics_to_items -->
<g id="node5" class="node">
<title>covid_topics_to_items</title>
<g id="a_node5"><a xlink:href="../../tables/covid_topics_to_items.html" xlink:title="covid_topics_to_items" target="_top">
<polygon fill="#ffffff" stroke="transparent" points="506,-723.7 506,-784.7 657,-784.7 657,-723.7 506,-723.7"/>
<polygon fill="#f5f5f5" stroke="transparent" points="506.5,-761.2 506.5,-784.2 657.5,-784.2 657.5,-761.2 506.5,-761.2"/>
<polygon fill="none" stroke="#000000" points="506.5,-761.2 506.5,-784.2 657.5,-784.2 657.5,-761.2 506.5,-761.2"/>
<text text-anchor="start" x="511.4053" y="-770.3" font-family="Helvetica,sans-Serif" font-weight="bold" font-size="11.00" fill="#000000">covid_topics_to_items</text>
<text text-anchor="start" x="623.0219" y="-769.3" font-family="Helvetica,sans-Serif" font-size="11.00" fill="#000000">[table]</text>
<polygon fill="none" stroke="#000000" points="506.5,-742.2 506.5,-761.2 657.5,-761.2 657.5,-742.2 506.5,-742.2"/>
<text text-anchor="start" x="509.5" y="-748.3" font-family="Helvetica,sans-Serif" font-size="11.00" fill="#000000">...</text>
<polygon fill="#ffffff" stroke="transparent" points="506.5,-723.2 506.5,-742.2 567.5,-742.2 567.5,-723.2 506.5,-723.2"/>
<polygon fill="none" stroke="#000000" points="506.5,-723.2 506.5,-742.2 567.5,-742.2 567.5,-723.2 506.5,-723.2"/>
<text text-anchor="start" x="509.5" y="-729.3" font-family="Helvetica,sans-Serif" font-size="11.00" fill="#000000">&lt; 2</text>
<polygon fill="#ffffff" stroke="transparent" points="567.5,-723.2 567.5,-742.2 625.5,-742.2 625.5,-723.2 567.5,-723.2"/>
<polygon fill="none" stroke="#000000" points="567.5,-723.2 567.5,-742.2 625.5,-742.2 625.5,-723.2 567.5,-723.2"/>
<text text-anchor="start" x="590.1105" y="-729.3" font-family="Helvetica,sans-Serif" font-size="11.00" fill="#000000">0 rows</text>
<polygon fill="#ffffff" stroke="transparent" points="625.5,-723.2 625.5,-742.2 657.5,-742.2 657.5,-723.2 625.5,-723.2"/>
<polygon fill="none" stroke="#000000" points="625.5,-723.2 625.5,-742.2 657.5,-742.2 657.5,-723.2 625.5,-723.2"/>
<text text-anchor="start" x="648.3862" y="-729.3" font-family="Helvetica,sans-Serif" font-size="11.00" fill="#000000"> &#160;</text>
</a>
</g>
</g>
<!-- covid_topics_to_items&#45;&gt;item -->
<g id="edge5" class="edge">
<title>covid_topics_to_items:w&#45;&gt;item:e</title>
<path fill="none" stroke="#000000" d="M492.7939,-746.0479C446.4599,-704.3193 525.728,-423.2 457.5,-423.2"/>
<polygon fill="#000000" stroke="#000000" points="499.0116,-748.3851 505.2333,-754.5698 502.7558,-749.7925 506.5,-751.2 506.5,-751.2 506.5,-751.2 502.7558,-749.7925 507.7667,-747.8302 499.0116,-748.3851 499.0116,-748.3851"/>
<ellipse fill="none" stroke="#000000" cx="496.0162" cy="-747.2591" rx="3.2" ry="3.2"/>
</g>
<!-- covid_topics_to_items&#45;&gt;optionset -->
<g id="edge4" class="edge">
<title>covid_topics_to_items:w&#45;&gt;optionset:e</title>
<path fill="none" stroke="#000000" d="M493.0875,-745.4451C425.3581,-706.8197 151.196,-486.2887 136,-468.2 110.8747,-438.2918 134.5612,-390.2 95.5,-390.2"/>
<polygon fill="#000000" stroke="#000000" points="499.1482,-748.0455 505.0805,-754.5083 502.8241,-749.6228 506.5,-751.2 506.5,-751.2 506.5,-751.2 502.8241,-749.6228 507.9195,-747.8917 499.1482,-748.0455 499.1482,-748.0455"/>
<ellipse fill="none" stroke="#000000" cx="496.2074" cy="-746.7837" rx="3.2" ry="3.2"/>
</g>
<!-- events_to_items -->
<g id="node6" class="node">
<title>events_to_items</title>
<g id="a_node6"><a xlink:href="../../tables/events_to_items.html" xlink:title="events_to_items" target="_top">
<polygon fill="#ffffff" stroke="transparent" points="520,-559.7 520,-620.7 643,-620.7 643,-559.7 520,-559.7"/>
<polygon fill="#f5f5f5" stroke="transparent" points="520.5,-597.2 520.5,-620.2 643.5,-620.2 643.5,-597.2 520.5,-597.2"/>
<polygon fill="none" stroke="#000000" points="520.5,-597.2 520.5,-620.2 643.5,-620.2 643.5,-597.2 520.5,-597.2"/>
<text text-anchor="start" x="525.4611" y="-606.3" font-family="Helvetica,sans-Serif" font-weight="bold" font-size="11.00" fill="#000000">events_to_items</text>
<text text-anchor="start" x="609.0219" y="-605.3" font-family="Helvetica,sans-Serif" font-size="11.00" fill="#000000">[table]</text>
<polygon fill="none" stroke="#000000" points="520.5,-578.2 520.5,-597.2 643.5,-597.2 643.5,-578.2 520.5,-578.2"/>
<text text-anchor="start" x="523.5" y="-584.3" font-family="Helvetica,sans-Serif" font-size="11.00" fill="#000000">...</text>
<polygon fill="#ffffff" stroke="transparent" points="520.5,-559.2 520.5,-578.2 556.5,-578.2 556.5,-559.2 520.5,-559.2"/>
<polygon fill="none" stroke="#000000" points="520.5,-559.2 520.5,-578.2 556.5,-578.2 556.5,-559.2 520.5,-559.2"/>
<text text-anchor="start" x="523.5" y="-565.3" font-family="Helvetica,sans-Serif" font-size="11.00" fill="#000000">&lt; 2</text>
<polygon fill="#ffffff" stroke="transparent" points="556.5,-559.2 556.5,-578.2 623.5,-578.2 623.5,-559.2 556.5,-559.2"/>
<polygon fill="none" stroke="#000000" points="556.5,-559.2 556.5,-578.2 623.5,-578.2 623.5,-559.2 556.5,-559.2"/>
<text text-anchor="start" x="566.7089" y="-565.3" font-family="Helvetica,sans-Serif" font-size="11.00" fill="#000000">1,091 rows</text>
<polygon fill="#ffffff" stroke="transparent" points="623.5,-559.2 623.5,-578.2 643.5,-578.2 643.5,-559.2 623.5,-559.2"/>
<polygon fill="none" stroke="#000000" points="623.5,-559.2 623.5,-578.2 643.5,-578.2 643.5,-559.2 623.5,-559.2"/>
<text text-anchor="start" x="634.3862" y="-565.3" font-family="Helvetica,sans-Serif" font-size="11.00" fill="#000000"> &#160;</text>
</a>
</g>
</g>
<!-- events_to_items&#45;&gt;item -->
<g id="edge6" class="edge">
<title>events_to_items:w&#45;&gt;item:e</title>
<path fill="none" stroke="#000000" d="M506.1257,-584.7544C454.9888,-564.3533 529.9393,-423.2 457.5,-423.2"/>
<polygon fill="#000000" stroke="#000000" points="512.6133,-585.8581 519.8962,-590.749 516.5567,-586.5291 520.5,-587.2 520.5,-587.2 520.5,-587.2 516.5567,-586.5291 521.1038,-583.651 512.6133,-585.8581 512.6133,-585.8581"/>
<ellipse fill="none" stroke="#000000" cx="509.4587" cy="-585.3214" rx="3.2" ry="3.2"/>
</g>
<!-- files_to_items -->
<g id="node7" class="node">
<title>files_to_items</title>
<g id="a_node7"><a xlink:href="../../tables/files_to_items.html" xlink:title="files_to_items" target="_top">
<polygon fill="#ffffff" stroke="transparent" points="526.5,-477.7 526.5,-538.7 636.5,-538.7 636.5,-477.7 526.5,-477.7"/>
<polygon fill="#f5f5f5" stroke="transparent" points="526.5,-515.2 526.5,-538.2 636.5,-538.2 636.5,-515.2 526.5,-515.2"/>
<polygon fill="none" stroke="#000000" points="526.5,-515.2 526.5,-538.2 636.5,-538.2 636.5,-515.2 526.5,-515.2"/>
<text text-anchor="start" x="531.3851" y="-524.3" font-family="Helvetica,sans-Serif" font-weight="bold" font-size="11.00" fill="#000000">files_to_items</text>
<text text-anchor="start" x="602.0219" y="-523.3" font-family="Helvetica,sans-Serif" font-size="11.00" fill="#000000">[table]</text>
<polygon fill="none" stroke="#000000" points="526.5,-496.2 526.5,-515.2 636.5,-515.2 636.5,-496.2 526.5,-496.2"/>
<text text-anchor="start" x="529.5" y="-502.3" font-family="Helvetica,sans-Serif" font-size="11.00" fill="#000000">...</text>
<polygon fill="#ffffff" stroke="transparent" points="526.5,-477.2 526.5,-496.2 556.5,-496.2 556.5,-477.2 526.5,-477.2"/>
<polygon fill="none" stroke="#000000" points="526.5,-477.2 526.5,-496.2 556.5,-496.2 556.5,-477.2 526.5,-477.2"/>
<text text-anchor="start" x="529.5" y="-483.3" font-family="Helvetica,sans-Serif" font-size="11.00" fill="#000000">&lt; 2</text>
<polygon fill="#ffffff" stroke="transparent" points="556.5,-477.2 556.5,-496.2 619.5,-496.2 619.5,-477.2 556.5,-477.2"/>
<polygon fill="none" stroke="#000000" points="556.5,-477.2 556.5,-496.2 619.5,-496.2 619.5,-477.2 556.5,-477.2"/>
<text text-anchor="start" x="562.7089" y="-483.3" font-family="Helvetica,sans-Serif" font-size="11.00" fill="#000000">1,994 rows</text>
<polygon fill="#ffffff" stroke="transparent" points="619.5,-477.2 619.5,-496.2 636.5,-496.2 636.5,-477.2 619.5,-477.2"/>
<polygon fill="none" stroke="#000000" points="619.5,-477.2 619.5,-496.2 636.5,-496.2 636.5,-477.2 619.5,-477.2"/>
<text text-anchor="start" x="627.3862" y="-483.3" font-family="Helvetica,sans-Serif" font-size="11.00" fill="#000000"> &#160;</text>
</a>
</g>
</g>
<!-- files_to_items&#45;&gt;item -->
<g id="edge7" class="edge">
<title>files_to_items:w&#45;&gt;item:e</title>
<path fill="none" stroke="#000000" d="M512.1849,-501.8839C484.1462,-486.543 499.3625,-423.2 457.5,-423.2"/>
<polygon fill="#000000" stroke="#000000" points="518.7064,-503.3946 525.6876,-508.7071 522.6032,-504.2973 526.5,-505.2 526.5,-505.2 526.5,-505.2 522.6032,-504.2973 527.3124,-501.6929 518.7064,-503.3946 518.7064,-503.3946"/>
<ellipse fill="none" stroke="#000000" cx="515.5889" cy="-502.6724" rx="3.2" ry="3.2"/>
</g>
<!-- funders_to_items -->
<g id="node8" class="node">
<title>funders_to_items</title>
<g id="a_node8"><a xlink:href="../../tables/funders_to_items.html" xlink:title="funders_to_items" target="_top">
<polygon fill="#ffffff" stroke="transparent" points="518,-395.7 518,-456.7 645,-456.7 645,-395.7 518,-395.7"/>
<polygon fill="#f5f5f5" stroke="transparent" points="518.5,-433.2 518.5,-456.2 645.5,-456.2 645.5,-433.2 518.5,-433.2"/>
<polygon fill="none" stroke="#000000" points="518.5,-433.2 518.5,-456.2 645.5,-456.2 645.5,-433.2 518.5,-433.2"/>
<text text-anchor="start" x="523.3227" y="-442.3" font-family="Helvetica,sans-Serif" font-weight="bold" font-size="11.00" fill="#000000">funders_to_items</text>
<text text-anchor="start" x="611.0219" y="-441.3" font-family="Helvetica,sans-Serif" font-size="11.00" fill="#000000">[table]</text>
<polygon fill="none" stroke="#000000" points="518.5,-414.2 518.5,-433.2 645.5,-433.2 645.5,-414.2 518.5,-414.2"/>
<text text-anchor="start" x="521.5" y="-420.3" font-family="Helvetica,sans-Serif" font-size="11.00" fill="#000000">...</text>
<polygon fill="#ffffff" stroke="transparent" points="518.5,-395.2 518.5,-414.2 556.5,-414.2 556.5,-395.2 518.5,-395.2"/>
<polygon fill="none" stroke="#000000" points="518.5,-395.2 518.5,-414.2 556.5,-414.2 556.5,-395.2 518.5,-395.2"/>
<text text-anchor="start" x="521.5" y="-401.3" font-family="Helvetica,sans-Serif" font-size="11.00" fill="#000000">&lt; 2</text>
<polygon fill="#ffffff" stroke="transparent" points="556.5,-395.2 556.5,-414.2 624.5,-414.2 624.5,-395.2 556.5,-395.2"/>
<polygon fill="none" stroke="#000000" points="556.5,-395.2 556.5,-414.2 624.5,-414.2 624.5,-395.2 556.5,-395.2"/>
<text text-anchor="start" x="567.7089" y="-401.3" font-family="Helvetica,sans-Serif" font-size="11.00" fill="#000000">3,210 rows</text>
<polygon fill="#ffffff" stroke="transparent" points="624.5,-395.2 624.5,-414.2 645.5,-414.2 645.5,-395.2 624.5,-395.2"/>
<polygon fill="none" stroke="#000000" points="624.5,-395.2 624.5,-414.2 645.5,-414.2 645.5,-395.2 624.5,-395.2"/>
<text text-anchor="start" x="636.3862" y="-401.3" font-family="Helvetica,sans-Serif" font-size="11.00" fill="#000000"> &#160;</text>
</a>
</g>
</g>
<!-- funders_to_items&#45;&gt;item -->
<g id="edge8" class="edge">
<title>funders_to_items:w&#45;&gt;item:e</title>
<path fill="none" stroke="#000000" d="M503.6762,-423.2C487.6248,-423.2 478.8924,-423.2 457.5,-423.2"/>
<polygon fill="#000000" stroke="#000000" points="510.5,-423.2001 518.5,-426.8 514.5,-423.2 518.5,-423.2 518.5,-423.2 518.5,-423.2 514.5,-423.2 518.5,-419.6 510.5,-423.2001 510.5,-423.2001"/>
<ellipse fill="none" stroke="#000000" cx="507.3" cy="-423.2001" rx="3.2" ry="3.2"/>
</g>
<!-- items_to_items -->
<g id="node9" class="node">
<title>items_to_items</title>
<g id="a_node9"><a xlink:href="../../tables/items_to_items.html" xlink:title="items_to_items" target="_top">
<polygon fill="#ffffff" stroke="transparent" points="523.5,-313.7 523.5,-374.7 639.5,-374.7 639.5,-313.7 523.5,-313.7"/>
<polygon fill="#f5f5f5" stroke="transparent" points="523.5,-351.2 523.5,-374.2 639.5,-374.2 639.5,-351.2 523.5,-351.2"/>
<polygon fill="none" stroke="#000000" points="523.5,-351.2 523.5,-374.2 639.5,-374.2 639.5,-351.2 523.5,-351.2"/>
<text text-anchor="start" x="528.0246" y="-360.3" font-family="Helvetica,sans-Serif" font-weight="bold" font-size="11.00" fill="#000000">items_to_items</text>
<text text-anchor="start" x="605.0219" y="-359.3" font-family="Helvetica,sans-Serif" font-size="11.00" fill="#000000">[table]</text>
<polygon fill="none" stroke="#000000" points="523.5,-332.2 523.5,-351.2 639.5,-351.2 639.5,-332.2 523.5,-332.2"/>
<text text-anchor="start" x="526.5" y="-338.3" font-family="Helvetica,sans-Serif" font-size="11.00" fill="#000000">...</text>
<polygon fill="#ffffff" stroke="transparent" points="523.5,-313.2 523.5,-332.2 556.5,-332.2 556.5,-313.2 523.5,-313.2"/>
<polygon fill="none" stroke="#000000" points="523.5,-313.2 523.5,-332.2 556.5,-332.2 556.5,-313.2 523.5,-313.2"/>
<text text-anchor="start" x="526.5" y="-319.3" font-family="Helvetica,sans-Serif" font-size="11.00" fill="#000000">&lt; 2</text>
<polygon fill="#ffffff" stroke="transparent" points="556.5,-313.2 556.5,-332.2 621.5,-332.2 621.5,-313.2 556.5,-313.2"/>
<polygon fill="none" stroke="#000000" points="556.5,-313.2 556.5,-332.2 621.5,-332.2 621.5,-313.2 556.5,-313.2"/>
<text text-anchor="start" x="564.7089" y="-319.3" font-family="Helvetica,sans-Serif" font-size="11.00" fill="#000000">1,288 rows</text>
<polygon fill="#ffffff" stroke="transparent" points="621.5,-313.2 621.5,-332.2 639.5,-332.2 639.5,-313.2 621.5,-313.2"/>
<polygon fill="none" stroke="#000000" points="621.5,-313.2 621.5,-332.2 639.5,-332.2 639.5,-313.2 621.5,-313.2"/>
<text text-anchor="start" x="630.3862" y="-319.3" font-family="Helvetica,sans-Serif" font-size="11.00" fill="#000000"> &#160;</text>
</a>
</g>
</g>
<!-- items_to_items&#45;&gt;item -->
<g id="edge11" class="edge">
<title>items_to_items:w&#45;&gt;item:e</title>
<path fill="none" stroke="#000000" d="M509.1511,-342.7547C482.4468,-354.5125 498.4351,-417.95 457.5,-423.2"/>
<polygon fill="#000000" stroke="#000000" points="515.5465,-342.0618 523.8878,-344.7791 519.5233,-341.6309 523.5,-341.2 523.5,-341.2 523.5,-341.2 519.5233,-341.6309 523.1122,-337.6209 515.5465,-342.0618 515.5465,-342.0618"/>
<ellipse fill="none" stroke="#000000" cx="512.3652" cy="-342.4065" rx="3.2" ry="3.2"/>
</g>
<!-- items_to_items&#45;&gt;item -->
<g id="edge12" class="edge">
<title>items_to_items:w&#45;&gt;item:e</title>
<path fill="none" stroke="#000000" d="M509.8767,-346.4869C482.1568,-366.1965 498.8006,-429.3797 457.5,-423.2"/>
<polygon fill="#000000" stroke="#000000" points="516.0419,-344.0943 524.8025,-344.5561 519.771,-342.6472 523.5,-341.2 523.5,-341.2 523.5,-341.2 519.771,-342.6472 522.1975,-337.8439 516.0419,-344.0943 516.0419,-344.0943"/>
<ellipse fill="none" stroke="#000000" cx="513.0587" cy="-345.2521" rx="3.2" ry="3.2"/>
</g>
<!-- key_topics_to_items -->
<g id="node10" class="node">
<title>key_topics_to_items</title>
<g id="a_node10"><a xlink:href="../../tables/key_topics_to_items.html" xlink:title="key_topics_to_items" target="_top">
<polygon fill="#ffffff" stroke="transparent" points="510.5,-149.7 510.5,-210.7 652.5,-210.7 652.5,-149.7 510.5,-149.7"/>
<polygon fill="#f5f5f5" stroke="transparent" points="510.5,-187.2 510.5,-210.2 652.5,-210.2 652.5,-187.2 510.5,-187.2"/>
<polygon fill="none" stroke="#000000" points="510.5,-187.2 510.5,-210.2 652.5,-210.2 652.5,-187.2 510.5,-187.2"/>
<text text-anchor="start" x="515.1832" y="-196.3" font-family="Helvetica,sans-Serif" font-weight="bold" font-size="11.00" fill="#000000">key_topics_to_items</text>
<text text-anchor="start" x="618.0219" y="-195.3" font-family="Helvetica,sans-Serif" font-size="11.00" fill="#000000">[table]</text>
<polygon fill="none" stroke="#000000" points="510.5,-168.2 510.5,-187.2 652.5,-187.2 652.5,-168.2 510.5,-168.2"/>
<text text-anchor="start" x="513.5" y="-174.3" font-family="Helvetica,sans-Serif" font-size="11.00" fill="#000000">...</text>
<polygon fill="#ffffff" stroke="transparent" points="510.5,-149.2 510.5,-168.2 556.5,-168.2 556.5,-149.2 510.5,-149.2"/>
<polygon fill="none" stroke="#000000" points="510.5,-149.2 510.5,-168.2 556.5,-168.2 556.5,-149.2 510.5,-149.2"/>
<text text-anchor="start" x="513.5" y="-155.3" font-family="Helvetica,sans-Serif" font-size="11.00" fill="#000000">&lt; 2</text>
<polygon fill="#ffffff" stroke="transparent" points="556.5,-149.2 556.5,-168.2 627.5,-168.2 627.5,-149.2 556.5,-149.2"/>
<polygon fill="none" stroke="#000000" points="556.5,-149.2 556.5,-168.2 627.5,-168.2 627.5,-149.2 556.5,-149.2"/>
<text text-anchor="start" x="570.7089" y="-155.3" font-family="Helvetica,sans-Serif" font-size="11.00" fill="#000000">2,352 rows</text>
<polygon fill="#ffffff" stroke="transparent" points="627.5,-149.2 627.5,-168.2 652.5,-168.2 652.5,-149.2 627.5,-149.2"/>
<polygon fill="none" stroke="#000000" points="627.5,-149.2 627.5,-168.2 652.5,-168.2 652.5,-149.2 627.5,-149.2"/>
<text text-anchor="start" x="643.3862" y="-155.3" font-family="Helvetica,sans-Serif" font-size="11.00" fill="#000000"> &#160;</text>
</a>
</g>
</g>
<!-- key_topics_to_items&#45;&gt;item -->
<g id="edge13" class="edge">
<title>key_topics_to_items:w&#45;&gt;item:e</title>
<path fill="none" stroke="#000000" d="M496.0719,-178.9023C414.6527,-200.6369 563.881,-423.2 457.5,-423.2"/>
<polygon fill="#000000" stroke="#000000" points="502.5551,-178.1374 510.9218,-180.7752 506.5276,-177.6687 510.5,-177.2 510.5,-177.2 510.5,-177.2 506.5276,-177.6687 510.0782,-173.6248 502.5551,-178.1374 502.5551,-178.1374"/>
<ellipse fill="none" stroke="#000000" cx="499.3771" cy="-178.5124" rx="3.2" ry="3.2"/>
</g>
<!-- key_topics_to_items&#45;&gt;optionset -->
<g id="edge14" class="edge">
<title>key_topics_to_items:w&#45;&gt;optionset:e</title>
<path fill="none" stroke="#000000" d="M495.8927,-177.2651C328.8973,-178.7974 267.8583,-207.8875 136,-320.2 108.6375,-343.5065 131.443,-390.2 95.5,-390.2"/>
<polygon fill="#000000" stroke="#000000" points="502.5001,-177.2357 510.5161,-180.8 506.5,-177.2179 510.5,-177.2 510.5,-177.2 510.5,-177.2 506.5,-177.2179 510.4839,-173.6 502.5001,-177.2357 502.5001,-177.2357"/>
<ellipse fill="none" stroke="#000000" cx="499.3001" cy="-177.25" rx="3.2" ry="3.2"/>
</g>
<!-- related_files_to_items -->
<g id="node11" class="node">
<title>related_files_to_items</title>
<g id="a_node11"><a xlink:href="../../tables/related_files_to_items.html" xlink:title="related_files_to_items" target="_top">
<polygon fill="#ffffff" stroke="transparent" points="507,-231.7 507,-292.7 656,-292.7 656,-231.7 507,-231.7"/>
<polygon fill="#f5f5f5" stroke="transparent" points="507.5,-269.2 507.5,-292.2 656.5,-292.2 656.5,-269.2 507.5,-269.2"/>
<polygon fill="none" stroke="#000000" points="507.5,-269.2 507.5,-292.2 656.5,-292.2 656.5,-269.2 507.5,-269.2"/>
<text text-anchor="start" x="512.018" y="-278.3" font-family="Helvetica,sans-Serif" font-weight="bold" font-size="11.00" fill="#000000">related_files_to_items</text>
<text text-anchor="start" x="622.0219" y="-277.3" font-family="Helvetica,sans-Serif" font-size="11.00" fill="#000000">[table]</text>
<polygon fill="none" stroke="#000000" points="507.5,-250.2 507.5,-269.2 656.5,-269.2 656.5,-250.2 507.5,-250.2"/>
<text text-anchor="start" x="510.5" y="-256.3" font-family="Helvetica,sans-Serif" font-size="11.00" fill="#000000">...</text>
<polygon fill="#ffffff" stroke="transparent" points="507.5,-231.2 507.5,-250.2 561.5,-250.2 561.5,-231.2 507.5,-231.2"/>
<polygon fill="none" stroke="#000000" points="507.5,-231.2 507.5,-250.2 561.5,-250.2 561.5,-231.2 507.5,-231.2"/>
<text text-anchor="start" x="510.5" y="-237.3" font-family="Helvetica,sans-Serif" font-size="11.00" fill="#000000">&lt; 2</text>
<polygon fill="#ffffff" stroke="transparent" points="561.5,-231.2 561.5,-250.2 627.5,-250.2 627.5,-231.2 561.5,-231.2"/>
<polygon fill="none" stroke="#000000" points="561.5,-231.2 561.5,-250.2 627.5,-250.2 627.5,-231.2 561.5,-231.2"/>
<text text-anchor="start" x="579.8807" y="-237.3" font-family="Helvetica,sans-Serif" font-size="11.00" fill="#000000">115 rows</text>
<polygon fill="#ffffff" stroke="transparent" points="627.5,-231.2 627.5,-250.2 656.5,-250.2 656.5,-231.2 627.5,-231.2"/>
<polygon fill="none" stroke="#000000" points="627.5,-231.2 627.5,-250.2 656.5,-250.2 656.5,-231.2 627.5,-231.2"/>
<text text-anchor="start" x="647.3862" y="-237.3" font-family="Helvetica,sans-Serif" font-size="11.00" fill="#000000"> &#160;</text>
</a>
</g>
</g>
<!-- related_files_to_items&#45;&gt;item -->
<g id="edge15" class="edge">
<title>related_files_to_items:w&#45;&gt;item:e</title>
<path fill="none" stroke="#000000" d="M493.0378,-261.9097C445.8629,-283.2328 527.8968,-423.2 457.5,-423.2"/>
<polygon fill="#000000" stroke="#000000" points="499.6368,-260.6733 508.163,-262.7384 503.5684,-259.9367 507.5,-259.2 507.5,-259.2 507.5,-259.2 503.5684,-259.9367 506.837,-255.6616 499.6368,-260.6733 499.6368,-260.6733"/>
<ellipse fill="none" stroke="#000000" cx="496.4916" cy="-261.2627" rx="3.2" ry="3.2"/>
</g>
<!-- tags_to_items -->
<g id="node12" class="node">
<title>tags_to_items</title>
<g id="a_node12"><a xlink:href="../../tables/tags_to_items.html" xlink:title="tags_to_items" target="_top">
<polygon fill="#ffffff" stroke="transparent" points="508,-38.2 508,-128.2 655,-128.2 655,-38.2 508,-38.2"/>
<polygon fill="#f5f5f5" stroke="transparent" points="510.5,-103.2 510.5,-126.2 653.5,-126.2 653.5,-103.2 510.5,-103.2"/>
<polygon fill="none" stroke="#000000" points="510.5,-103.2 510.5,-126.2 653.5,-126.2 653.5,-103.2 510.5,-103.2"/>
<text text-anchor="start" x="515.5" y="-112.3" font-family="Helvetica,sans-Serif" font-weight="bold" font-size="11.00" fill="#000000">tags_to_items</text>
<text text-anchor="start" x="618.5437" y="-111.3" font-family="Helvetica,sans-Serif" font-size="11.00" fill="#000000">[table]</text>
<polygon fill="none" stroke="#000000" points="510.5,-81.2 510.5,-103.2 611.5,-103.2 611.5,-81.2 510.5,-81.2"/>
<image xlink:href="../../images/primaryKeys.png" width="11px" height="12px" preserveAspectRatio="xMinYMin meet" x="515.5" y="-98.2"/>
<text text-anchor="start" x="530.5" y="-88.3" font-family="Helvetica,sans-Serif" font-size="11.00" fill="#000000">item</text>
<polygon fill="none" stroke="#000000" points="611.5,-81.2 611.5,-103.2 653.5,-103.2 653.5,-81.2 611.5,-81.2"/>
<text text-anchor="start" x="614.4644" y="-88.9" font-family="Helvetica,sans-Serif" font-size="11.00" fill="#000000">int4[10]</text>
<polygon fill="none" stroke="#000000" points="510.5,-59.2 510.5,-81.2 611.5,-81.2 611.5,-59.2 510.5,-59.2"/>
<image xlink:href="../../images/primaryKeys.png" width="11px" height="12px" preserveAspectRatio="xMinYMin meet" x="515.5" y="-76.2"/>
<text text-anchor="start" x="530.5" y="-66.3" font-family="Helvetica,sans-Serif" font-size="11.00" fill="#000000">tag</text>
<polygon fill="none" stroke="#000000" points="611.5,-59.2 611.5,-81.2 653.5,-81.2 653.5,-59.2 611.5,-59.2"/>
<text text-anchor="start" x="614.4644" y="-66.9" font-family="Helvetica,sans-Serif" font-size="11.00" fill="#000000">int4[10]</text>
<polygon fill="#ffffff" stroke="transparent" points="510.5,-40.2 510.5,-59.2 552.5,-59.2 552.5,-40.2 510.5,-40.2"/>
<polygon fill="none" stroke="#000000" points="510.5,-40.2 510.5,-59.2 552.5,-59.2 552.5,-40.2 510.5,-40.2"/>
<text text-anchor="start" x="513.5" y="-46.3" font-family="Helvetica,sans-Serif" font-size="11.00" fill="#000000">&lt; 2</text>
<polygon fill="#ffffff" stroke="transparent" points="552.5,-40.2 552.5,-59.2 611.5,-59.2 611.5,-40.2 552.5,-40.2"/>
<polygon fill="none" stroke="#000000" points="552.5,-40.2 552.5,-59.2 611.5,-59.2 611.5,-40.2 552.5,-40.2"/>
<text text-anchor="start" x="576.1105" y="-46.3" font-family="Helvetica,sans-Serif" font-size="11.00" fill="#000000">0 rows</text>
<polygon fill="#ffffff" stroke="transparent" points="611.5,-40.2 611.5,-59.2 653.5,-59.2 653.5,-40.2 611.5,-40.2"/>
<polygon fill="none" stroke="#000000" points="611.5,-40.2 611.5,-59.2 653.5,-59.2 653.5,-40.2 611.5,-40.2"/>
<text text-anchor="start" x="634.9053" y="-46.3" font-family="Helvetica,sans-Serif" font-size="11.00" fill="#000000">0 &gt;</text>
<polygon fill="none" stroke="#000000" stroke-width="2" points="509,-39.2 509,-127.2 654,-127.2 654,-39.2 509,-39.2"/>
</a>
</g>
</g>
<!-- tags_to_items&#45;&gt;item -->
<g id="edge16" class="edge">
<title>tags_to_items:w&#45;&gt;item:e</title>
<path fill="none" stroke="#000000" d="M496.8924,-97.1359C448.99,-138.3113 526.6093,-423.2 457.5,-423.2"/>
<polygon fill="#000000" stroke="#000000" points="502.9795,-94.928 511.7276,-95.5842 506.7397,-93.564 510.5,-92.2 510.5,-92.2 510.5,-92.2 506.7397,-93.564 509.2724,-88.8158 502.9795,-94.928 502.9795,-94.928"/>
<ellipse fill="none" stroke="#000000" cx="499.9713" cy="-96.0192" rx="3.2" ry="3.2"/>
</g>
<!-- tags_to_items&#45;&gt;optionset -->
<g id="edge17" class="edge">
<title>tags_to_items:w&#45;&gt;optionset:e</title>
<path fill="none" stroke="#000000" d="M496.0225,-70.1499C332.8059,-69.0491 249.4833,-51.3673 136,-175.2 70.3046,-246.8867 192.7361,-390.2 95.5,-390.2"/>
<polygon fill="#000000" stroke="#000000" points="502.5,-70.1723 510.4875,-73.8 506.5,-70.1861 510.5,-70.2 510.5,-70.2 510.5,-70.2 506.5,-70.1861 510.5125,-66.6 502.5,-70.1723 502.5,-70.1723"/>
<ellipse fill="none" stroke="#000000" cx="499.3001" cy="-70.1612" rx="3.2" ry="3.2"/>
</g>
</g>
</svg>
